<?xml version="1.0" standalone="no"?>
<!DOCTYPE svg PUBLIC "-//W3C//DTD SVG 1.1//EN" "http://www.w3.org/Graphics/SVG/1.1/DTD/svg11.dtd" >
<svg xmlns="http://www.w3.org/2000/svg">
<metadata>
Created by FontPrep 20130207 at Fri Aug 12 10:45:09 2016
 By Joel Aldoyn
JAM Type Design
</metadata>
<defs>
<font id="fc9d4462237e7f5754ea7ee2f2de6e2f" horiz-adv-x='1024' >
  <font-face 
    font-family="TomaSans-Light"
    font-weight="300"
    font-stretch="normal"
    units-per-em="2048"
    panose-1="0 0 4 0 0 0 0 0 0 0"
    ascent="1638"
    descent="-410"
    x-height="1022"
    cap-height="1434"
    bbox="-772 -631 2431 2324"
    underline-thickness="102"
    underline-position="-102"
    unicode-range="U+0020-AB53"
  />
<missing-glyph horiz-adv-x="1075" 
d="M717 -121h-359v-72h152l-152 -100v-72h359v72h-219l149 100h70v72zM645 100v-100h-215v100h215zM717 172h-359v-244h359v244zM717 545h-215v-121h71v49h72v-100h-215v172h-72v-244h359v244zM717 807h-72v-143h-287v-72h359v215zM717 936h-359v-72h144v-80h-144v-69h215
v149h144v72zM502 1145v-78h-72v78h72zM573 1217h-215v-224h359v74h-144v150zM717 1495h-357v-72h142v-80h-144v-69h359v69h-144v80h144v72zM883 1638v-2150h-682v2150h682z" />
    <glyph glyph-name=".notdef" horiz-adv-x="1075" 
d="M717 -121h-359v-72h152l-152 -100v-72h359v72h-219l149 100h70v72zM645 100v-100h-215v100h215zM717 172h-359v-244h359v244zM717 545h-215v-121h71v49h72v-100h-215v172h-72v-244h359v244zM717 807h-72v-143h-287v-72h359v215zM717 936h-359v-72h144v-80h-144v-69h215
v149h144v72zM502 1145v-78h-72v78h72zM573 1217h-215v-224h359v74h-144v150zM717 1495h-357v-72h142v-80h-144v-69h359v69h-144v80h144v72zM883 1638v-2150h-682v2150h682z" />
    <glyph glyph-name=".null" horiz-adv-x="0" 
 />
    <glyph glyph-name="nonmarkingreturn" horiz-adv-x="681" 
 />
    <glyph glyph-name="space" unicode=" " horiz-adv-x="614" 
 />
    <glyph glyph-name="exclam" unicode="!" horiz-adv-x="475" 
d="M238 -6q-31 0 -53 22t-21 52q0 30 22 52t52 22t52 -22t22 -52t-22 -52q-21 -22 -52 -22zM199 412v1089h80v-1089h-80z" />
    <glyph glyph-name="quotedbl" unicode="&#x22;" horiz-adv-x="544" 
d="M309 1112l-45 18l117 340l72 -26zM133 1112l-47 18l117 340l73 -26z" />
    <glyph glyph-name="numbersign" unicode="#" horiz-adv-x="1689" 
d="M1049 475l174 479h-561l-177 -479h564zM1593 954h-307l-176 -479h281v-59h-301l-158 -430l-55 18l149 412h-563l-158 -430l-55 18l151 412h-305v59h326l176 479h-299v62h322l163 448l58 -16l-158 -432h561l164 450l57 -18l-157 -432h284v-62z" />
    <glyph glyph-name="dollar" unicode="$" horiz-adv-x="1245" 
d="M1018 378q0 124 -91 190t-265 106l-3 -582q164 2 262 82q97 80 97 204zM264 1059q0 -201 320 -277v566q-148 -4 -234 -83t-86 -206zM1108 381q0 -166 -123 -271t-326 -108v-182h-75v184q-342 29 -455 311l84 45q84 -240 371 -266v596q-408 94 -408 369q0 164 112 269
t296 110v182h80v-184q319 -29 413 -320l-84 -29q-76 231 -329 256l-2 -579q446 -88 446 -383z" />
    <glyph glyph-name="percent" unicode="%" horiz-adv-x="1794" 
d="M1391 47q88 0 150 78q63 77 63 187t-62 188t-152 78t-152 -77t-62 -187t64 -188t151 -79zM1114 312q0 134 81 230t195 97q114 0 194 -96q80 -97 81 -231q-1 -134 -81 -230t-194 -96t-195 96t-81 230zM406 915q88 0 150 79t62 188q0 110 -62 188t-151 78t-151 -78
t-64 -188q0 -110 64 -188q64 -79 152 -79zM405 1509q115 0 195 -97t80 -231q0 -135 -80 -231t-195 -96q-114 0 -195 96t-81 232t81 231q81 96 195 96zM387 -92l-57 43l1022 1595l61 -35z" />
    <glyph glyph-name="ampersand" unicode="&#x26;" horiz-adv-x="1339" 
d="M508 86q110 0 212 47t175 123q27 27 43 51l-383 463q-76 -41 -176 -123q-206 -169 -195 -309q6 -104 110 -178t214 -74zM604 1423q-106 0 -167 -50q-62 -50 -68 -139t45 -153l164 -198q246 141 262 272q12 104 -59 186t-177 82zM526 -2q-166 0 -294 97t-136 237
q-6 109 62 213q55 78 146 157t196 136l-164 196h2q-59 94 -59 189q0 127 92 208q93 81 237 81t240 -114q96 -112 80 -253q-18 -170 -291 -332l354 -428q94 172 84 381h88q12 -252 -112 -453l221 -268l-72 -53l-203 246q-108 -125 -234 -183q-126 -57 -237 -57z" />
    <glyph glyph-name="quotesingle" unicode="'" horiz-adv-x="421" 
d="M172 1112l-47 18l117 340l71 -26z" />
    <glyph glyph-name="parenleft" unicode="(" horiz-adv-x="583" 
d="M481 -287q-117 0 -197 136q-148 252 -147 769q0 347 84 616q41 128 108 205t152 77v-48q-143 -12 -215 -261t-71 -589q0 -478 124 -719q68 -130 162 -137v-49z" />
    <glyph glyph-name="parenright" unicode=")" horiz-adv-x="583" 
d="M102 -287v49q72 4 128 80q99 134 140 469q17 147 17 307q0 340 -72 589t-213 261v48q113 0 193 -134q153 -258 152 -771t-148 -762q-80 -136 -197 -136z" />
    <glyph glyph-name="asterisk" unicode="*" horiz-adv-x="915" 
d="M426 1487h76l-13 -250l261 72l16 -72l-260 -57l158 -236l-62 -41l-147 248l-158 -242l-61 41l172 232l-258 69l20 74l256 -86v248z" />
    <glyph glyph-name="plus" unicode="+" horiz-adv-x="1480" 
d="M1296 590v-66h-522v-522h-65v522h-525v66h525v524h63v-524h524z" />
    <glyph glyph-name="comma" unicode="," horiz-adv-x="395" 
d="M178 129q36 0 59 -37q23 -36 23 -98t-38 -108t-111 -62v31q80 14 79 90q0 43 -45 53t-47 68q0 27 22 45t58 18z" />
    <glyph glyph-name="hyphen" unicode="-" horiz-adv-x="808" 
d="M137 504v57h537v-57h-537z" />
    <glyph glyph-name="period" unicode="." horiz-adv-x="419" 
d="M137 68q0 30 22 52q21 22 51 22t52 -22t23 -52q-1 -30 -23 -52t-52 -22t-52 22t-21 52z" />
    <glyph glyph-name="slash" unicode="/" horiz-adv-x="675" 
d="M12 -193l-53 23l659 1790l58 -16z" />
    <glyph glyph-name="zero" unicode="0" horiz-adv-x="1460" 
d="M730 90q214 0 360 188t145 440q0 253 -145 438q-146 185 -360 185t-360 -186t-146 -440q0 -253 146 -439t360 -186zM729 0q-252 0 -424 213t-172 504t173 503t424 212t424 -213t173 -504t-173 -503t-425 -212z" />
    <glyph glyph-name="one" unicode="1" horiz-adv-x="702" 
d="M362 0v1321l-215 -88l-34 86l280 113h60v-1432h-91z" />
    <glyph glyph-name="two" unicode="2" horiz-adv-x="1261" 
d="M147 0q-1 166 89 279t328 271t340 265q103 106 108 244q0 133 -93 213t-251 80q-319 0 -406 -269l-88 35q115 326 494 326q196 0 316 -109t120 -279t-142 -314q-118 -118 -274 -220t-202 -135t-107 -85q-113 -96 -121 -212l856 2v-92h-967z" />
    <glyph glyph-name="three" unicode="3" horiz-adv-x="1210" 
d="M1065 408q0 -172 -136 -292t-327 -120q-190 0 -322 123t-133 303h93q0 -144 104 -240t258 -96t262 94t109 228q0 134 -108 227q-108 94 -259 94l-2 92h2q123 0 210 77q87 78 87 186t-87 185t-210 77t-210 -79t-87 -190h-90q0 150 113 254q112 105 274 105t276 -102
t113 -251q0 -94 -52 -175t-138 -128q117 -51 189 -150t71 -222z" />
    <glyph glyph-name="four" unicode="4" horiz-adv-x="1294" 
d="M856 537v731l-612 -731h612zM948 537h203v-91h-203v-446h-92v446h-729v93l750 893h71v-895z" />
    <glyph glyph-name="five" unicode="5" horiz-adv-x="1173" 
d="M586 932q180 0 317 -136t137 -329t-137 -330t-331 -137t-330 137t-136 330h93q-1 -157 109 -267t266 -110t264 111t108 267t-108 264q-108 110 -265 110q-92 0 -173 -43t-134 -121h-10l-90 2v4l86 748h715v-93h-635l-62 -528q136 121 316 121z" />
    <glyph glyph-name="six" unicode="6" horiz-adv-x="1243" 
d="M372 701q-106 -111 -104 -263t112 -258t264 -103q153 3 259 113q105 110 103 264q-2 153 -114 258t-264 102t-256 -113zM1096 461q6 -191 -124 -329t-314 -144t-317 106q-134 112 -159 287q-106 473 104 822q65 109 166 179t222 82q170 18 325 -86l-53 -75
q-123 86 -258 73q-207 -20 -332 -227t-123 -483q57 106 161 171t229 68q191 6 329 -124t144 -320z" />
    <glyph glyph-name="seven" unicode="7" horiz-adv-x="1169" 
d="M127 1341v91h973v-62l-717 -1370h-100l700 1341h-856z" />
    <glyph glyph-name="eight" unicode="8" horiz-adv-x="1167" 
d="M584 90q152 0 260 95t106 229q0 134 -107 227q-107 94 -259 94t-260 -94t-107 -227q-1 -132 107 -228t260 -96zM287 1087q0 -109 87 -185t211 -77q124 0 211 77q87 78 87 186t-87 185t-211 77t-211 -77t-87 -186zM585 0q-185 0 -322 121q-136 121 -136 293q0 123 71 221
t187 149q-86 47 -137 128t-51 175q0 145 113 249q114 104 275 104t275 -104t113 -249q1 -96 -51 -176t-140 -127q117 -51 188 -149t70 -221q0 -174 -135 -294t-320 -120z" />
    <glyph glyph-name="nine" unicode="9" horiz-adv-x="1212" 
d="M606 627q94 0 176 45t131 121l31 57q31 68 31 145q0 151 -109 261q-108 110 -260 110t-260 -110t-108 -262t107 -259q107 -108 261 -108zM1065 995q0 -117 -55 -221l-428 -809l-78 41l299 576q-94 -45 -197 -45q-194 0 -326 135t-132 324q0 188 134 324t323 136t325 -135
q135 -136 135 -326z" />
    <glyph glyph-name="colon" unicode=":" horiz-adv-x="428" 
d="M214 223q-30 0 -52 22q-22 21 -23 51q0 30 23 52q22 22 52 23q30 0 52 -23q22 -22 21 -52q1 -30 -21 -52t-52 -21zM214 786q-30 0 -52 23t-23 53q0 30 23 50q22 22 52 22t52 -22t21 -52q1 -30 -21 -52t-52 -22z" />
    <glyph glyph-name="semicolon" unicode=";" horiz-adv-x="413" 
d="M205 -55q0 42 -45 53t-45 68q0 27 20 45t57 18t60 -36t22 -93q1 -141 -149 -176v31q80 14 80 90zM185 299q-33 0 -55 23q-22 22 -22 54t24 54q22 22 54 23q32 0 54 -23q22 -22 22 -54t-22 -54t-55 -23z" />
    <glyph glyph-name="less" unicode="&#x3c;" horiz-adv-x="970" 
d="M748 49l-619 459v43l625 461l37 -62l-570 -422l570 -422z" />
    <glyph glyph-name="equal" unicode="=" horiz-adv-x="1251" 
d="M190 328v67h869v-67h-869zM190 664v67h869v-67h-869z" />
    <glyph glyph-name="greater" unicode="&#x3e;" horiz-adv-x="964" 
d="M221 53l-41 53l570 422l-568 424l33 56l619 -457v-41z" />
    <glyph glyph-name="question" unicode="?" horiz-adv-x="894" 
d="M426 -8q-30 0 -52 22t-22 54t22 54t52 22t54 -24q22 -22 22 -52t-22 -54q-22 -22 -54 -22zM444 1473q160 0 255 -81t94 -206q0 -150 -179 -293q-61 -47 -89 -78q-67 -74 -61 -193q3 -65 1 -182h-82q-8 246 20 333q29 87 166 193t142 220q0 92 -73 147t-196 56
q-229 0 -309 -185l-82 25q90 244 393 244z" />
    <glyph glyph-name="at" unicode="@" horiz-adv-x="1398" 
d="M657 399q127 0 220 127l32 162q-14 51 -55 81t-98 30q-96 0 -174 -73t-78 -154t42 -127t111 -46zM1212 666q0 201 -145 343t-362 142t-368 -168q-151 -169 -151 -403t153 -384t382 -151q184 0 319 98l37 -51q-152 -106 -356 -106q-256 0 -427 167t-171 425t170 446
t413 188q242 0 406 -160t164 -384q0 -164 -73 -257t-169 -94q-59 0 -102 31t-60 78q-96 -92 -202 -92t-168 63t-62 173t98 202t215 92q118 0 177 -76l14 70h64l-80 -369q6 -113 106 -112q70 0 124 76t54 213z" />
    <glyph glyph-name="A" unicode="A" 
d="M391 518h658l-330 764zM1272 0l-185 426h-735l-182 -426h-102l622 1434h62l622 -1434h-102z" />
    <glyph glyph-name="B" unicode="B" horiz-adv-x="1331" 
d="M817 92q121 0 206 83t85 214t-94 206t-244 75h-473v-578h520zM1051 1054q0 118 -86 202.5t-207 84.5h-461v-581h477q115 2 196 89t81 205zM1200 383q0 -160 -112.5 -270.5t-270.5 -110.5h-612v1432h553q158 0 270.5 -112t112.5 -269q0 -100 -47 -186.5t-129 -135.5
q109 -43 172 -137t63 -211z" />
    <glyph glyph-name="C" unicode="C" horiz-adv-x="1589" 
d="M858 -6q-295 0 -505 210t-210 505t211 505.5t504 210.5q201 0 372 -105.5t263 -281.5l-80 -45q-80 158 -228.5 250t-324.5 92q-260 0 -443.5 -183t-183.5 -443t183.5 -442.5t443.5 -182.5q174 0 323.5 91t229.5 249l80 -43q-92 -178 -263 -282.5t-372 -104.5z" />
    <glyph glyph-name="D" unicode="D" horiz-adv-x="1464" 
d="M633 92q260 0 443.5 182.5t183.5 442.5t-184.5 442t-442.5 182h-338v-1249h338zM633 1434q297 0 507 -210t210 -507t-210 -507t-507 -210h-428v1434h428z" />
    <glyph glyph-name="E" unicode="E" horiz-adv-x="1280" 
d="M1151 1341h-856v-579h764v-90h-764v-580h856v-92h-946v1434h946v-93z" />
    <glyph glyph-name="F" unicode="F" horiz-adv-x="1245" 
d="M295 762h762v-90h-762v-670h-90v1430l952 4v-93l-862 -2v-579z" />
    <glyph glyph-name="G" unicode="G" horiz-adv-x="1689" 
d="M846 668h727q-25 -289 -229.5 -478.5t-492.5 -189.5t-498 211t-210 507t209 506t506 210q199 0 368 -102.5t265 -280.5l-80 -54q-72 156 -222.5 250t-330.5 94q-260 0 -442.5 -182t-182.5 -441t183.5 -442.5t441.5 -183.5q219 0 391 136.5t219 346.5h-622v93z" />
    <glyph glyph-name="H" unicode="H" horiz-adv-x="1431" 
d="M1137 1434h90v-1434h-90v672h-840v-672h-92v1434h92v-672h840v672z" />
    <glyph glyph-name="I" unicode="I" horiz-adv-x="516" 
d="M211 0v1434h92v-1434h-92z" />
    <glyph glyph-name="J" unicode="J" horiz-adv-x="1155" 
d="M509.5 -12q-192.5 0 -323.5 139t-131 344h92q0 -170 103.5 -280.5t259.5 -110.5t263.5 107.5t107.5 258.5v965h90v-965q0 -188 -134.5 -323t-327 -135z" />
    <glyph glyph-name="K" unicode="K" horiz-adv-x="1431" 
d="M295 0h-90v1434h90v-824l903 824h135l-723 -660l729 -774h-120l-678 711l-246 -226v-485z" />
    <glyph glyph-name="L" unicode="L" horiz-adv-x="1224" 
d="M295 90h862v-90h-952v1432h90v-1342z" />
    <glyph glyph-name="M" unicode="M" horiz-adv-x="1828" 
d="M1624 1432v-1432h-90v1225l-590 -1028h-55l-594 1038v-1235h-90v1432h80l633 -1102l630 1102h76z" />
    <glyph glyph-name="N" unicode="N" horiz-adv-x="1476" 
d="M1180 1434h92v-1434h-74l-903 1262v-1262h-90v1434h78l897 -1252v1252z" />
    <glyph glyph-name="O" unicode="O" horiz-adv-x="1691" 
d="M860 92q256 0 440.5 183.5t184.5 442.5t-182.5 441t-442.5 182t-443.5 -182t-183.5 -442t185.5 -442.5t441.5 -182.5zM859 0q-294 0 -505 211t-211 507t210 506t507 210t506 -210t209 -507t-211 -507t-505 -210z" />
    <glyph glyph-name="P" unicode="P" horiz-adv-x="1239" 
d="M764 758q121 0 207 86t86 206t-86 205.5t-207 85.5h-469v-583h469zM764 1434q158 0 270.5 -113t112.5 -271t-112.5 -272t-270.5 -114h-469v-664h-90v1434h559z" />
    <glyph glyph-name="Q" unicode="Q" horiz-adv-x="1705" 
d="M860 90q195 0 359 115l-189 196l70 58l188 -197q197 182 197 447.5t-182.5 448.5t-442.5 183t-443.5 -183t-183.5 -443t185.5 -442.5t441.5 -182.5zM1575 710q0 -302 -225 -513l155 -162l-67 -60l-156 164q-190 -139 -422 -139q-295 0 -506 210t-211 506t210 506t507 210
t506 -210t209 -512z" />
    <glyph glyph-name="R" unicode="R" horiz-adv-x="1343" 
d="M295 1341v-583h465q121 0 207 85t86 205.5t-86 206.5t-207 86h-465zM295 666v-666h-90v1434h555q158 0 271.5 -114t113.5 -263t-93.5 -257t-230.5 -130l385 -670h-106l-381 666h-424z" />
    <glyph glyph-name="S" unicode="S" horiz-adv-x="1208" 
d="M614 2q-373 0 -505 277l84 38q109 -225 421 -225q168 0 268.5 80t100.5 213q1 133 -117 202q-99 58 -233.5 85.5t-207.5 54.5t-141 70q-142 89 -142.5 259.5t115.5 276t310 105.5q330 0 453 -260l-76 -48q-96 217 -379 218q-154 0 -244 -79t-90 -208q0 -164 199 -242
q45 -18 227 -63q418 -96 418 -375q0 -168 -126 -273.5t-335 -105.5z" />
    <glyph glyph-name="T" unicode="T" horiz-adv-x="1312" 
d="M1245 1434v-93h-543v-1341h-92v1341h-542v93h1177z" />
    <glyph glyph-name="U" unicode="U" 
d="M721 0q-223 0 -380 157.5t-157 381.5v895h90v-895q0 -188 131.5 -317.5t316.5 -129.5t315 130t130 317v895h90v-895q0 -225 -156.5 -382t-379.5 -157z" />
    <glyph glyph-name="V" unicode="V" horiz-adv-x="1372" 
d="M1200 1434h98l-575 -1434h-76l-571 1434h96l514 -1282z" />
    <glyph glyph-name="W" unicode="W" horiz-adv-x="1916" 
d="M1739 1434h96l-416 -1434h-73l-390 1081l-387 -1081h-73l-414 1434h94l361 -1250l389 1086h63l387 -1084z" />
    <glyph glyph-name="X" unicode="X" horiz-adv-x="1417" 
d="M1343 0h-116l-516 647l-518 -647h-117l575 721l-569 713h115l512 -641l512 641h116l-569 -713z" />
    <glyph glyph-name="Y" unicode="Y" horiz-adv-x="1363" 
d="M727 0h-90v692l-594 742h119l520 -652l518 652h119l-592 -740v-694z" />
    <glyph glyph-name="Z" unicode="Z" horiz-adv-x="1519" 
d="M1372 1434v-70l-1104 -1272h1098v-92h-1233v74l1100 1267h-1100v93h1239z" />
    <glyph glyph-name="bracketleft" unicode="[" horiz-adv-x="624" 
d="M199 -328v1850h315v-60h-258v-1730h258v-60h-315z" />
    <glyph glyph-name="backslash" unicode="\" horiz-adv-x="829" 
d="M741 -223l-710 1820l73 23l707 -1813z" />
    <glyph glyph-name="bracketright" unicode="]" horiz-adv-x="624" 
d="M426 -328h-317v60h258v1730h-258v60h317v-1850z" />
    <glyph glyph-name="asciicircum" unicode="^" horiz-adv-x="1097" 
d="M934 913l-53 -32l-330 518l-338 -520l-49 34l364 568h45z" />
    <glyph glyph-name="underscore" unicode="_" horiz-adv-x="946" 
d="M944 -184v-29h-942v29h942z" />
    <glyph glyph-name="grave" unicode="`" horiz-adv-x="436" 
d="M254 1237l-141 330l71 26l117 -340z" />
    <glyph glyph-name="a" unicode="a" horiz-adv-x="1052" 
d="M464 82q128 0 231.5 83t103.5 204v98q-139 51 -284.5 51t-237 -59.5t-91.5 -163.5v-4q0 -98 75 -153.5t203 -55.5zM512 1034q164 0 271.5 -101.5t107.5 -277.5v-655h-90v176q-131 -178 -352 -178q-156 0 -254.5 80t-98.5 213v4q0 143 115 221t299 78t291 -64v125
q0 129 -83 210t-206 81q-82 0 -150.5 -42t-103.5 -113l-90 28q45 98 139 156.5t205 58.5z" />
    <glyph glyph-name="b" unicode="b" horiz-adv-x="1273" 
d="M645 76q178 0 302 125t124 302t-125 301t-301 124q-121 0 -223.5 -62.5t-157.5 -171.5v-377q51 -111 153.5 -176t227.5 -65zM641 1020q217 0 368.5 -150.5t151.5 -366.5t-150.5 -366.5t-369.5 -150.5t-377 196v-182h-90v1509h90v-688q160 199 377 199z" />
    <glyph glyph-name="c" unicode="c" horiz-adv-x="1189" 
d="M633 -10q-217 0 -368.5 152.5t-151.5 366.5t152.5 366.5t367.5 152.5q143 0 264 -73.5t190 -200.5l-86 -33q-53 98 -153 157.5t-215 59.5q-176 0 -303 -126t-127 -303t126 -302t304 -125q117 0 216 59.5t157 161.5l84 -35q-68 -127 -191 -202.5t-266 -75.5z" />
    <glyph glyph-name="d" unicode="d" horiz-adv-x="1273" 
d="M629 76q125 0 227 66.5t154 176.5v375q-55 109 -156.5 171.5t-224.5 62.5q-176 0 -301 -124t-125 -301t124 -302t302 -125zM1010 1434h90v-1434h-90v182q-158 -196 -378 -196t-369.5 150.5t-149.5 366.5t151.5 366.5t368.5 150.5t377 -199v613z" />
    <glyph glyph-name="e" unicode="e" horiz-adv-x="1255" 
d="M630 940q-155 0 -272.5 -98.5t-146.5 -247.5h836q-29 147 -145.5 246.5t-271.5 99.5zM631 82q125 0 231.5 69.5t157.5 184.5l80 -37q-59 -139 -187.5 -222t-281.5 -83q-215 0 -366.5 151.5t-151.5 366.5t151.5 365.5t365.5 150.5t362.5 -151.5t148.5 -372.5h-938
q4 -176 129 -299t299 -123z" />
    <glyph glyph-name="f" unicode="f" horiz-adv-x="724" 
d="M369 1262v-261h293v-92h-293v-907h-93v907h-215v92h215v261q0 76 43 136t105.5 86.5t136.5 14.5t129 -69l-80 -48q-74 57 -157.5 15.5t-83.5 -135.5z" />
    <glyph glyph-name="g" unicode="g" horiz-adv-x="1280" 
d="M631 109q123 0 226.5 65.5t156.5 175.5v379q-53 111 -158.5 176.5t-224.5 65.5q-176 0 -302 -127t-126 -305.5t127 -304t301 -125.5zM1014 1051h92v-1076q0 -205 -134 -334.5t-331 -129.5q-135 0 -252 75.5t-172 198.5l84 37q45 -100 138 -160.5t202 -60.5
q158 0 265.5 104.5t107.5 269.5v242q-164 -199 -381 -199t-368.5 152t-151.5 369t152.5 369.5t370.5 152.5t378 -203v193z" />
    <glyph glyph-name="h" unicode="h" horiz-adv-x="1136" 
d="M580 1028q170 0 286.5 -112.5t116.5 -290.5v-625h-92v625q0 129 -92 221t-224 92t-221.5 -113.5t-89.5 -255.5v-569h-90v1434h90v-623q53 98 135.5 157.5t180.5 59.5z" />
    <glyph glyph-name="i" unicode="i" horiz-adv-x="495" 
d="M203 0v1024h90v-1024h-90zM248 1294q-31 0 -52.5 22.5t-21.5 52.5t21.5 51.5t52.5 21.5t52.5 -21.5t21.5 -51.5t-21.5 -52.5t-52.5 -22.5z" />
    <glyph glyph-name="j" unicode="j" horiz-adv-x="532" 
d="M29 -412q-74 0 -142 39l45 76q39 -23 111 -23t131 61q59 60 59 144v1139h93v-1139q0 -123 -87 -210t-210 -87zM285 1319q-31 -1 -53 21t-22 52t22 52t53 22t53 -22t20 -52q0 -30 -21 -52t-52 -21z" />
    <glyph glyph-name="k" unicode="k" horiz-adv-x="1136" 
d="M264 0h-90v1434h90v-918l610 508h140l-514 -430l561 -594h-123l-508 535l-166 -140v-395z" />
    <glyph glyph-name="l" unicode="l" horiz-adv-x="438" 
d="M264 1434v-1434h-90v1434h90z" />
    <glyph glyph-name="m" unicode="m" horiz-adv-x="1802" 
d="M1295 1028q134 0 247 -109.5t113 -291.5v-627h-90v627q0 135 -89.5 224t-218 89t-216 -107.5t-87.5 -244.5v-588h-90v627q0 137 -91 225t-225 88t-221 -106.5t-87 -245.5v-588h-93v1004h93v-197q119 223 333 223q119 0 220.5 -71.5t140.5 -196.5q51 117 139 191.5
t222 74.5z" />
    <glyph glyph-name="n" unicode="n" horiz-adv-x="1101" 
d="M569 1030q156 0 270.5 -109.5t114.5 -293.5v-627h-90v627q0 135 -92 224t-224 89t-221 -108.5t-89 -245.5v-586h-91v1018h91v-211q120 223 331 223z" />
    <glyph glyph-name="o" unicode="o" horiz-adv-x="1267" 
d="M634 82q177 0 304 126t127 304q2 178 -125 305t-305 127t-305 -128t-127 -305t127 -303t304 -126zM634 -10q-216 0 -368.5 152.5t-152.5 368.5t152.5 369.5t368.5 153.5t368.5 -153.5t153.5 -368.5t-152.5 -368.5t-369.5 -153.5z" />
    <glyph glyph-name="p" unicode="p" horiz-adv-x="1277" 
d="M647 94q178 0 303 125t125 302t-125 303t-303 126q-123 0 -226.5 -64.5t-156.5 -178.5v-379q53 -109 156.5 -171.5t226.5 -62.5zM642 1040q218 0 370.5 -150.5t152.5 -365.5t-150.5 -368.5t-371.5 -153.5t-379 197v-691h-90v1518h90v-184q160 198 378 198z" />
    <glyph glyph-name="q" unicode="q" horiz-adv-x="1280" 
d="M631 88q123 0 226.5 62.5t156.5 171.5v376q-53 115 -156.5 180.5t-226.5 65.5q-178 0 -303 -126t-125 -303t125 -302t303 -125zM1014 1020h90v-1471h-90v644q-158 -197 -379 -197t-371.5 153.5t-150.5 367.5t152.5 365.5t371.5 151.5t377 -196v182z" />
    <glyph glyph-name="r" unicode="r" horiz-adv-x="800" 
d="M266 592v-592h-92v1018h92v-215q72 147 205 201.5t289 -21.5l-47 -80q-92 49 -192.5 30.5t-168.5 -99.5q-86 -98 -86 -242z" />
    <glyph glyph-name="s" unicode="s" horiz-adv-x="942" 
d="M477.5 -10q-149.5 0 -248 64.5t-137.5 181.5l88 24q61 -180 291 -180q117 0 183.5 52t66.5 140q0 147 -268 199q-328 63 -328 281q0 123 86 202.5t227 79.5q281 0 355 -246l-88 -18q-59 174 -267 174q-102 0 -162.5 -53t-60.5 -139q0 -141 254 -191q344 -66 344 -289
q0 -125 -93 -203.5t-242.5 -78.5z" />
    <glyph glyph-name="t" unicode="t" horiz-adv-x="843" 
d="M281 291v635h-199v90h199v289h90v-289h319v-90h-319v-635q0 -123 111.5 -184.5t207.5 10.5l64 -68q-74 -53 -159 -57t-153.5 31.5t-114.5 107.5t-46 160z" />
    <glyph glyph-name="u" unicode="u" horiz-adv-x="1128" 
d="M864 1024h90v-1024h-90v215q-53 -102 -135 -164.5t-178 -62.5q-182 0 -293 111.5t-111 291.5v633h91v-633q0 -127 92 -220t220 -93t221 110.5t93 243.5v592z" />
    <glyph glyph-name="v" unicode="v" horiz-adv-x="1042" 
d="M485 0l-409 1026h94l348 -879l354 879h95l-412 -1026h-70z" />
    <glyph glyph-name="w" unicode="w" horiz-adv-x="1449" 
d="M385 0l-297 1024h90l250 -860l264 745h64l264 -745l252 860h90l-297 -1024h-70l-272 741l-270 -741h-68z" />
    <glyph glyph-name="x" unicode="x" horiz-adv-x="1073" 
d="M1006 0h-109l-360 451l-361 -451h-108l415 518l-405 506h108l351 -438l350 438h110l-405 -506z" />
    <glyph glyph-name="y" unicode="y" horiz-adv-x="1159" 
d="M332 -461q-82 0 -150.5 37t-101.5 98l72 47q82 -102 200.5 -86.5t161.5 127.5l96 256l-522 1006h98l465 -895l336 895h96l-485 -1292q-33 -88 -108.5 -140.5t-157.5 -52.5z" />
    <glyph glyph-name="z" unicode="z" horiz-adv-x="1060" 
d="M78 0v68l760 866h-758v88h897v-61l-764 -873h754v-88h-889z" />
    <glyph glyph-name="braceleft" unicode="{" horiz-adv-x="636" 
d="M182 1241q0 166 166 248q72 33 139 45l23 4l4 -59q-70 -8 -141 -43q-133 -68 -133 -197q0 -59 40 -218t33 -222q-10 -104 -133 -189q121 -76 131 -196q7 -72 -33 -224t-40 -210q4 -129 135 -195q73 -35 141 -43l-4 -59q-84 10 -162 49q-170 84 -166 258q0 59 41 214
t33 214q-14 102 -160 170v43q145 72 160 172q8 61 -33 219t-41 219z" />
    <glyph glyph-name="bar" unicode="|" horiz-adv-x="417" 
d="M174 1638h68l2 -2048h-68z" />
    <glyph glyph-name="braceright" unicode="}" horiz-adv-x="636" 
d="M397 1239q0 129 -133 197q-52 25 -141 43l4 59q82 -10 162 -49q166 -82 166 -248q0 -61 -41 -219t-33 -219q14 -100 160 -172v-43q-145 -68 -160 -170q-8 -59 33 -214t41 -214q4 -174 -166 -258q-73 -33 -137 -45l-25 -4l-4 59q70 6 141 43q131 66 135 195q0 58 -40 210
t-33 224q10 121 131 196q-123 84 -133 189q-6 63 33 222q40 159 40 218z" />
    <glyph glyph-name="asciitilde" unicode="~" horiz-adv-x="993" 
d="M350 735q-68 0 -127 -92l-57 35q74 127 180 127q55 2 141 -55q86 -56 136 -54t100 72l59 -35q-68 -106 -157 -108q-57 0 -145 55t-130 55z" />
    <glyph glyph-name="exclamdown" unicode="&#xa1;" horiz-adv-x="475" 
d="M276 725v-1090h-79v1090h79zM238 1169q30 1 52 -21t22 -52t-22 -52t-52 -22t-53 22q-21 22 -21 53q0 30 21 51q22 21 53 21z" />
    <glyph glyph-name="cent" unicode="&#xa2;" horiz-adv-x="1189" 
d="M223 509q-1 -161 105 -281t264 -142v848q-156 -24 -262 -144t-107 -281zM668 -180h-76v174q-197 23 -328 170t-131 345t132 345t327 170v195h80v-191q137 -4 253 -78t183 -196l-86 -33q-51 94 -145 153t-205 64l-4 -856q113 4 208 62t150 159l84 -35q-66 -126 -184 -200
t-258 -78v-170z" />
    <glyph glyph-name="sterling" unicode="&#xa3;" horiz-adv-x="1329" 
d="M414 543v-465h762v-78h-1043v78h191v465h-191v65h191v383q0 191 134 325t323 134t323 -133t137 -322h-90q-4 152 -112 258q-107 107 -259 107t-260 -109t-106 -260v-383h622v-65h-622z" />
    <glyph glyph-name="currency" unicode="&#xa4;" horiz-adv-x="1298" 
d="M650 348q177 0 304 126t129 304q0 178 -127 305t-305 127t-305 -128t-127 -305t127 -303t304 -126zM650 256q-200 0 -347 131l-123 -123l-41 43l123 121q-133 154 -133 352t133 346l-125 123l43 43l125 -125q145 133 345 133t349 -133l125 125l41 -41l-125 -127
q131 -147 132 -345t-130 -349l123 -123l-41 -43l-125 125q-149 -133 -349 -133z" />
    <glyph glyph-name="yen" unicode="&#xa5;" horiz-adv-x="1357" 
d="M719 637h313v-66h-313v-147h313v-64h-313v-380h-80v380h-313v64h313v147h-313v66h313v49l-598 748h119l520 -652l518 652h119l-598 -748v-49z" />
    <glyph glyph-name="brokenbar" unicode="&#xa6;" horiz-adv-x="417" 
d="M174 383h68l2 -520h-68zM174 1378h68l2 -520h-68z" />
    <glyph glyph-name="section" unicode="&#xa7;" horiz-adv-x="1077" 
d="M846 573q0 172 -260 218q-140 23 -234 -35t-94 -174q0 -191 295 -234q125 -14 209 54t84 171zM934 31q0 -137 -104 -225t-262 -87q-318 0 -425 232l80 37q87 -182 337 -182q126 0 206 60q80 62 80 175t-131 169q-58 24 -157 48t-152 42q-54 18 -114 54q-122 71 -122 221
q0 109 64 183q65 74 174 94q-119 41 -179 103q-59 62 -59 181t96 205t240 86q287 0 385 -219l-74 -45q-74 176 -293 176q-126 0 -196 -60q-70 -61 -70 -159t79 -149t253 -88q344 -84 344 -312q0 -98 -64 -176t-165 -98q229 -80 229 -266z" />
    <glyph glyph-name="dieresis" unicode="&#xa8;" horiz-adv-x="784" 
d="M526.5 1255q-30.5 0 -52 22.5t-21.5 52.5t21.5 51.5t52 21.5t52 -21.5t21.5 -51.5t-21.5 -52.5t-52 -22.5zM135 1255q-31 0 -52.5 22.5t-21.5 52.5t21.5 51.5t52.5 21.5t52.5 -21.5t21.5 -51.5t-21.5 -52.5t-52.5 -22.5z" />
    <glyph glyph-name="copyright" unicode="&#xa9;" horiz-adv-x="1656" 
d="M831 338q-157 0 -269 112t-112 270t112 270t269 112q95 0 177 -45t135 -123l-51 -47q-39 69 -110 107t-151 38q-129 0 -221 -91t-92 -221t92 -221t221 -91q80 0 152 38t111 107l51 -43q-51 -80 -135 -126t-179 -46zM829 53q272 0 468 195t196 469t-195 469
q-195 194 -470 194t-469 -194q-193 -194 -193 -470q0 -275 196 -469t467 -194zM828 0q-294 0 -504 211t-211 507q0 296 210 506q211 210 507 210t505 -210t209 -507t-211 -507t-505 -210z" />
    <glyph glyph-name="guillemotleft" unicode="&#xab;" horiz-adv-x="894" 
d="M735 299l-342 252v39l346 254l33 -53l-297 -222l301 -221zM434 299l-342 252v39l346 254l33 -53l-297 -222l299 -221z" />
    <glyph glyph-name="logicalnot" unicode="&#xac;" horiz-adv-x="1323" 
d="M1063 227v291h-873v68h940l3 -359h-70z" />
    <glyph glyph-name="registered" unicode="&#xae;" horiz-adv-x="1656" 
d="M637 743h242q63 0 107 44q44 43 44 107t-44 108t-107 45h-242v-304zM580 334v770h55l2 2v-2h242q88 0 149 -62q62 -62 62 -142q0 -81 -50 -138t-122 -68l206 -360h-65l-203 352h-219v-352h-57zM829 53q272 0 468 195t196 469t-195 469q-195 194 -470 194t-469 -194
q-193 -194 -193 -470q0 -275 196 -469t467 -194zM828 0q-294 0 -504 211t-211 507q0 296 210 506q211 210 507 210t505 -210t209 -507t-211 -507t-505 -210z" />
    <glyph glyph-name="macron" unicode="&#xaf;" horiz-adv-x="786" 
d="M123 1237v63h543v-63h-543z" />
    <glyph glyph-name="degree" unicode="&#xb0;" horiz-adv-x="843" 
d="M422 971q90 -1 155 65t65 157t-65 156t-155 65t-155 -66q-65 -64 -65 -156t65 -157q65 -64 155 -64zM422 911q-115 0 -197 82t-82 198t82 199t197 83q114 0 196 -83t82 -199t-82 -198t-196 -82z" />
    <glyph glyph-name="plusminus" unicode="&#xb1;" horiz-adv-x="1427" 
d="M184 49v66h1059v-66h-1059zM745 670h498v-66h-495v-330h-66v330h-498v66h496v329h65v-329z" />
    <glyph glyph-name="acute" unicode="&#xb4;" horiz-adv-x="436" 
d="M172 1196l-47 16l117 340l71 -26z" />
    <glyph glyph-name="paragraph" unicode="&#xb6;" horiz-adv-x="1331" 
d="M477 1450h649v-1716h-65v1650h-518v-1650h-66v952q-157 0 -269 113t-112 271t110 268q110 112 271 112z" />
    <glyph glyph-name="periodcentered" unicode="&#xb7;" horiz-adv-x="419" 
d="M285 656q-1 -30 -23 -52t-52 -22t-52 22t-21 52q0 30 22 52q21 22 51 22t52 -22t23 -52z" />
    <glyph glyph-name="cedilla" unicode="&#xb8;" horiz-adv-x="507" 
d="M307 -205q0 31 -35 56t-39 45t11 49q10 37 12 57h57q0 -27 -11 -55t-9 -36.5t20 -25.5q53 -41 53.5 -95t-54 -81.5t-116.5 -11.5t-85 65l45 31q29 -49 90 -47t61 49z" />
    <glyph glyph-name="guillemotright" unicode="&#xbb;" horiz-adv-x="894" 
d="M459 299l-39 49l299 221l-295 222l33 53l346 -254v-39zM158 299l-39 49l299 221l-295 222l33 53l346 -254v-39z" />
    <glyph glyph-name="onequarter" unicode="&#xbc;" horiz-adv-x="1083" 
d="M956 274v263l-221 -263h221zM1004 274h79v-47h-79v-176h-48v176h-284v43l295 355h37v-351zM154 692v514l-84 -35l-15 48l115 47h31v-574h-47zM864 1298h60l-721 -1321h-60z" />
    <glyph glyph-name="onehalf" unicode="&#xbd;" horiz-adv-x="1069" 
d="M885 592q-127 0 -154 -107l-47 19q43 137 201 137q78 0 128 -44t49 -113q-1 -70 -46 -118t-117 -96q-73 -48 -95 -63q-64 -46 -71 -94h334v-50h-391q-2 70 32 116q34 47 129 109t135 104t41 92t-34 79t-94 29zM100 692v514l-84 -35l-16 48l115 47h30v-574h-45zM102 -23
l721 1321h60l-721 -1321h-60z" />
    <glyph glyph-name="threequarters" unicode="&#xbe;" horiz-adv-x="1173" 
d="M1047 289v262l-222 -262h222zM1094 289h80v-47h-80v-176h-47v176h-285v43l295 354h37v-350zM371 844q-1 -70 -55 -119t-133 -49t-132 52t-51 128h49q-2 -57 37 -95t97 -38t99 36q40 36 40 84t-38 83t-94 37h-12v47h8q47 2 78 30t31 67q0 40 -33 68q-33 27 -79 27t-78 -31
t-29 -73h-49q-2 63 44 107q47 44 113 44t113 -41q47 -40 47 -108t-70 -113q97 -45 97 -143zM911 1298h60l-721 -1321h-60z" />
    <glyph glyph-name="questiondown" unicode="&#xbf;" horiz-adv-x="892" 
d="M449 -412q-160 0 -255 80t-96 207q2 152 178 291q116 88 136 154t16 298h82q8 -248 -20 -334t-158 -186q-145 -109 -150 -225q0 -92 73 -147t196 -56q231 0 309 187l82 -27q-90 -242 -393 -242zM466 1065q30 0 52 -22q22 -21 21 -51q0 -30 -22 -52q-21 -22 -51 -22
t-52 22t-23 52q1 30 23 52t52 21z" />
    <glyph glyph-name="Agrave" unicode="&#xc0;" 
d="M391 518h658l-330 764zM1272 0l-185 426h-735l-182 -426h-102l622 1434h62l622 -1434h-102zM750 1581l-48 -16l-141 329l72 27z" />
    <glyph glyph-name="Aacute" unicode="&#xc1;" 
d="M391 518h658l-330 764zM1272 0l-185 426h-735l-182 -426h-102l622 1434h62l622 -1434h-102zM889 1890l-141 -329l-48 16l117 340z" />
    <glyph glyph-name="Acircumflex" unicode="&#xc2;" 
d="M391 518h658l-330 764zM1272 0l-185 426h-735l-182 -426h-102l622 1434h62l622 -1434h-102zM721 1784l-176 -277l-45 29l196 317h47l199 -315l-47 -31z" />
    <glyph glyph-name="Atilde" unicode="&#xc3;" 
d="M391 518h658l-330 764zM1272 0l-185 426h-735l-182 -426h-102l622 1434h62l622 -1434h-102zM608 1683q-68 0 -129 -94l-55 33q74 125 180 127q53 3 140 -55q86 -58 136 -56t103 76l55 -35q-68 -106 -155 -106q-57 -2 -144.5 54t-130.5 56z" />
    <glyph glyph-name="Adieresis" unicode="&#xc4;" 
d="M391 518h658l-330 764zM1272 0l-185 426h-735l-182 -426h-102l622 1434h62l622 -1434h-102zM917.5 1583q-30.5 0 -52 22.5t-21.5 52.5t21.5 51.5t52 21.5t52 -21.5t21.5 -51.5t-21.5 -52.5t-52 -22.5zM526.5 1583q-30.5 0 -52 22.5t-21.5 52.5t21.5 51.5t52 21.5
t52 -21.5t21.5 -51.5t-21.5 -52.5t-52 -22.5z" />
    <glyph glyph-name="Aring" unicode="&#xc5;" 
d="M391 518h658l-330 764zM1272 0l-185 426h-735l-182 -426h-102l622 1434h62l622 -1434h-102zM720 1817q-50 0 -85 -35t-35 -85t35 -85t84 -35t85 35t36 85t-35 85t-85 35zM720 1526q-71 0 -121 50t-50 121t50 121t122 50t121 -50.5t49 -121t-50 -120.5t-121 -50z" />
    <glyph glyph-name="AE" unicode="&#xc6;" horiz-adv-x="1822" 
d="M748 557v782l-338 -782h338zM1694 1341h-856v-579h764v-90h-764v-580h856v-92h-946v467h-377l-203 -467h-100l622 1434h1004v-93z" />
    <glyph glyph-name="Ccedilla" unicode="&#xc7;" horiz-adv-x="1589" 
d="M860 84q174 0 323.5 91t229.5 249l80 -43q-90 -176 -259 -279.5t-366 -107.5q-2 -29 -12 -52t-8 -31.5t20 -25.5q54 -41 54 -95t-54.5 -81.5t-117 -11.5t-84.5 65l45 31q27 -49 89 -47t62 49q0 31 -35 56t-39 45t11 49q6 20 12 51q-281 18 -474.5 224t-193.5 495
t211 499.5t504 210.5q201 0 372 -105.5t263 -281.5l-80 -45q-80 158 -228.5 250t-324.5 92q-260 0 -443.5 -183t-183.5 -443t183.5 -442.5t443.5 -182.5z" />
    <glyph glyph-name="Egrave" unicode="&#xc8;" horiz-adv-x="1280" 
d="M1151 1341h-856v-579h764v-90h-764v-580h856v-92h-946v1434h946v-93zM705 1591l-48 -16l-141 330l72 26z" />
    <glyph glyph-name="Eacute" unicode="&#xc9;" horiz-adv-x="1280" 
d="M1151 1341h-856v-579h764v-90h-764v-580h856v-92h-946v1434h946v-93zM844 1901l-142 -330l-47 16l117 340z" />
    <glyph glyph-name="Ecircumflex" unicode="&#xca;" horiz-adv-x="1280" 
d="M1151 1341h-856v-579h764v-90h-764v-580h856v-92h-946v1434h946v-93zM676 1794l-176 -276l-45 28l196 318h47l199 -316l-47 -30z" />
    <glyph glyph-name="Edieresis" unicode="&#xcb;" horiz-adv-x="1280" 
d="M1151 1341h-856v-579h764v-90h-764v-580h856v-92h-946v1434h946v-93zM872.5 1593q-30.5 0 -52 22.5t-21.5 52.5t21.5 51.5t52 21.5t52 -21.5t21.5 -51.5t-21.5 -52.5t-52 -22.5zM481.5 1593q-30.5 0 -52 22.5t-21.5 52.5t21.5 51.5t52 21.5t52 -21.5t21.5 -51.5
t-21.5 -52.5t-52 -22.5z" />
    <glyph glyph-name="Igrave" unicode="&#xcc;" horiz-adv-x="516" 
d="M211 0v1434h92v-1434h-92zM240 1565l-142 329l72 27l117 -340z" />
    <glyph glyph-name="Iacute" unicode="&#xcd;" horiz-adv-x="516" 
d="M211 0v1434h92v-1434h-92zM285 1561l-47 16l116 340l72 -27z" />
    <glyph glyph-name="Icircumflex" unicode="&#xce;" horiz-adv-x="516" 
d="M211 0v1434h92v-1434h-92zM37 1536l196 317h48l198 -315l-47 -31l-174 277l-176 -277z" />
    <glyph glyph-name="Idieresis" unicode="&#xcf;" horiz-adv-x="516" 
d="M211 0v1434h92v-1434h-92zM454.5 1583q-30.5 0 -52 22.5t-21.5 52.5t21.5 51.5t52 21.5t52 -21.5t21.5 -51.5t-21.5 -52.5t-52 -22.5zM63.5 1583q-30.5 0 -52 22.5t-21.5 52.5t21.5 51.5t52 21.5t52 -21.5t21.5 -51.5t-21.5 -52.5t-52 -22.5z" />
    <glyph glyph-name="Eth" unicode="&#xd0;" horiz-adv-x="1464" 
d="M633 92q260 0 443.5 182.5t183.5 442.5t-184.5 442t-442.5 182h-338v-591h319v-62h-319v-596h338zM633 1434q297 0 507 -210t210 -507t-210 -507t-507 -210h-428v688h-162v62h162v684h428z" />
    <glyph glyph-name="Ntilde" unicode="&#xd1;" horiz-adv-x="1476" 
d="M1180 1434h92v-1434h-74l-903 1262v-1262h-90v1434h78l897 -1252v1252zM625 1616q-68 0 -129 -94l-56 32q74 125 181 127q53 2 140 -55t136 -55t102 76l56 -35q-68 -106 -156 -107q-57 -2 -144 54.5t-130 56.5z" />
    <glyph glyph-name="Ograve" unicode="&#xd2;" horiz-adv-x="1691" 
d="M860 92q256 0 440.5 183.5t184.5 442.5t-182.5 441t-442.5 182t-443.5 -182t-183.5 -442t185.5 -442.5t441.5 -182.5zM859 0q-294 0 -505 211t-211 507t210 506t507 210t506 -210t209 -507t-211 -507t-505 -210zM842 1565l-142 329l72 27l117 -340z" />
    <glyph glyph-name="Oacute" unicode="&#xd3;" horiz-adv-x="1691" 
d="M860 92q256 0 440.5 183.5t184.5 442.5t-182.5 441t-442.5 182t-443.5 -182t-183.5 -442t185.5 -442.5t441.5 -182.5zM859 0q-294 0 -505 211t-211 507t210 506t507 210t506 -210t209 -507t-211 -507t-505 -210zM887 1561l-47 16l116 340l72 -27z" />
    <glyph glyph-name="Ocircumflex" unicode="&#xd4;" horiz-adv-x="1691" 
d="M860 92q256 0 440.5 183.5t184.5 442.5t-182.5 441t-442.5 182t-443.5 -182t-183.5 -442t185.5 -442.5t441.5 -182.5zM859 0q-294 0 -505 211t-211 507t210 506t507 210t506 -210t209 -507t-211 -507t-505 -210zM639 1536l197 317h47l198 -315l-47 -31l-174 277
l-176 -277z" />
    <glyph glyph-name="Otilde" unicode="&#xd5;" horiz-adv-x="1691" 
d="M860 92q256 0 440.5 183.5t184.5 442.5t-182.5 441t-442.5 182t-443.5 -182t-183.5 -442t185.5 -442.5t441.5 -182.5zM859 0q-294 0 -505 211t-211 507t210 506t507 210t506 -210t209 -507t-211 -507t-505 -210zM748 1683q-68 0 -130 -94l-55 33q74 125 180 127
q53 2 140.5 -55.5t136.5 -55.5t102 76l56 -35q-68 -106 -156 -106q-57 -2 -144 54t-130 56z" />
    <glyph glyph-name="Odieresis" unicode="&#xd6;" horiz-adv-x="1691" 
d="M860 92q256 0 440.5 183.5t184.5 442.5t-182.5 441t-442.5 182t-443.5 -182t-183.5 -442t185.5 -442.5t441.5 -182.5zM859 0q-294 0 -505 211t-211 507t210 506t507 210t506 -210t209 -507t-211 -507t-505 -210zM1056.5 1583q-30.5 0 -52 22.5t-21.5 52.5t21.5 51.5
t52 21.5t52 -21.5t21.5 -51.5t-21.5 -52.5t-52 -22.5zM665.5 1583q-30.5 0 -52 22.5t-21.5 52.5t21.5 51.5t52 21.5t52 -21.5t21.5 -51.5t-21.5 -52.5t-52 -22.5z" />
    <glyph glyph-name="multiply" unicode="&#xd7;" horiz-adv-x="1181" 
d="M1036 893l-397 -397l397 -400l-47 -45l-397 398l-399 -398l-46 45l398 400l-398 397l46 47l399 -397l397 397z" />
    <glyph glyph-name="Oslash" unicode="&#xd8;" horiz-adv-x="1691" 
d="M860 92q256 0 440.5 183.5t184.5 441.5q0 193 -104.5 348.5t-276.5 226.5l-436 -1169q92 -31 192 -31zM233 717q0 -190 105.5 -346t275.5 -228l437 1170q-92 29 -191 28q-260 0 -443.5 -182t-183.5 -442zM1575 717q0 -297 -211 -507t-504 -210q-119 0 -225 37l-31 -82
l-51 22l29 80q-195 82 -317 261.5t-122 398.5q0 297 210 507t507 210q113 0 221 -35l31 80l55 -17l-30 -84q197 -82 317.5 -262t120.5 -399z" />
    <glyph glyph-name="Ugrave" unicode="&#xd9;" 
d="M721 0q-223 0 -380 157.5t-157 381.5v895h90v-895q0 -188 131.5 -317.5t316.5 -129.5t315 130t130 317v895h90v-895q0 -225 -156.5 -382t-379.5 -157zM702 1550l-141 330l72 27l117 -340z" />
    <glyph glyph-name="Uacute" unicode="&#xda;" 
d="M721 0q-223 0 -380 157.5t-157 381.5v895h90v-895q0 -188 131.5 -317.5t316.5 -129.5t315 130t130 317v895h90v-895q0 -225 -156.5 -382t-379.5 -157zM748 1546l-48 17l117 340l72 -27z" />
    <glyph glyph-name="Ucircumflex" unicode="&#xdb;" 
d="M721 0q-223 0 -380 157.5t-157 381.5v895h90v-895q0 -188 131.5 -317.5t316.5 -129.5t315 130t130 317v895h90v-895q0 -225 -156.5 -382t-379.5 -157zM500 1522l196 317h47l199 -315l-47 -31l-174 276l-176 -276z" />
    <glyph glyph-name="Udieresis" unicode="&#xdc;" 
d="M721 0q-223 0 -380 157.5t-157 381.5v895h90v-895q0 -188 131.5 -317.5t316.5 -129.5t315 130t130 317v895h90v-895q0 -225 -156.5 -382t-379.5 -157zM917.5 1569q-30.5 0 -52 22.5t-21.5 52.5t21.5 51t52 21t52 -21.5t21.5 -51.5t-21.5 -52t-52 -22zM526.5 1569
q-30.5 0 -52 22.5t-21.5 52.5t21.5 51t52 21t52 -21.5t21.5 -51.5t-21.5 -52t-52 -22z" />
    <glyph glyph-name="Yacute" unicode="&#xdd;" horiz-adv-x="1363" 
d="M727 0h-90v692l-594 742h119l520 -652l518 652h119l-592 -740v-694zM850 1849l-141 -329l-47 16l116 340z" />
    <glyph glyph-name="Thorn" unicode="&#xde;" horiz-adv-x="1239" 
d="M764 455q121 0 207 86q86 85 86 205t-86 206t-207 86h-469v-583h469zM764 1130q158 0 270.5 -112.5t112.5 -271.5t-112.5 -272.5t-270.5 -113.5h-469v-360h-90v1434h90v-304h469z" />
    <glyph glyph-name="germandbls" unicode="&#xdf;" horiz-adv-x="1228" 
d="M168 0v1180q0 109 77 181.5t177 72.5h246q160 -2 272.5 -114t112.5 -267q0 -104 -56.5 -192.5t-148.5 -131.5q86 -14 151 -78q113 -117 113 -272.5t-112.5 -266t-270.5 -110.5h-315v90h315q121 0 206 85t85 203t-86 206q-49 53 -102.5 68.5t-163.5 15.5h-254v90h272
q115 2 195 88t80 206t-85 203.5t-208 83.5l-246 2q-66 0 -115 -46t-49 -117v-1180h-90z" />
    <glyph glyph-name="agrave" unicode="&#xe0;" horiz-adv-x="1052" 
d="M464 82q128 0 231.5 83t103.5 204v98q-139 51 -284.5 51t-237 -59.5t-91.5 -163.5v-4q0 -98 75 -153.5t203 -55.5zM512 1034q164 0 271.5 -101.5t107.5 -277.5v-655h-90v176q-131 -178 -352 -178q-156 0 -254.5 80t-98.5 213v4q0 143 115 221t299 78t291 -64v125
q0 129 -83 210t-206 81q-82 0 -150.5 -42t-103.5 -113l-90 28q45 98 139 156.5t205 58.5zM555 1182l-47 -17l-141 330l71 27z" />
    <glyph glyph-name="aacute" unicode="&#xe1;" horiz-adv-x="1052" 
d="M464 82q128 0 231.5 83t103.5 204v98q-139 51 -284.5 51t-237 -59.5t-91.5 -163.5v-4q0 -98 75 -153.5t203 -55.5zM512 1034q164 0 271.5 -101.5t107.5 -277.5v-655h-90v176q-131 -178 -352 -178q-156 0 -254.5 80t-98.5 213v4q0 143 115 221t299 78t291 -64v125
q0 129 -83 210t-206 81q-82 0 -150.5 -42t-103.5 -113l-90 28q45 98 139 156.5t205 58.5zM694 1491l-141 -330l-47 17l117 340z" />
    <glyph glyph-name="acircumflex" unicode="&#xe2;" horiz-adv-x="1052" 
d="M464 82q128 0 231.5 83t103.5 204v98q-139 51 -284.5 51t-237 -59.5t-91.5 -163.5v-4q0 -98 75 -153.5t203 -55.5zM512 1034q164 0 271.5 -101.5t107.5 -277.5v-655h-90v176q-131 -178 -352 -178q-156 0 -254.5 80t-98.5 213v4q0 143 115 221t299 78t291 -64v125
q0 129 -83 210t-206 81q-82 0 -150.5 -42t-103.5 -113l-90 28q45 98 139 156.5t205 58.5zM526 1384l-176 -276l-45 29l197 317h47l199 -315l-48 -31z" />
    <glyph glyph-name="atilde" unicode="&#xe3;" horiz-adv-x="1052" 
d="M464 82q128 0 231.5 83t103.5 204v98q-139 51 -284.5 51t-237 -59.5t-91.5 -163.5v-4q0 -98 75 -153.5t203 -55.5zM512 1034q164 0 271.5 -101.5t107.5 -277.5v-655h-90v176q-131 -178 -352 -178q-156 0 -254.5 80t-98.5 213v4q0 143 115 221t299 78t291 -64v125
q0 129 -83 210t-206 81q-82 0 -150.5 -42t-103.5 -113l-90 28q45 98 139 156.5t205 58.5zM414 1284q-68 0 -129 -94l-56 33q74 125 181 127q53 2 140 -55.5t136 -55.5t102 76l56 -35q-68 -106 -156 -106q-57 -2 -144 54t-130 56z" />
    <glyph glyph-name="adieresis" unicode="&#xe4;" horiz-adv-x="1052" 
d="M464 82q128 0 231.5 83t103.5 204v98q-139 51 -284.5 51t-237 -59.5t-91.5 -163.5v-4q0 -98 75 -153.5t203 -55.5zM512 1034q164 0 271.5 -101.5t107.5 -277.5v-655h-90v176q-131 -178 -352 -178q-156 0 -254.5 80t-98.5 213v4q0 143 115 221t299 78t291 -64v125
q0 129 -83 210t-206 81q-82 0 -150.5 -42t-103.5 -113l-90 28q45 98 139 156.5t205 58.5zM723 1184q-31 0 -52.5 22.5t-21.5 52t21.5 51t52.5 21.5t52.5 -21.5t21.5 -51.5t-21.5 -52t-52.5 -22zM331.5 1184q-30.5 0 -52 22.5t-21.5 52t21.5 51t52 21.5t52.5 -21.5t22 -51.5
t-22 -52t-52.5 -22z" />
    <glyph glyph-name="aring" unicode="&#xe5;" horiz-adv-x="1052" 
d="M464 82q128 0 231.5 83t103.5 204v98q-139 51 -284.5 51t-237 -59.5t-91.5 -163.5v-4q0 -98 75 -153.5t203 -55.5zM512 1034q164 0 271.5 -101.5t107.5 -277.5v-655h-90v176q-131 -178 -352 -178q-156 0 -254.5 80t-98.5 213v4q0 143 115 221t299 78t291 -64v125
q0 129 -83 210t-206 81q-82 0 -150.5 -42t-103.5 -113l-90 28q45 98 139 156.5t205 58.5zM525 1417q-50 0 -84.5 -34.5t-34.5 -85t34.5 -85t83.5 -34.5t85 34.5t36 84.5t-35 85t-85 35zM525 1126q-71 0 -121 50.5t-50 121t50.5 120.5t122 50t120.5 -50t49 -121t-50 -121
t-121 -50z" />
    <glyph glyph-name="ae" unicode="&#xe6;" horiz-adv-x="1951" 
d="M464 82q128 0 231.5 83t103.5 204v98q-139 51 -284.5 51t-237 -59.5t-91.5 -163.5v-4q0 -98 75 -153.5t203 -55.5zM1319 938q-156 0 -273.5 -98.5t-146.5 -247.5h842q-29 147 -147.5 246.5t-274.5 99.5zM1321 82q125 0 230.5 68.5t156.5 183.5l82 -39q-61 -139 -189 -222
t-277.5 -83t-272.5 75.5t-191 200.5q-49 -117 -162.5 -192.5t-259 -75.5t-244 80t-98.5 213v4q0 143 115 221t299 78t291 -64v125q0 121 -85 206t-204 85q-82 0 -151.5 -45t-106.5 -117l-80 45q49 94 139 149.5t207 55.5t216.5 -72.5t135.5 -187.5q70 117 189 185.5
t260 68.5q213 0 364.5 -152.5t151.5 -373.5h-946q4 -176 129 -298t301 -122z" />
    <glyph glyph-name="ccedilla" unicode="&#xe7;" horiz-adv-x="1189" 
d="M651 -197q0 31 -35 56t-39 45t4.5 37.5t11.5 31t5 19.5q-205 12 -345 162.5t-140 359.5t152.5 361.5t367.5 152.5q143 0 264 -73.5t190 -200.5l-86 -33q-53 98 -153 157.5t-215 59.5q-176 0 -303 -126t-127 -303t126 -302t304 -125q117 0 216 59.5t157 161.5l84 -35
q-66 -123 -182 -197.5t-253 -80.5q-2 -12 -11 -37.5t-7 -34t20 -24.5q53 -41 53.5 -95.5t-54 -82t-117 -11.5t-84.5 66l45 30q29 -49 90 -47t61 49z" />
    <glyph glyph-name="egrave" unicode="&#xe8;" horiz-adv-x="1255" 
d="M630 940q-155 0 -272.5 -98.5t-146.5 -247.5h836q-29 147 -145.5 246.5t-271.5 99.5zM631 82q125 0 231.5 69.5t157.5 184.5l80 -37q-59 -139 -187.5 -222t-281.5 -83q-215 0 -366.5 151.5t-151.5 366.5t151.5 365.5t365.5 150.5t362.5 -151.5t148.5 -372.5h-938
q4 -176 129 -299t299 -123zM659 1182l-47 -17l-141 330l72 27z" />
    <glyph glyph-name="eacute" unicode="&#xe9;" horiz-adv-x="1255" 
d="M630 940q-155 0 -272.5 -98.5t-146.5 -247.5h836q-29 147 -145.5 246.5t-271.5 99.5zM631 82q125 0 231.5 69.5t157.5 184.5l80 -37q-59 -139 -187.5 -222t-281.5 -83q-215 0 -366.5 151.5t-151.5 366.5t151.5 365.5t365.5 150.5t362.5 -151.5t148.5 -372.5h-938
q4 -176 129 -299t299 -123zM799 1491l-142 -330l-47 17l117 340z" />
    <glyph glyph-name="ecircumflex" unicode="&#xea;" horiz-adv-x="1255" 
d="M630 940q-155 0 -272.5 -98.5t-146.5 -247.5h836q-29 147 -145.5 246.5t-271.5 99.5zM631 82q125 0 231.5 69.5t157.5 184.5l80 -37q-59 -139 -187.5 -222t-281.5 -83q-215 0 -366.5 151.5t-151.5 366.5t151.5 365.5t365.5 150.5t362.5 -151.5t148.5 -372.5h-938
q4 -176 129 -299t299 -123zM631 1384l-176 -276l-45 29l196 317h47l199 -315l-47 -31z" />
    <glyph glyph-name="edieresis" unicode="&#xeb;" horiz-adv-x="1255" 
d="M630 940q-155 0 -272.5 -98.5t-146.5 -247.5h836q-29 147 -145.5 246.5t-271.5 99.5zM631 82q125 0 231.5 69.5t157.5 184.5l80 -37q-59 -139 -187.5 -222t-281.5 -83q-215 0 -366.5 151.5t-151.5 366.5t151.5 365.5t365.5 150.5t362.5 -151.5t148.5 -372.5h-938
q4 -176 129 -299t299 -123zM827.5 1184q-30.5 0 -52 22.5t-21.5 52t21.5 51t52 21.5t52 -21.5t21.5 -51.5t-21.5 -52t-52 -22zM436.5 1184q-30.5 0 -52.5 22.5t-22 52t22 51t52.5 21.5t52 -21.5t21.5 -51.5t-21.5 -52t-52 -22z" />
    <glyph glyph-name="igrave" unicode="&#xec;" horiz-adv-x="438" 
d="M264 1024v-1024h-90v1024h90zM201 1165l-142 330l72 27l117 -340z" />
    <glyph glyph-name="iacute" unicode="&#xed;" horiz-adv-x="438" 
d="M264 1024v-1024h-90v1024h90zM246 1161l-47 17l116 340l72 -27z" />
    <glyph glyph-name="icircumflex" unicode="&#xee;" horiz-adv-x="438" 
d="M264 1024v-1024h-90v1024h90zM-2 1137l197 317h47l198 -315l-47 -31l-174 276l-176 -276z" />
    <glyph glyph-name="idieresis" unicode="&#xef;" horiz-adv-x="438" 
d="M264 1024v-1024h-90v1024h90zM416 1184q-30 0 -52 22t-22 52t21.5 51.5t52 21.5t52 -21.5t21.5 -51.5t-21.5 -52t-51.5 -22zM24.5 1184q-30.5 0 -52.5 22t-21.5 52t22 51.5t52 21.5t52 -21.5t21.5 -51.5t-21.5 -52t-52 -22z" />
    <glyph glyph-name="eth" unicode="&#xf0;" horiz-adv-x="1142" 
d="M571 74q153 0 261 108t108 260t-108 260t-260 109q-154 0 -262 -109q-108 -108 -108 -260t109 -260q108 -108 260 -108zM1030 442q0 -190 -134 -324t-324 -134t-324 134q-135 134 -135 323t133 325t325 135q106 0 201 -45l-188 358l-205 -96l-27 53l205 95l-88 168l80 39
l90 -170l215 100l29 -51l-217 -101l309 -587q55 -104 55 -222z" />
    <glyph glyph-name="ntilde" unicode="&#xf1;" horiz-adv-x="1101" 
d="M569 1030q156 0 270.5 -109.5t114.5 -293.5v-627h-90v627q0 135 -92 224t-224 89t-221 -108.5t-89 -245.5v-586h-91v1018h91v-211q120 223 331 223zM440 1284q-68 0 -129 -94l-55 33q74 125 180 127q53 2 140.5 -55.5t136.5 -55.5t102 76l55 -35q-68 -106 -155 -106
q-57 -2 -144.5 54t-130.5 56z" />
    <glyph glyph-name="ograve" unicode="&#xf2;" horiz-adv-x="1267" 
d="M634 82q177 0 304 126t127 304q2 178 -125 305t-305 127t-305 -128t-127 -305t127 -303t304 -126zM634 -10q-216 0 -368.5 152.5t-152.5 368.5t152.5 369.5t368.5 153.5t368.5 -153.5t153.5 -368.5t-152.5 -368.5t-369.5 -153.5zM612 1165l-141 330l72 27l116 -340z" />
    <glyph glyph-name="oacute" unicode="&#xf3;" horiz-adv-x="1267" 
d="M634 82q177 0 304 126t127 304q2 178 -125 305t-305 127t-305 -128t-127 -305t127 -303t304 -126zM634 -10q-216 0 -368.5 152.5t-152.5 368.5t152.5 369.5t368.5 153.5t368.5 -153.5t153.5 -368.5t-152.5 -368.5t-369.5 -153.5zM657 1161l-47 17l117 340l72 -27z" />
    <glyph glyph-name="ocircumflex" unicode="&#xf4;" horiz-adv-x="1267" 
d="M634 82q177 0 304 126t127 304q2 178 -125 305t-305 127t-305 -128t-127 -305t127 -303t304 -126zM634 -10q-216 0 -368.5 152.5t-152.5 368.5t152.5 369.5t368.5 153.5t368.5 -153.5t153.5 -368.5t-152.5 -368.5t-369.5 -153.5zM410 1137l196 317h47l199 -315l-47 -31
l-174 276l-176 -276z" />
    <glyph glyph-name="otilde" unicode="&#xf5;" horiz-adv-x="1267" 
d="M634 82q177 0 304 126t127 304q2 178 -125 305t-305 127t-305 -128t-127 -305t127 -303t304 -126zM634 -10q-216 0 -368.5 152.5t-152.5 368.5t152.5 369.5t368.5 153.5t368.5 -153.5t153.5 -368.5t-152.5 -368.5t-369.5 -153.5zM518 1284q-68 0 -129 -94l-55 33
q74 125 180 127q53 2 140 -55.5t136 -55.5t103 76l55 -35q-68 -106 -155 -106q-57 -2 -144.5 54t-130.5 56z" />
    <glyph glyph-name="odieresis" unicode="&#xf6;" horiz-adv-x="1267" 
d="M634 82q177 0 304 126t127 304q2 178 -125 305t-305 127t-305 -128t-127 -305t127 -303t304 -126zM634 -10q-216 0 -368.5 152.5t-152.5 368.5t152.5 369.5t368.5 153.5t368.5 -153.5t153.5 -368.5t-152.5 -368.5t-369.5 -153.5zM827.5 1184q-30.5 0 -52 22.5t-21.5 52
t21.5 51t52 21.5t52 -21.5t21.5 -51.5t-21.5 -52t-52 -22zM436.5 1184q-30.5 0 -52.5 22.5t-22 52t22 51t52.5 21.5t52 -21.5t21.5 -51.5t-21.5 -52t-52 -22z" />
    <glyph glyph-name="divide" unicode="&#xf7;" horiz-adv-x="1374" 
d="M688 201q-29 0 -48 20t-19 47t19 47q19 21 48 21t48 -20q20 -20 20 -48q0 -27 -20 -47t-48 -20zM190 608v68h992v-68h-992zM688 952q-29 0 -48 20t-19 48q0 29 19 48t48 19t48 -19q20 -19 20 -48q0 -28 -20 -48t-48 -20z" />
    <glyph glyph-name="oslash" unicode="&#xf8;" horiz-adv-x="1267" 
d="M633 82q178 0 305 126t127 304q2 125 -65.5 230.5t-178.5 158.5l-301 -805q66 -14 113 -14zM203 512q0 -131 73.5 -239.5t190.5 -157.5l301 809q-68 20 -133 20q-178 0 -305 -128t-127 -304zM633 -10q-78 0 -146 20l-96 -260l-51 23l96 256q-145 59 -234 190t-89 293
q0 215 152.5 368.5t367.5 153.5q82 0 166 -26l100 266l55 -17l-102 -272q137 -61 220 -189t83 -284q2 -215 -151.5 -368.5t-370.5 -153.5z" />
    <glyph glyph-name="ugrave" unicode="&#xf9;" horiz-adv-x="1128" 
d="M864 1024h90v-1024h-90v215q-53 -102 -135 -164.5t-178 -62.5q-182 0 -293 111.5t-111 291.5v633h91v-633q0 -127 92 -220t220 -93t221 110.5t93 243.5v592zM575 1182l-47 -17l-141 330l72 27z" />
    <glyph glyph-name="uacute" unicode="&#xfa;" horiz-adv-x="1128" 
d="M864 1024h90v-1024h-90v215q-53 -102 -135 -164.5t-178 -62.5q-182 0 -293 111.5t-111 291.5v633h91v-633q0 -127 92 -220t220 -93t221 110.5t93 243.5v592zM715 1491l-142 -330l-47 17l117 340z" />
    <glyph glyph-name="ucircumflex" unicode="&#xfb;" horiz-adv-x="1128" 
d="M864 1024h90v-1024h-90v215q-53 -102 -135 -164.5t-178 -62.5q-182 0 -293 111.5t-111 291.5v633h91v-633q0 -127 92 -220t220 -93t221 110.5t93 243.5v592zM547 1384l-176 -276l-45 29l196 317h47l199 -315l-47 -31z" />
    <glyph glyph-name="udieresis" unicode="&#xfc;" horiz-adv-x="1128" 
d="M864 1024h90v-1024h-90v215q-53 -102 -135 -164.5t-178 -62.5q-182 0 -293 111.5t-111 291.5v633h91v-633q0 -127 92 -220t220 -93t221 110.5t93 243.5v592zM744 1184q-30 0 -52 22t-22 52t21.5 51.5t52 21.5t52 -21.5t21.5 -51.5t-21.5 -52t-51.5 -22zM352.5 1184
q-30.5 0 -52.5 22t-21.5 52t22 51.5t52 21.5t52 -21.5t21.5 -51.5t-21.5 -52t-52 -22z" />
    <glyph glyph-name="yacute" unicode="&#xfd;" horiz-adv-x="1159" 
d="M332 -461q-82 0 -150.5 37t-101.5 98l72 47q82 -102 200.5 -86.5t161.5 127.5l96 256l-522 1006h98l465 -895l336 895h96l-485 -1292q-33 -88 -108.5 -140.5t-157.5 -52.5zM774 1491l-141 -330l-47 17l116 340z" />
    <glyph glyph-name="thorn" unicode="&#xfe;" horiz-adv-x="1280" 
d="M649 94q178 0 302 125t124 302t-125 303t-301 126q-123 0 -226 -64t-157 -175v-387q54 -106 158 -168t225 -62zM643 1040q219 0 372 -150t153 -366q0 -214 -152 -368t-373 -154t-377 197v-645h-90v1898h90v-608q158 196 377 196z" />
    <glyph glyph-name="ydieresis" unicode="&#xff;" horiz-adv-x="1159" 
d="M332 -461q-82 0 -150.5 37t-101.5 98l72 47q82 -102 200.5 -86.5t161.5 127.5l96 256l-522 1006h98l465 -895l336 895h96l-485 -1292q-33 -88 -108.5 -140.5t-157.5 -52.5zM803 1184q-31 0 -52.5 22.5t-21.5 52t21.5 51t52.5 21.5t52.5 -21.5t21.5 -51.5t-21.5 -52
t-52.5 -22zM411.5 1184q-30.5 0 -52 22.5t-21.5 52t21.5 51t52 21.5t52 -21.5t21.5 -51.5t-21.5 -52t-52 -22z" />
    <glyph glyph-name="Amacron" unicode="&#x100;" 
d="M391 518h658l-330 764zM1272 0l-185 426h-735l-182 -426h-102l622 1434h62l622 -1434h-102zM991 1655v-64h-542v64h542z" />
    <glyph glyph-name="amacron" unicode="&#x101;" horiz-adv-x="1052" 
d="M464 82q128 0 231.5 83t103.5 204v98q-139 51 -284.5 51t-237 -59.5t-91.5 -163.5v-4q0 -98 75 -153.5t203 -55.5zM512 1034q164 0 271.5 -101.5t107.5 -277.5v-655h-90v176q-131 -178 -352 -178q-156 0 -254.5 80t-98.5 213v4q0 143 115 221t299 78t291 -64v125
q0 129 -83 210t-206 81q-82 0 -150.5 -42t-103.5 -113l-90 28q45 98 139 156.5t205 58.5zM797 1255v-63h-543v63h543z" />
    <glyph glyph-name="Abreve" unicode="&#x102;" 
d="M391 518h658l-330 764zM1272 0l-185 426h-735l-182 -426h-102l622 1434h62l622 -1434h-102zM720 1548q-93 0 -169 64.5t-109 171.5l62 20q23 -84 83 -138t132 -54t131 52t86 138l61 -18q-33 -106 -108.5 -171t-168.5 -65z" />
    <glyph glyph-name="abreve" unicode="&#x103;" horiz-adv-x="1052" 
d="M464 82q128 0 231.5 83t103.5 204v98q-139 51 -284.5 51t-237 -59.5t-91.5 -163.5v-4q0 -98 75 -153.5t203 -55.5zM512 1034q164 0 271.5 -101.5t107.5 -277.5v-655h-90v176q-131 -178 -352 -178q-156 0 -254.5 80t-98.5 213v4q0 143 115 221t299 78t291 -64v125
q0 129 -83 210t-206 81q-82 0 -150.5 -42t-103.5 -113l-90 28q45 98 139 156.5t205 58.5zM525 1149q-93 0 -168.5 64.5t-108.5 170.5l61 21q23 -84 83.5 -138.5t132 -54.5t131 52.5t85.5 138.5l62 -19q-33 -106 -109 -170.5t-169 -64.5z" />
    <glyph glyph-name="Aogonek" unicode="&#x104;" 
d="M1489 -279q-92 0 -139 72t-41 197h61q-6 -203 119 -203q76 0 119 78l53 -31q-23 -51 -69 -82t-103 -31zM391 518h658l-330 764zM1272 0l-185 426h-735l-182 -426h-102l622 1434h62l622 -1434h-102z" />
    <glyph glyph-name="aogonek" unicode="&#x105;" horiz-adv-x="1052" 
d="M464 82q128 0 231.5 83t103.5 204v98q-139 51 -284.5 51t-237 -59.5t-91.5 -163.5v-4q0 -98 75 -153.5t203 -55.5zM1012 -262q-90 0 -137.5 69.5t-43.5 192.5h-30v176q-131 -178 -352 -178q-156 0 -254.5 80t-98.5 213v4q0 143 115 221t299 78t291 -64v125q0 129 -83 210
t-206 81q-82 0 -150.5 -42t-103.5 -113l-90 28q45 98 139 156.5t205 58.5q164 0 271.5 -101.5t107.5 -277.5v-649h2q-6 -203 119 -203q75 0 118 78l54 -31q-23 -51 -69 -81.5t-103 -30.5z" />
    <glyph glyph-name="Cacute" unicode="&#x106;" horiz-adv-x="1589" 
d="M858 -6q-295 0 -505 210t-210 505t211 505.5t504 210.5q201 0 372 -105.5t263 -281.5l-80 -45q-80 158 -228.5 250t-324.5 92q-260 0 -443.5 -183t-183.5 -443t183.5 -442.5t443.5 -182.5q174 0 323.5 91t229.5 249l80 -43q-92 -178 -263 -282.5t-372 -104.5zM868 1561
l-47 16l117 340l72 -27z" />
    <glyph glyph-name="cacute" unicode="&#x107;" horiz-adv-x="1189" 
d="M633 -10q-217 0 -368.5 152.5t-151.5 366.5t152.5 366.5t367.5 152.5q143 0 264 -73.5t190 -200.5l-86 -33q-53 98 -153 157.5t-215 59.5q-176 0 -303 -126t-127 -303t126 -302t304 -125q117 0 216 59.5t157 161.5l84 -35q-68 -127 -191 -202.5t-266 -75.5zM659 1157
l-47 17l117 339l72 -26z" />
    <glyph glyph-name="Cdotaccent" unicode="&#x10a;" horiz-adv-x="1589" 
d="M858 -6q-295 0 -505 210t-210 505t211 505.5t504 210.5q201 0 372 -105.5t263 -281.5l-80 -45q-80 158 -228.5 250t-324.5 92q-260 0 -443.5 -183t-183.5 -443t183.5 -442.5t443.5 -182.5q174 0 323.5 91t229.5 249l80 -43q-92 -178 -263 -282.5t-372 -104.5zM841.5 1583
q-30.5 0 -52 22.5t-21.5 52.5t21.5 51.5t52 21.5t52 -21.5t21.5 -51.5t-21.5 -52.5t-52 -22.5z" />
    <glyph glyph-name="cdotaccent" unicode="&#x10b;" horiz-adv-x="1189" 
d="M633 -10q-217 0 -368.5 152.5t-151.5 366.5t152.5 366.5t367.5 152.5q143 0 264 -73.5t190 -200.5l-86 -33q-53 98 -153 157.5t-215 59.5q-176 0 -303 -126t-127 -303t126 -302t304 -125q117 0 216 59.5t157 161.5l84 -35q-68 -127 -191 -202.5t-266 -75.5zM633 1180
q-31 0 -53 22t-21.5 52t22 51.5t52.5 21.5t52.5 -21.5t21.5 -51.5t-21.5 -52t-52.5 -22z" />
    <glyph glyph-name="Ccaron" unicode="&#x10c;" horiz-adv-x="1589" 
d="M858 -6q-295 0 -505 210t-210 505t211 505.5t504 210.5q201 0 372 -105.5t263 -281.5l-80 -45q-80 158 -228.5 250t-324.5 92q-260 0 -443.5 -183t-183.5 -443t183.5 -442.5t443.5 -182.5q174 0 323.5 91t229.5 249l80 -43q-92 -178 -263 -282.5t-372 -104.5zM666 1890
l176 -276l174 276l47 -30l-199 -316h-47l-196 318z" />
    <glyph glyph-name="ccaron" unicode="&#x10d;" horiz-adv-x="1189" 
d="M633 -10q-217 0 -368.5 152.5t-151.5 366.5t152.5 366.5t367.5 152.5q143 0 264 -73.5t190 -200.5l-86 -33q-53 98 -153 157.5t-215 59.5q-176 0 -303 -126t-127 -303t126 -302t304 -125q117 0 216 59.5t157 161.5l84 -35q-68 -127 -191 -202.5t-266 -75.5zM457 1487
l176 -277l174 277l47 -31l-199 -315h-47l-196 317z" />
    <glyph glyph-name="Dcaron" unicode="&#x10e;" horiz-adv-x="1464" 
d="M633 92q260 0 443.5 182.5t183.5 442.5t-184.5 442t-442.5 182h-338v-1249h338zM633 1434q297 0 507 -210t210 -507t-210 -507t-507 -210h-428v1434h428zM696 1544h-47l-196 318l45 28l176 -276l174 276l47 -30z" />
    <glyph glyph-name="dcaron" unicode="&#x10f;" horiz-adv-x="1349" 
d="M629 76q125 0 227 66t154 177v375q-54 109 -156 171t-225 63q-176 0 -301 -124t-125 -301t124 -302t302 -125zM1010 1509h90v-1509h-90v182q-158 -196 -378 -196t-370 150t-150 367t152 367t369 150t377 -199v688zM1337 1585l74 -26l-143 -332l-47 16z" />
    <glyph glyph-name="Dcroat" unicode="&#x110;" horiz-adv-x="1464" 
d="M633 92q260 0 443.5 182.5t183.5 442.5t-184.5 442t-442.5 182h-338v-591h319v-62h-319v-596h338zM633 1434q297 0 507 -210t210 -507t-210 -507t-507 -210h-428v688h-162v62h162v684h428z" />
    <glyph glyph-name="dcroat" unicode="&#x111;" horiz-adv-x="1273" 
d="M629 76q125 0 227 66.5t154 176.5v375q-55 109 -156.5 171.5t-224.5 62.5q-176 0 -301 -124t-125 -301t124 -302t302 -125zM1315 1251v-61h-215v-1190h-90v182q-158 -196 -378 -196t-369.5 150.5t-149.5 366.5t151.5 366.5t368.5 150.5t377 -199v369h-244v61h244v183h90
v-183h215z" />
    <glyph glyph-name="Emacron" unicode="&#x112;" horiz-adv-x="1280" 
d="M1151 1341h-856v-579h764v-90h-764v-580h856v-92h-946v1434h946v-93zM946 1665v-63h-543v63h543z" />
    <glyph glyph-name="emacron" unicode="&#x113;" horiz-adv-x="1255" 
d="M630 940q-155 0 -272.5 -98.5t-146.5 -247.5h836q-29 147 -145.5 246.5t-271.5 99.5zM631 82q125 0 231.5 69.5t157.5 184.5l80 -37q-59 -139 -187.5 -222t-281.5 -83q-215 0 -366.5 151.5t-151.5 366.5t151.5 365.5t365.5 150.5t362.5 -151.5t148.5 -372.5h-938
q4 -176 129 -299t299 -123zM901 1255v-63h-543v63h543z" />
    <glyph glyph-name="Edotaccent" unicode="&#x116;" horiz-adv-x="1280" 
d="M1151 1341h-856v-579h764v-90h-764v-580h856v-92h-946v1434h946v-93zM676 1593q-31 0 -52.5 22.5t-21.5 52.5t21.5 51.5t52.5 21.5t52.5 -21.5t21.5 -51.5t-21.5 -52.5t-52.5 -22.5z" />
    <glyph glyph-name="edotaccent" unicode="&#x117;" horiz-adv-x="1255" 
d="M630 940q-155 0 -272.5 -98.5t-146.5 -247.5h836q-29 147 -145.5 246.5t-271.5 99.5zM631 82q125 0 231.5 69.5t157.5 184.5l80 -37q-59 -139 -187.5 -222t-281.5 -83q-215 0 -366.5 151.5t-151.5 366.5t151.5 365.5t365.5 150.5t362.5 -151.5t148.5 -372.5h-938
q4 -176 129 -299t299 -123zM631 1184q-31 0 -52.5 22.5t-21.5 52t21.5 51t52.5 21.5t52.5 -21.5t21.5 -51.5t-21.5 -52t-52.5 -22z" />
    <glyph glyph-name="Eogonek" unicode="&#x118;" horiz-adv-x="1280" 
d="M1266 -272q-92 0 -139.5 71.5t-41.5 196.5h62q-6 -203 119 -203q75 0 118 78l54 -31q-23 -51 -69 -81.5t-103 -30.5zM1151 92v-92h-946v1434h946v-93h-856v-579h764v-90h-764v-580h856z" />
    <glyph glyph-name="eogonek" unicode="&#x119;" horiz-adv-x="1255" 
d="M772 -211q76 0 119 78l53 -31q-23 -51 -69 -81.5t-103 -30.5q-92 0 -139 71.5t-41 196.5h61q-6 -203 119 -203zM630 940q-155 0 -272.5 -98.5t-146.5 -247.5h836q-29 147 -145.5 246.5t-271.5 99.5zM631 82q125 0 231.5 69.5t157.5 184.5l80 -37q-59 -139 -187.5 -222
t-281.5 -83q-215 0 -366.5 151.5t-151.5 366.5t151.5 365.5t365.5 150.5t362.5 -151.5t148.5 -372.5h-938q4 -176 129 -299t299 -123z" />
    <glyph glyph-name="Ecaron" unicode="&#x11a;" horiz-adv-x="1280" 
d="M1151 1341h-856v-579h764v-90h-764v-580h856v-92h-946v1434h946v-93zM698 1554h-47l-196 318l45 29l176 -277l174 277l47 -31z" />
    <glyph glyph-name="ecaron" unicode="&#x11b;" horiz-adv-x="1255" 
d="M630 940q-155 0 -272.5 -98.5t-146.5 -247.5h836q-29 147 -145.5 246.5t-271.5 99.5zM631 82q125 0 231.5 69.5t157.5 184.5l80 -37q-59 -139 -187.5 -222t-281.5 -83q-215 0 -366.5 151.5t-151.5 366.5t151.5 365.5t365.5 150.5t362.5 -151.5t148.5 -372.5h-938
q4 -176 129 -299t299 -123zM653 1145h-47l-196 317l45 29l176 -277l174 277l47 -31z" />
    <glyph glyph-name="Gbreve" unicode="&#x11e;" horiz-adv-x="1689" 
d="M846 668h727q-25 -289 -229.5 -478.5t-492.5 -189.5t-498 211t-210 507t209 506t506 210q199 0 368 -102.5t265 -280.5l-80 -54q-72 156 -222.5 250t-330.5 94q-260 0 -442.5 -182t-182.5 -441t183.5 -442.5t441.5 -183.5q219 0 391 136.5t219 346.5h-622v93zM841 1548
q-93 0 -169 64.5t-109 171.5l62 20q23 -84 83 -138t131.5 -54t131 52t86.5 138l61 -18q-33 -106 -108.5 -171t-168.5 -65z" />
    <glyph glyph-name="gbreve" unicode="&#x11f;" horiz-adv-x="1280" 
d="M631 109q123 0 226.5 65.5t156.5 175.5v379q-53 111 -158.5 176.5t-224.5 65.5q-176 0 -302 -127t-126 -305.5t127 -304t301 -125.5zM1014 1051h92v-1076q0 -205 -134 -334.5t-331 -129.5q-135 0 -252 75.5t-172 198.5l84 37q45 -100 138 -160.5t202 -60.5
q158 0 265.5 104.5t107.5 269.5v242q-164 -199 -381 -199t-368.5 152t-151.5 369t152.5 369.5t370.5 152.5t378 -203v193zM630 1204q-93 0 -169 64.5t-109 171.5l62 20q23 -84 83 -138t131.5 -54t131 52t86.5 138l61 -18q-33 -106 -108.5 -171t-168.5 -65z" />
    <glyph glyph-name="Gdotaccent" unicode="&#x120;" horiz-adv-x="1689" 
d="M846 668h727q-25 -289 -229.5 -478.5t-492.5 -189.5t-498 211t-210 507t209 506t506 210q199 0 368 -102.5t265 -280.5l-80 -54q-72 156 -222.5 250t-330.5 94q-260 0 -442.5 -182t-182.5 -441t183.5 -442.5t441.5 -183.5q219 0 391 136.5t219 346.5h-622v93zM841.5 1583
q-30.5 0 -52 22.5t-21.5 52.5t21.5 51.5t52 21.5t52 -21.5t21.5 -51.5t-21.5 -52.5t-52 -22.5z" />
    <glyph glyph-name="gdotaccent" unicode="&#x121;" horiz-adv-x="1280" 
d="M631 109q123 0 226.5 65.5t156.5 175.5v379q-53 111 -158.5 176.5t-224.5 65.5q-176 0 -302 -127t-126 -305.5t127 -304t301 -125.5zM1014 1051h92v-1076q0 -205 -134 -334.5t-331 -129.5q-135 0 -252 75.5t-172 198.5l84 37q45 -100 138 -160.5t202 -60.5
q158 0 265.5 104.5t107.5 269.5v242q-164 -199 -381 -199t-368.5 152t-151.5 369t152.5 369.5t370.5 152.5t378 -203v193zM631 1239q-31 0 -52.5 22.5t-21.5 52.5t21.5 51t52.5 21t53 -22q22 -20 21.5 -50t-22 -52.5t-52.5 -22.5z" />
    <glyph glyph-name="Gcommaaccent" unicode="&#x122;" horiz-adv-x="1689" 
d="M888 -141q36 0 59.5 -37t23.5 -98.5t-39 -107.5t-111 -62v32q80 14 80 88q0 31 -22.5 42.5t-46 25.5t-23.5 47t21.5 51.5t57.5 18.5zM846 668h727q-25 -289 -229.5 -478.5t-492.5 -189.5t-498 211t-210 507t209 506t506 210q199 0 368 -102.5t265 -280.5l-80 -54
q-72 156 -222.5 250t-330.5 94q-260 0 -442.5 -182t-182.5 -441t183.5 -442.5t441.5 -183.5q219 0 391 136.5t219 346.5h-622v93z" />
    <glyph glyph-name="gcommaaccent" unicode="&#x123;" horiz-adv-x="1280" 
d="M631 109q123 0 226.5 65.5t156.5 175.5v379q-53 111 -158.5 176.5t-224.5 65.5q-176 0 -302 -127t-126 -305.5t127 -304t301 -125.5zM1014 1051h92v-1076q0 -205 -134 -334.5t-331 -129.5q-135 0 -252 75.5t-172 198.5l84 37q45 -100 138 -160.5t202 -60.5
q158 0 265.5 104.5t107.5 269.5v242q-164 -199 -381 -199t-368.5 152t-151.5 369t152.5 369.5t370.5 152.5t378 -203v193zM613 1167q-37 0 -60 36t-23 93q0 141 150 177v-33q-80 -10 -80 -88q0 -25 14.5 -38.5t31 -16.5t30.5 -19t14 -45t-20 -47.5t-57 -18.5z" />
    <glyph glyph-name="Hbar" unicode="&#x126;" horiz-adv-x="1431" 
d="M1137 1434h90v-1434h-90v672h-840v-672h-92v1434h92v-672h840v672z" />
    <glyph glyph-name="hbar" unicode="&#x127;" horiz-adv-x="1136" 
d="M580 1028q170 0 286.5 -112.5t116.5 -290.5v-625h-92v625q0 129 -92 221t-224 92t-221.5 -113.5t-89.5 -255.5v-569h-90v1194h-229v61h229v179h90v-179h230v-61h-230v-383q53 98 135.5 157.5t180.5 59.5z" />
    <glyph glyph-name="Itilde" unicode="&#x128;" horiz-adv-x="516" 
d="M211 0v1434h92v-1434h-92zM145 1683q-68 0 -129 -94l-55 33q74 125 180 127q53 2 140.5 -55.5t136.5 -55.5t102 76l55 -35q-68 -106 -155 -106q-57 -2 -144.5 54t-130.5 56z" />
    <glyph glyph-name="itilde" unicode="&#x129;" horiz-adv-x="438" 
d="M264 1024v-1024h-90v1024h90zM106 1284q-68 0 -129 -94l-55 33q74 125 180 127q53 2 140.5 -55.5t136.5 -55.5t102 76l56 -35q-68 -106 -156 -106q-57 -2 -144 54t-131 56z" />
    <glyph glyph-name="Imacron" unicode="&#x12a;" horiz-adv-x="516" 
d="M211 0v1434h92v-1434h-92zM-14 1591v64h542v-64h-542z" />
    <glyph glyph-name="imacron" unicode="&#x12b;" horiz-adv-x="438" 
d="M264 1024v-1024h-90v1024h90zM-53 1192v63h542v-63h-542z" />
    <glyph glyph-name="Iogonek" unicode="&#x12e;" horiz-adv-x="516" 
d="M424 -262q-90 0 -137 69.5t-43 192.5h-33v1434h92v-1428h2q-6 -203 119 -203q76 0 119 78l53 -31q-23 -51 -69 -81.5t-103 -30.5z" />
    <glyph glyph-name="iogonek" unicode="&#x12f;" horiz-adv-x="438" 
d="M381 -262q-90 0 -137 69.5t-43 192.5h-27v1024h90v-1024h-2q-4 -197 119 -197q76 0 119 78l53 -31q-23 -51 -69 -81.5t-103 -30.5zM293 1258q0 -30 -21.5 -52t-52.5 -22t-52.5 22.5t-21.5 52t21.5 51t52.5 21.5t52.5 -21.5t21.5 -51.5z" />
    <glyph glyph-name="Idotaccent" unicode="&#x130;" horiz-adv-x="516" 
d="M211 0v1434h92v-1434h-92zM258 1583q-31 0 -52.5 22.5t-21.5 52.5t21.5 51.5t52.5 21.5t52.5 -21.5t21.5 -51.5t-21.5 -52.5t-52.5 -22.5z" />
    <glyph glyph-name="dotlessi" unicode="&#x131;" horiz-adv-x="438" 
d="M264 1024v-1024h-90v1024h90z" />
    <glyph glyph-name="Kcommaaccent" unicode="&#x136;" horiz-adv-x="1431" 
d="M703 -141q36 0 59.5 -37t23.5 -98.5t-38.5 -107.5t-110.5 -62v32q80 14 80 88q0 31 -22.5 42.5t-46 25.5t-23.5 47t21 51.5t57 18.5zM295 0h-90v1434h90v-824l903 824h135l-723 -660l729 -774h-120l-678 711l-246 -226v-485z" />
    <glyph glyph-name="kcommaaccent" unicode="&#x137;" horiz-adv-x="1136" 
d="M537 -141q36 0 60 -37t24 -98.5t-39 -107.5t-111 -62v32q80 14 80 88q0 25 -14.5 38.5t-32 16.5t-31.5 19t-14 45t21 47.5t57 18.5zM264 0h-90v1434h90v-918l610 508h140l-514 -430l561 -594h-123l-508 535l-166 -140v-395z" />
    <glyph glyph-name="Lacute" unicode="&#x139;" horiz-adv-x="1224" 
d="M295 90h862v-90h-952v1432h90v-1342zM535 1925l-142 -330l-47 17l117 340z" />
    <glyph glyph-name="lacute" unicode="&#x13a;" horiz-adv-x="419" 
d="M264 1434v-1434h-90v1434h90zM250 1542l-49 19l116 340l74 -27z" />
    <glyph glyph-name="Lcommaaccent" unicode="&#x13b;" horiz-adv-x="1224" 
d="M724 -141q36 0 59.5 -37t23.5 -98.5t-39 -107.5t-111 -62v32q80 14 80 88q0 31 -22.5 42.5t-46 25.5t-23.5 47t21.5 51.5t57.5 18.5zM295 90h862v-90h-952v1432h90v-1342z" />
    <glyph glyph-name="lcommaaccent" unicode="&#x13c;" horiz-adv-x="438" 
d="M246 -326q0 31 -22.5 42.5t-46 25.5t-23.5 47t21.5 51.5t57 18.5t59 -37t23.5 -98.5t-38.5 -107.5t-110.5 -62v32q80 14 80 88zM264 1434v-1434h-90v1434h90z" />
    <glyph glyph-name="Lcaron" unicode="&#x13d;" horiz-adv-x="1224" 
d="M676 1401l-144 -330l-47 16l117 340zM295 90h862v-90h-952v1432h90v-1342z" />
    <glyph glyph-name="lcaron" unicode="&#x13e;" horiz-adv-x="485" 
d="M264 1434v-1434h-90v1434h90zM391 1227l-47 16l117 342l74 -26z" />
    <glyph glyph-name="Lslash" unicode="&#x141;" horiz-adv-x="1224" 
d="M295 90h862v-90h-952v592l-176 -248l-43 31l219 311v746h90v-619l190 270l45 -30l-235 -332v-631z" />
    <glyph glyph-name="lslash" unicode="&#x142;" horiz-adv-x="438" 
d="M264 0h-90v598l-184 -260l-43 31l227 321v744h90v-615l182 258l46 -30l-228 -322v-725z" />
    <glyph glyph-name="Nacute" unicode="&#x143;" horiz-adv-x="1476" 
d="M1180 1434h92v-1434h-74l-903 1262v-1262h-90v1434h78l897 -1252v1252zM905 1823l-141 -330l-47 16l117 340z" />
    <glyph glyph-name="nacute" unicode="&#x144;" horiz-adv-x="1101" 
d="M569 1030q156 0 270.5 -109.5t114.5 -293.5v-627h-90v627q0 135 -92 224t-224 89t-221 -108.5t-89 -245.5v-586h-91v1018h91v-211q120 223 331 223zM721 1491l-141 -330l-48 17l117 340z" />
    <glyph glyph-name="Ncommaaccent" unicode="&#x145;" horiz-adv-x="1476" 
d="M775 -141q36 0 59.5 -37t23.5 -98.5t-39 -107.5t-110 -62v32q80 14 79 88q0 25 -14 38.5t-31.5 16.5t-32 19t-14.5 45t21.5 47.5t57.5 18.5zM1180 1434h92v-1434h-74l-903 1262v-1262h-90v1434h78l897 -1252v1252z" />
    <glyph glyph-name="ncommaaccent" unicode="&#x146;" horiz-adv-x="1101" 
d="M582 -141q36 0 60 -37t24 -98.5t-39 -107.5t-111 -62v32q80 14 80 88q0 25 -14.5 38.5t-32 16.5t-31.5 19t-14 45t21 47.5t57 18.5zM569 1030q156 0 270.5 -109.5t114.5 -293.5v-627h-90v627q0 135 -92 224t-224 89t-221 -108.5t-89 -245.5v-586h-91v1018h91v-211
q120 223 331 223z" />
    <glyph glyph-name="Ncaron" unicode="&#x147;" horiz-adv-x="1476" 
d="M1180 1434h92v-1434h-74l-903 1262v-1262h-90v1434h78l897 -1252v1252zM760 1477h-47l-197 317l45 29l176 -277l174 277l47 -31z" />
    <glyph glyph-name="ncaron" unicode="&#x148;" horiz-adv-x="1101" 
d="M569 1030q156 0 270.5 -109.5t114.5 -293.5v-627h-90v627q0 135 -92 224t-224 89t-221 -108.5t-89 -245.5v-586h-91v1018h91v-211q120 223 331 223zM575 1145h-47l-196 317l45 29l176 -277l174 277l47 -31z" />
    <glyph glyph-name="Eng" unicode="&#x14a;" horiz-adv-x="1476" 
d="M1180 1434h92v-1586q0 -80 -44 -142q-92 -130 -246 -106q-77 11 -136 66l63 66q78 -74 175 -32t98 148v175l-887 1239v-1262h-90v1434h78l897 -1252v1252z" />
    <glyph glyph-name="eng" unicode="&#x14b;" horiz-adv-x="1101" 
d="M573 1030q152 0 267 -110t114 -293v-742q0 -123 -86 -210t-206 -87q-76 0 -144 39l43 76q43 -23 96 -22q88 0 148 59q59 59 59 145v742q0 135 -92 224t-225 89t-221 -108t-88 -246v-586h-91v1018h91v-211q118 223 335 223z" />
    <glyph glyph-name="Omacron" unicode="&#x14c;" horiz-adv-x="1691" 
d="M860 92q256 0 440.5 183.5t184.5 442.5t-182.5 441t-442.5 182t-443.5 -182t-183.5 -442t185.5 -442.5t441.5 -182.5zM859 0q-294 0 -505 211t-211 507t210 506t507 210t506 -210t209 -507t-211 -507t-505 -210zM588 1591v64h542v-64h-542z" />
    <glyph glyph-name="omacron" unicode="&#x14d;" horiz-adv-x="1267" 
d="M634 82q177 0 304 126t127 304q2 178 -125 305t-305 127t-305 -128t-127 -305t127 -303t304 -126zM634 -10q-216 0 -368.5 152.5t-152.5 368.5t152.5 369.5t368.5 153.5t368.5 -153.5t153.5 -368.5t-152.5 -368.5t-369.5 -153.5zM358 1192v63h543v-63h-543z" />
    <glyph glyph-name="Ohungarumlaut" unicode="&#x150;" horiz-adv-x="1691" 
d="M860 92q256 0 440.5 183.5t184.5 442.5t-182.5 441t-442.5 182t-443.5 -182t-183.5 -442t185.5 -442.5t441.5 -182.5zM859 0q-294 0 -505 211t-211 507t210 506t507 210t506 -210t209 -507t-211 -507t-505 -210zM987 1563l-49 18l117 340l73 -27zM797 1563l-49 18
l116 340l74 -27z" />
    <glyph glyph-name="ohungarumlaut" unicode="&#x151;" horiz-adv-x="1267" 
d="M634 82q177 0 304 126t127 304q2 178 -125 305t-305 127t-305 -128t-127 -305t127 -303t304 -126zM634 -10q-216 0 -368.5 152.5t-152.5 368.5t152.5 369.5t368.5 153.5t368.5 -153.5t153.5 -368.5t-152.5 -368.5t-369.5 -153.5zM737 1184l-47 18l117 340l74 -26z
M547 1184l-49 18l116 340l74 -26z" />
    <glyph glyph-name="OE" unicode="&#x152;" horiz-adv-x="2560" 
d="M860 92q256 0 440.5 183.5t184.5 442.5t-182.5 441t-442.5 182t-443.5 -182t-183.5 -442t185.5 -442.5t441.5 -182.5zM2431 1341h-856v-579h764v-90h-764v-580h856v-92h-946v369q-94 -168 -261 -268.5t-364 -100.5q-295 0 -506 211t-211 507t210 506t507 210
q199 0 365 -100.5t260 -268.5v369h946v-93z" />
    <glyph glyph-name="oe" unicode="&#x153;" horiz-adv-x="2207" 
d="M1581 938q-154 0 -271.5 -98.5t-146.5 -247.5h834q-29 150 -145.5 248t-270.5 98zM634 82q177 0 303 126t128 304t-125 305t-305 127t-305 -128t-127 -305t127 -303t304 -126zM1583 82q127 0 232.5 68.5t154.5 183.5l84 -39q-61 -139 -189 -222t-283 -83t-283 85
t-189 222q-63 -137 -191 -222t-286 -85q-215 0 -367.5 152.5t-152.5 368.5t152.5 369.5t367.5 153.5q158 0 287 -86t190 -225q61 137 189 221t284 84q213 0 361.5 -152.5t148.5 -373.5h-938q2 -174 127 -297t301 -123z" />
    <glyph glyph-name="Racute" unicode="&#x154;" horiz-adv-x="1343" 
d="M295 1341v-583h465q121 0 207 85t86 205.5t-86 206.5t-207 86h-465zM295 666v-666h-90v1434h555q158 0 271.5 -114t113.5 -263t-93.5 -257t-230.5 -130l385 -670h-106l-381 666h-424zM795 1890l-142 -329l-47 16l117 340z" />
    <glyph glyph-name="racute" unicode="&#x155;" horiz-adv-x="800" 
d="M266 592v-592h-92v1018h92v-215q72 147 205 201.5t289 -21.5l-47 -80q-92 49 -192.5 30.5t-168.5 -99.5q-86 -98 -86 -242zM614 1491l-141 -330l-47 17l117 340z" />
    <glyph glyph-name="Rcommaaccent" unicode="&#x156;" horiz-adv-x="1343" 
d="M705 -141q36 0 59.5 -37t23.5 -98.5t-38.5 -107.5t-110.5 -62v32q80 14 80 88q0 25 -14.5 38.5t-32 16.5t-31.5 19t-14 45t21 47.5t57 18.5zM295 1341v-583h465q121 0 207 85t86 205.5t-86 206.5t-207 86h-465zM295 666v-666h-90v1434h555q158 0 271.5 -114t113.5 -263
t-93.5 -256.5t-230.5 -130.5l385 -670h-106l-381 666h-424z" />
    <glyph glyph-name="rcommaaccent" unicode="&#x157;" horiz-adv-x="800" 
d="M224 -141q36 0 59.5 -37t23.5 -98.5t-39 -107.5t-110 -62v32q80 14 80 88q0 31 -22.5 42.5t-46.5 25.5t-24 47t21.5 51.5t57.5 18.5zM266 592v-592h-92v1018h92v-215q72 147 205 201.5t289 -21.5l-47 -80q-92 49 -192.5 30.5t-168.5 -99.5q-86 -98 -86 -242z" />
    <glyph glyph-name="Rcaron" unicode="&#x158;" horiz-adv-x="1343" 
d="M295 1341v-583h465q121 0 207 85t86 205.5t-86 206.5t-207 86h-465zM295 666v-666h-90v1434h555q158 0 271.5 -114t113.5 -263t-93.5 -257t-230.5 -130l385 -670h-106l-381 666h-424zM649 1544h-47l-196 318l45 28l176 -276l174 276l47 -30z" />
    <glyph glyph-name="rcaron" unicode="&#x159;" horiz-adv-x="800" 
d="M266 592v-592h-92v1018h92v-215q72 147 205 201.5t289 -21.5l-47 -80q-92 49 -192.5 30.5t-168.5 -99.5q-86 -98 -86 -242zM469 1145h-47l-197 317l45 29l176 -277l175 277l47 -31z" />
    <glyph glyph-name="Sacute" unicode="&#x15a;" horiz-adv-x="1208" 
d="M614 2q-373 0 -505 277l84 38q109 -225 421 -225q168 0 268.5 80t100.5 213q1 133 -117 202q-99 58 -233.5 85.5t-207.5 54.5t-141 70q-142 89 -142.5 259.5t115.5 276t310 105.5q330 0 453 -260l-76 -48q-96 217 -379 218q-154 0 -244 -79t-90 -208q0 -164 199 -242
q45 -18 227 -63q418 -96 418 -375q0 -168 -126 -273.5t-335 -105.5zM608 1561l-47 16l117 340l72 -27z" />
    <glyph glyph-name="sacute" unicode="&#x15b;" horiz-adv-x="942" 
d="M477.5 -10q-149.5 0 -248 64.5t-137.5 181.5l88 24q61 -180 291 -180q117 0 183.5 52t66.5 140q0 147 -268 199q-328 63 -328 281q0 123 86 202.5t227 79.5q281 0 355 -246l-88 -18q-59 174 -267 174q-102 0 -162.5 -53t-60.5 -139q0 -141 254 -191q344 -66 344 -289
q0 -125 -93 -203.5t-242.5 -78.5zM479 1161l-47 17l117 340l72 -27z" />
    <glyph glyph-name="Scedilla" unicode="&#x15e;" horiz-adv-x="1208" 
d="M680 -206q0 -54 -54.5 -81.5t-117 -11.5t-84.5 66l45 30q27 -49 89.5 -47t62.5 49q0 31 -35 56t-39 45t10 49q10 39 12 55q-338 16 -460 275l84 38q109 -225 421 -225q168 0 268.5 80t100.5 214q1 134 -117 201q-99 58 -233.5 85.5t-207.5 54.5t-141 70
q-142 89 -142.5 259.5t115.5 276t310 105.5q330 0 453 -260l-76 -48q-96 217 -379 218q-154 0 -244 -79t-90 -208q0 -164 199 -242q45 -18 227 -63q418 -96 418 -375q0 -164 -122.5 -270.5t-325.5 -108.5q0 -23 -11.5 -51t-9.5 -36.5t21 -25.5q53 -41 53 -95z" />
    <glyph glyph-name="scedilla" unicode="&#x15f;" horiz-adv-x="942" 
d="M553 -216q0 -54 -54.5 -82t-117 -11.5t-84.5 65.5l45 31q27 -49 89.5 -47t62.5 49q0 31 -35 55.5t-39 45t10 49.5q10 39 12 51q-131 8 -222 71.5t-128 174.5l88 24q61 -180 291 -180q117 0 183.5 52t66.5 140q0 147 -268 199q-328 63 -328 281q0 123 86 202.5t227 79.5
q281 0 355 -246l-88 -18q-59 174 -267 174q-102 0 -162.5 -53t-60.5 -139q0 -141 254 -191q344 -66 344 -289q0 -119 -85 -196.5t-228 -85.5q0 -20 -11.5 -49t-9.5 -37t21 -25q53 -41 53 -95z" />
    <glyph glyph-name="Scaron" unicode="&#x160;" horiz-adv-x="1208" 
d="M614 2q-373 0 -505 277l84 38q109 -225 421 -225q168 0 268.5 80t100.5 213q1 133 -117 202q-99 58 -233.5 85.5t-207.5 54.5t-141 70q-142 89 -142.5 259.5t115.5 276t310 105.5q330 0 453 -260l-76 -48q-96 217 -379 218q-154 0 -244 -79t-90 -208q0 -164 199 -242
q45 -18 227 -63q418 -96 418 -375q0 -168 -126 -273.5t-335 -105.5zM406 1890l176 -276l174 276l47 -30l-199 -316h-47l-197 318z" />
    <glyph glyph-name="scaron" unicode="&#x161;" horiz-adv-x="942" 
d="M477.5 -10q-149.5 0 -248 64.5t-137.5 181.5l88 24q61 -180 291 -180q117 0 183.5 52t66.5 140q0 147 -268 199q-328 63 -328 281q0 123 86 202.5t227 79.5q281 0 355 -246l-88 -18q-59 174 -267 174q-102 0 -162.5 -53t-60.5 -139q0 -141 254 -191q344 -66 344 -289
q0 -125 -93 -203.5t-242.5 -78.5zM276 1491l177 -277l174 277l47 -31l-199 -315h-47l-197 317z" />
    <glyph glyph-name="uni0162" unicode="&#x162;" horiz-adv-x="1312" 
d="M678 0q0 -25 -11 -53t-9.5 -36.5t20.5 -25.5q53 -41 53 -95t-54 -81.5t-116.5 -11.5t-85.5 65l45 31q29 -49 90.5 -47t61.5 49q0 31 -35 56t-39 45t10 49q10 39 13 55h-11v1341h-542v93h1177v-93h-543v-1341h-24z" />
    <glyph glyph-name="uni0163" unicode="&#x163;" horiz-adv-x="843" 
d="M565 -197q0 31 -35 56t-39 45t11 49q8 25 10 45q-98 25 -164.5 104.5t-66.5 188.5v635h-199v90h199v289h90v-289h319v-90h-319v-635q0 -123 111.5 -184.5t207.5 10.5l64 -68q-84 -61 -185 -57q-2 -14 -11 -39.5t-7 -34t20 -24.5q53 -41 53.5 -95.5t-54 -82t-117 -11.5
t-84.5 66l45 30q29 -49 90 -47t61 49z" />
    <glyph glyph-name="Tcaron" unicode="&#x164;" horiz-adv-x="1312" 
d="M1245 1434v-93h-543v-1341h-92v1341h-542v93h1177zM680 1544h-47l-197 318l45 28l176 -276l174 276l48 -30z" />
    <glyph glyph-name="tcaron" unicode="&#x165;" horiz-adv-x="856" 
d="M281 926h-199v90h199v289h90v-289h319v-90h-319v-629q-1 -121 111 -183t208 9l64 -66q-106 -67 -212 -57t-184 95t-77 202v629zM694 1559l-141 -332l-49 16l117 342z" />
    <glyph glyph-name="Tbar" unicode="&#x166;" horiz-adv-x="1312" 
d="M1245 1341h-543v-591h230v-62h-230v-688h-92v688h-227v62h227v591h-542v93h1177v-93z" />
    <glyph glyph-name="tbar" unicode="&#x167;" horiz-adv-x="843" 
d="M281 291v203h-172v61h172v371h-199v90h199v289h90v-289h319v-90h-319v-371h286v-61h-286v-203q0 -123 111.5 -184.5t207.5 10.5l64 -68q-74 -53 -159 -57t-153.5 31.5t-114.5 107.5t-46 160z" />
    <glyph glyph-name="Utilde" unicode="&#x168;" 
d="M721 0q-223 0 -380 157.5t-157 381.5v895h90v-895q0 -188 131.5 -317.5t316.5 -129.5t315 130t130 317v895h90v-895q0 -225 -156.5 -382t-379.5 -157zM608 1669q-68 0 -129 -94l-55 33q74 125 180 127q53 2 140 -55.5t136.5 -55.5t102.5 76l55 -35q-68 -106 -155 -106
q-57 -2 -144.5 54t-130.5 56z" />
    <glyph glyph-name="utilde" unicode="&#x169;" horiz-adv-x="1128" 
d="M864 1024h90v-1024h-90v215q-53 -102 -135 -164.5t-178 -62.5q-182 0 -293 111.5t-111 291.5v633h91v-633q0 -127 92 -220t220 -93t221 110.5t93 243.5v592zM434 1284q-68 0 -129 -94l-55 33q74 125 180 127q53 2 140 -55.5t136 -55.5t103 76l55 -35q-68 -106 -155 -106
q-57 -2 -144.5 54t-130.5 56z" />
    <glyph glyph-name="Umacron" unicode="&#x16a;" 
d="M721 0q-223 0 -380 157.5t-157 381.5v895h90v-895q0 -188 131.5 -317.5t316.5 -129.5t315 130t130 317v895h90v-895q0 -225 -156.5 -382t-379.5 -157zM449 1577v63h542v-63h-542z" />
    <glyph glyph-name="umacron" unicode="&#x16b;" horiz-adv-x="1128" 
d="M864 1024h90v-1024h-90v215q-53 -102 -135 -164.5t-178 -62.5q-182 0 -293 111.5t-111 291.5v633h91v-633q0 -127 92 -220t220 -93t221 110.5t93 243.5v592zM817 1255v-63h-543v63h543z" />
    <glyph glyph-name="Uring" unicode="&#x16e;" 
d="M721 0q-223 0 -380 157.5t-157 381.5v895h90v-895q0 -188 131.5 -317.5t316.5 -129.5t315 130t130 317v895h90v-895q0 -225 -156.5 -382t-379.5 -157zM719 1563q49 0 85 34.5t36 84.5t-35 85t-85 35t-85 -34.5t-35 -85t35 -85t84 -34.5zM720 1511q-71 0 -121 50.5
t-50 121t50 120.5t122 50t121 -50t49 -121t-50 -121t-121 -50z" />
    <glyph glyph-name="uring" unicode="&#x16f;" horiz-adv-x="1128" 
d="M864 1024h90v-1024h-90v215q-53 -102 -135 -164.5t-178 -62.5q-182 0 -293 111.5t-111 291.5v633h91v-633q0 -127 92 -220t220 -93t221 110.5t93 243.5v592zM546 1417q-50 0 -85 -34.5t-35 -85t35 -85t84 -34.5t85 34.5t36 84.5t-35 85t-85 35zM546 1126q-71 0 -121 50.5
t-50 121t50 120.5t121.5 50t121 -50t49.5 -121t-50 -121t-121 -50z" />
    <glyph glyph-name="Uhungarumlaut" unicode="&#x170;" 
d="M721 0q-223 0 -380 157.5t-157 381.5v895h90v-895q0 -188 131.5 -317.5t316.5 -129.5t315 130t130 317v895h90v-895q0 -225 -156.5 -382t-379.5 -157zM827 1569l-47 18l117 340l74 -26zM637 1569l-49 18l117 340l73 -26z" />
    <glyph glyph-name="uhungarumlaut" unicode="&#x171;" horiz-adv-x="1128" 
d="M864 1024h90v-1024h-90v215q-53 -102 -135 -164.5t-178 -62.5q-182 0 -293 111.5t-111 291.5v633h91v-633q0 -127 92 -220t220 -93t221 110.5t93 243.5v592zM797 1516l-144 -332l-47 18l117 340zM604 1516l-141 -332l-49 18l116 340z" />
    <glyph glyph-name="Uogonek" unicode="&#x172;" 
d="M1167 1434h90v-895q0 -219 -148 -374t-361 -165q-4 -195 118 -195q76 0 119 78l53 -30q-23 -51 -68.5 -82t-103.5 -31q-90 0 -137 69.5t-43 192.5q-211 12 -356.5 167t-145.5 370v895h90v-895q0 -188 131.5 -317.5t316.5 -129.5t315 130t130 317v895z" />
    <glyph glyph-name="uogonek" unicode="&#x173;" horiz-adv-x="1128" 
d="M1071 -266q-92 0 -139 71.5t-41 194.5h-27v215q-53 -102 -135 -164.5t-178 -62.5q-182 0 -293 111.5t-111 291.5v633h91v-633q0 -127 92 -220t220 -93t221 110.5t93 243.5v592h90v-1024h-2q-6 -201 119 -201q76 0 119 78l53 -31q-23 -51 -69 -81.5t-103 -30.5z" />
    <glyph glyph-name="Wcircumflex" unicode="&#x174;" horiz-adv-x="1916" 
d="M1739 1434h96l-416 -1434h-73l-390 1081l-387 -1081h-73l-414 1434h94l361 -1250l389 1086h63l387 -1084zM952 1743l-176 -277l-45 29l197 317h47l199 -315l-48 -31z" />
    <glyph glyph-name="wcircumflex" unicode="&#x175;" horiz-adv-x="1449" 
d="M385 0l-297 1024h90l250 -860l264 745h64l264 -745l252 860h90l-297 -1024h-70l-272 741l-270 -741h-68zM504 1137l196 317h48l198 -315l-47 -31l-174 276l-176 -276z" />
    <glyph glyph-name="Ycircumflex" unicode="&#x176;" horiz-adv-x="1363" 
d="M727 0h-90v692l-594 742h119l520 -652l518 652h119l-592 -740v-694zM682 1743l-176 -277l-45 29l196 317h48l198 -315l-47 -31z" />
    <glyph glyph-name="ycircumflex" unicode="&#x177;" horiz-adv-x="1159" 
d="M332 -461q-82 0 -150.5 37t-101.5 98l72 47q82 -102 200.5 -86.5t161.5 127.5l96 256l-522 1006h98l465 -895l336 895h96l-485 -1292q-33 -88 -108.5 -140.5t-157.5 -52.5zM606 1384l-176 -276l-45 29l197 317h47l198 -315l-47 -31z" />
    <glyph glyph-name="Ydieresis" unicode="&#x178;" horiz-adv-x="1363" 
d="M727 0h-90v692l-594 742h119l520 -652l518 652h119l-592 -740v-694zM878.5 1542q-30.5 0 -52 22.5t-21.5 52.5t21.5 51.5t52 21.5t52 -21.5t21.5 -51.5t-21.5 -52.5t-52 -22.5zM487.5 1542q-30.5 0 -52 22.5t-21.5 52.5t21.5 51.5t52 21.5t52 -21.5t21.5 -51.5
t-21.5 -52.5t-52 -22.5z" />
    <glyph glyph-name="Zacute" unicode="&#x179;" horiz-adv-x="1519" 
d="M1372 1434v-70l-1104 -1272h1098v-92h-1233v74l1100 1267h-1100v93h1239zM922 1890l-142 -329l-47 16l117 340z" />
    <glyph glyph-name="zacute" unicode="&#x17a;" horiz-adv-x="1060" 
d="M78 0v68l760 866h-758v88h897v-61l-764 -873h754v-88h-889zM555 1171l-47 17l117 340l71 -27z" />
    <glyph glyph-name="Zdotaccent" unicode="&#x17b;" horiz-adv-x="1519" 
d="M1372 1434v-70l-1104 -1272h1098v-92h-1233v74l1100 1267h-1100v93h1239zM753.5 1583q-30.5 0 -52 22.5t-21.5 52.5t21.5 51.5t52 21.5t52 -21.5t21.5 -51.5t-21.5 -52.5t-52 -22.5z" />
    <glyph glyph-name="zdotaccent" unicode="&#x17c;" horiz-adv-x="1060" 
d="M78 0v68l760 866h-758v88h897v-61l-764 -873h754v-88h-889zM528.5 1194q-30.5 0 -52 22.5t-21.5 52.5t21.5 51t52 21t52 -21.5t21.5 -51.5t-21.5 -52t-52 -22z" />
    <glyph glyph-name="Zcaron" unicode="&#x17d;" horiz-adv-x="1519" 
d="M1372 1434v-70l-1104 -1272h1098v-92h-1233v74l1100 1267h-1100v93h1239zM776 1544h-47l-197 318l46 28l176 -276l174 276l47 -30z" />
    <glyph glyph-name="zcaron" unicode="&#x17e;" horiz-adv-x="1060" 
d="M78 0v68l760 866h-758v88h897v-61l-764 -873h754v-88h-889zM352 1501l176 -276l174 276l48 -31l-199 -315h-47l-197 318z" />
    <glyph glyph-name="uni0181" unicode="&#x181;" horiz-adv-x="1361" 
d="M315 92h521q122 0 206 85t84 205t-84 204q-51 53 -102 68t-156 16h-469v-578zM315 760h478q115 6 195 91t81 203q0 118 -86 202t-207 85h-461v-581zM223 2v1341h-133q-106 0 -148 -97t31 -175l-65 -63q-55 59 -67 136q-22 153 107 246q62 44 142 44h686q158 0 271 -112
t112 -269q0 -103 -56 -191t-147 -133q84 -14 150 -78q113 -113 113 -271t-112 -268t-271 -110h-613z" />
    <glyph glyph-name="uni0186" unicode="&#x186;" horiz-adv-x="1609" 
d="M778 0q-201 0 -371.5 104.5t-263.5 282.5l80 45q82 -158 230.5 -249t324.5 -91q258 0 441.5 182.5t183.5 442.5t-183.5 442t-441.5 182q-176 0 -324.5 -91t-230.5 -249l-80 46q92 176 263.5 281.5t371.5 105.5q293 0 504 -211t211 -507t-209 -506t-506 -210z" />
    <glyph glyph-name="uni0187" unicode="&#x187;" horiz-adv-x="1744" 
d="M1276 1382q0 80 44 142.5t106.5 90t139 16.5t136.5 -66l-64 -66q-78 74 -175 32t-97 -149v-161q80 -80 127 -174l-80 -46q-80 158 -228.5 249t-324.5 91q-260 0 -443.5 -182t-183.5 -442t183.5 -442.5t443.5 -182.5q176 0 324.5 91t228.5 249l80 -45
q-92 -178 -263 -282.5t-370 -104.5q-297 0 -507 210t-210 506t211 507t506 211q229 0 416 -136v84z" />
    <glyph glyph-name="uni0188" unicode="&#x188;" horiz-adv-x="1204" 
d="M938 1028q0 78 43 140q92 133 246 109q76 -11 135 -67l-64 -67q-78 76 -174 33t-96 -148v-186q33 -39 59 -88l-86 -33q-53 97 -153 157t-215 60q-176 0 -303 -126t-127 -303t126 -302t304 -125q117 0 216 59t157 162l84 -35q-68 -126 -191 -202t-266 -76q-217 0 -369 152
t-152 367q0 214 153 367t368 152q170 0 305 -100v100z" />
    <glyph glyph-name="uni0189" unicode="&#x189;" horiz-adv-x="1511" 
d="M680 92q260 0 442 182t182 444t-182 442q-184 181 -442 181h-338v-600h432v-65h-432v-584h338zM680 1434q297 0 506 -210t209 -507t-210 -507t-505 -210h-428v676h-246v65h246v693h428z" />
    <glyph glyph-name="uni018A" unicode="&#x18a;" horiz-adv-x="1570" 
d="M739 92q258 0 441.5 182.5t183.5 443.5t-183.5 442t-441.5 181h-338v-1249h338zM739 1434q297 0 506 -210t209 -507t-210 -507t-505 -210h-430v1343h-170q-68 0 -115 -47t-47 -107.5t48 -117.5l-68 -63q-55 59 -65.5 136t17.5 139.5t90 106.5t140 44h600z" />
    <glyph glyph-name="uni018E" unicode="&#x18e;" horiz-adv-x="1273" 
d="M137 1434h944v-1434h-944v92h854v580h-764v90h764v579h-854v93z" />
    <glyph glyph-name="uni018F" unicode="&#x18f;" horiz-adv-x="1372" 
d="M724 88q155 0 273.5 97.5t147.5 246.5h-842q29 -147 147.5 -245.5t273.5 -98.5zM723 1034q215 0 366.5 -151.5t151.5 -366.5t-151.5 -366.5t-365.5 -151.5t-365.5 151.5t-151.5 374.5h946q-4 176 -129 298t-301 122q-125 0 -230.5 -69.5t-156.5 -184.5l-82 39
q59 137 188 221t281 84z" />
    <glyph glyph-name="uni0190" unicode="&#x190;" horiz-adv-x="1069" 
d="M540 0q-193 0 -328.5 120t-135.5 294q0 121 71.5 221t188.5 149q-88 47 -139.5 128t-51.5 178q0 145 113 248.5t277.5 103.5t280.5 -111.5t104 -265.5h-97q16 113 -71.5 200t-215 87t-214 -77t-86.5 -185.5t87 -186.5t209 -78h3v-90q-152 0 -259.5 -94t-107.5 -227
t107.5 -228.5t263.5 -95.5t265 106.5t89 245.5h96q14 -180 -121 -311t-328 -131z" />
    <glyph glyph-name="uni0191" unicode="&#x191;" horiz-adv-x="1263" 
d="M260 762h803v-90h-803v-840q0 -80 -43 -142q-90 -129 -246 -107q-76 11 -135 67l64 65q76 -77 174 -33t98 150v1636l995 2v-90l-907 -2v-616z" />
    <glyph glyph-name="florin" unicode="&#x192;" horiz-adv-x="983" 
d="M-27 -258l47 72q63 -59 157 -33q93 27 114 119l170 780l-250 2l4 61h256l131 600q20 91 92 147t161 54t157 -61l-54 -70q-63 59 -155 33t-113 -119l-127 -584h316l-5 -65l-323 2l-172 -797q-29 -139 -165 -185t-241 44z" />
    <glyph glyph-name="uni0193" unicode="&#x193;" horiz-adv-x="1789" 
d="M1370 1382v-165q74 -76 121 -166l-80 -54q-72 156 -222.5 250t-330.5 94q-260 0 -442.5 -182t-182.5 -441t183.5 -442.5t441.5 -183.5q219 0 391 136.5t219 346.5h-622v93h727q-25 -289 -229.5 -478.5t-492.5 -189.5t-498 211t-210 507t209 506t506 210q236 0 422 -140
v88q0 80 44 142.5t106.5 90t138.5 16.5t135 -66l-62 -66q-78 74 -175 32t-97 -149z" />
    <glyph glyph-name="uni0196" unicode="&#x196;" horiz-adv-x="602" 
d="M190 229v1246h91v-1246q0 -106 97 -148t175 34l63 -68q-59 -55 -136 -66q-153 -22 -246 106q-44 62 -44 142z" />
    <glyph glyph-name="uni0197" unicode="&#x197;" horiz-adv-x="704" 
d="M631 836v-60h-232v-776h-92v776h-231v60h231v598h92v-598h232z" />
    <glyph glyph-name="uni0198" unicode="&#x198;" horiz-adv-x="1425" 
d="M295 0h-90v1434h90v-756l594 502q59 51 135 58t138.5 -23.5t102.5 -96t35 -147.5l-92 4q8 106 -87 155.5t-175 -18.5l-366 -309l759 -803h-120l-709 743l-215 -182v-561z" />
    <glyph glyph-name="uni0199" unicode="&#x199;" horiz-adv-x="1136" 
d="M264 0h-90v1247q0 79 44 141q93 132 246 108q77 -11 136 -66l-63 -68q-77 74 -175 32t-98 -147v-731l610 508h140l-514 -430l561 -594h-123l-508 535l-166 -140v-395z" />
    <glyph glyph-name="uni019D" unicode="&#x19d;" horiz-adv-x="1447" 
d="M1151 1434h92v-1434h-74l-901 1257v-1411q0 -78 -44 -140t-106.5 -91t-139 -17.5t-136.5 66.5l64 68q78 -76 175 -34t97 148v1588h76l897 -1250v1250z" />
    <glyph glyph-name="Ohorn" unicode="&#x1a0;" horiz-adv-x="1691" 
d="M860 92q256 0 440.5 183.5t184.5 442.5t-182.5 441t-442.5 182t-443.5 -182t-183.5 -442t185.5 -442.5t441.5 -182.5zM1575 717q0 -297 -211 -507t-505 -210t-505 211t-211 507t210 506t507 210q174 0 324.5 -78t249.5 -211q35 -4 62.5 22.5t8 73.5t8 72.5t55.5 24.5
t48 -21q63 -63 -29 -156q-53 -57 -129 -53q117 -178 117 -391z" />
    <glyph glyph-name="ohorn" unicode="&#x1a1;" horiz-adv-x="1259" 
d="M635 944q-178 0 -305 -128t-127 -305t127 -303t304 -126t304 126t127 304q2 178 -125 305t-305 127zM634 -10q-216 0 -368.5 152.5t-152.5 368.5t152.5 369.5t367.5 153.5q131 0 244.5 -61.5t185.5 -165.5q51 -23 94 20q25 23 5.5 70t8 72.5t55.5 24.5t48 -21
q63 -63 -29 -156q-66 -70 -158 -49q68 -119 68 -256q2 -215 -151.5 -368.5t-369.5 -153.5z" />
    <glyph glyph-name="uni01A4" unicode="&#x1a4;" horiz-adv-x="1320" 
d="M844 758q121 0 208 86t87 206t-87 206t-208 85h-467v-583h467zM844 1434q160 0 272 -113t113 -271q0 -158 -113 -273q-113 -114 -272 -113h-467v-664h-90v1343h-121q-106 0 -148 -97t31 -175l-65 -63q-55 59 -67 136q-22 154 107 246q62 44 142 44h678z" />
    <glyph glyph-name="uni01A5" unicode="&#x1a5;" horiz-adv-x="1277" 
d="M647 94q178 0 303 125t125 302t-125 303t-303 126q-123 0 -226 -64t-157 -179v-379q52 -110 156 -172t227 -62zM642 1040q218 0 371 -150t153 -366q0 -214 -152 -368q-150 -154 -371 -154t-379 197v-611h-90v1706q0 121 87 208t208 87q76 0 143 -37l-45 -77
q-47 25 -98 24q-84 0 -144 -60t-61 -145v-452q160 198 378 198z" />
    <glyph glyph-name="uni01A9" unicode="&#x1a9;" horiz-adv-x="1273" 
d="M1137 1434v-93h-824l412 -622l-418 -627h830v-92h-947v92l418 627l-418 622v93h947z" />
    <glyph glyph-name="uni01AC" unicode="&#x1ac;" horiz-adv-x="1259" 
d="M1190 1432v-91h-543v-1341h-90v1341h-371q-106 0 -149 -97t33 -173l-66 -63q-55 59 -66.5 135t16.5 139.5t90 106.5t142 43h1004z" />
    <glyph glyph-name="uni01AD" unicode="&#x1ad;" horiz-adv-x="843" 
d="M281 940h-199v90h199v277q-1 117 77 201t184 96q106 10 212 -58l-64 -65q-96 71 -208 9t-111 -183v-277h319v-90h-319v-643q-1 -121 111 -182t208 8l64 -66q-106 -67 -212 -57t-184 95t-77 202v643z" />
    <glyph glyph-name="uni01AE" unicode="&#x1ae;" horiz-adv-x="1312" 
d="M1245 1434v-93h-545v-1507q0 -78 -43 -140t-106 -91t-139 -18t-136 67l64 67q78 -77 174 -33t96 148v1507h-542v93h1177z" />
    <glyph glyph-name="Uhorn" unicode="&#x1af;" 
d="M1257 539q0 -225 -156.5 -382t-379.5 -157t-380 157.5t-157 381.5v895h90v-895q0 -188 131.5 -317.5t316.5 -129.5t315 130t130 317v895h90v-84q61 -37 111 12q25 23 5.5 70t15.5 79q20 18 48 17t48 -21q63 -63 -25 -153t-203 -37v-778z" />
    <glyph glyph-name="uhorn" unicode="&#x1b0;" horiz-adv-x="1175" 
d="M954 0h-90v215q-53 -102 -135 -164.5t-178 -62.5q-182 0 -293 111.5t-111 291.5v633h91v-633q0 -127 92 -220t220 -93t221 110.5t93 243.5v592h90v-70q66 -47 119 7q25 25 5.5 71.5t15.5 77.5q20 18 48 17t48 -21q63 -63 -28 -154.5t-208 -31.5v-920z" />
    <glyph glyph-name="uni01B1" unicode="&#x1b1;" horiz-adv-x="1968" 
d="M1853 1341v-86h-397q121 -100 190 -243t68 -305q0 -293 -211 -504t-506 -211t-505 209t-209 506q0 160 67 303q68 143 189 245h-396v86h527l43 -81q-158 -80 -249 -228t-91 -325q0 -261 182 -443t442 -182t444 182q183 182 183 443q0 176 -92 324t-250 229l45 81h526z
" />
    <glyph glyph-name="uni01B3" unicode="&#x1b3;" horiz-adv-x="1484" 
d="M727 0h-90v692l-594 742h119l518 -652l461 578q66 82 166 94t182 -48t98 -169l-90 -12q-8 71 -60 109t-117 31t-108 -62l-485 -611v-692z" />
    <glyph glyph-name="uni01B4" unicode="&#x1b4;" horiz-adv-x="1214" 
d="M330 -473q-82 0 -151 37t-101 96l72 49q82 -102 200 -88t162 129l98 264l-522 1010h100l465 -895l451 1196q51 137 193 160t231 -86l-74 -51q-55 66 -145 50t-123 -106l-590 -1573q-33 -88 -109 -140q-75 -52 -157 -52z" />
    <glyph glyph-name="uni01B7" unicode="&#x1b7;" horiz-adv-x="1222" 
d="M1087 1434v-70l-385 -549q154 -33 253 -145t99 -270q0 -160 -134 -280q-135 -120 -329 -120t-330 131t-122 311h99q-20 -139 88 -245q108 -107 266 -107q156 0 264 95t107 229q0 134 -108 227q-108 94 -259 94v90l360 516h-692v93h823z" />
    <glyph glyph-name="uni01C0" unicode="&#x1c0;" horiz-adv-x="415" 
d="M174 1495h66l2 -1495h-66z" />
    <glyph glyph-name="uni01C1" unicode="&#x1c1;" horiz-adv-x="743" 
d="M502 1495h65l2 -1495h-65zM174 1495h66l2 -1495h-66z" />
    <glyph glyph-name="uni01C2" unicode="&#x1c2;" horiz-adv-x="1234" 
d="M1174 926h-525l2 -385h523v-64h-523v-477h-65v477h-525v64h525v385h-525v65h525v539h63v-539h525v-65z" />
    <glyph glyph-name="uni01CD" unicode="&#x1cd;" 
d="M391 518h658l-330 764zM1272 0l-185 426h-735l-182 -426h-102l622 1434h62l622 -1434h-102zM743 1544h-47l-196 318l45 28l176 -276l174 276l47 -30z" />
    <glyph glyph-name="uni01CE" unicode="&#x1ce;" horiz-adv-x="1052" 
d="M464 82q128 0 231.5 83t103.5 204v98q-139 51 -284.5 51t-237 -59.5t-91.5 -163.5v-4q0 -98 75 -153.5t203 -55.5zM512 1034q164 0 271.5 -101.5t107.5 -277.5v-655h-90v176q-131 -178 -352 -178q-156 0 -254.5 80t-98.5 213v4q0 143 115 221t299 78t291 -64v125
q0 129 -83 210t-206 81q-82 0 -150.5 -42t-103.5 -113l-90 28q45 98 139 156.5t205 58.5zM549 1145h-47l-197 317l45 29l176 -277l174 277l48 -31z" />
    <glyph glyph-name="uni01CF" unicode="&#x1cf;" horiz-adv-x="516" 
d="M211 0v1434h92v-1434h-92zM82 1890l176 -276l174 276l47 -30l-198 -316h-48l-196 318z" />
    <glyph glyph-name="uni01D0" unicode="&#x1d0;" horiz-adv-x="438" 
d="M264 1024v-1024h-90v1024h90zM43 1491l176 -277l174 277l47 -31l-198 -315h-47l-197 317z" />
    <glyph glyph-name="uni01D1" unicode="&#x1d1;" horiz-adv-x="1691" 
d="M860 92q256 0 440.5 183.5t184.5 442.5t-182.5 441t-442.5 182t-443.5 -182t-183.5 -442t185.5 -442.5t441.5 -182.5zM859 0q-294 0 -505 211t-211 507t210 506t507 210t506 -210t209 -507t-211 -507t-505 -210zM684 1890l176 -276l174 276l47 -30l-198 -316h-47
l-197 318z" />
    <glyph glyph-name="uni01D2" unicode="&#x1d2;" horiz-adv-x="1267" 
d="M634 82q177 0 304 126t127 304q2 178 -125 305t-305 127t-305 -128t-127 -305t127 -303t304 -126zM634 -10q-216 0 -368.5 152.5t-152.5 368.5t152.5 369.5t368.5 153.5t368.5 -153.5t153.5 -368.5t-152.5 -368.5t-369.5 -153.5zM455 1491l176 -277l174 277l47 -31
l-199 -315h-47l-196 317z" />
    <glyph glyph-name="uni01D3" unicode="&#x1d3;" 
d="M721 0q-223 0 -380 157.5t-157 381.5v895h90v-895q0 -188 131.5 -317.5t316.5 -129.5t315 130t130 317v895h90v-895q0 -225 -156.5 -382t-379.5 -157zM545 1876l176 -277l174 277l47 -31l-199 -315h-47l-196 317z" />
    <glyph glyph-name="uni01D4" unicode="&#x1d4;" horiz-adv-x="1128" 
d="M864 1024h90v-1024h-90v215q-53 -102 -135 -164.5t-178 -62.5q-182 0 -293 111.5t-111 291.5v633h91v-633q0 -127 92 -220t220 -93t221 110.5t93 243.5v592zM569 1145h-47l-196 317l45 29l176 -277l174 277l47 -31z" />
    <glyph glyph-name="uni01D5" unicode="&#x1d5;" 
d="M721 0q-223 0 -380 157.5t-157 381.5v895h90v-895q0 -188 131.5 -317.5t316.5 -129.5t315 130t130 317v895h90v-895q0 -225 -156.5 -382t-379.5 -157zM917.5 1569q-30.5 0 -52 22.5t-21.5 52.5t21.5 51t52 21t52 -21.5t21.5 -51.5t-21.5 -52t-52 -22zM526.5 1569
q-30.5 0 -52 22.5t-21.5 52.5t21.5 51t52 21t52 -21.5t21.5 -51.5t-21.5 -52t-52 -22zM449 1837v64h542v-64h-542z" />
    <glyph glyph-name="uni01D6" unicode="&#x1d6;" horiz-adv-x="1128" 
d="M864 1024h90v-1024h-90v215q-53 -102 -135 -164.5t-178 -62.5q-182 0 -293 111.5t-111 291.5v633h91v-633q0 -127 92 -220t220 -93t221 110.5t93 243.5v592zM670 1258q0 30 21.5 51.5t52 21.5t52 -21.5t21.5 -51.5t-21.5 -52t-52 -22t-52 22t-21.5 52zM279 1258
q0 30 21.5 51.5t52 21.5t52 -21.5t21.5 -51.5t-21.5 -52t-52 -22t-52 22t-21.5 52zM817 1516v-64h-543v64h543z" />
    <glyph glyph-name="uni01D7" unicode="&#x1d7;" 
d="M721 0q-223 0 -380 157.5t-157 381.5v895h90v-895q0 -188 131.5 -317.5t316.5 -129.5t315 130t130 317v895h90v-895q0 -225 -156.5 -382t-379.5 -157zM917.5 1569q-30.5 0 -52 22.5t-21.5 52.5t21.5 51t52 21t52 -21.5t21.5 -51.5t-21.5 -52t-52 -22zM526.5 1569
q-30.5 0 -52 22.5t-21.5 52.5t21.5 51t52 21t52 -21.5t21.5 -51.5t-21.5 -52t-52 -22zM748 1806l-48 17l117 340l72 -27z" />
    <glyph glyph-name="uni01D8" unicode="&#x1d8;" horiz-adv-x="1128" 
d="M864 1024h90v-1024h-90v215q-53 -102 -135 -164.5t-178 -62.5q-182 0 -293 111.5t-111 291.5v633h91v-633q0 -127 92 -220t220 -93t221 110.5t93 243.5v592zM670 1258q0 30 21.5 51.5t52 21.5t52 -21.5t21.5 -51.5t-21.5 -52t-52 -22t-52 22t-21.5 52zM352.5 1184
q-30.5 0 -52 22.5t-21.5 52t21.5 51t52 21.5t52 -21.5t21.5 -51.5t-21.5 -52t-52 -22zM715 1751l-142 -330l-47 17l117 340z" />
    <glyph glyph-name="uni01D9" unicode="&#x1d9;" 
d="M721 0q-223 0 -380 157.5t-157 381.5v895h90v-895q0 -188 131.5 -317.5t316.5 -129.5t315 130t130 317v895h90v-895q0 -225 -156.5 -382t-379.5 -157zM917.5 1569q-30.5 0 -52 22.5t-21.5 52.5t21.5 51t52 21t52 -21.5t21.5 -51.5t-21.5 -52t-52 -22zM526.5 1569
q-30.5 0 -52 22.5t-21.5 52.5t21.5 51t52 21t52 -21.5t21.5 -51.5t-21.5 -52t-52 -22zM545 2136l176 -276l174 276l47 -31l-199 -315h-47l-196 317z" />
    <glyph glyph-name="uni01DA" unicode="&#x1da;" horiz-adv-x="1128" 
d="M864 1024h90v-1024h-90v215q-53 -102 -135 -164.5t-178 -62.5q-182 0 -293 111.5t-111 291.5v633h91v-633q0 -127 92 -220t220 -93t221 110.5t93 243.5v592zM670 1258q0 30 21.5 51.5t52 21.5t52 -21.5t21.5 -51.5t-21.5 -52t-52 -22t-52 22t-21.5 52zM352.5 1184
q-30.5 0 -52 22.5t-21.5 52t21.5 51t52 21.5t52 -21.5t21.5 -51.5t-21.5 -52t-52 -22zM569 1405h-47l-196 317l45 29l176 -276l174 276l47 -31z" />
    <glyph glyph-name="uni01DB" unicode="&#x1db;" 
d="M721 0q-223 0 -380 157.5t-157 381.5v895h90v-895q0 -188 131.5 -317.5t316.5 -129.5t315 130t130 317v895h90v-895q0 -225 -156.5 -382t-379.5 -157zM917.5 1569q-30.5 0 -52 22.5t-21.5 52.5t21.5 51t52 21t52 -21.5t21.5 -51.5t-21.5 -52t-52 -22zM526.5 1569
q-30.5 0 -52 22.5t-21.5 52.5t21.5 51t52 21t52 -21.5t21.5 -51.5t-21.5 -52t-52 -22zM702 1810l-141 330l72 27l117 -340z" />
    <glyph glyph-name="uni01DC" unicode="&#x1dc;" horiz-adv-x="1128" 
d="M864 1024h90v-1024h-90v215q-53 -102 -135 -164.5t-178 -62.5q-182 0 -293 111.5t-111 291.5v633h91v-633q0 -127 92 -220t220 -93t221 110.5t93 243.5v592zM744 1184q-30 0 -52 22t-22 52t21.5 51.5t52 21.5t52 -21.5t21.5 -51.5t-21.5 -52t-51.5 -22zM352.5 1184
q-30.5 0 -52.5 22t-21.5 52t22 51.5t52 21.5t52 -21.5t21.5 -51.5t-21.5 -52t-52 -22zM575 1442l-47 -17l-141 330l72 27z" />
    <glyph glyph-name="uni01DD" unicode="&#x1dd;" horiz-adv-x="1263" 
d="M633 82q155 0 273 97t147 247h-842q29 -147 147 -246q119 -98 275 -98zM631 1028q217 0 369 -152t151 -368q0 -215 -152 -367q-153 -151 -367 -151t-366 152t-151 374h946q-4 176 -129 299t-301 123q-125 0 -231 -70t-154 -184l-84 39q61 139 189 222t280 83z" />
    <glyph glyph-name="uni01DE" unicode="&#x1de;" 
d="M391 518h658l-330 764zM1272 0l-185 426h-735l-182 -426h-102l622 1434h62l622 -1434h-102zM844 1658q0 30 21.5 51.5t52 21.5t52 -21.5t21.5 -51.5t-21.5 -52.5t-52 -22.5t-52 22.5t-21.5 52.5zM453 1658q0 30 21.5 51.5t52 21.5t52 -21.5t21.5 -51.5t-21.5 -52.5
t-52 -22.5t-52 22.5t-21.5 52.5zM991 1915v-64h-542v64h542z" />
    <glyph glyph-name="uni01DF" unicode="&#x1df;" horiz-adv-x="1052" 
d="M464 82q128 0 231.5 83t103.5 204v98q-139 51 -284.5 51t-237 -59.5t-91.5 -163.5v-4q0 -98 75 -153.5t203 -55.5zM512 1034q164 0 271.5 -101.5t107.5 -277.5v-655h-90v176q-131 -178 -352 -178q-156 0 -254.5 80t-98.5 213v4q0 143 115 221t299 78t291 -64v125
q0 129 -83 210t-206 81q-82 0 -150.5 -42t-103.5 -113l-90 28q45 98 139 156.5t205 58.5zM649 1258q0 30 21.5 51.5t52.5 21.5t52.5 -21.5t21.5 -51.5t-21.5 -52t-52.5 -22t-52.5 22t-21.5 52zM258 1258q0 30 21.5 51.5t52 21.5t52.5 -21.5t22 -51.5t-22 -52t-52.5 -22
t-52 22t-21.5 52zM797 1516v-64h-543v64h543z" />
    <glyph glyph-name="Gcaron" unicode="&#x1e6;" horiz-adv-x="1689" 
d="M846 668h727q-25 -289 -229.5 -478.5t-492.5 -189.5t-498 211t-210 507t209 506t506 210q199 0 368 -102.5t265 -280.5l-80 -54q-72 156 -222.5 250t-330.5 94q-260 0 -442.5 -182t-182.5 -441t183.5 -442.5t441.5 -183.5q219 0 391 136.5t219 346.5h-622v93zM864 1544
h-47l-196 318l45 28l176 -276l174 276l47 -30z" />
    <glyph glyph-name="gcaron" unicode="&#x1e7;" horiz-adv-x="1280" 
d="M631 109q123 0 226.5 65.5t156.5 175.5v379q-53 111 -158.5 176.5t-224.5 65.5q-176 0 -302 -127t-126 -305.5t127 -304t301 -125.5zM1014 1051h92v-1076q0 -205 -134 -334.5t-331 -129.5q-135 0 -252 75.5t-172 198.5l84 37q45 -100 138 -160.5t202 -60.5
q158 0 265.5 104.5t107.5 269.5v242q-164 -199 -381 -199t-368.5 152t-151.5 369t152.5 369.5t370.5 152.5t378 -203v193zM653 1200h-47l-196 318l45 28l176 -276l174 276l47 -30z" />
    <glyph glyph-name="Oslashacute" unicode="&#x1fe;" horiz-adv-x="1691" 
d="M860 92q256 0 440.5 183.5t184.5 441.5q0 193 -104.5 348.5t-276.5 226.5l-436 -1169q92 -31 192 -31zM233 717q0 -190 105.5 -346t275.5 -228l437 1170q-92 29 -191 28q-260 0 -443.5 -182t-183.5 -442zM1575 717q0 -297 -211 -507t-504 -210q-119 0 -225 37l-31 -82
l-51 22l29 80q-195 82 -317 261.5t-122 398.5q0 297 210 507t507 210q113 0 221 -35l31 80l55 -17l-30 -84q197 -82 317.5 -262t120.5 -399zM1036 1890l-141 -329l-47 16l117 340z" />
    <glyph glyph-name="oslashacute" unicode="&#x1ff;" horiz-adv-x="1267" 
d="M633 82q178 0 305 126t127 304q2 125 -65.5 230.5t-178.5 158.5l-301 -805q66 -14 113 -14zM203 512q0 -131 73.5 -239.5t190.5 -157.5l301 809q-68 20 -133 20q-178 0 -305 -128t-127 -304zM633 -10q-78 0 -146 20l-96 -260l-51 23l96 256q-145 59 -234 190t-89 293
q0 215 152.5 368.5t367.5 153.5q82 0 166 -26l100 266l55 -17l-102 -272q137 -61 220 -189t83 -284q2 -215 -151.5 -368.5t-370.5 -153.5zM782 1501l-141 -330l-47 17l117 340z" />
    <glyph glyph-name="Scommaaccent" unicode="&#x218;" horiz-adv-x="1208" 
d="M621 -322q0 25 -14.5 38.5t-32 16.5t-32 19.5t-14.5 45t21.5 47t57.5 18.5t59.5 -37t23.5 -98.5t-38.5 -107.5t-110.5 -62v32q80 14 80 88zM614 2q-373 0 -505 277l84 38q109 -225 421 -225q168 0 268.5 80t100.5 213q1 133 -117 202q-99 58 -233.5 85.5t-207.5 54.5
t-141 70q-142 89 -142.5 259.5t115.5 276t310 105.5q330 0 453 -260l-76 -48q-96 217 -379 218q-154 0 -244 -79t-90 -208q0 -164 199 -242q45 -18 227 -63q418 -96 418 -375q0 -168 -126 -273.5t-335 -105.5z" />
    <glyph glyph-name="scommaaccent" unicode="&#x219;" horiz-adv-x="942" 
d="M494 -332q0 31 -22.5 42t-46.5 25.5t-24 47.5t21.5 51.5t57.5 18.5t59.5 -37t23.5 -98.5t-38.5 -108t-110.5 -62.5v33q80 14 80 88zM477.5 -10q-149.5 0 -248 64.5t-137.5 181.5l88 24q61 -180 291 -180q117 0 183.5 52t66.5 140q0 147 -268 199q-328 63 -328 281
q0 123 86 202.5t227 79.5q281 0 355 -246l-88 -18q-59 174 -267 174q-102 0 -162.5 -53t-60.5 -139q0 -141 254 -191q344 -66 344 -289q0 -125 -93 -203.5t-242.5 -78.5z" />
    <glyph glyph-name="uni021A" unicode="&#x21a;" horiz-adv-x="1312" 
d="M658 -141q36 0 59.5 -37t23.5 -98.5t-38.5 -107.5t-110.5 -62v32q80 14 80 88q0 31 -22.5 42.5t-46 25.5t-23.5 47t21 51.5t57 18.5zM68 1434h1177v-93h-543v-1341h-92v1341h-542v93z" />
    <glyph glyph-name="uni021B" unicode="&#x21b;" horiz-adv-x="843" 
d="M552 -133q36 0 59.5 -37t23.5 -98.5t-39 -107.5t-111 -62v32q80 14 80 89q0 31 -22.5 42t-46 25t-23.5 47t21.5 51.5t57.5 18.5zM281 291v635h-199v90h199v289h90v-289h319v-90h-319v-635q0 -123 111.5 -184.5t207.5 10.5l64 -68q-74 -53 -159 -57t-153.5 31.5
t-114.5 107.5t-46 160z" />
    <glyph glyph-name="uni0228" unicode="&#x228;" horiz-adv-x="1280" 
d="M1151 1341h-856v-579h764v-90h-764v-580h856v-92h-436q1 -25 -11 -53t-10 -36.5t21 -25.5q53 -41 53 -95t-54.5 -81.5t-116.5 -11.5t-85 65l45 31q29 -49 90.5 -47t61.5 49q0 31 -35 56t-39 45t10 49q10 39 12 55h-452v1434h946v-93z" />
    <glyph glyph-name="uni0229" unicode="&#x229;" horiz-adv-x="1255" 
d="M630 940q-155 0 -272.5 -98.5t-146.5 -247.5h836q-29 147 -145.5 246.5t-271.5 99.5zM631 82q125 0 231.5 69.5t157.5 184.5l80 -37q-57 -133 -176 -215t-267 -90q-2 -29 -12 -52t-8 -31.5t20 -25.5q53 -41 53.5 -95t-54 -81.5t-117 -11.5t-84.5 65l45 31q29 -49 90 -47
t61 49q0 31 -35 56t-39 45t11 49q6 18 12 49q-205 12 -346 161.5t-141 360.5t151.5 361.5t365.5 150.5t362.5 -151.5t148.5 -372.5h-938q4 -176 129 -299t299 -123z" />
    <glyph glyph-name="uni022A" unicode="&#x22a;" horiz-adv-x="1691" 
d="M860 92q256 0 440.5 183.5t184.5 442.5t-182.5 441t-442.5 182t-443.5 -182t-183.5 -442t185.5 -442.5t441.5 -182.5zM859 0q-294 0 -505 211t-211 507t210 506t507 210t506 -210t209 -507t-211 -507t-505 -210zM1056.5 1583q-30.5 0 -52 22.5t-21.5 52.5t21.5 51.5
t52 21.5t52 -21.5t21.5 -51.5t-21.5 -52.5t-52 -22.5zM665.5 1583q-30.5 0 -52 22.5t-21.5 52.5t21.5 51.5t52 21.5t52 -21.5t21.5 -51.5t-21.5 -52.5t-52 -22.5zM588 1851v64h542v-64h-542z" />
    <glyph glyph-name="uni022B" unicode="&#x22b;" horiz-adv-x="1267" 
d="M634 82q177 0 304 126t127 304q2 178 -125 305t-305 127t-305 -128t-127 -305t127 -303t304 -126zM634 -10q-216 0 -368.5 152.5t-152.5 368.5t152.5 369.5t368.5 153.5t368.5 -153.5t153.5 -368.5t-152.5 -368.5t-369.5 -153.5zM827.5 1184q-30.5 0 -52 22.5t-21.5 52
t21.5 51t52 21.5t52 -21.5t21.5 -51.5t-21.5 -52t-52 -22zM436.5 1184q-30.5 0 -52.5 22.5t-22 52t22 51t52.5 21.5t52 -21.5t21.5 -51.5t-21.5 -52t-52 -22zM358 1452v64h543v-64h-543z" />
    <glyph glyph-name="uni0242" unicode="&#x242;" horiz-adv-x="1005" 
d="M457 0v158q-1 166 33 240t149 161q145 109 147 221q-2 88 -72 144q-71 55 -190 55q-225 0 -307 -186l-88 28q88 248 397 248q158 0 254 -81t94 -208q0 -158 -178 -293q-98 -74 -124 -131t-25 -198v-158h-90z" />
    <glyph glyph-name="uni0243" unicode="&#x243;" horiz-adv-x="1331" 
d="M817 92q121 0 206 83t85 214t-94 206t-244 75h-473v-232h192v-61h-192v-285h520zM1051 1054q0 118 -86 202.5t-207 84.5h-461v-581h477q115 2 196 89t81 205zM1200 383q0 -160 -112.5 -270.5t-270.5 -110.5h-612v375h-264v61h264v996h553q158 0 270.5 -112t112.5 -269
q0 -100 -47 -186.5t-129 -135.5q109 -43 172 -137t63 -211z" />
    <glyph glyph-name="uni0244" unicode="&#x244;" horiz-adv-x="1574" 
d="M1235 539v256h-893v-256q0 -187 131 -317t316 -130t316 130q130 131 130 317zM1513 860v-65h-188v-256q0 -225 -157 -382t-380 -157q-224 0 -380 158t-156 381v256h-191v65h191v574h90v-574h893v574h90v-574h188z" />
    <glyph glyph-name="uni0245" unicode="&#x245;" horiz-adv-x="1372" 
d="M1298 0h-98l-514 1282l-514 -1282h-96l571 1434h76z" />
    <glyph glyph-name="uni024B" unicode="&#x24b;" horiz-adv-x="1263" 
d="M631 88q123 0 226 62t157 172v376q-52 115 -156 181t-227 65q-178 0 -303 -126t-125 -303t125 -302t303 -125zM1309 -412q-121 0 -208 87t-87 210v310q-160 -199 -380 -199t-371 154t-151 368t153 365t372 151t377 -196v182h90v-1135q0 -84 59 -144t146 -60q55 -1 98 22
l43 -76q-68 -39 -141 -39z" />
    <glyph glyph-name="uni024C" unicode="&#x24c;" horiz-adv-x="1447" 
d="M401 758h465q121 0 207 85t86 206t-86 207t-207 85h-465v-583zM401 666v-666h-90v666h-305v92h305v676h555q158 0 272 -114t114 -263t-94 -257q-93 -108 -230 -130l385 -670h-107l-381 666h-424z" />
    <glyph glyph-name="uni0250" unicode="&#x250;" horiz-adv-x="1083" 
d="M881 739v4q0 97 -75 153t-204 56t-232 -83t-104 -203v-99q134 -51 283 -51t241 58q91 59 91 165zM616 1034q156 0 255 -80t100 -211v-4q0 -145 -116 -223t-298 -78t-293 64v-125q0 -119 85 -204t204 -85q84 0 154 44t104 118l80 -45q-47 -95 -138 -151t-200 -56
q-155 0 -267 112t-112 267v657h90v-166q62 76 156 121t196 45z" />
    <glyph glyph-name="uni0251" unicode="&#x251;" horiz-adv-x="1273" 
d="M629 76q125 0 227 66.5t154 176.5v375q-55 109 -156.5 171.5t-224.5 62.5q-176 0 -301 -124t-125 -301t124 -302t302 -125zM1010 1020h90v-1020h-90v176q-162 -190 -380 -190t-367.5 150.5t-149.5 366.5t151.5 366.5t369.5 150.5t376 -191v191z" />
    <glyph glyph-name="uni0252" unicode="&#x252;" horiz-adv-x="1320" 
d="M645 76q178 0 301 124t123 302t-124 302t-300 124q-123 0 -224.5 -62.5t-156.5 -171.5v-379q53 -109 155.5 -174t225.5 -65zM640 1020q218 0 369.5 -150.5t151.5 -366.5t-150.5 -366.5t-367.5 -150.5t-379 190v-176h-90v1020h90v-191q158 191 376 191z" />
    <glyph glyph-name="uni0253" unicode="&#x253;" horiz-adv-x="1273" 
d="M645 76q178 0 302 125t124 302t-125 301t-301 124q-121 0 -223 -62t-158 -172v-377q52 -111 154 -176t227 -65zM640 1020q218 0 370 -151t152 -367t-152 -366q-150 -150 -367 -150t-379 190v-176h-90v1329q0 78 44 140q94 133 245 109q76 -11 135 -67l-61 -67
q-77 76 -175 34t-98 -149v-500q158 191 376 191z" />
    <glyph glyph-name="uni0254" unicode="&#x254;" horiz-adv-x="1202" 
d="M571 -10q-143 0 -267 76t-191 202l86 35q55 -101 154 -161t218 -60q176 0 302 125t126 302t-126 303t-302 126q-117 0 -217 -59t-153 -158l-86 33q73 130 193 202t263 72q213 0 366 -152t153 -367t-152 -367t-367 -152z" />
    <glyph glyph-name="uni0256" unicode="&#x256;" horiz-adv-x="1269" 
d="M629 76q125 0 227 66t154 177v375q-54 109 -156 171t-225 63q-176 0 -301 -124t-125 -301t124 -302t302 -125zM1010 -152v334q-158 -196 -378 -196t-370 150t-150 367t152 367t369 150t377 -199v613h90v-1586q0 -104 97 -147t173 33l64 -68q-60 -55 -136 -66
q-76 -10 -139 18t-106 90t-43 140z" />
    <glyph glyph-name="uni0257" unicode="&#x257;" horiz-adv-x="1277" 
d="M629 76q125 0 227 66t154 177v375q-54 109 -156 171t-225 63q-176 0 -301 -124t-125 -301t124 -302t302 -125zM1010 1329q0 78 44 140q94 133 244 109q76 -11 136 -67l-62 -67q-78 76 -175 34t-97 -149v-1329h-90v176q-162 -190 -380 -190t-368 150t-150 367t152 367
t370 150t376 -191v500z" />
    <glyph glyph-name="uni0258" unicode="&#x258;" horiz-adv-x="1255" 
d="M627 938q-154 0 -271 -98t-145 -248h836q-29 150 -147 248t-273 98zM626 1028q214 0 366 -152t151 -366q0 -215 -152 -368t-366 -152q-152 0 -281 84t-188 221l82 39q51 -116 156 -184t231 -68q176 0 301 122t129 298h-940q0 221 148 374q149 152 363 152z" />
    <glyph glyph-name="uni0259" unicode="&#x259;" horiz-adv-x="1255" 
d="M626 82q156 0 274 97t147 247h-836q29 -147 144 -246q116 -98 271 -98zM625 1028q215 0 367 -152t151 -368q0 -215 -152 -367q-151 -151 -365 -151t-363 152q-148 153 -148 374h940q-4 176 -129 299t-301 123q-125 0 -231 -70t-156 -184l-82 39q59 137 188 221t281 84z
" />
    <glyph glyph-name="uni0260" unicode="&#x260;" horiz-adv-x="1251" 
d="M631 109q123 1 226 65t157 176v379q-52 111 -158 177t-225 65q-176 0 -302 -127t-126 -305t127 -304t301 -126zM1014 1030q0 78 44 140q94 132 246 109q77 -11 136 -67l-64 -67q-78 76 -174 34t-96 -149v-1077q0 -203 -134 -334t-325 -131q-141 0 -258 76t-172 198l84 37
q45 -100 138 -160t208 -61q154 0 260 104t107 271v264q-164 -199 -381 -199t-369 152t-151 369q-1 217 153 369t372 153q218 0 376 -203v172z" />
    <glyph glyph-name="uni0261" unicode="&#x261;" horiz-adv-x="1216" 
d="M530 84q119 0 233 56t187 157v559q-84 72 -205 72q-171 0 -327 -125t-201 -300t48 -297t265 -122zM950 1051h92v-1074q0 -193 -135 -329t-327 -135q-137 -1 -254 75t-170 199l82 37q45 -100 139 -160t203 -61q154 1 262 111t108 263v230q-186 -203 -442 -207
q-211 -2 -323 152t-54 366q55 218 237 360t402 134q102 -2 180 -51v90z" />
    <glyph glyph-name="uni0265" unicode="&#x265;" horiz-adv-x="1136" 
d="M891 1012h92v-1452h-92v637q-119 -213 -313 -213q-170 0 -287 112t-117 291v625h90v-625q0 -129 92 -221t224 -92t221 110q88 110 90 250v578z" />
    <glyph glyph-name="uni0266" unicode="&#x266;" horiz-adv-x="1136" 
d="M602 1030q152 0 266 -110t115 -293v-627h-92v627q0 135 -92 224t-224 89t-222 -107q-89 -108 -89 -247v-586h-90v1303q0 121 87 207t208 87q76 0 143 -36l-45 -78q-45 25 -96 24q-86 0 -146 -60t-61 -144v-498q121 225 338 225z" />
    <glyph glyph-name="uni0267" unicode="&#x267;" horiz-adv-x="1136" 
d="M602 1030q152 0 266 -110t115 -293v-742q0 -123 -87 -210t-208 -87q-76 0 -143 39l45 76q39 -23 94 -22q88 0 147 59t60 145v742q0 135 -92 224t-224 89t-222 -107q-89 -108 -89 -247v-586h-90v1303q0 121 87 207t208 87q76 0 143 -36l-45 -78q-45 25 -96 24
q-86 0 -146 -60t-61 -144v-498q121 225 338 225z" />
    <glyph glyph-name="uni0268" unicode="&#x268;" horiz-adv-x="438" 
d="M502 524v-61h-238v-463h-90v463h-221v61h221v500h90v-500h238zM219 1184q-31 0 -53 22t-21.5 52t22 51.5t52.5 21.5t52.5 -21.5t21.5 -51.5t-21.5 -52t-52.5 -22z" />
    <glyph glyph-name="uni0269" unicode="&#x269;" horiz-adv-x="649" 
d="M438 -2q-121 0 -208 87t-87 210v797h90v-797q1 -84 61 -144q60 -61 130 -61t113 23l45 -76q-72 -39 -144 -39z" />
    <glyph glyph-name="uni026B" unicode="&#x26b;" horiz-adv-x="841" 
d="M469 0h-90v788q-49 37 -81 40t-71 -27t-65 -74l-66 37q27 45 78 92q92 85 205 23v630h90v-694q47 -39 91 -38t95 66q15 19 27 40l63 -41q-20 -39 -65 -82q-107 -93 -211 -35v-725z" />
    <glyph glyph-name="uni026D" unicode="&#x26d;" horiz-adv-x="434" 
d="M469 -412q-121 0 -208 87t-87 210v1704h90v-1704q0 -84 60 -144t130 -60t113 22l45 -76q-71 -39 -143 -39z" />
    <glyph glyph-name="uni026F" unicode="&#x26f;" horiz-adv-x="1802" 
d="M1573 1001h84v-1001h-84v188q-127 -215 -334 -215q-119 0 -220 72t-145 191q-53 -115 -143 -188t-207 -73q-150 0 -264 114t-113 286v626h80v-626q0 -137 92 -229q91 -92 223 -91q132 0 221 110t89 249v587h82v-626q0 -137 93 -229t229 -91q136 0 227 109q90 109 90 250
v587z" />
    <glyph glyph-name="uni0270" unicode="&#x270;" horiz-adv-x="1802" 
d="M1573 1001h84v-1421h-84v608q-127 -215 -334 -215q-119 0 -220 72t-145 191q-53 -115 -143 -188t-207 -73q-150 0 -264 114t-113 286v626h80v-626q0 -137 92 -229q91 -92 223 -91q132 0 221 110t89 249v587h82v-626q0 -137 93 -229t229 -91q136 0 227 109q90 109 90 250
v587z" />
    <glyph glyph-name="uni0271" unicode="&#x271;" horiz-adv-x="1802" 
d="M1276 1028q152 0 266 -114t113 -287v-822q0 -80 -43 -142q-91 -131 -246 -106q-76 11 -135 66l63 68q78 -76 174 -34t97 148v822q0 135 -89 224t-218 89t-217 -107q-87 -108 -87 -245v-588h-90v627q0 137 -91 225t-225 88t-221 -106t-87 -246v-588h-93v1004h93v-181
q123 207 327 207q117 0 217 -70t144 -186q55 114 144 184t204 70z" />
    <glyph glyph-name="uni0272" unicode="&#x272;" horiz-adv-x="1130" 
d="M602 1030q152 0 266 -110t115 -293v-627h-90v627q0 135 -92 224t-225 89t-222 -107q-88 -108 -88 -247v-701q0 -123 -87 -210t-208 -87q-76 0 -143 39l45 76q39 -23 94 -22q88 0 148 59q59 59 59 145v1133h92v-211q119 223 336 223z" />
    <glyph glyph-name="uni0273" unicode="&#x273;" horiz-adv-x="1120" 
d="M1159 -412q-121 0 -208 87t-87 210v742q0 135 -92 224t-225 89t-221 -108t-88 -246v-586h-91v1018h91v-211q119 223 335 223q152 0 267 -110t114 -293v-742q0 -86 60 -145t147 -59q53 -1 96 22l46 -76q-72 -39 -144 -39z" />
    <glyph glyph-name="uni0278" unicode="&#x278;" horiz-adv-x="2117" 
d="M1487 94q178 0 302 125t124 302t-125 303t-301 126q-123 0 -226 -64t-157 -175v-387q54 -106 158 -168t225 -62zM631 94q123 0 226 62t157 172v379q-52 115 -156 179t-227 64q-178 0 -303 -126t-125 -303t125 -302t303 -125zM1481 1040q219 0 371 -150t153 -366
q0 -214 -152 -368q-151 -154 -371 -154t-378 197v-691h-90v691q-158 -197 -379 -197t-372 154t-151 368t153 366q153 150 371 150t378 -198v592h90v-590q158 196 377 196z" />
    <glyph glyph-name="uni0279" unicode="&#x279;" horiz-adv-x="786" 
d="M520 1024h92v-1018h-92v172l-18 -22q-92 -109 -221 -143t-254 28l47 80q88 -49 186 -30t168 104q92 109 92 241v588z" />
    <glyph glyph-name="uni027A" unicode="&#x27a;" horiz-adv-x="786" 
d="M520 1473h92v-1467h-92v172l-18 -22q-92 -109 -221 -143t-254 28l47 80q88 -49 186 -30t168 104q92 109 92 241v1037z" />
    <glyph glyph-name="uni027B" unicode="&#x27b;" horiz-adv-x="749" 
d="M520 -211v389l-18 -22q-92 -109 -221 -143t-254 28l47 80q88 -49 186 -30t168 104q92 109 92 241v588h92v-1235q0 -107 98 -149t175 34l63 -67q-59 -55 -136 -67q-153 -23 -248 109q-44 62 -44 140z" />
    <glyph glyph-name="uni027D" unicode="&#x27d;" horiz-adv-x="800" 
d="M266 -193q0 -106 96 -149t175 33l63 -66q-59 -55 -136 -66q-153 -22 -246 106q-44 62 -44 142v1211h92v-172l19 22q90 109 220 143t255 -28l-47 -80q-89 49 -187 30t-168 -104q-92 -104 -92 -241v-781z" />
    <glyph glyph-name="uni027E" unicode="&#x27e;" horiz-adv-x="641" 
d="M174 0v743q0 79 44 141q93 132 246 108q77 -11 136 -66l-63 -68q-77 74 -175 32t-98 -147v-743h-90z" />
    <glyph glyph-name="uni0283" unicode="&#x283;" horiz-adv-x="718" 
d="M315 1311q0 78 43 140q42 62 106 91t140 18t135 -67l-63 -68q-78 76 -175 34t-98 -148v-1463q0 -78 -43 -140q-92 -132 -245 -108q-76 11 -135 66l63 68q76 -76 174 -33t98 147v1463z" />
    <glyph glyph-name="uni0284" unicode="&#x284;" horiz-adv-x="927" 
d="M575 1343q19 91 91 147t160 54t157 -61l-57 -78q-62 68 -152 41t-110 -119l-152 -706h-2l-111 -517l291 -38l-276 -11l-25 4l-37 -176q-29 -139 -165 -185t-242 44l53 82q63 -70 155 -44q91 26 111 120l37 170l-272 36l276 11h6z" />
    <glyph glyph-name="uni0288" unicode="&#x288;" horiz-adv-x="843" 
d="M281 -147v1073h-199v90h199v289h90v-289h319v-90h-319v-1073q0 -121 111.5 -183t207.5 8l64 -65q-106 -68 -212 -57.5t-183.5 95.5t-77.5 202z" />
    <glyph glyph-name="uni0289" unicode="&#x289;" horiz-adv-x="1306" 
d="M965 432v158h-627v-199q0 -127 92 -220t220 -93t222 110t93 244zM1214 655v-65h-159v-590h-90v215q-53 -103 -135 -165t-179 -62q-167 0 -285 118t-118 285v199h-156v65h156v369h90v-369h627v369h90v-369h159z" />
    <glyph glyph-name="uni028A" unicode="&#x28a;" horiz-adv-x="1386" 
d="M1274 989v-88h-217q157 -154 157 -370q0 -215 -152 -367t-367 -152q-213 0 -365 153t-152 369t158 367h-223v88h370v-88q-96 -53 -155 -153t-60 -218q0 -176 125 -302t302 -126t303 126t126 302q0 117 -58 215t-163 156v88h371z" />
    <glyph glyph-name="uni028C" unicode="&#x28c;" horiz-adv-x="1042" 
d="M485 1026h70l412 -1026h-95l-354 879l-348 -879h-94z" />
    <glyph glyph-name="uni028D" unicode="&#x28d;" horiz-adv-x="1449" 
d="M385 1024h68l270 -739l272 739h70l297 -1024h-90l-252 860l-264 -743h-64l-264 743l-250 -860h-90z" />
    <glyph glyph-name="uni028E" unicode="&#x28e;" horiz-adv-x="1161" 
d="M825 1468q83 0 151 -38t99 -97l-67 -59q-78 112 -200 100t-167 -129l-90 -237l524 -1008h-100l-465 895l-336 -895h-96l479 1276q35 88 110 140t158 52z" />
    <glyph glyph-name="uni0292" unicode="&#x292;" horiz-adv-x="1284" 
d="M1155 1024v-70l-383 -551q152 -33 251 -143t99 -270t-135 -280t-323 -120t-323 120q-134 120 -136 290h92q2 -131 110 -225q109 -94 259 -94t258 95t106 228q0 133 -107 227q-108 94 -259 95v90l360 516h-692v92h823z" />
    <glyph glyph-name="uni0294" unicode="&#x294;" horiz-adv-x="987" 
d="M436 0v569q0 164 34 238t148 164q145 111 148 221q-2 88 -72 142t-190 55q-225 0 -307 -187l-88 29q88 248 397 248q158 0 254 -81t94 -206q0 -158 -178 -293q-98 -74 -124 -131t-26 -199v-569h-90z" />
    <glyph glyph-name="uni0295" unicode="&#x295;" horiz-adv-x="1005" 
d="M547 0h-88v569q-2 141 -28 197t-122 133q-178 137 -180 293q0 127 95 207t255 80q309 0 395 -248l-86 -29q-82 186 -307 187q-121 -1 -191 -55t-71 -142q2 -109 146 -221q117 -92 151 -165t31 -237v-569z" />
    <glyph glyph-name="uni0298" unicode="&#x298;" horiz-adv-x="1452" 
d="M743 543q-69 0 -115 48t-46 115q0 66 47 114t115 48t114 -48q47 -48 47 -114t-47 -115q-47 -48 -115 -48zM740 90q214 0 360 188t145 440q0 253 -145 438q-146 185 -360 185t-360 -186t-146 -440q0 -253 146 -439t360 -186zM739 0q-252 0 -424 213t-172 504t173 503
t424 212t424 -213t173 -504t-173 -503t-425 -212z" />
    <glyph glyph-name="uni02A7" unicode="&#x2a7;" horiz-adv-x="1122" 
d="M371 926v-629q0 -94 74 -155q75 -60 157 -42l180 826h-411zM281 297v629h-199v90h199v289h90v-289h428l71 327q20 91 94 147t162 54t154 -61l-57 -78q-41 43 -97 48t-105 -30q-48 -35 -63 -96l-309 -1444q-29 -141 -165 -186t-242 45l53 82q63 -70 155 -44q91 26 111 120
l23 98q-121 -2 -212 85t-91 214z" />
    <glyph glyph-name="uni02BC" unicode="&#x2bc;" horiz-adv-x="450" 
d="M178 1016l-49 16l117 340l73 -26z" />
    <glyph glyph-name="circumflex" unicode="&#x2c6;" horiz-adv-x="839" 
d="M201 1208l196 318h47l199 -316l-47 -30l-174 276l-176 -276z" />
    <glyph glyph-name="caron" unicode="&#x2c7;" horiz-adv-x="839" 
d="M246 1563l176 -277l174 277l47 -31l-199 -315h-47l-196 317z" />
    <glyph glyph-name="breve" unicode="&#x2d8;" horiz-adv-x="804" 
d="M402 1223q-93 0 -168.5 64.5t-108.5 170.5l61 21q23 -84 83.5 -138.5t132 -54.5t131 52.5t85.5 138.5l62 -19q-33 -106 -109 -170.5t-169 -64.5z" />
    <glyph glyph-name="dotaccent" unicode="&#x2d9;" horiz-adv-x="393" 
d="M78 1255q-31 0 -52.5 22.5t-21.5 52.5t21.5 51.5t52.5 21.5t52.5 -21.5t21.5 -51.5t-21.5 -52.5t-52.5 -22.5z" />
    <glyph glyph-name="ring" unicode="&#x2da;" horiz-adv-x="595" 
d="M297 1223q49 0 85 34.5t36 84.5t-35 85t-85 35t-85 -34.5t-35 -85t35 -85t84 -34.5zM298 1171q-71 0 -121 50.5t-50 121t50 120.5t122 50t121 -50t49 -121t-50 -121t-121 -50z" />
    <glyph glyph-name="ogonek" unicode="&#x2db;" horiz-adv-x="602" 
d="M307 -264q-92 0 -139 72t-41 196h61q-6 -203 119 -203q76 0 119 78l53 -31q-23 -52 -69 -82t-103 -30z" />
    <glyph glyph-name="tilde" unicode="&#x2dc;" horiz-adv-x="925" 
d="M344 1346q-68 0 -129 -95l-55 33q74 125 180 127q53 2 140 -55.5t136 -55.5t103 76l55 -35q-68 -106 -156 -106q-57 -2 -144 54.5t-130 56.5z" />
    <glyph glyph-name="hungarumlaut" unicode="&#x2dd;" horiz-adv-x="626" 
d="M362 1229l-47 18l117 340l74 -26zM172 1229l-49 18l117 340l73 -26z" />
    <glyph glyph-name="gravecomb" unicode="&#x300;" horiz-adv-x="0" 
d="M-250 1237l-141 330l72 26l116 -340z" />
    <glyph glyph-name="acutecomb" unicode="&#x301;" horiz-adv-x="0" 
d="M-258 1196l-47 16l117 340l71 -26z" />
    <glyph glyph-name="uni0302" unicode="&#x302;" horiz-adv-x="0" 
d="M-643 1208l197 318h47l198 -316l-47 -30l-174 276l-176 -276z" />
    <glyph glyph-name="tildecomb" unicode="&#x303;" horiz-adv-x="0" 
d="M-588 1346q-68 0 -129 -95l-55 33q74 125 180 127q53 2 140 -55.5t136.5 -55.5t102.5 76l55 -35q-68 -106 -155 -106q-57 -2 -144.5 54.5t-130.5 56.5z" />
    <glyph glyph-name="uni0304" unicode="&#x304;" horiz-adv-x="0" 
d="M-672 1237v63h543v-63h-543z" />
    <glyph glyph-name="uni0306" unicode="&#x306;" horiz-adv-x="0" 
d="M-405 1223q-93 0 -168.5 64.5t-108.5 170.5l61 21q23 -84 83.5 -138.5t132 -54.5t131 52.5t86.5 138.5l61 -19q-33 -106 -109 -170.5t-169 -64.5z" />
    <glyph glyph-name="uni0307" unicode="&#x307;" horiz-adv-x="0" 
d="M-166 1255q-31 0 -52.5 22.5t-21.5 52.5t21.5 51.5t52.5 21.5t52.5 -21.5t21.5 -51.5t-21.5 -52.5t-52.5 -22.5z" />
    <glyph glyph-name="uni0308" unicode="&#x308;" horiz-adv-x="0" 
d="M-155.5 1255q-30.5 0 -52 22.5t-21.5 52.5t21.5 51.5t52 21.5t52 -21.5t21.5 -51.5t-21.5 -52.5t-52 -22.5zM-547 1255q-31 0 -52.5 22.5t-21.5 52.5t21.5 51.5t52.5 21.5t52.5 -21.5t21.5 -51.5t-21.5 -52.5t-52.5 -22.5z" />
    <glyph glyph-name="hookabovecomb" unicode="&#x309;" horiz-adv-x="0" 
d="M-154 1434q35 -72 5.5 -140.5t-117.5 -119.5l-31 55q133 80 86 176q-33 61 -121 68v59q115 11 178 -98z" />
    <glyph glyph-name="uni030A" unicode="&#x30a;" horiz-adv-x="0" 
d="M-305 1223q49 0 85 34.5t36 84.5t-35 85t-85 35t-85 -34.5t-35 -85t35 -85t84 -34.5zM-304 1171q-71 0 -121 50.5t-50 121t50 120.5t122 50t121 -50t49 -121t-50 -121t-121 -50z" />
    <glyph glyph-name="uni030B" unicode="&#x30b;" horiz-adv-x="0" 
d="M-272 1229l-47 18l116 340l74 -26zM-463 1229l-49 18l117 340l73 -26z" />
    <glyph glyph-name="uni030C" unicode="&#x30c;" horiz-adv-x="0" 
d="M-598 1563l176 -277l174 277l47 -31l-198 -315h-47l-197 317z" />
    <glyph glyph-name="uni0312" unicode="&#x312;" horiz-adv-x="0" 
d="M-225 1368q0 -25 14 -38t30.5 -16t31 -19.5t14.5 -45.5t-20.5 -47t-57.5 -18t-59.5 35.5t-22.5 93.5q0 141 150 176v-33q-80 -10 -80 -88z" />
    <glyph glyph-name="uni031B" unicode="&#x31b;" horiz-adv-x="0" 
d="M-412 1032l23 23q66 -47 119 6q25 23 5 70t15 79q20 18 48 17.5t48 -21.5q63 -64 -32 -160t-226 -14z" />
    <glyph glyph-name="dotbelowcomb" unicode="&#x323;" horiz-adv-x="0" 
d="M-204 -262q-30 0 -52.5 22.5t-22.5 52.5t23 51t52.5 21t51 -21.5t21.5 -51t-21.5 -52t-51.5 -22.5z" />
    <glyph glyph-name="uni0326" unicode="&#x326;" horiz-adv-x="0" 
d="M-199 -301q0 31 -22.5 42t-46 25.5t-23.5 47.5t21.5 51t57.5 18t59.5 -36.5t23.5 -98.5t-39 -108t-111 -62v33q80 14 80 88z" />
    <glyph glyph-name="uni0327" unicode="&#x327;" horiz-adv-x="0" 
d="M-172 -205q0 31 -35 56t-39 45t10 49q10 37 13 57h57q0 -27 -11 -55t-9 -36.5t20 -25.5q53 -41 53 -95t-54 -81.5t-116.5 -11.5t-85.5 65l45 31q29 -49 90.5 -47t61.5 49z" />
    <glyph glyph-name="uni0328" unicode="&#x328;" horiz-adv-x="0" 
d="M-297 -264q-92 0 -139 71.5t-41 196.5h61q-6 -203 119 -203q76 0 119 78l53 -31q-23 -51 -69 -81.5t-103 -30.5z" />
    <glyph glyph-name="uni0331" unicode="&#x331;" horiz-adv-x="0" 
d="M-668 -205v62h537v-62h-537z" />
    <glyph glyph-name="uni0335" unicode="&#x335;" horiz-adv-x="0" 
d="M-678 463v61h549v-61h-549z" />
    <glyph glyph-name="uni0336" unicode="&#x336;" horiz-adv-x="0" 
d="M-770 463v61h639v-61h-639z" />
    <glyph glyph-name="uni0337" unicode="&#x337;" horiz-adv-x="0" 
d="M-631 377l-43 31l500 708l45 -31z" />
    <glyph glyph-name="uni0338" unicode="&#x338;" horiz-adv-x="0" 
d="M-692 -37l-51 23l559 1501l55 -17z" />
    <glyph glyph-name="beta" unicode="&#x3b2;" horiz-adv-x="1228" 
d="M729 92q121 0 206 85t85 203t-86 206q-48 53 -102 68t-164 16h-131v90h149q115 2 195 88t80 206t-85 204t-208 83l-246 2q-66 0 -115 -46t-49 -117v-1088h471zM1112 378q0 -156 -113 -266t-270 -110h-471v-412h-90v1590q0 110 77 182t177 72h246q160 -2 272 -114
t113 -267q-1 -105 -57 -193t-148 -131q85 -15 151 -78q113 -117 113 -273z" />
    <glyph glyph-name="theta" unicode="&#x3b8;" horiz-adv-x="1452" 
d="M740 90q206 0 351 176q144 176 154 418h-1012q9 -246 155 -420t352 -174zM740 1341q-208 0 -352 -176t-155 -422h1012q-10 246 -153 422q-144 176 -352 176zM740 1432q251 0 424 -213t173 -504t-173 -503t-425 -212t-424 213t-172 504t173 503t424 212z" />
    <glyph glyph-name="uni1E04" unicode="&#x1e04;" horiz-adv-x="1331" 
d="M671 -139q30 0 51 -21.5t21 -51.5t-21.5 -52.5t-51 -22.5t-52 22.5t-22.5 52.5t22.5 51.5t52.5 21.5zM817 92q121 0 206 83t85 214t-94 206t-244 75h-473v-578h520zM1051 1054q0 118 -86 202.5t-207 84.5h-461v-581h477q115 2 196 89t81 205zM1200 383
q0 -160 -112.5 -270.5t-270.5 -110.5h-612v1432h553q158 0 270.5 -112t112.5 -269q0 -100 -47 -186.5t-129 -135.5q109 -43 172 -137t63 -211z" />
    <glyph glyph-name="uni1E05" unicode="&#x1e05;" horiz-adv-x="1273" 
d="M652 -139q30 0 51.5 -21.5t21.5 -51.5t-21.5 -52.5t-51.5 -22.5t-52 22.5t-22 52.5t22 51.5t52 21.5zM645 76q178 0 302 125t124 302t-125 301t-301 124q-121 0 -223.5 -62.5t-157.5 -171.5v-377q51 -111 153.5 -176t227.5 -65zM641 1020q217 0 368.5 -150.5
t151.5 -366.5t-150.5 -366.5t-369.5 -150.5t-377 196v-182h-90v1509h90v-688q160 199 377 199z" />
    <glyph glyph-name="uni1E0C" unicode="&#x1e0c;" horiz-adv-x="1464" 
d="M663 -139q30 0 51 -21.5t21 -51.5t-21.5 -52.5t-51 -22.5t-52 22.5t-22.5 52.5t22.5 51.5t52.5 21.5zM633 92q260 0 443.5 182.5t183.5 442.5t-184.5 442t-442.5 182h-338v-1249h338zM633 1434q297 0 507 -210t210 -507t-210 -507t-507 -210h-428v1434h428z" />
    <glyph glyph-name="uni1E0D" unicode="&#x1e0d;" horiz-adv-x="1273" 
d="M642 -139q30 0 51.5 -21.5t21.5 -51.5t-21.5 -52.5t-51.5 -22.5t-52.5 22.5t-22.5 52.5t22.5 51.5t52.5 21.5zM629 76q125 0 227 66.5t154 176.5v375q-55 109 -156.5 171.5t-224.5 62.5q-176 0 -301 -124t-125 -301t124 -302t302 -125zM1010 1434h90v-1434h-90v182
q-158 -197 -378 -196.5t-369.5 151t-149.5 366.5t151.5 366.5t368.5 150.5t377 -199v613z" />
    <glyph glyph-name="uni1E0E" unicode="&#x1e0e;" horiz-adv-x="1464" 
d="M401 -205v62h537v-62h-537zM633 92q260 0 443.5 182.5t183.5 442.5t-184.5 442t-442.5 182h-338v-1249h338zM633 1434q297 0 507 -210t210 -507t-210 -507t-507 -210h-428v1434h428z" />
    <glyph glyph-name="uni1E0F" unicode="&#x1e0f;" horiz-adv-x="1273" 
d="M381 -205v62h537v-62h-537zM629 76q125 0 227 66.5t154 176.5v375q-55 109 -156.5 171.5t-224.5 62.5q-176 0 -301 -124t-125 -301t124 -302t302 -125zM1010 1434h90v-1434h-90v182q-158 -196 -378 -196t-369.5 150.5t-149.5 366.5t151.5 366.5t368.5 150.5t377 -199v613
z" />
    <glyph glyph-name="uni1E12" unicode="&#x1e12;" horiz-adv-x="1464" 
d="M469 -422l-47 31l199 315h45l198 -315l-45 -29l-176 277zM295 92h338q260 0 442 182t182 444t-183 442q-183 181 -441 181h-338v-1249zM205 0v1434h428q297 0 507 -210t210 -507t-210 -507t-507 -210h-428z" />
    <glyph glyph-name="uni1E13" unicode="&#x1e13;" horiz-adv-x="1273" 
d="M621 -76h47l198 -315l-47 -29l-174 277l-176 -279l-45 31zM629 76q125 0 227 66t154 177v375q-54 109 -156 171t-225 63q-176 0 -301 -124t-125 -301t124 -302t302 -125zM1010 1509h90v-1509h-90v176q-162 -190 -380 -190t-368 150t-150 367t152 367t370 150t376 -191
v680z" />
    <glyph glyph-name="uni1E24" unicode="&#x1e24;" horiz-adv-x="1431" 
d="M714 -139q30 0 51 -21.5t21 -51.5t-21.5 -52.5t-51 -22.5t-52 22.5t-22.5 52.5t22.5 51.5t52.5 21.5zM1137 1434h90v-1434h-90v672h-840v-672h-92v1434h92v-672h840v672z" />
    <glyph glyph-name="uni1E25" unicode="&#x1e25;" horiz-adv-x="1136" 
d="M560 -139q30 0 51.5 -21.5t21.5 -51.5t-21.5 -52.5t-51.5 -22.5t-52.5 22.5t-22.5 52.5t22.5 51.5t52.5 21.5zM580 1028q170 0 286.5 -112.5t116.5 -290.5v-625h-92v625q0 129 -92 221t-224 92t-221.5 -113.5t-89.5 -255.5v-569h-90v1434h90v-623q53 98 135.5 157.5
t180.5 59.5z" />
    <glyph glyph-name="uni1E2E" unicode="&#x1e2e;" horiz-adv-x="516" 
d="M211 0v1434h92v-1434h-92zM454.5 1583q-30.5 0 -52 22.5t-21.5 52.5t21.5 51.5t52 21.5t52 -21.5t21.5 -51.5t-21.5 -52.5t-52 -22.5zM63.5 1583q-30.5 0 -52 22.5t-21.5 52.5t21.5 51.5t52 21.5t52 -21.5t21.5 -51.5t-21.5 -52.5t-52 -22.5zM285 1821l-47 16l116 340
l72 -27z" />
    <glyph glyph-name="uni1E2F" unicode="&#x1e2f;" horiz-adv-x="438" 
d="M264 1024v-1024h-90v1024h90zM416 1184q-30 0 -52 22t-22 52t21.5 51.5t52 21.5t52 -21.5t21.5 -51.5t-21.5 -52t-51.5 -22zM24.5 1184q-30.5 0 -52.5 22t-21.5 52t22 51.5t52 21.5t52 -21.5t21.5 -51.5t-21.5 -52t-52 -22zM246 1421l-47 17l116 340l72 -27z" />
    <glyph glyph-name="uni1E36" unicode="&#x1e36;" horiz-adv-x="1224" 
d="M695 -139q30 0 51.5 -21.5t21.5 -51.5t-21.5 -52.5t-51.5 -22.5t-52 22.5t-22 52.5t22 51.5t52 21.5zM295 90h862v-90h-952v1432h90v-1342z" />
    <glyph glyph-name="uni1E37" unicode="&#x1e37;" horiz-adv-x="438" 
d="M204 -287q-30 0 -52.5 22.5t-22.5 52.5t22.5 51.5t52.5 21.5t51 -21.5t21 -51.5t-21 -52.5t-51 -22.5zM264 1434v-1434h-90v1434h90z" />
    <glyph glyph-name="uni1E3C" unicode="&#x1e3c;" horiz-adv-x="1224" 
d="M641 -76h45l199 -315l-45 -29l-176 277l-175 -279l-47 31zM295 90h862v-90h-952v1432h90v-1342z" />
    <glyph glyph-name="uni1E3D" unicode="&#x1e3d;" horiz-adv-x="501" 
d="M31 -391l196 315h47l199 -315l-47 -29l-174 277l-176 -279zM295 1434v-1434h-90v1434h90z" />
    <glyph glyph-name="uni1E3E" unicode="&#x1e3e;" horiz-adv-x="1828" 
d="M1624 1432v-1432h-90v1225l-590 -1028h-55l-594 1038v-1235h-90v1432h80l633 -1102l630 1102h76zM1083 1823l-141 -330l-47 16l117 340z" />
    <glyph glyph-name="uni1E3F" unicode="&#x1e3f;" horiz-adv-x="1802" 
d="M1295 1028q134 0 247 -109.5t113 -291.5v-627h-90v627q0 135 -89.5 224t-218 89t-216 -107.5t-87.5 -244.5v-588h-90v627q0 137 -91 225t-225 88t-221 -106.5t-87 -245.5v-588h-93v1004h93v-197q119 223 333 223q119 0 220.5 -71.5t140.5 -196.5q51 117 139 191.5
t222 74.5zM1085 1491l-141 -330l-47 17l117 340z" />
    <glyph glyph-name="uni1E44" unicode="&#x1e44;" horiz-adv-x="1476" 
d="M1180 1434h92v-1434h-74l-903 1262v-1262h-90v1434h78l897 -1252v1252zM738 1516q-30 0 -52 22t-22 52t21.5 51.5t52 21.5t52 -21.5t21.5 -51.5t-21.5 -52t-51.5 -22z" />
    <glyph glyph-name="uni1E45" unicode="&#x1e45;" horiz-adv-x="1101" 
d="M569 1030q156 0 270.5 -109.5t114.5 -293.5v-627h-90v627q0 135 -92 224t-224 89t-221 -108.5t-89 -245.5v-586h-91v1018h91v-211q120 223 331 223zM553 1184q-31 0 -53 22t-21.5 52t22 51.5t52.5 21.5t52.5 -21.5t21.5 -51.5t-21.5 -52t-52.5 -22z" />
    <glyph glyph-name="uni1E46" unicode="&#x1e46;" horiz-adv-x="1476" 
d="M746 -139q30 0 51.5 -21.5t21.5 -51.5t-21.5 -52.5t-51.5 -22.5t-52 22.5t-22 52.5t22 51.5t52 21.5zM1180 1434h92v-1434h-74l-903 1262v-1262h-90v1434h78l897 -1252v1252z" />
    <glyph glyph-name="uni1E47" unicode="&#x1e47;" horiz-adv-x="1101" 
d="M554 -139q30 0 51.5 -21.5t21.5 -51.5t-21.5 -52.5t-51.5 -22.5t-52.5 22.5t-22.5 52.5t22.5 51.5t52.5 21.5zM569 1030q156 0 270.5 -109.5t114.5 -293.5v-627h-90v627q0 135 -92 224t-224 89t-221 -108.5t-89 -245.5v-586h-91v1018h91v-211q120 223 331 223z" />
    <glyph glyph-name="uni1E4A" unicode="&#x1e4a;" horiz-adv-x="1476" 
d="M700 -76h45l199 -315l-45 -29l-176 277l-174 -279l-47 31zM1180 1434h92v-1434h-74l-903 1262v-1262h-90v1434h78l897 -1252v1252z" />
    <glyph glyph-name="uni1E4B" unicode="&#x1e4b;" horiz-adv-x="1101" 
d="M528 -76h47l199 -315l-47 -29l-176 277l-174 -279l-45 31zM553 1030q170 0 286 -112t115 -291v-627h-90v627q0 137 -92 225t-225 88t-221 -109t-88 -245v-586h-91v1018h91v-199q57 95 139 153t176 58z" />
    <glyph glyph-name="uni1E4C" unicode="&#x1e4c;" horiz-adv-x="1691" 
d="M860 92q256 0 440.5 183.5t184.5 442.5t-182.5 441t-442.5 182t-443.5 -182t-183.5 -442t185.5 -442.5t441.5 -182.5zM859 0q-294 0 -505 211t-211 507t210 506t507 210t506 -210t209 -507t-211 -507t-505 -210zM748 1683q-68 0 -130 -94l-55 33q74 125 180 127
q53 2 140.5 -55.5t136.5 -55.5t102 76l56 -35q-68 -106 -156 -106q-57 -2 -144 54t-130 56zM891 1860l-47 16l117 340l71 -27z" />
    <glyph glyph-name="uni1E4D" unicode="&#x1e4d;" horiz-adv-x="1267" 
d="M634 82q177 0 304 126t127 304q2 178 -125 305t-305 127t-305 -128t-127 -305t127 -303t304 -126zM634 -10q-216 0 -368.5 152.5t-152.5 368.5t152.5 369.5t368.5 153.5t368.5 -153.5t153.5 -368.5t-152.5 -368.5t-369.5 -153.5zM518 1284q-68 0 -129 -94l-55 33
q74 125 180 127q53 2 140 -55.5t136 -55.5t103 76l55 -35q-68 -106 -155 -106q-57 -2 -144.5 54t-130.5 56zM662 1460l-48 17l117 340l72 -27z" />
    <glyph glyph-name="uni1E50" unicode="&#x1e50;" horiz-adv-x="1691" 
d="M860 92q256 0 440.5 183.5t184.5 442.5t-182.5 441t-442.5 182t-443.5 -182t-183.5 -442t185.5 -442.5t441.5 -182.5zM859 0q-294 0 -505 211t-211 507t210 506t507 210t506 -210t209 -507t-211 -507t-505 -210zM588 1591v64h542v-64h-542zM842 1763l-142 330l72 27
l117 -340z" />
    <glyph glyph-name="uni1E51" unicode="&#x1e51;" horiz-adv-x="1267" 
d="M634 82q177 0 304 126t127 304q2 178 -125 305t-305 127t-305 -128t-127 -305t127 -303t304 -126zM634 -10q-216 0 -368.5 152.5t-152.5 368.5t152.5 369.5t368.5 153.5t368.5 -153.5t153.5 -368.5t-152.5 -368.5t-369.5 -153.5zM358 1192v63h543v-63h-543zM612 1364
l-141 330l72 26l116 -340z" />
    <glyph glyph-name="uni1E52" unicode="&#x1e52;" horiz-adv-x="1691" 
d="M860 92q256 0 440.5 183.5t184.5 442.5t-182.5 441t-442.5 182t-443.5 -182t-183.5 -442t185.5 -442.5t441.5 -182.5zM859 0q-294 0 -505 211t-211 507t210 506t507 210t506 -210t209 -507t-211 -507t-505 -210zM588 1591v64h542v-64h-542zM887 1759l-47 17l116 340
l72 -27z" />
    <glyph glyph-name="uni1E53" unicode="&#x1e53;" horiz-adv-x="1267" 
d="M634 82q177 0 304 126t127 304q2 178 -125 305t-305 127t-305 -128t-127 -305t127 -303t304 -126zM634 -10q-216 0 -368.5 152.5t-152.5 368.5t152.5 369.5t368.5 153.5t368.5 -153.5t153.5 -368.5t-152.5 -368.5t-369.5 -153.5zM358 1192v63h543v-63h-543zM657 1360
l-47 16l117 340l72 -26z" />
    <glyph glyph-name="uni1E62" unicode="&#x1e62;" horiz-adv-x="1208" 
d="M579 -283q-30 0 -52.5 22.5t-22.5 52.5t22.5 51.5t52.5 21.5t51 -21.5t21 -51.5t-21 -52.5t-51 -22.5zM614 2q-373 0 -505 277l84 38q109 -225 421 -225q168 0 268.5 80t100.5 214q1 134 -117 201q-99 58 -233.5 85.5t-207.5 54.5t-141 70q-142 89 -142.5 259.5
t115.5 276t310 105.5q330 0 453 -260l-76 -48q-96 217 -379 218q-154 0 -244 -79t-90 -208q0 -164 199 -242q45 -18 227 -63q418 -96 418 -375q0 -168 -126 -273.5t-335 -105.5z" />
    <glyph glyph-name="uni1E63" unicode="&#x1e63;" horiz-adv-x="942" 
d="M452 -293q-30 0 -52.5 22.5t-22.5 52.5t22.5 51.5t52.5 21.5t51 -21.5t21 -51.5t-21 -52.5t-51 -22.5zM477.5 -10q-149.5 0 -248 64.5t-137.5 181.5l88 24q61 -180 291 -180q117 0 183.5 52t66.5 140q0 147 -268 199q-328 63 -328 281q0 123 86 202.5t227 79.5
q281 0 355 -246l-88 -18q-59 174 -267 174q-102 0 -162.5 -53t-60.5 -139q0 -141 254 -191q344 -66 344 -289q0 -125 -93 -203.5t-242.5 -78.5z" />
    <glyph glyph-name="uni1E6C" unicode="&#x1e6c;" horiz-adv-x="1312" 
d="M630 -139q30 0 51 -21.5t21 -51.5t-21.5 -52.5t-51 -22.5t-52 22.5t-22.5 52.5t22.5 51.5t52.5 21.5zM1245 1434v-93h-543v-1341h-92v1341h-542v93h1177z" />
    <glyph glyph-name="uni1E6D" unicode="&#x1e6d;" horiz-adv-x="843" 
d="M523 -131q30 0 51.5 -21.5t21.5 -51.5t-21.5 -52.5t-51.5 -22.5t-52 23t-22 52.5t22 51t52 21.5zM281 291v635h-199v90h199v289h90v-289h319v-90h-319v-635q0 -123 111.5 -184.5t207.5 10.5l64 -68q-74 -53 -159 -57t-153.5 31.5t-114.5 107.5t-46 160z" />
    <glyph glyph-name="uni1E6E" unicode="&#x1e6e;" horiz-adv-x="1312" 
d="M369 -205v62h536v-62h-536zM68 1434h1177v-93h-543v-1341h-92v1341h-542v93z" />
    <glyph glyph-name="uni1E6F" unicode="&#x1e6f;" horiz-adv-x="843" 
d="M262 -135h537v-62h-537v62zM281 291v635h-199v90h199v289h90v-289h319v-90h-319v-635q0 -123 111.5 -184.5t207.5 10.5l64 -68q-74 -53 -159 -57t-153.5 31.5t-114.5 107.5t-46 160z" />
    <glyph glyph-name="uni1E70" unicode="&#x1e70;" horiz-adv-x="1312" 
d="M631 -76h47l199 -315l-48 -29l-176 277l-174 -279l-45 31zM68 1434h1177v-93h-543v-1341h-90v1341h-544v93z" />
    <glyph glyph-name="uni1E71" unicode="&#x1e71;" horiz-adv-x="843" 
d="M436 -76h45l199 -315l-45 -29l-176 277l-174 -279l-47 31zM281 297v629h-199v90h199v289h90v-289h319v-90h-319v-629q-1 -121 111 -182t208 8l64 -66q-106 -67 -212 -57t-184 95q-77 85 -77 202z" />
    <glyph glyph-name="Wgrave" unicode="&#x1e80;" horiz-adv-x="1916" 
d="M1739 1434h96l-416 -1434h-73l-390 1081l-387 -1081h-73l-414 1434h94l361 -1250l389 1086h63l387 -1084zM981 1540l-47 -16l-141 329l71 27z" />
    <glyph glyph-name="wgrave" unicode="&#x1e81;" horiz-adv-x="1449" 
d="M385 0l-297 1024h90l250 -860l264 745h64l264 -745l252 860h90l-297 -1024h-70l-272 741l-270 -741h-68zM707 1165l-142 330l72 27l117 -340z" />
    <glyph glyph-name="Wacute" unicode="&#x1e82;" horiz-adv-x="1916" 
d="M1739 1434h96l-416 -1434h-73l-390 1081l-387 -1081h-73l-414 1434h94l361 -1250l389 1086h63l387 -1084zM1120 1849l-141 -329l-47 16l117 340z" />
    <glyph glyph-name="wacute" unicode="&#x1e83;" horiz-adv-x="1449" 
d="M385 0l-297 1024h90l250 -860l264 745h64l264 -745l252 860h90l-297 -1024h-70l-272 741l-270 -741h-68zM752 1161l-47 17l116 340l72 -27z" />
    <glyph glyph-name="Wdieresis" unicode="&#x1e84;" horiz-adv-x="1916" 
d="M1739 1434h96l-416 -1434h-73l-390 1081l-387 -1081h-73l-414 1434h94l361 -1250l389 1086h63l387 -1084zM1149 1542q-31 0 -52.5 22.5t-21.5 52.5t21.5 51.5t52.5 21.5t52.5 -21.5t21.5 -51.5t-21.5 -52.5t-52.5 -22.5zM757.5 1542q-30.5 0 -52 22.5t-21.5 52.5
t21.5 51.5t52 21.5t52 -21.5t21.5 -51.5t-21.5 -52.5t-52 -22.5z" />
    <glyph glyph-name="wdieresis" unicode="&#x1e85;" horiz-adv-x="1449" 
d="M385 0l-297 1024h90l250 -860l264 745h64l264 -745l252 860h90l-297 -1024h-70l-272 741l-270 -741h-68zM922 1184q-30 0 -52 22t-22 52t21.5 51.5t52 21.5t52 -21.5t21.5 -51.5t-21.5 -52t-51.5 -22zM530.5 1184q-30.5 0 -52.5 22t-21.5 52t22 51.5t52 21.5t52 -21.5
t21.5 -51.5t-21.5 -52t-52 -22z" />
    <glyph glyph-name="uni1E92" unicode="&#x1e92;" horiz-adv-x="1519" 
d="M755 -182q30 0 51 -21.5t21 -51.5t-21.5 -52.5t-51 -22.5t-52 22.5t-22.5 52.5t22.5 51.5t52.5 21.5zM1372 1434v-70l-1104 -1272h1098v-92h-1233v74l1100 1267h-1100v93h1239z" />
    <glyph glyph-name="uni1E93" unicode="&#x1e93;" horiz-adv-x="1060" 
d="M529 -287q-30 0 -52 22.5t-22 52.5t22.5 51.5t52 21.5t51 -21.5t21.5 -51.5t-21.5 -52.5t-51.5 -22.5zM78 0v68l760 866h-758v88h897v-61l-764 -873h754v-88h-889z" />
    <glyph glyph-name="uni1EA0" unicode="&#x1ea0;" 
d="M722 -139q30 0 51.5 -21.5t21.5 -51.5t-21.5 -52.5t-51.5 -22.5t-52.5 22.5t-22.5 52.5t22.5 51.5t52.5 21.5zM391 518h658l-330 764zM1374 0h-102l-185 426h-735l-182 -426h-102l622 1434h62z" />
    <glyph glyph-name="uni1EA1" unicode="&#x1ea1;" horiz-adv-x="1052" 
d="M521 -139q30 0 51.5 -21.5t21.5 -51.5t-21.5 -52.5t-51.5 -22.5t-52.5 22.5t-22.5 52.5t22.5 51.5t52.5 21.5zM464 82q128 0 231.5 83t103.5 204v98q-139 51 -284.5 51t-237 -59.5t-91.5 -163.5v-4q0 -98 75 -153.5t203 -55.5zM512 1034q164 0 271.5 -101.5t107.5 -277.5
v-655h-90v176q-131 -178 -352 -178q-156 0 -254.5 80t-98.5 213v4q0 143 115 221t299 78t291 -64v125q0 129 -83 210t-206 81q-82 0 -150.5 -42t-103.5 -113l-90 28q45 98 139 156.5t205 58.5z" />
    <glyph glyph-name="uni1EA2" unicode="&#x1ea2;" 
d="M391 518h658l-330 764zM1272 0l-185 426h-735l-182 -426h-102l622 1434h62l622 -1434h-102zM754 1749q-33 61 -121 68v59q115 10 178 -98q35 -72 5 -140.5t-118 -119.5l-30 55q133 80 86 176z" />
    <glyph glyph-name="uni1EA3" unicode="&#x1ea3;" horiz-adv-x="1052" 
d="M464 82q128 0 231.5 83t103.5 204v98q-139 51 -284.5 51t-237 -59.5t-91.5 -163.5v-4q0 -98 75 -153.5t203 -55.5zM512 1034q164 0 271.5 -101.5t107.5 -277.5v-655h-90v176q-131 -178 -352 -178q-156 0 -254.5 80t-98.5 213v4q0 143 115 221t299 78t291 -64v125
q0 129 -83 210t-206 81q-82 0 -150.5 -42t-103.5 -113l-90 28q45 98 139 156.5t205 58.5zM559 1350q-33 61 -121 67v60q115 10 178 -99q35 -72 5.5 -140.5t-117.5 -119.5l-31 56q133 80 86 176z" />
    <glyph glyph-name="uni1EA4" unicode="&#x1ea4;" 
d="M391 518h658l-330 764zM1272 0l-185 426h-735l-182 -426h-102l622 1434h62l622 -1434h-102zM721 1784l-176 -277l-45 29l196 317h47l199 -315l-47 -31zM887 2284l-142 -330l-47 16l117 340z" />
    <glyph glyph-name="uni1EA5" unicode="&#x1ea5;" horiz-adv-x="1052" 
d="M464 82q128 0 231.5 83t103.5 204v98q-139 51 -284.5 51t-237 -59.5t-91.5 -163.5v-4q0 -98 75 -153.5t203 -55.5zM512 1034q164 0 271.5 -101.5t107.5 -277.5v-655h-90v176q-131 -178 -352 -178q-156 0 -254.5 80t-98.5 213v4q0 143 115 221t299 78t291 -64v125
q0 129 -83 210t-206 81q-82 0 -150.5 -42t-103.5 -113l-90 28q45 98 139 156.5t205 58.5zM526 1384l-176 -276l-45 29l197 317h47l199 -315l-48 -31zM692 1884l-141 -330l-47 17l117 340z" />
    <glyph glyph-name="uni1EA6" unicode="&#x1ea6;" 
d="M391 518h658l-330 764zM1272 0l-185 426h-735l-182 -426h-102l622 1434h62l622 -1434h-102zM721 1784l-176 -277l-45 29l196 317h47l199 -315l-47 -31zM748 1974l-48 -16l-141 330l72 26z" />
    <glyph glyph-name="uni1EA7" unicode="&#x1ea7;" horiz-adv-x="1052" 
d="M464 82q128 0 231.5 83t103.5 204v98q-139 51 -284.5 51t-237 -59.5t-91.5 -163.5v-4q0 -98 75 -153.5t203 -55.5zM512 1034q164 0 271.5 -101.5t107.5 -277.5v-655h-90v176q-131 -178 -352 -178q-156 0 -254.5 80t-98.5 213v4q0 143 115 221t299 78t291 -64v125
q0 129 -83 210t-206 81q-82 0 -150.5 -42t-103.5 -113l-90 28q45 98 139 156.5t205 58.5zM526 1384l-176 -276l-45 29l197 317h47l199 -315l-48 -31zM553 1575l-47 -16l-141 329l71 27z" />
    <glyph glyph-name="uni1EA8" unicode="&#x1ea8;" 
d="M391 518h658l-330 764zM1272 0l-185 426h-735l-182 -426h-102l622 1434h62l622 -1434h-102zM721 1784l-176 -277l-45 29l196 317h47l199 -315l-47 -31zM752 2142q-33 61 -121 68v59q115 10 178 -98q35 -72 5 -140.5t-118 -119.5l-30 55q133 80 86 176z" />
    <glyph glyph-name="uni1EA9" unicode="&#x1ea9;" horiz-adv-x="1052" 
d="M464 82q128 0 231.5 83t103.5 204v98q-139 51 -284.5 51t-237 -59.5t-91.5 -163.5v-4q0 -98 75 -153.5t203 -55.5zM512 1034q164 0 271.5 -101.5t107.5 -277.5v-655h-90v176q-131 -178 -352 -178q-156 0 -254.5 80t-98.5 213v4q0 143 115 221t299 78t291 -64v125
q0 129 -83 210t-206 81q-82 0 -150.5 -42t-103.5 -113l-90 28q45 98 139 156.5t205 58.5zM526 1384l-176 -276l-45 29l197 317h47l199 -315l-48 -31zM557 1743q-33 61 -121 67v60q115 10 178 -98q35 -72 5.5 -140.5t-117.5 -120.5l-31 56q133 80 86 176z" />
    <glyph glyph-name="uni1EAA" unicode="&#x1eaa;" 
d="M391 518h658l-330 764zM1272 0l-185 426h-735l-182 -426h-102l622 1434h62l622 -1434h-102zM696 1853h47l199 -315l-47 -31l-174 277l-176 -277l-45 29zM606 2077q-68 0 -129 -95l-55 33q74 125 180 127q53 2 140 -55t136 -55t103 75l55 -34q-68 -106 -155 -107
q-57 -2 -144.5 54.5t-130.5 56.5z" />
    <glyph glyph-name="uni1EAB" unicode="&#x1eab;" horiz-adv-x="1052" 
d="M464 82q128 0 231.5 83t103.5 204v98q-139 51 -284.5 51t-237 -59.5t-91.5 -163.5v-4q0 -98 75 -153.5t203 -55.5zM512 1034q164 0 271.5 -101.5t107.5 -277.5v-655h-90v176q-131 -178 -352 -178q-156 0 -254.5 80t-98.5 213v4q0 143 115 221t299 78t291 -64v125
q0 129 -83 210t-206 81q-82 0 -150.5 -42t-103.5 -113l-90 28q45 98 139 156.5t205 58.5zM502 1454h47l199 -315l-48 -31l-174 276l-176 -276l-45 29zM412 1677q-68 0 -129 -94l-56 33q74 125 181 127q53 2 140 -55.5t136 -55.5t102 76l56 -35q-68 -106 -156 -106
q-57 -2 -144 54t-130 56z" />
    <glyph glyph-name="uni1EAC" unicode="&#x1eac;" 
d="M722 -139q30 0 51.5 -21.5t21.5 -51.5t-21.5 -52.5t-51.5 -22.5t-52.5 22.5t-22.5 52.5t22.5 51.5t52.5 21.5zM391 518h658l-330 764zM1374 0h-102l-185 426h-735l-182 -426h-102l622 1434h62zM721 1784l-176 -277l-45 29l196 317h47l199 -315l-47 -31z" />
    <glyph glyph-name="uni1EAD" unicode="&#x1ead;" horiz-adv-x="1052" 
d="M521 -139q30 0 51.5 -21.5t21.5 -51.5t-21.5 -52.5t-51.5 -22.5t-52.5 22.5t-22.5 52.5t22.5 51.5t52.5 21.5zM464 82q128 0 231.5 83t103.5 204v98q-139 51 -284.5 51t-237 -59.5t-91.5 -163.5v-4q0 -98 75 -153.5t203 -55.5zM512 1034q164 0 271.5 -101.5t107.5 -277.5
v-655h-90v176q-131 -178 -352 -178q-156 0 -254.5 80t-98.5 213v4q0 143 115 221t299 78t291 -64v125q0 129 -83 210t-206 81q-82 0 -150.5 -42t-103.5 -113l-90 28q45 98 139 156.5t205 58.5zM526 1384l-176 -276l-45 29l197 317h47l199 -315l-48 -31z" />
    <glyph glyph-name="uni1EAE" unicode="&#x1eae;" 
d="M391 518h658l-330 764zM1272 0l-185 426h-735l-182 -426h-102l622 1434h62l622 -1434h-102zM720 1548q-93 0 -169 64.5t-109 171.5l62 20q23 -84 83 -138t132 -54t131 52t86 138l61 -18q-33 -106 -108.5 -171t-168.5 -65zM891 2224l-141 -330l-48 17l117 340z" />
    <glyph glyph-name="uni1EAF" unicode="&#x1eaf;" horiz-adv-x="1052" 
d="M464 82q128 0 231.5 83t103.5 204v98q-139 51 -284.5 51t-237 -59.5t-91.5 -163.5v-4q0 -98 75 -153.5t203 -55.5zM512 1034q164 0 271.5 -101.5t107.5 -277.5v-655h-90v176q-131 -178 -352 -178q-156 0 -254.5 80t-98.5 213v4q0 143 115 221t299 78t291 -64v125
q0 129 -83 210t-206 81q-82 0 -150.5 -42t-103.5 -113l-90 28q45 98 139 156.5t205 58.5zM525 1149q-93 0 -168.5 64.5t-108.5 170.5l61 21q23 -84 83.5 -138.5t132 -54.5t131 52.5t85.5 138.5l62 -19q-33 -106 -109 -170.5t-169 -64.5zM696 1825l-141 -330l-47 16l117 340z
" />
    <glyph glyph-name="uni1EB0" unicode="&#x1eb0;" 
d="M391 518h658l-330 764zM1272 0l-185 426h-735l-182 -426h-102l622 1434h62l622 -1434h-102zM720 1548q-93 0 -169 64.5t-109 171.5l62 20q23 -84 83 -138t132 -54t131 52t86 138l61 -18q-33 -106 -108.5 -171t-168.5 -65zM752 1915l-47 -17l-142 330l72 27z" />
    <glyph glyph-name="uni1EB1" unicode="&#x1eb1;" horiz-adv-x="1052" 
d="M464 82q128 0 231.5 83t103.5 204v98q-139 51 -284.5 51t-237 -59.5t-91.5 -163.5v-4q0 -98 75 -153.5t203 -55.5zM512 1034q164 0 271.5 -101.5t107.5 -277.5v-655h-90v176q-131 -178 -352 -178q-156 0 -254.5 80t-98.5 213v4q0 143 115 221t299 78t291 -64v125
q0 129 -83 210t-206 81q-82 0 -150.5 -42t-103.5 -113l-90 28q45 98 139 156.5t205 58.5zM525 1149q-93 0 -168.5 64.5t-108.5 170.5l61 21q23 -84 83.5 -138.5t132 -54.5t131 52.5t85.5 138.5l62 -19q-33 -106 -109 -170.5t-169 -64.5zM557 1516l-47 -17l-141 330l71 26z
" />
    <glyph glyph-name="uni1EB2" unicode="&#x1eb2;" 
d="M391 518h658l-330 764zM1272 0l-185 426h-735l-182 -426h-102l622 1434h62l622 -1434h-102zM720 1548q-93 0 -169 64.5t-109 171.5l62 20q23 -84 83 -138t132 -54t131 52t86 138l61 -18q-33 -106 -108.5 -171t-168.5 -65zM756 2083q-33 61 -121 67v60q115 10 178 -99
q35 -72 5 -140t-118 -120l-30 56q133 80 86 176z" />
    <glyph glyph-name="uni1EB3" unicode="&#x1eb3;" horiz-adv-x="1052" 
d="M464 82q128 0 231.5 83t103.5 204v98q-139 51 -284.5 51t-237 -59.5t-91.5 -163.5v-4q0 -98 75 -153.5t203 -55.5zM512 1034q164 0 271.5 -101.5t107.5 -277.5v-655h-90v176q-131 -178 -352 -178q-156 0 -254.5 80t-98.5 213v4q0 143 115 221t299 78t291 -64v125
q0 129 -83 210t-206 81q-82 0 -150.5 -42t-103.5 -113l-90 28q45 98 139 156.5t205 58.5zM525 1149q-93 0 -168.5 64.5t-108.5 170.5l61 21q23 -84 83.5 -138.5t132 -54.5t131 52.5t85.5 138.5l62 -19q-33 -106 -109 -170.5t-169 -64.5zM561 1683q-33 61 -121 68v59
q115 10 178 -98q35 -72 5.5 -140.5t-117.5 -119.5l-31 55q133 80 86 176z" />
    <glyph glyph-name="uni1EB4" unicode="&#x1eb4;" 
d="M391 518h658l-330 764zM1272 0l-185 426h-735l-182 -426h-102l622 1434h62l622 -1434h-102zM719 1612q72 0 131 52t86 138l61 -18q-33 -106 -108.5 -171t-168.5 -65t-169 64.5t-109 171.5l62 20q23 -84 83 -138t132 -54zM610 2017q-68 0 -129 -94l-55 33q74 125 180 127
q53 2 140.5 -55.5t136.5 -55.5t102 76l55 -35q-68 -106 -155 -106q-57 -2 -144.5 54t-130.5 56z" />
    <glyph glyph-name="uni1EB5" unicode="&#x1eb5;" horiz-adv-x="1052" 
d="M464 82q128 0 231.5 83t103.5 204v98q-139 51 -284.5 51t-237 -59.5t-91.5 -163.5v-4q0 -98 75 -153.5t203 -55.5zM512 1034q164 0 271.5 -101.5t107.5 -277.5v-655h-90v176q-131 -178 -352 -178q-156 0 -254.5 80t-98.5 213v4q0 143 115 221t299 78t291 -64v125
q0 129 -83 210t-206 81q-82 0 -150.5 -42t-103.5 -113l-90 28q45 98 139 156.5t205 58.5zM524.5 1212q71.5 0 131 52.5t85.5 138.5l62 -19q-33 -106 -109 -170.5t-169 -64.5t-168.5 64.5t-108.5 170.5l61 21q23 -84 83.5 -138.5t132 -54.5zM416 1618q-68 0 -129 -94l-56 32
q74 125 181 127q53 2 140 -55t136 -55t103 76l55 -35q-68 -106 -156 -107q-57 -2 -144 54.5t-130 56.5z" />
    <glyph glyph-name="uni1EB6" unicode="&#x1eb6;" 
d="M722 -139q30 0 51.5 -21.5t21.5 -51.5t-21.5 -52.5t-51.5 -22.5t-52.5 22.5t-22.5 52.5t22.5 51.5t52.5 21.5zM391 518h658l-330 764zM1374 0h-102l-185 426h-735l-182 -426h-102l622 1434h62zM720 1548q-93 0 -169 64.5t-109 171.5l62 20q23 -84 83 -138t132 -54t131 52
t86 138l61 -18q-33 -106 -108.5 -171t-168.5 -65z" />
    <glyph glyph-name="uni1EB7" unicode="&#x1eb7;" horiz-adv-x="1052" 
d="M521 -139q30 0 51.5 -21.5t21.5 -51.5t-21.5 -52.5t-51.5 -22.5t-52.5 22.5t-22.5 52.5t22.5 51.5t52.5 21.5zM464 82q128 0 231.5 83t103.5 204v98q-139 51 -284.5 51t-237 -59.5t-91.5 -163.5v-4q0 -98 75 -153.5t203 -55.5zM512 1034q164 0 271.5 -101.5t107.5 -277.5
v-655h-90v176q-131 -178 -352 -178q-156 0 -254.5 80t-98.5 213v4q0 143 115 221t299 78t291 -64v125q0 129 -83 210t-206 81q-82 0 -150.5 -42t-103.5 -113l-90 28q45 98 139 156.5t205 58.5zM525 1149q-93 0 -168.5 64.5t-108.5 170.5l61 21q23 -84 83.5 -138.5t132 -54.5
t131 52.5t85.5 138.5l62 -19q-33 -106 -109 -170.5t-169 -64.5z" />
    <glyph glyph-name="uni1EB8" unicode="&#x1eb8;" horiz-adv-x="1280" 
d="M667 -139q30 0 51 -21.5t21 -51.5t-21.5 -52.5t-51 -22.5t-52 22.5t-22.5 52.5t22.5 51.5t52.5 21.5zM1151 1341h-856v-579h764v-90h-764v-580h856v-92h-946v1434h946v-93z" />
    <glyph glyph-name="uni1EB9" unicode="&#x1eb9;" horiz-adv-x="1255" 
d="M609 -139q30 0 51.5 -21.5t21.5 -51.5t-21.5 -52.5t-51.5 -22.5t-52 22.5t-22 52.5t22 51.5t52 21.5zM630 940q-155 0 -272.5 -98.5t-146.5 -247.5h836q-29 147 -145.5 246.5t-271.5 99.5zM631 82q125 0 231.5 69.5t157.5 184.5l80 -37q-59 -139 -187.5 -222t-281.5 -83
q-215 0 -366.5 151.5t-151.5 366.5t151.5 365.5t365.5 150.5t362.5 -151.5t148.5 -372.5h-938q4 -176 129 -299t299 -123z" />
    <glyph glyph-name="uni1EBA" unicode="&#x1eba;" horiz-adv-x="1280" 
d="M1151 1341h-856v-579h764v-90h-764v-580h856v-92h-946v1434h946v-93zM709 1759q-33 61 -121 68v59q115 10 178 -98q35 -72 5 -140.5t-118 -119.5l-30 55q133 80 86 176z" />
    <glyph glyph-name="uni1EBB" unicode="&#x1ebb;" horiz-adv-x="1255" 
d="M630 940q-155 0 -272.5 -98.5t-146.5 -247.5h836q-29 147 -145.5 246.5t-271.5 99.5zM631 82q125 0 231.5 69.5t157.5 184.5l80 -37q-59 -139 -187.5 -222t-281.5 -83q-215 0 -366.5 151.5t-151.5 366.5t151.5 365.5t365.5 150.5t362.5 -151.5t148.5 -372.5h-938
q4 -176 129 -299t299 -123zM664 1350q-33 61 -121 67v60q115 10 178 -99q35 -72 5 -140.5t-118 -119.5l-30 56q133 80 86 176z" />
    <glyph glyph-name="uni1EBC" unicode="&#x1ebc;" horiz-adv-x="1280" 
d="M1151 1341h-856v-579h764v-90h-764v-580h856v-92h-946v1434h946v-93zM563 1694q-68 0 -129 -95l-55 33q74 125 180 127q53 2 140 -55t136 -55t103 75l55 -34q-68 -106 -155 -107q-57 -2 -144.5 54.5t-130.5 56.5z" />
    <glyph glyph-name="uni1EBD" unicode="&#x1ebd;" horiz-adv-x="1255" 
d="M630 940q-155 0 -272.5 -98.5t-146.5 -247.5h836q-29 147 -145.5 246.5t-271.5 99.5zM631 82q125 0 231.5 69.5t157.5 184.5l80 -37q-59 -139 -187.5 -222t-281.5 -83q-215 0 -366.5 151.5t-151.5 366.5t151.5 365.5t365.5 150.5t362.5 -151.5t148.5 -372.5h-938
q4 -176 129 -299t299 -123zM518 1284q-68 0 -129 -94l-55 33q74 125 180 127q53 2 140 -55.5t136 -55.5t103 76l55 -35q-68 -106 -155 -106q-57 -2 -144.5 54t-130.5 56z" />
    <glyph glyph-name="uni1EBE" unicode="&#x1ebe;" horiz-adv-x="1280" 
d="M1151 1341h-856v-579h764v-90h-764v-580h856v-92h-946v1434h946v-93zM676 1794l-176 -276l-45 28l196 318h47l199 -316l-47 -30zM842 2294l-142 -330l-47 16l117 340z" />
    <glyph glyph-name="uni1EBF" unicode="&#x1ebf;" horiz-adv-x="1255" 
d="M630 940q-155 0 -272.5 -98.5t-146.5 -247.5h836q-29 147 -145.5 246.5t-271.5 99.5zM631 82q125 0 231.5 69.5t157.5 184.5l80 -37q-59 -139 -187.5 -222t-281.5 -83q-215 0 -366.5 151.5t-151.5 366.5t151.5 365.5t365.5 150.5t362.5 -151.5t148.5 -372.5h-938
q4 -176 129 -299t299 -123zM631 1384l-176 -276l-45 29l196 317h47l199 -315l-47 -31zM797 1884l-142 -330l-47 17l117 340z" />
    <glyph glyph-name="uni1EC0" unicode="&#x1ec0;" horiz-adv-x="1280" 
d="M1151 1341h-856v-579h764v-90h-764v-580h856v-92h-946v1434h946v-93zM676 1794l-176 -276l-45 28l196 318h47l199 -316l-47 -30zM702 1985l-47 -17l-141 330l72 26z" />
    <glyph glyph-name="uni1EC1" unicode="&#x1ec1;" horiz-adv-x="1255" 
d="M630 940q-155 0 -272.5 -98.5t-146.5 -247.5h836q-29 147 -145.5 246.5t-271.5 99.5zM631 82q125 0 231.5 69.5t157.5 184.5l80 -37q-59 -139 -187.5 -222t-281.5 -83q-215 0 -366.5 151.5t-151.5 366.5t151.5 365.5t365.5 150.5t362.5 -151.5t148.5 -372.5h-938
q4 -176 129 -299t299 -123zM631 1384l-176 -276l-45 29l196 317h47l199 -315l-47 -31zM657 1575l-47 -16l-141 329l72 27z" />
    <glyph glyph-name="uni1EC2" unicode="&#x1ec2;" horiz-adv-x="1280" 
d="M1151 1341h-856v-579h764v-90h-764v-580h856v-92h-946v1434h946v-93zM676 1794l-176 -276l-45 28l196 318h47l199 -316l-47 -30zM707 2152q-33 61 -121 68v59q115 10 178 -98q35 -72 5 -140.5t-118 -119.5l-30 55q133 80 86 176z" />
    <glyph glyph-name="uni1EC3" unicode="&#x1ec3;" horiz-adv-x="1255" 
d="M630 940q-155 0 -272.5 -98.5t-146.5 -247.5h836q-29 147 -145.5 246.5t-271.5 99.5zM631 82q125 0 231.5 69.5t157.5 184.5l80 -37q-59 -139 -187.5 -222t-281.5 -83q-215 0 -366.5 151.5t-151.5 366.5t151.5 365.5t365.5 150.5t362.5 -151.5t148.5 -372.5h-938
q4 -176 129 -299t299 -123zM631 1384l-176 -276l-45 29l196 317h47l199 -315l-47 -31zM662 1743q-33 61 -121 67v60q115 10 178 -98q35 -72 5 -140.5t-118 -120.5l-31 56q134 80 87 176z" />
    <glyph glyph-name="uni1EC4" unicode="&#x1ec4;" horiz-adv-x="1280" 
d="M1151 1341h-856v-579h764v-90h-764v-580h856v-92h-946v1434h946v-93zM651 1864h47l199 -316l-47 -30l-174 276l-176 -276l-45 28zM561 2087q-68 0 -129 -94l-55 32q74 125 180 127q53 2 140 -55t136 -55t103 76l55 -35q-68 -106 -155 -107q-57 -2 -144.5 54.5
t-130.5 56.5z" />
    <glyph glyph-name="uni1EC5" unicode="&#x1ec5;" horiz-adv-x="1255" 
d="M630 940q-155 0 -272.5 -98.5t-146.5 -247.5h836q-29 147 -145.5 246.5t-271.5 99.5zM631 82q125 0 231.5 69.5t157.5 184.5l80 -37q-59 -139 -187.5 -222t-281.5 -83q-215 0 -366.5 151.5t-151.5 366.5t151.5 365.5t365.5 150.5t362.5 -151.5t148.5 -372.5h-938
q4 -176 129 -299t299 -123zM606 1454h47l199 -315l-47 -31l-174 276l-176 -276l-45 29zM516 1677q-68 0 -129 -94l-55 33q74 125 180 127q53 2 140 -55.5t136 -55.5t103 76l55 -35q-68 -106 -155 -106q-57 -2 -144.5 54t-130.5 56z" />
    <glyph glyph-name="uni1EC6" unicode="&#x1ec6;" horiz-adv-x="1280" 
d="M667 -139q30 0 51 -21.5t21 -51.5t-21.5 -52.5t-51 -22.5t-52 22.5t-22.5 52.5t22.5 51.5t52.5 21.5zM1151 1341h-856v-579h764v-90h-764v-580h856v-92h-946v1434h946v-93zM676 1794l-176 -276l-45 28l196 318h47l199 -316l-47 -30z" />
    <glyph glyph-name="uni1EC7" unicode="&#x1ec7;" horiz-adv-x="1255" 
d="M609 -139q30 0 51.5 -21.5t21.5 -51.5t-21.5 -52.5t-51.5 -22.5t-52 22.5t-22 52.5t22 51.5t52 21.5zM630 940q-155 0 -272.5 -98.5t-146.5 -247.5h836q-29 147 -145.5 246.5t-271.5 99.5zM631 82q125 0 231.5 69.5t157.5 184.5l80 -37q-59 -139 -187.5 -222t-281.5 -83
q-215 0 -366.5 151.5t-151.5 366.5t151.5 365.5t365.5 150.5t362.5 -151.5t148.5 -372.5h-938q4 -176 129 -299t299 -123zM631 1384l-176 -276l-45 29l196 317h47l199 -315l-47 -31z" />
    <glyph glyph-name="uni1EC8" unicode="&#x1ec8;" horiz-adv-x="516" 
d="M211 0v1434h92v-1434h-92zM348 1778q35 -72 5.5 -140.5t-117.5 -119.5l-31 55q133 80 86 176q-33 61 -121 68v59q115 11 178 -98z" />
    <glyph glyph-name="uni1EC9" unicode="&#x1ec9;" horiz-adv-x="438" 
d="M264 1024v-1024h-90v1024h90zM309 1378q35 -72 5.5 -140.5t-117.5 -119.5l-31 56q133 80 86 176q-33 61 -121 67v60q115 10 178 -99z" />
    <glyph glyph-name="uni1ECA" unicode="&#x1eca;" horiz-adv-x="516" 
d="M259 -287q-30 0 -52.5 22.5t-22.5 52.5t22.5 51.5t52.5 21.5t51.5 -21.5t21.5 -51.5t-21.5 -52.5t-51.5 -22.5zM211 0v1434h92v-1434h-92z" />
    <glyph glyph-name="uni1ECB" unicode="&#x1ecb;" horiz-adv-x="495" 
d="M249 -287q-30 0 -52.5 22.5t-22.5 52.5t22.5 51.5t52.5 21.5t51.5 -21.5t21.5 -51.5t-21.5 -52.5t-51.5 -22.5zM203 0v1024h90v-1024h-90zM248 1294q-31 0 -52.5 22.5t-21.5 52.5t21.5 51.5t52.5 21.5t52.5 -21.5t21.5 -51.5t-21.5 -52.5t-52.5 -22.5z" />
    <glyph glyph-name="uni1ECC" unicode="&#x1ecc;" horiz-adv-x="1691" 
d="M861 -287q-30 0 -52.5 22.5t-22.5 52.5t22.5 51.5t52.5 21.5t51.5 -21.5t21.5 -51.5t-21.5 -52.5t-51.5 -22.5zM860 92q256 0 440.5 183.5t184.5 442.5t-182.5 441t-442.5 182t-443.5 -182t-183.5 -442t185.5 -442.5t441.5 -182.5zM859 0q-294 0 -505 211t-211 507
t210 506t507 210t506 -210t209 -507t-211 -507t-505 -210z" />
    <glyph glyph-name="uni1ECD" unicode="&#x1ecd;" horiz-adv-x="1267" 
d="M638 -287q-30 0 -52.5 22.5t-22.5 52.5t22.5 51.5t52.5 21.5t51.5 -21.5t21.5 -51.5t-21.5 -52.5t-51.5 -22.5zM634 82q177 0 304 126t127 304q2 178 -125 305t-305 127t-305 -128t-127 -305t127 -303t304 -126zM634 -10q-216 0 -368.5 152.5t-152.5 368.5t152.5 369.5
t368.5 153.5t368.5 -153.5t153.5 -368.5t-152.5 -368.5t-369.5 -153.5z" />
    <glyph glyph-name="uni1ECE" unicode="&#x1ece;" horiz-adv-x="1691" 
d="M860 92q256 0 440.5 183.5t184.5 442.5t-182.5 441t-442.5 182t-443.5 -182t-183.5 -442t185.5 -442.5t441.5 -182.5zM859 0q-294 0 -505 211t-211 507t210 506t507 210t506 -210t209 -507t-211 -507t-505 -210zM950 1778q35 -72 5.5 -140.5t-117.5 -119.5l-31 55
q133 80 86 176q-33 61 -121 68v59q115 11 178 -98z" />
    <glyph glyph-name="uni1ECF" unicode="&#x1ecf;" horiz-adv-x="1267" 
d="M634 82q177 0 304 126t127 304q2 178 -125 305t-305 127t-305 -128t-127 -305t127 -303t304 -126zM634 -10q-216 0 -368.5 152.5t-152.5 368.5t152.5 369.5t368.5 153.5t368.5 -153.5t153.5 -368.5t-152.5 -368.5t-369.5 -153.5zM721 1378q35 -72 5 -140.5t-118 -119.5
l-30 56q133 80 86 176q-33 61 -121 67v60q115 10 178 -99z" />
    <glyph glyph-name="uni1ED0" unicode="&#x1ed0;" horiz-adv-x="1691" 
d="M860 92q256 0 440.5 183.5t184.5 442.5t-182.5 441t-442.5 182t-443.5 -182t-183.5 -442t185.5 -442.5t441.5 -182.5zM859 0q-294 0 -505 211t-211 507t210 506t507 210t506 -210t209 -507t-211 -507t-505 -210zM639 1536l197 317h47l198 -315l-47 -31l-174 277
l-176 -277zM885 1954l-47 16l116 340l72 -26z" />
    <glyph glyph-name="uni1ED1" unicode="&#x1ed1;" horiz-adv-x="1267" 
d="M634 82q177 0 304 126t127 304q2 178 -125 305t-305 127t-305 -128t-127 -305t127 -303t304 -126zM634 -10q-216 0 -368.5 152.5t-152.5 368.5t152.5 369.5t368.5 153.5t368.5 -153.5t153.5 -368.5t-152.5 -368.5t-369.5 -153.5zM410 1137l196 317h47l199 -315l-47 -31
l-174 276l-176 -276zM655 1554l-47 17l117 340l72 -27z" />
    <glyph glyph-name="uni1ED2" unicode="&#x1ed2;" horiz-adv-x="1691" 
d="M860 92q256 0 440.5 183.5t184.5 442.5t-182.5 441t-442.5 182t-443.5 -182t-183.5 -442t185.5 -442.5t441.5 -182.5zM859 0q-294 0 -505 211t-211 507t210 506t507 210t506 -210t209 -507t-211 -507t-505 -210zM639 1536l197 317h47l198 -315l-47 -31l-174 277
l-176 -277zM840 1958l-142 330l72 26l117 -340z" />
    <glyph glyph-name="uni1ED3" unicode="&#x1ed3;" horiz-adv-x="1267" 
d="M634 82q177 0 304 126t127 304q2 178 -125 305t-305 127t-305 -128t-127 -305t127 -303t304 -126zM634 -10q-216 0 -368.5 152.5t-152.5 368.5t152.5 369.5t368.5 153.5t368.5 -153.5t153.5 -368.5t-152.5 -368.5t-369.5 -153.5zM410 1137l196 317h47l199 -315l-47 -31
l-174 276l-176 -276zM610 1559l-141 329l72 27l116 -340z" />
    <glyph glyph-name="uni1ED4" unicode="&#x1ed4;" horiz-adv-x="1691" 
d="M860 92q256 0 440.5 183.5t184.5 442.5t-182.5 441t-442.5 182t-443.5 -182t-183.5 -442t185.5 -442.5t441.5 -182.5zM859 0q-294 0 -505 211t-211 507t210 506t507 210t506 -210t209 -507t-211 -507t-505 -210zM639 1536l197 317h47l198 -315l-47 -31l-174 277
l-176 -277zM948 2171q35 -72 5.5 -140.5t-117.5 -119.5l-31 55q133 80 86 176q-33 61 -121 68v59q115 11 178 -98z" />
    <glyph glyph-name="uni1ED5" unicode="&#x1ed5;" horiz-adv-x="1267" 
d="M634 82q177 0 304 126t127 304q2 178 -125 305t-305 127t-305 -128t-127 -305t127 -303t304 -126zM634 -10q-216 0 -368.5 152.5t-152.5 368.5t152.5 369.5t368.5 153.5t368.5 -153.5t153.5 -368.5t-152.5 -368.5t-369.5 -153.5zM410 1137l196 317h47l199 -315l-47 -31
l-174 276l-176 -276zM719 1772q35 -72 5 -140.5t-118 -120.5l-31 56q133 80 87 176q-33 61 -121 67v60q115 11 178 -98z" />
    <glyph glyph-name="uni1ED6" unicode="&#x1ed6;" horiz-adv-x="1691" 
d="M860 92q256 0 440.5 183.5t184.5 442.5t-182.5 441t-442.5 182t-443.5 -182t-183.5 -442t185.5 -442.5t441.5 -182.5zM859 0q-294 0 -505 211t-211 507t210 506t507 210t506 -210t209 -507t-211 -507t-505 -210zM639 1536l197 317h47l198 -315l-47 -31l-174 277
l-176 -277zM745 2077q-68 0 -129 -95l-55 33q74 125 180 127q53 2 140.5 -55t136.5 -55t102 75l56 -34q-68 -106 -156 -107q-57 -2 -144.5 54.5t-130.5 56.5z" />
    <glyph glyph-name="uni1ED7" unicode="&#x1ed7;" horiz-adv-x="1267" 
d="M634 82q177 0 304 126t127 304q2 178 -125 305t-305 127t-305 -128t-127 -305t127 -303t304 -126zM634 -10q-216 0 -368.5 152.5t-152.5 368.5t152.5 369.5t368.5 153.5t368.5 -153.5t153.5 -368.5t-152.5 -368.5t-369.5 -153.5zM410 1137l196 317h47l199 -315l-47 -31
l-174 276l-176 -276zM516 1677q-68 0 -129 -94l-55 33q74 125 180 127q53 2 140 -55.5t136 -55.5t103 76l55 -35q-68 -106 -155 -106q-57 -2 -144.5 54t-130.5 56z" />
    <glyph glyph-name="uni1ED8" unicode="&#x1ed8;" horiz-adv-x="1691" 
d="M861 -287q-30 0 -52.5 22.5t-22.5 52.5t22.5 51.5t52.5 21.5t51.5 -21.5t21.5 -51.5t-21.5 -52.5t-51.5 -22.5zM860 92q256 0 440.5 183.5t184.5 442.5t-182.5 441t-442.5 182t-443.5 -182t-183.5 -442t185.5 -442.5t441.5 -182.5zM859 0q-294 0 -505 211t-211 507
t210 506t507 210t506 -210t209 -507t-211 -507t-505 -210zM639 1536l197 317h47l198 -315l-47 -31l-174 277l-176 -277z" />
    <glyph glyph-name="uni1ED9" unicode="&#x1ed9;" horiz-adv-x="1267" 
d="M638 -287q-30 0 -52.5 22.5t-22.5 52.5t22.5 51.5t52.5 21.5t51.5 -21.5t21.5 -51.5t-21.5 -52.5t-51.5 -22.5zM634 82q177 0 304 126t127 304q2 178 -125 305t-305 127t-305 -128t-127 -305t127 -303t304 -126zM634 -10q-216 0 -368.5 152.5t-152.5 368.5t152.5 369.5
t368.5 153.5t368.5 -153.5t153.5 -368.5t-152.5 -368.5t-369.5 -153.5zM410 1137l196 317h47l199 -315l-47 -31l-174 276l-176 -276z" />
    <glyph glyph-name="uni1EDA" unicode="&#x1eda;" horiz-adv-x="1691" 
d="M860 92q256 0 440.5 183.5t184.5 442.5t-182.5 441t-442.5 182t-443.5 -182t-183.5 -442t185.5 -442.5t441.5 -182.5zM1575 717q0 -297 -211 -507t-505 -210t-505 211t-211 507t210 506t507 210q174 0 324.5 -78t249.5 -211q35 -4 62.5 22.5t8 73.5t8 72.5t55.5 24.5
t48 -21q63 -63 -29 -156q-53 -57 -129 -53q117 -178 117 -391zM1020 1890l-141 -329l-48 16l117 340z" />
    <glyph glyph-name="uni1EDB" unicode="&#x1edb;" horiz-adv-x="1259" 
d="M635 944q-178 0 -305 -128t-127 -305t127 -303t304 -126t304 126t127 304q2 178 -125 305t-305 127zM634 -10q-216 0 -368.5 152.5t-152.5 368.5t152.5 369.5t367.5 153.5q131 0 244.5 -61.5t185.5 -165.5q51 -23 94 20q25 23 5.5 70t8 72.5t55.5 24.5t48 -21
q63 -63 -29 -156q-66 -70 -158 -49q68 -119 68 -256q2 -215 -151.5 -368.5t-369.5 -153.5zM786 1501l-141 -330l-47 17l117 340z" />
    <glyph glyph-name="uni1EDC" unicode="&#x1edc;" horiz-adv-x="1691" 
d="M860 92q256 0 440.5 183.5t184.5 442.5t-182.5 441t-442.5 182t-443.5 -182t-183.5 -442t185.5 -442.5t441.5 -182.5zM1575 717q0 -297 -211 -507t-505 -210t-505 211t-211 507t210 506t507 210q174 0 324.5 -78t249.5 -211q35 -4 62.5 22.5t8 73.5t8 72.5t55.5 24.5
t48 -21q63 -63 -29 -156q-53 -57 -129 -53q117 -178 117 -391zM881 1581l-47 -16l-142 329l72 27z" />
    <glyph glyph-name="uni1EDD" unicode="&#x1edd;" horiz-adv-x="1259" 
d="M635 944q-178 0 -305 -128t-127 -305t127 -303t304 -126t304 126t127 304q2 178 -125 305t-305 127zM634 -10q-216 0 -368.5 152.5t-152.5 368.5t152.5 369.5t367.5 153.5q131 0 244.5 -61.5t185.5 -165.5q51 -23 94 20q25 23 5.5 70t8 72.5t55.5 24.5t48 -21
q63 -63 -29 -156q-66 -70 -158 -49q68 -119 68 -256q2 -215 -151.5 -368.5t-369.5 -153.5zM647 1192l-47 -16l-141 329l71 27z" />
    <glyph glyph-name="uni1EDE" unicode="&#x1ede;" horiz-adv-x="1691" 
d="M860 92q256 0 440.5 183.5t184.5 442.5t-182.5 441t-442.5 182t-443.5 -182t-183.5 -442t185.5 -442.5t441.5 -182.5zM1575 717q0 -297 -211 -507t-505 -210t-505 211t-211 507t210 506t507 210q174 0 324.5 -78t249.5 -211q35 -4 62.5 22.5t8 73.5t8 72.5t55.5 24.5
t48 -21q63 -63 -29 -156q-53 -57 -129 -53q117 -178 117 -391zM885 1749q-33 61 -121 68v59q115 10 178 -98q35 -72 5.5 -140.5t-118.5 -119.5l-30 55q133 80 86 176z" />
    <glyph glyph-name="uni1EDF" unicode="&#x1edf;" horiz-adv-x="1259" 
d="M635 944q-178 0 -305 -128t-127 -305t127 -303t304 -126t304 126t127 304q2 178 -125 305t-305 127zM634 -10q-216 0 -368.5 152.5t-152.5 368.5t152.5 369.5t367.5 153.5q131 0 244.5 -61.5t185.5 -165.5q51 -23 94 20q25 23 5.5 70t8 72.5t55.5 24.5t48 -21
q63 -63 -29 -156q-66 -70 -158 -49q68 -119 68 -256q2 -215 -151.5 -368.5t-369.5 -153.5zM651 1360q-33 61 -121 67v60q115 10 179 -98q35 -72 5 -140.5t-118 -120.5l-31 56q133 80 86 176z" />
    <glyph glyph-name="uni1EE0" unicode="&#x1ee0;" horiz-adv-x="1691" 
d="M860 92q256 0 440.5 183.5t184.5 442.5t-182.5 441t-442.5 182t-443.5 -182t-183.5 -442t185.5 -442.5t441.5 -182.5zM1575 717q0 -297 -211 -507t-505 -210t-505 211t-211 507t210 506t507 210q174 0 324.5 -78t249.5 -211q35 -4 62.5 22.5t8 73.5t8 72.5t55.5 24.5
t48 -21q63 -63 -29 -156q-53 -57 -129 -53q117 -178 117 -391zM739 1683q-68 0 -129 -94l-55 33q74 125 180 127q53 2 140.5 -55.5t136.5 -55.5t102 76l55 -35q-68 -106 -155 -106q-57 -2 -144.5 54t-130.5 56z" />
    <glyph glyph-name="uni1EE1" unicode="&#x1ee1;" horiz-adv-x="1259" 
d="M635 944q-178 0 -305 -128t-127 -305t127 -303t304 -126t304 126t127 304q2 178 -125 305t-305 127zM634 -10q-216 0 -368.5 152.5t-152.5 368.5t152.5 369.5t367.5 153.5q131 0 244.5 -61.5t185.5 -165.5q51 -23 94 20q25 23 5.5 70t8 72.5t55.5 24.5t48 -21
q63 -63 -29 -156q-66 -70 -158 -49q68 -119 68 -256q2 -215 -151.5 -368.5t-369.5 -153.5zM506 1294q-68 0 -129 -94l-55 33q74 125 180 127q53 2 140 -55.5t136 -55.5t103 76l55 -35q-68 -106 -156 -106q-57 -2 -144 54t-130 56z" />
    <glyph glyph-name="uni1EE2" unicode="&#x1ee2;" horiz-adv-x="1691" 
d="M861 -139q30 0 51.5 -21.5t21.5 -51.5t-21.5 -52.5t-51.5 -22.5t-52.5 22.5t-22.5 52.5t22.5 51.5t52.5 21.5zM860 92q256 0 440.5 183.5t184.5 442.5t-182.5 441t-442.5 182t-443.5 -182t-183.5 -442t185.5 -442.5t441.5 -182.5zM1575 717q0 -297 -211 -507t-505 -210
t-505 211t-211 507t210 506t507 210q174 0 324.5 -78t249.5 -211q35 -4 62.5 22.5t8 73.5t8 72.5t55.5 24.5t48 -21q63 -63 -29 -156q-53 -57 -129 -53q117 -178 117 -391z" />
    <glyph glyph-name="uni1EE3" unicode="&#x1ee3;" horiz-adv-x="1259" 
d="M638 -139q30 0 51.5 -21.5t21.5 -51.5t-21.5 -52.5t-51.5 -22.5t-52.5 22.5t-22.5 52.5t22.5 51.5t52.5 21.5zM635 944q-178 0 -305 -128t-127 -305t127 -303t304 -126t304 126t127 304q2 178 -125 305t-305 127zM634 -10q-216 0 -368.5 152.5t-152.5 368.5t152.5 369.5
t367.5 153.5q131 0 244.5 -61.5t185.5 -165.5q51 -23 94 20q25 23 5.5 70t8 72.5t55.5 24.5t48 -21q63 -63 -29 -156q-66 -70 -158 -49q68 -119 68 -256q2 -215 -151.5 -368.5t-369.5 -153.5z" />
    <glyph glyph-name="uni1EE4" unicode="&#x1ee4;" 
d="M728 -287q-30 0 -52.5 22.5t-22.5 52.5t22.5 51.5t52.5 21.5t51.5 -21.5t21.5 -51.5t-21.5 -52.5t-51.5 -22.5zM721 0q-223 0 -380 157.5t-157 381.5v895h90v-895q0 -188 131.5 -317.5t316.5 -129.5t315 130t130 317v895h90v-895q0 -225 -156.5 -382t-379.5 -157z" />
    <glyph glyph-name="uni1EE5" unicode="&#x1ee5;" horiz-adv-x="1128" 
d="M564 -139q30 0 51.5 -21.5t21.5 -51.5t-21.5 -52.5t-51.5 -22.5t-52.5 22.5t-22.5 52.5t22.5 51.5t52.5 21.5zM864 1024h90v-1024h-90v215q-53 -102 -135 -164.5t-178 -62.5q-182 0 -293 111.5t-111 291.5v633h91v-633q0 -127 92 -220t220 -93t221 110.5t93 243.5v592z
" />
    <glyph glyph-name="uni1EE6" unicode="&#x1ee6;" 
d="M721 0q-223 0 -380 157.5t-157 381.5v895h90v-895q0 -188 131.5 -317.5t316.5 -129.5t315 130t130 317v895h90v-895q0 -225 -156.5 -382t-379.5 -157zM811 1763q35 -72 5 -140.5t-118 -119.5l-30 56q133 80 86 176q-33 61 -121 67v60q115 10 178 -99z" />
    <glyph glyph-name="uni1EE7" unicode="&#x1ee7;" horiz-adv-x="1128" 
d="M864 1024h90v-1024h-90v215q-53 -102 -135 -164.5t-178 -62.5q-182 0 -293 111.5t-111 291.5v633h91v-633q0 -127 92 -220t220 -93t221 110.5t93 243.5v592zM580 1350q-33 61 -121 67v60q115 10 178 -99q35 -72 5 -140.5t-118 -119.5l-30 56q133 80 86 176z" />
    <glyph glyph-name="uni1EE8" unicode="&#x1ee8;" 
d="M1257 539q0 -225 -156.5 -382t-379.5 -157t-380 157.5t-157 381.5v895h90v-895q0 -188 131.5 -317.5t316.5 -129.5t315 130t130 317v895h90v-84q61 -37 111 12q25 23 5.5 70t15.5 79q20 18 48 17t48 -21q63 -63 -25 -153t-203 -37v-778zM870 1890l-141 -329l-47 16
l117 340z" />
    <glyph glyph-name="uni1EE9" unicode="&#x1ee9;" horiz-adv-x="1175" 
d="M954 0h-90v215q-53 -102 -135 -164.5t-178 -62.5q-182 0 -293 111.5t-111 291.5v633h91v-633q0 -127 92 -220t220 -93t221 110.5t93 243.5v592h90v-70q66 -47 119 7q25 25 5.5 71.5t15.5 77.5q20 18 48 17t48 -21q63 -63 -28 -154.5t-208 -31.5v-920zM717 1491l-142 -330
l-47 17l117 340z" />
    <glyph glyph-name="uni1EEA" unicode="&#x1eea;" 
d="M1257 539q0 -225 -156.5 -382t-379.5 -157t-380 157.5t-157 381.5v895h90v-895q0 -188 131.5 -317.5t316.5 -129.5t315 130t130 317v895h90v-84q61 -37 111 12q25 23 5.5 70t15.5 79q20 18 48 17t48 -21q63 -63 -25 -153t-203 -37v-778zM731 1581l-47 -16l-141 329l71 27
z" />
    <glyph glyph-name="uni1EEB" unicode="&#x1eeb;" horiz-adv-x="1175" 
d="M954 0h-90v215q-53 -102 -135 -164.5t-178 -62.5q-182 0 -293 111.5t-111 291.5v633h91v-633q0 -127 92 -220t220 -93t221 110.5t93 243.5v592h90v-70q66 -47 119 7q25 25 5.5 71.5t15.5 77.5q20 18 48 17t48 -21q63 -63 -28 -154.5t-208 -31.5v-920zM584 1182l-47 -17
l-142 330l72 27z" />
    <glyph glyph-name="uni1EEC" unicode="&#x1eec;" 
d="M1257 539q0 -225 -156.5 -382t-379.5 -157t-380 157.5t-157 381.5v895h90v-895q0 -188 131.5 -317.5t316.5 -129.5t315 130t130 317v895h90v-84q61 -37 111 12q25 23 5.5 70t15.5 79q20 18 48 17t48 -21q63 -63 -25 -153t-203 -37v-778zM735 1749q-33 61 -121 68v59
q115 10 179 -98q35 -72 5 -140.5t-118 -119.5l-31 55q133 80 86 176z" />
    <glyph glyph-name="uni1EED" unicode="&#x1eed;" horiz-adv-x="1175" 
d="M954 0h-90v215q-53 -102 -135 -164.5t-178 -62.5q-182 0 -293 111.5t-111 291.5v633h91v-633q0 -127 92 -220t220 -93t221 110.5t93 243.5v592h90v-70q66 -47 119 7q25 23 5.5 69.5t8 72t55.5 24.5t48 -21q63 -63 -27 -154.5t-209 -31.5v-920zM582 1305q-37 63 -123 69
v58q53 6 101 -20t77 -77q35 -74 5 -142.5t-118 -117.5l-32 55q137 79 90 175z" />
    <glyph glyph-name="uni1EEE" unicode="&#x1eee;" 
d="M1257 539q0 -225 -156.5 -382t-379.5 -157t-380 157.5t-157 381.5v895h90v-895q0 -188 131.5 -317.5t316.5 -129.5t315 130t130 317v895h90v-84q61 -37 111 12q25 23 5.5 70t15.5 79q20 18 48 17t48 -21q63 -63 -25 -153t-203 -37v-778zM590 1683q-68 0 -129 -94l-55 33
q74 125 180 127q53 2 140 -55.5t136 -55.5t103 76l55 -35q-68 -106 -156 -106q-57 -2 -144 54t-130 56z" />
    <glyph glyph-name="uni1EEF" unicode="&#x1eef;" horiz-adv-x="1175" 
d="M954 0h-90v215q-53 -102 -135 -164.5t-178 -62.5q-182 0 -293 111.5t-111 291.5v633h91v-633q0 -127 92 -220t220 -93t221 110.5t93 243.5v592h90v-70q66 -47 119 7q25 23 5.5 69.5t8 72t55.5 24.5t48 -21q63 -63 -27 -154.5t-209 -31.5v-920zM434 1284q-70 0 -129 -92
l-55 31q74 125 180 127q53 2 140 -55.5t134 -55.5t105 74l55 -31q-68 -109 -155 -108q-57 -2 -144.5 54t-130.5 56z" />
    <glyph glyph-name="uni1EF0" unicode="&#x1ef0;" 
d="M714 -156q30 0 51 -21.5t21 -51t-21.5 -52t-51 -22.5t-52 22.5t-22.5 52.5t22.5 51t52.5 21zM1257 539q0 -225 -156.5 -382t-379.5 -157t-380 157.5t-157 381.5v895h90v-895q0 -188 131.5 -317.5t316.5 -129.5t315 130t130 317v895h90v-84q61 -37 111 12q25 23 5.5 70
t15.5 79q20 18 48 17t48 -21q63 -63 -25 -153t-203 -37v-778z" />
    <glyph glyph-name="uni1EF1" unicode="&#x1ef1;" horiz-adv-x="1175" 
d="M555 -139q31 0 52.5 -21.5t21.5 -51.5t-21.5 -51.5t-52.5 -21.5t-52.5 21.5t-21.5 51.5t21.5 51.5t52.5 21.5zM954 0h-90v215q-53 -102 -135 -164.5t-178 -62.5q-182 0 -293 111.5t-111 291.5v633h91v-633q0 -127 92 -220t220 -93t221 110.5t93 243.5v592h90v-70
q66 -47 119 7q25 25 5.5 71.5t15.5 77.5q20 18 48 17t48 -21q63 -63 -28 -154.5t-208 -31.5v-920z" />
    <glyph glyph-name="Ygrave" unicode="&#x1ef2;" horiz-adv-x="1363" 
d="M727 0h-90v692l-594 742h119l520 -652l518 652h119l-592 -740v-694zM711 1540l-47 -16l-142 329l72 27z" />
    <glyph glyph-name="ygrave" unicode="&#x1ef3;" horiz-adv-x="1159" 
d="M332 -461q-82 0 -150.5 37t-101.5 98l72 47q82 -102 200.5 -86.5t161.5 127.5l96 256l-522 1006h98l465 -895l336 895h96l-485 -1292q-33 -88 -108.5 -140.5t-157.5 -52.5zM635 1182l-47 -17l-142 330l72 27z" />
    <glyph glyph-name="uni1EF4" unicode="&#x1ef4;" horiz-adv-x="1363" 
d="M683 -139q30 0 51.5 -21.5t21.5 -51.5t-21.5 -52.5t-51.5 -22.5t-52.5 22.5t-22.5 52.5t22.5 51.5t52.5 21.5zM637 0v692l-594 742h119l520 -652l518 652h119l-592 -740v-694h-90z" />
    <glyph glyph-name="uni1EF5" unicode="&#x1ef5;" horiz-adv-x="1159" 
d="M603 -483q30 0 51.5 -21.5t21.5 -51.5t-21.5 -52.5t-51.5 -22.5t-52.5 22.5t-22.5 52.5t22.5 51.5t52.5 21.5zM332 -461q-82 0 -150.5 37t-101.5 98l72 47q82 -102 200.5 -86.5t161.5 127.5l96 256l-522 1006h98l465 -895l336 895h96l-485 -1292q-33 -88 -108.5 -140.5
t-157.5 -52.5z" />
    <glyph glyph-name="uni1EF6" unicode="&#x1ef6;" horiz-adv-x="1363" 
d="M727 0h-90v692l-594 742h119l520 -652l518 652h119l-592 -740v-694zM715 1708q-33 61 -121 68v59q115 10 178 -98q35 -72 5.5 -140.5t-118.5 -119.5l-30 55q133 80 86 176z" />
    <glyph glyph-name="uni1EF7" unicode="&#x1ef7;" horiz-adv-x="1159" 
d="M332 -461q-82 0 -150.5 37t-101.5 98l72 47q82 -102 200.5 -86.5t161.5 127.5l96 256l-522 1006h98l465 -895l336 895h96l-485 -1292q-33 -88 -108.5 -140.5t-157.5 -52.5zM639 1350q-33 61 -121 67v60q115 10 178 -99q35 -72 5.5 -140.5t-117.5 -119.5l-31 56
q133 80 86 176z" />
    <glyph glyph-name="uni1EF8" unicode="&#x1ef8;" horiz-adv-x="1363" 
d="M727 0h-90v692l-594 742h119l520 -652l518 652h119l-592 -740v-694zM569 1642q-68 0 -129 -94l-55 33q74 125 180 127q53 2 140.5 -55.5t136.5 -55.5t102 76l55 -35q-68 -106 -155 -106q-57 -2 -144.5 54t-130.5 56z" />
    <glyph glyph-name="uni1EF9" unicode="&#x1ef9;" horiz-adv-x="1159" 
d="M332 -461q-82 0 -150.5 37t-101.5 98l72 47q82 -102 200.5 -86.5t161.5 127.5l96 256l-522 1006h98l465 -895l336 895h96l-485 -1292q-33 -88 -108.5 -140.5t-157.5 -52.5zM494 1284q-68 0 -129 -94l-56 33q74 125 180 127q53 2 140.5 -55.5t136.5 -55.5t102 76l56 -35
q-68 -106 -156 -106q-57 -2 -144 54t-130 56z" />
    <glyph glyph-name="endash" unicode="&#x2013;" horiz-adv-x="1206" 
d="M137 598v59h932v-59h-932z" />
    <glyph glyph-name="emdash" unicode="&#x2014;" horiz-adv-x="1667" 
d="M137 530v60h1393v-60h-1393z" />
    <glyph glyph-name="quoteleft" unicode="&#x2018;" horiz-adv-x="403" 
d="M207 1184q-37 0 -60 36t-22 93q-1 141 149 176v-33q-80 -10 -79 -88q0 -25 14 -38q15 -13 31 -16q16 -4 30 -20t14 -45t-20 -47t-57 -18z" />
    <glyph glyph-name="quoteright" unicode="&#x2019;" horiz-adv-x="403" 
d="M199 1298q0 42 -45 56q-16 4 -31 20q-14 16 -14 44t20 47t57 19t60 -36q23 -37 22 -94q1 -141 -149 -174v30q80 14 80 88z" />
    <glyph glyph-name="quotesinglbase" unicode="&#x201a;" horiz-adv-x="409" 
 />
    <glyph glyph-name="quotedblleft" unicode="&#x201c;" horiz-adv-x="645" 
d="M444 1368q0 -31 23 -42q23 -12 47 -26t23 -47q0 -33 -22 -52q-21 -19 -57 -19t-60 37t-23 94q-1 141 149 174v-31q-80 -14 -80 -88zM203 1368q0 -46 45 -54q16 -4 30 -20t15 -45q-1 -29 -21 -48t-56 -19t-60 37t-23 94q0 141 150 174v-31q-80 -14 -80 -88z" />
    <glyph glyph-name="quotedblright" unicode="&#x201d;" horiz-adv-x="645" 
d="M442 1298q0 43 -45 56q-16 4 -30 20q-15 16 -15 44t20 47t58 19t60 -36q22 -37 22 -94q0 -141 -150 -174v30q80 14 80 88zM201 1298q0 42 -46 56q-46 11 -46 65q0 27 21 46q22 19 58 19t59 -36q24 -37 23 -94q1 -141 -149 -174v30q80 14 80 88z" />
    <glyph glyph-name="quotedblbase" unicode="&#x201e;" horiz-adv-x="645" 
d="M440 -55q0 43 -46 53q-46 11 -46 68q0 27 20 45t58 18t60 -36t22 -93q0 -141 -150 -176v31q82 14 82 90zM197 -55q0 42 -45 53t-46 68q0 27 20 45t58 18q37 0 60 -36t22 -93q1 -141 -149 -176v31q80 14 80 90z" />
    <glyph glyph-name="dagger" unicode="&#x2020;" horiz-adv-x="1372" 
d="M1243 983v-63h-524v-1215h-64l-2 1215h-524v63h524v485h66v-485h524z" />
    <glyph glyph-name="daggerdbl" unicode="&#x2021;" horiz-adv-x="1372" 
d="M1243 920h-524v-676h524v-64h-524v-475h-64v475h-526v64h526l-2 676h-524v63h524v485h66v-485h524v-63z" />
    <glyph glyph-name="bullet" unicode="&#x2022;" horiz-adv-x="964" 
d="M481 287q-109 0 -185 78q-76 79 -77 187q0 108 77 184q78 76 186 77q108 0 186 -77q78 -78 78 -186t-78 -186t-187 -77z" />
    <glyph glyph-name="ellipsis" unicode="&#x2026;" horiz-adv-x="1312" 
d="M1102 -6q-30 0 -52 22t-22 52t22 52t52 22t52 -22t22 -52t-22 -52t-52 -22zM654 -6q-30 0 -52 22t-20 52q0 30 22 52t50 22q30 0 53 -22t23 -52t-23 -53q-23 -21 -53 -21zM137 68q0 30 22 52q21 22 51 22t52 -22t23 -52q-1 -30 -23 -52t-52 -22t-52 22t-21 52z" />
    <glyph glyph-name="perthousand" unicode="&#x2030;" horiz-adv-x="2482" 
d="M2079 47q88 0 150 78q63 77 63 187t-62 188t-152 78t-152 -77t-62 -187t64 -188t151 -79zM1391 47q88 0 150 78q63 77 63 187t-62 188t-152 78t-152 -77t-62 -187t64 -188t151 -79zM1802 312q0 134 81 230t195 97q114 0 194 -96q80 -97 81 -231q-1 -134 -81 -230
t-194 -96t-195 96t-81 230zM1114 312q0 134 81 230t195 97q114 0 194 -96q80 -97 81 -231q-1 -134 -81 -230t-194 -96t-195 96t-81 230zM406 915q88 0 150 79t62 188q0 110 -62 188t-151 78t-151 -78t-64 -188q0 -110 64 -188q64 -79 152 -79zM405 1509q115 0 195 -97
t80 -231q0 -135 -80 -231t-195 -96q-114 0 -195 96t-81 232t81 231q81 96 195 96zM387 -92l-57 43l1022 1595l61 -35z" />
    <glyph glyph-name="guilsinglleft" unicode="&#x2039;" horiz-adv-x="593" 
d="M434 258l-342 252v39l346 254l33 -53l-297 -222l299 -221z" />
    <glyph glyph-name="guilsinglright" unicode="&#x203a;" horiz-adv-x="593" 
d="M158 258l-39 49l299 221l-295 222l33 53l346 -254v-39z" />
    <glyph glyph-name="fraction" unicode="&#x2044;" horiz-adv-x="1044" 
d="M133 -23l721 1321h57l-721 -1321h-57z" />
    <glyph glyph-name="Euro" unicode="&#x20ac;" horiz-adv-x="1310" 
d="M911 90q125 0 238 74l43 -80q-129 -84 -281 -84q-209 0 -367 150t-208 374h-230v66h218q-19 132 0 252h-218v65l228 -2q53 227 212 377t365 150q152 0 281 -84l-47 -78q-111 72 -234 71q-172 -1 -302 -123t-179 -313l545 -2v-61h-559q-10 -68 -10 -125t10 -129l559 -2
v-62h-545q49 -190 179 -312t302 -122z" />
    <glyph glyph-name="trademark" unicode="&#x2122;" horiz-adv-x="1034" 
d="M969 1536v-479h-37v393l-187 -328h-24l-186 326v-391h-39v479h32l205 -358l205 358h31zM18 1499v39h396v-39h-178v-442h-39v442h-179z" />
    <glyph glyph-name="oneeighth" unicode="&#x215b;" horiz-adv-x="1048" 
d="M864 96q57 0 98 36q40 36 39 85q0 49 -39 84q-40 35 -98 35t-97 -35q-40 -35 -40 -84t40 -85t97 -36zM754 481q0 -41 32 -69t77 -27q46 0 79 29q33 30 33 68t-33 67t-78 29q-46 0 -78 -28t-32 -69zM863 51q-77 0 -130 48t-53 118q0 98 92 145q-66 46 -66 112t47 108
q45 42 111 43q66 0 112 -42t46 -109t-66 -112q92 -47 93 -145q-1 -70 -55 -118t-131 -48zM145 666h-45v514l-84 -35l-16 47l115 47h30v-573zM823 1298h60l-721 -1321h-60z" />
    <glyph glyph-name="threeeighths" unicode="&#x215c;" horiz-adv-x="1359" 
d="M948 96q57 0 98 36q40 36 39 85q0 49 -39 84q-40 35 -98 35t-97 -35q-40 -35 -40 -84t40 -85t97 -36zM949 578q-46 0 -78 -28q-31 -28 -31 -69t32 -69t77 -27q46 0 78 29q32 30 32 68t-32 67t-78 29zM949 51q-77 0 -131 48t-54 118q0 98 94 145q-68 42 -68 110t48 110
q47 42 111 43q63 0 111 -42t48 -110t-68 -111q94 -49 95 -145q-1 -70 -55 -118t-131 -48zM381 844q0 -70 -54 -119t-133 -49t-133 52q-53 52 -51 128h49q-2 -57 37 -95q40 -38 98 -38t98 36t40 84t-38 83t-93 37h-13v47h9q47 2 77 30t31 67q0 40 -33 68q-32 27 -78 27
t-78 -31t-30 -73h-49q-2 63 44 107t113 44q68 0 114 -41q46 -40 46 -108t-69 -113q96 -45 96 -143zM922 1298h59l-721 -1321h-59z" />
    <glyph glyph-name="fiveeighths" unicode="&#x215d;" horiz-adv-x="1325" 
d="M956 96q57 0 98 36q40 36 40 85t-40 84t-98 35t-97 -35q-40 -35 -40 -84t40 -85t97 -36zM846 481q0 -41 32 -69t78 -27q46 0 78 29q33 30 33 68t-33 67t-78 29q-46 0 -78 -28t-32 -69zM1141 217q-1 -70 -55 -118t-130 -48t-130 48t-54 118q0 98 92 145q-66 46 -66 112
t47 108q45 42 111 43q66 0 112 -42t46 -109t-65 -112q92 -47 92 -145zM387 860q0 -78 -55 -133t-134 -55t-136 56q-56 56 -54 138h51q-2 -61 39 -104q42 -43 100 -43t99 41t41 99t-40 99t-106 41t-112 -63l-25 2h-22v2h-2q0 2 2 6l35 297h290v-49h-249l-21 -184
q51 39 120 39q69 1 124 -55t55 -134zM928 1298h59l-721 -1321h-57z" />
    <glyph glyph-name="seveneighths" unicode="&#x215e;" horiz-adv-x="1114" 
d="M928 96q57 0 97 36t40 85t-40 84t-97 35q-58 0 -98 -35t-40 -84t41 -85q40 -36 97 -36zM929 578q-46 0 -78 -28t-32 -69t32 -69t78 -27q46 0 78 29q31 30 31 68t-31 67q-32 29 -78 29zM1114 217q0 -70 -54 -118t-131 -48t-131 48t-55 118q0 98 95 145q-68 42 -68 110
t47 110t111 43q64 0 112 -42t48 -110t-68 -111q94 -49 94 -145zM393 1241v-33l-282 -540h-54l275 526h-332v47h393zM887 1298h59l-721 -1321h-57z" />
    <glyph glyph-name="partialdiff" unicode="&#x2202;" horiz-adv-x="1196" 
d="M596 55q152 0 260 109t109 260q0 80 -31 147l-25 45q-49 82 -132 129t-181 48q-154 0 -262 -109q-108 -108 -107 -260t109 -260t260 -109zM596 -35q-190 0 -325 135q-134 136 -134 324t133 324t326 135q104 0 199 -45l-142 272l-305 -170l-29 66l302 168l-127 241l77 39
l125 -237l297 165l37 -61l-299 -168l268 -508q55 -104 56 -221q0 -188 -135 -324q-134 -136 -324 -135z" />
    <glyph glyph-name="emptyset" unicode="&#x2205;" horiz-adv-x="1267" 
d="M1065 514q0 170 -104 291l-611 -608q123 -107 292 -107t296 127t127 297zM203 529q0 -169 106 -291l609 608q-123 106 -292 106t-296 -127t-127 -296zM642 0q-210 0 -355 133l-125 -125l-41 41l125 125q-133 145 -133 354t152 362q153 152 361 152t357 -133l125 125
l41 -41l-125 -125q131 -147 132 -355q0 -209 -152 -361t-362 -152z" />
    <glyph glyph-name="product" unicode="&#x220f;" horiz-adv-x="1472" 
d="M1288 1606v-2036h-65v1970h-973v-1970h-66v2036h1104z" />
    <glyph glyph-name="summation" unicode="&#x2211;" horiz-adv-x="1300" 
d="M1143 1667v-90h-826l564 -920l-611 -974h867v-91h-979v91l606 974l-567 920v90h946z" />
    <glyph glyph-name="minus" unicode="&#x2212;" horiz-adv-x="1318" 
d="M190 489v70h938v-70h-938z" />
    <glyph glyph-name="radical" unicode="&#x221a;" horiz-adv-x="1306" 
d="M227 229l11 2l12 -28h-4zM1307 1638l-580 -2087h-68l-411 705l57 37l379 -651l551 1996h72z" />
    <glyph glyph-name="infinity" unicode="&#x221e;" horiz-adv-x="1523" 
d="M1060 338q110 0 188 63t79 153q0 90 -78 152q-77 62 -187 62t-189 -63t-79 -151t78 -153q78 -63 188 -63zM464 338q110 0 188 63t77 153q0 90 -77 152q-76 62 -186 62t-188 -63t-79 -151q0 -88 77 -153q78 -63 188 -63zM1080 827q116 1 212 -79t96 -194t-96 -195
q-98 -81 -214 -81t-196 46q-81 45 -120 116q-39 -72 -120 -116q-80 -44 -196 -45q-116 0 -213 80q-96 81 -96 194t96 193t213 81q117 0 197 -44t119 -117q39 74 120 118q82 44 198 43z" />
    <glyph glyph-name="integral" unicode="&#x222b;" horiz-adv-x="1064" 
d="M-27 -258l47 72q63 -59 157 -33q93 27 114 119l311 1443q20 91 92 147t161 54t157 -61l-54 -70q-63 59 -155 33t-113 -119l-311 -1444q-29 -139 -165 -185t-241 44z" />
    <glyph glyph-name="approxequal" unicode="&#x2248;" horiz-adv-x="993" 
d="M376 567q11 0 21 -3q11 -3 19 -5q26 -6 102 -66t124 -59t107 70q14 17 29 41l58 -39q-23 -40 -76 -90q-54 -50 -118 -52t-146 61t-122 73t-86 -29t-63 -72l-8 -10l-59 35q86 138 196 145h22zM642 641q-64 1 -148 63t-124 71t-81 -27t-64 -72l-8 -10l-59 32q34 55 84 99
t112 49h22q11 0 21 -3q11 -3 19 -5t19 -8t17 -10q22 -12 48 -34q92 -77 141 -74q67 5 137 111l58 -39q-23 -41 -76 -92q-54 -51 -118 -51z" />
    <glyph glyph-name="notequal" unicode="&#x2260;" horiz-adv-x="1251" 
d="M1059 664h-316l-192 -271h508v-65h-553l-131 -185l-45 35l106 150h-246v65h291l193 271h-484v65h531l141 201l47 -31l-121 -170h271v-65z" />
    <glyph glyph-name="lessequal" unicode="&#x2264;" horiz-adv-x="1021" 
d="M838 90h-705v70h705v-70zM778 242l-631 458v43l637 459l37 -59l-590 -422l592 -422z" />
    <glyph glyph-name="greaterequal" unicode="&#x2265;" horiz-adv-x="1011" 
d="M178 90v66h705v-66h-705zM236 246l-39 53l589 422l-589 424l34 53l633 -457v-41z" />
    <glyph glyph-name="lozenge" unicode="&#x25ca;" horiz-adv-x="1255" 
d="M627 49l395 549l-395 549l-396 -549zM647 1231l457 -633l-457 -633h-41l-456 629v10l456 627h41z" />
    <glyph glyph-name="uni2C64" unicode="&#x2c64;" horiz-adv-x="1341" 
d="M1053 1049q0 121 -86 207t-207 85h-465v-583h465q121 0 207 85t86 206zM295 -176q0 -106 97 -148t175 31l62 -65q-59 -54 -135 -66q-154 -23 -245 106q-44 62 -44 142v1610h555q158 0 272 -114t113 -263q0 -149 -93 -257t-231 -130l385 -670h-106l-383 666h-422v-842z
" />
    <glyph glyph-name="uni2C72" unicode="&#x2c72;" horiz-adv-x="2035" 
d="M496 0l-414 1434h94l361 -1246l389 1082h63l389 -1084l310 1069q29 102 116 152q88 49 188 25t154 -117l-78 -47q-53 90 -156 79t-136 -108l-357 -1239h-73l-390 1079l-387 -1079h-73z" />
    <glyph glyph-name="uni2C73" unicode="&#x2c73;" horiz-adv-x="1454" 
d="M385 0l-297 1024h90l250 -860l264 745h64l264 -745l215 737q27 92 102 141q76 49 164 40t152 -74l-70 -58q-61 58 -149 36t-115 -112l-254 -874h-70l-272 741l-270 -741h-68z" />
    <glyph glyph-name="uniA78D" unicode="&#xa78d;" horiz-adv-x="1431" 
d="M1137 1434h90v-1434h-90v672h-932v762h92v-672h840v672z" />
    <glyph glyph-name="uniA7AA" unicode="&#xa7aa;" horiz-adv-x="1449" 
d="M1155 1434h90v-1434h-90v672h-840v-672h-92v1343h-157q-106 0 -148 -97t33 -175l-68 -63q-55 59 -66 136q-22 152 108 246q62 44 141 44h249v-672h840v672z" />
    <glyph glyph-name="uniAB53" unicode="&#xab53;" horiz-adv-x="1228" 
 />
    <glyph glyph-name="i.loclTRK" horiz-adv-x="438" 
d="M264 1024v-1024h-90v1024h90zM219 1184q-31 0 -53 22t-21.5 52t22 51.5t52.5 21.5t52.5 -21.5t21.5 -51.5t-21.5 -52t-52.5 -22z" />
    <glyph glyph-name="uni0268.001" horiz-adv-x="499" 
d="M524 520v-57h-239v-463h-82v463h-228v57h228v570h82v-570h239zM245.5 1360q-28.5 0 -51 22.5t-22.5 51t22.5 51t51 22.5t51 -22.5t22.5 -51t-22.5 -51t-51 -22.5z" />
    <glyph glyph-name="zero.tosf" horiz-adv-x="600" 
d="M301 49q80 0 135 70t56 168q0 98 -56 168q-56 69 -136 69q-79 0 -135 -70t-56 -168q0 -99 56 -168t136 -69zM300 0q-99 0 -169 84t-70 203t70 203t169 83q99 0 169 -85q70 -84 70 -202t-70 -202t-169 -84z" />
    <glyph glyph-name="one.tosf" horiz-adv-x="268" 
d="M162 0v514l-84 -35l-17 47l115 47h31v-573h-45z" />
    <glyph glyph-name="two.tosf" horiz-adv-x="514" 
d="M272 575q78 0 127 -43q49 -44 49 -112t-46 -118q-48 -50 -118 -96t-93 -63q-25 -16 -47 -43t-25 -53h334v-47h-392q-2 68 33 114t129 109t135 105t42 91q1 50 -33 80q-35 30 -95 29q-125 0 -155 -106l-45 18q43 135 200 135z" />
    <glyph glyph-name="three.tosf" horiz-adv-x="493" 
d="M432 168q0 -70 -54 -119t-133 -49t-132 52t-52 128h50q-1 -57 37 -95t96 -38t99 36q40 36 40 84t-38 83t-93 37h-12v47h8q47 2 78 30q30 28 30 68t-32 67q-33 27 -79 27t-78 -30t-30 -74h-49q-2 63 44 107t113 44t113 -41q46 -40 48 -108q0 -68 -70 -113q96 -45 96 -143z
" />
    <glyph glyph-name="four.tosf" horiz-adv-x="534" 
d="M346 223v262l-221 -262h221zM393 223h80v-47h-80v-176h-47v176h-285v43l295 354h37v-350z" />
    <glyph glyph-name="five.tosf" horiz-adv-x="501" 
d="M260 375q70 1 125 -55t55 -134t-56 -133t-134 -55t-134 57t-55 138h50q-2 -59 39 -103t100 -43q59 0 99 40t40 99q0 58 -41 100q-40 42 -106 42t-109 -66l-24 2h-25v2l37 305h289v-51h-248l-21 -184q49 39 119 39z" />
    <glyph glyph-name="six.tosf" horiz-adv-x="503" 
d="M170 80q39 -35 93 -33t94 43t38 98q-2 58 -42 98t-98 38t-97 -43t-37 -99v-12q2 -2 2 -4q8 -51 47 -86zM385 322q55 -53 57 -130q2 -78 -49 -134t-125 -58t-127 41t-65 111q-39 152 17 288t179 150q74 6 138 -41l-29 -37q-47 35 -111 29t-112 -78q-47 -72 -52 -170
q52 74 138 78t141 -49z" />
    <glyph glyph-name="seven.tosf" horiz-adv-x="516" 
d="M61 524v49h394v-32l-283 -541h-53l274 524h-332z" />
    <glyph glyph-name="eight.tosf" horiz-adv-x="491" 
d="M246 47q57 0 97 35t40 84t-40 85t-97 36q-58 0 -98 -36t-40 -85t41 -84q40 -35 97 -35zM135 431q0 -40 33 -69q33 -28 78 -28t78 28q32 28 32 69q0 40 -32 68q-33 27 -78 27t-78 -28t-33 -67zM430 166q0 -70 -54 -118t-131 -48t-130 48t-54 118q0 100 95 147
q-68 41 -68 109t46 110q46 43 112 43t112 -43q46 -42 46 -110t-68 -109q94 -49 94 -147z" />
    <glyph glyph-name="nine.tosf" horiz-adv-x="493" 
d="M246 530q-58 0 -98 -41t-40 -98t41 -98t105 -41t108 61l13 25q10 26 10 68t-41 83t-98 41zM432 404q0 -62 -20 -97l2 -2l-174 -323l-43 18l114 215q-35 -10 -65 -10q-76 0 -130 54t-54 131t54 131t131 54t131 -54q54 -55 54 -117z" />
    <glyph glyph-name="zero.dnom" horiz-adv-x="600" 
d="M301 49q80 0 135 70t56 168q0 98 -56 168q-56 69 -136 69q-79 0 -135 -70t-56 -168q0 -99 56 -168t136 -69zM300 0q-99 0 -169 84t-70 203t70 203t169 83q99 0 169 -85q70 -84 70 -202t-70 -202t-169 -84z" />
    <glyph glyph-name="one.dnom" horiz-adv-x="268" 
d="M139 0v514l-84 -35l-16 47l117 47h30v-573h-47z" />
    <glyph glyph-name="two.dnom" horiz-adv-x="514" 
d="M272 575q78 0 127 -43q49 -44 49 -112t-46 -118q-48 -50 -118 -96t-93 -63q-25 -16 -47 -43t-25 -53h334v-47h-392q-2 68 33 114t129 109t135 105t42 91q1 50 -33 80q-35 30 -95 29q-125 0 -155 -106l-45 18q43 135 200 135z" />
    <glyph glyph-name="three.dnom" horiz-adv-x="493" 
d="M432 168q0 -70 -54 -119t-133 -49t-132 52t-52 128h50q-1 -57 37 -95t96 -38t99 36q40 36 40 84t-38 83t-93 37h-12v47h8q47 2 78 30q30 28 30 68t-32 67q-33 27 -79 27t-78 -30t-30 -74h-49q-2 63 44 107t113 44t113 -41q46 -40 48 -108q0 -68 -70 -113q96 -45 96 -143z
" />
    <glyph glyph-name="four.dnom" horiz-adv-x="534" 
d="M346 223v262l-221 -262h221zM393 223h80v-47h-80v-176h-47v176h-285v43l295 354h37v-350z" />
    <glyph glyph-name="five.dnom" horiz-adv-x="501" 
d="M260 375q70 1 125 -55t55 -134t-56 -133t-134 -55t-134 57t-55 138h50q-2 -59 39 -103t100 -43q59 0 99 40t40 99q0 58 -41 100q-40 42 -106 42t-109 -66l-24 2h-25v2l37 305h289v-51h-248l-21 -184q49 39 119 39z" />
    <glyph glyph-name="six.dnom" horiz-adv-x="503" 
d="M170 80q39 -35 93 -33t94 43t38 98q-2 58 -42 98t-98 38t-97 -43t-37 -99v-12q2 -2 2 -4q8 -51 47 -86zM385 322q55 -53 57 -130q2 -78 -49 -134t-125 -58t-127 41t-65 111q-39 152 17 288t179 150q74 6 138 -41l-29 -37q-47 35 -111 29t-112 -78q-47 -72 -52 -170
q52 74 138 78t141 -49z" />
    <glyph glyph-name="seven.dnom" horiz-adv-x="516" 
d="M61 524v49h394v-32l-283 -541h-53l274 524h-332z" />
    <glyph glyph-name="eight.dnom" horiz-adv-x="491" 
d="M246 47q57 0 97 35t40 84t-40 85t-97 36q-58 0 -98 -36t-40 -85t41 -84q40 -35 97 -35zM135 431q0 -40 33 -69q33 -28 78 -28t78 28q32 28 32 69q0 40 -32 68q-33 27 -78 27t-78 -28t-33 -67zM430 166q0 -70 -54 -118t-131 -48t-130 48t-54 118q0 100 95 147
q-68 41 -68 109t46 110q46 43 112 43t112 -43q46 -42 46 -110t-68 -109q94 -49 94 -147z" />
    <glyph glyph-name="nine.dnom" horiz-adv-x="493" 
d="M246 530q-58 0 -98 -41t-40 -98t41 -98t105 -41t108 61l13 25q10 26 10 68t-41 83t-98 41zM432 404q0 -62 -20 -97l2 -2l-174 -323l-43 18l114 215q-35 -10 -65 -10q-76 0 -130 54t-54 131t54 131t131 54t131 -54q54 -55 54 -117z" />
    <glyph glyph-name="zero.numr" horiz-adv-x="729" 
d="M307 715q80 1 135 71t56 168q0 98 -56 168t-136 70q-79 0 -135 -70t-56 -169t56 -169t136 -69zM545 953q0 -117 -70 -201t-169 -84t-169 84q-69 84 -69 202t69 201q70 84 169 84t169 -84t70 -202z" />
    <glyph glyph-name="one.numr" horiz-adv-x="370" 
d="M100 692v514l-84 -35l-16 48l115 47h30v-574h-45z" />
    <glyph glyph-name="two.numr" horiz-adv-x="598" 
d="M233 1221q-125 0 -155 -107l-45 19q43 137 200 137q78 0 127 -44q50 -44 50 -112t-46 -118t-117 -97t-95 -63q-67 -46 -72 -95h334v-49h-391q-2 70 32 116q35 46 129 108t134 104q42 43 43 93t-33 79q-35 29 -95 29z" />
    <glyph glyph-name="three.numr" horiz-adv-x="606" 
d="M381 838q0 -70 -54 -118t-133 -48t-133 52q-53 52 -51 126h49q-2 -55 37 -93q40 -38 98 -38t98 35t40 84t-39 83t-96 35h-9v50h9q47 2 77 30t31 66q0 40 -33 68q-32 28 -78 28t-78 -31t-30 -73h-49q-2 63 44 107t113 44q68 0 114 -42q46 -43 46 -109t-69 -111
q96 -49 96 -145z" />
    <glyph glyph-name="four.numr" horiz-adv-x="622" 
d="M311 915v263l-221 -263h221zM358 915h80v-47h-80v-176h-47v176h-284v43l295 355h36v-351z" />
    <glyph glyph-name="five.numr" horiz-adv-x="571" 
d="M208 1044q68 0 124 -55q55 -55 55 -133t-55 -133t-134 -55t-136 56q-56 56 -54 138h51q-2 -61 39 -104q42 -43 100 -43t99 41t41 99t-40 99t-106 41t-112 -63l-25 2h-22v2h-2q0 2 2 6l35 297h290v-49h-249l-21 -184q52 38 120 38z" />
    <glyph glyph-name="six.numr" horiz-adv-x="614" 
d="M106 850v-12q2 -2 3 -4q8 -51 47 -86t94 -33t94 43t37 98q0 57 -41 96t-98 38q-56 -1 -96 -41t-40 -99zM371 988q55 -52 58 -130t-50 -133t-127 -58t-128 43t-63 117q-39 147 19 281t178 149q74 6 137 -40l-28 -37q-47 34 -111 28t-111 -78t-51 -169q50 75 136 77
t141 -50z" />
    <glyph glyph-name="seven.numr" horiz-adv-x="593" 
d="M18 1196v47h392v-33l-281 -538h-53l272 524h-330z" />
    <glyph glyph-name="eight.numr" horiz-adv-x="602" 
d="M231 713q57 0 98 36q40 36 40 85t-40 84q-39 34 -97 34t-98 -34t-40 -84q0 -49 40 -85t97 -36zM342 1098q0 40 -32 68t-78 28t-78 -28t-31 -68q0 -40 32 -69q31 -28 77 -28t78 29t32 68zM418 834q0 -70 -54 -118t-132 -48t-131 48q-54 48 -54 118q0 98 94 145
q-67 43 -67 111t47 109q47 42 111 42t112 -42q48 -41 48 -109t-68 -111q94 -49 94 -145z" />
    <glyph glyph-name="nine.numr" horiz-adv-x="581" 
d="M218 944q64 0 106 55l18 35q8 18 8 61t-41 85t-98 41q-57 0 -97 -41q-40 -40 -40 -98t40 -98t104 -40zM397 1096q0 -62 -20 -97l2 -2l-174 -325l-43 18l114 219q-31 -12 -65 -12q-76 0 -130 53t-54 130t54 131q54 55 131 55t131 -54t54 -116z" />
    <glyph glyph-name="uni03060301" horiz-adv-x="0" 
d="M-392 1223q-93 0 -169 64.5t-109 170.5l62 21q23 -84 83 -138.5t131.5 -54.5t131 52.5t86.5 138.5l61 -19q-33 -106 -108.5 -170.5t-168.5 -64.5zM-362 1569l-48 16l117 340l72 -27z" />
    <glyph glyph-name="uni03060300" horiz-adv-x="0" 
d="M-392 1223q-93 0 -169 64.5t-109 170.5l62 21q23 -84 83 -138.5t131.5 -54.5t131 52.5t86.5 138.5l61 -19q-33 -106 -108.5 -170.5t-168.5 -64.5zM-408 1573l-141 330l72 26l117 -340z" />
    <glyph glyph-name="uni03060309" horiz-adv-x="0" 
d="M-392 1223q-93 0 -169 64.5t-109 170.5l62 21q23 -84 83 -138.5t131.5 -54.5t131 52.5t86.5 138.5l61 -19q-33 -106 -108.5 -170.5t-168.5 -64.5zM-299 1786q35 -72 5 -140.5t-118 -119.5l-30 55q133 80 86 176q-33 61 -121 68v59q115 11 178 -98z" />
    <glyph glyph-name="uni03060303" horiz-adv-x="0" 
d="M-452 1223q-93 0 -168.5 64.5t-108.5 170.5l61 21q23 -84 83.5 -138.5t132 -54.5t131 52.5t85.5 138.5l62 -19q-33 -106 -109 -170.5t-169 -64.5zM-561 1692q-68 0 -129 -95l-55 33q74 125 180 127q53 2 140 -55t136 -55t103 75l55 -34q-68 -106 -156 -107
q-57 -2 -144 54.5t-130 56.5z" />
    <glyph glyph-name="uni03020301" horiz-adv-x="0" 
d="M-629 1208l197 318h47l199 -316l-47 -30l-175 276l-176 -276zM-383 1626l-47 16l117 340l71 -26z" />
    <glyph glyph-name="uni03020300" horiz-adv-x="0" 
d="M-629 1208l197 318h47l199 -316l-47 -30l-175 276l-176 -276zM-428 1630l-141 330l71 27l117 -340z" />
    <glyph glyph-name="uni03020309" horiz-adv-x="0" 
d="M-629 1208l197 318h47l199 -316l-47 -30l-175 276l-176 -276zM-319 1843q35 -72 5 -140.5t-118 -119.5l-31 55q133 80 86 177q-33 61 -121 67v60q116 10 179 -99z" />
    <glyph glyph-name="uni03020303" horiz-adv-x="0" 
d="M-672 1208l197 318h47l199 -316l-47 -30l-175 276l-176 -276zM-565 1749q-68 0 -129 -94l-56 33q74 125 181 127q53 2 140 -55.5t136 -55.5t103 76l55 -35q-68 -106 -156 -107q-57 -2 -144 54.5t-130 56.5z" />
    <glyph glyph-name="newGlyph" horiz-adv-x="1228" 
 />
    <glyph glyph-name="acutemacron" horiz-adv-x="1228" 
 />
    <glyph glyph-name="gravemacron" horiz-adv-x="1228" 
 />
    <glyph glyph-name="macronacute" horiz-adv-x="1228" 
 />
    <glyph glyph-name="macrongrave" horiz-adv-x="1228" 
 />
    </font>
</defs>
</svg>
