<?xml version="1.0" standalone="no"?>
<!DOCTYPE svg PUBLIC "-//W3C//DTD SVG 1.1//EN" "http://www.w3.org/Graphics/SVG/1.1/DTD/svg11.dtd" >
<svg xmlns="http://www.w3.org/2000/svg">
<metadata>
Created by FontPrep 20130207 at Fri Aug 12 10:45:06 2016
 By Joel Aldoyn
JAM Type Design
</metadata>
<defs>
<font id="4162c3bbdb445a336cd94aef28075090" horiz-adv-x='1024' >
  <font-face 
    font-family="TomaSans-ExtraLight"
    font-weight="250"
    font-stretch="normal"
    units-per-em="2048"
    panose-1="0 0 3 0 0 0 0 0 0 0"
    ascent="1638"
    descent="-410"
    x-height="1022"
    cap-height="1434"
    bbox="-756 -614 2460 2308"
    underline-thickness="102"
    underline-position="-102"
    unicode-range="U+0020-AB53"
  />
<missing-glyph horiz-adv-x="1075" 
d="M717 -121h-359v-72h152l-152 -100v-72h359v72h-219l149 100h70v72zM645 100v-100h-215v100h215zM717 172h-359v-244h359v244zM717 545h-215v-121h71v49h72v-100h-215v172h-72v-244h359v244zM717 807h-72v-143h-287v-72h359v215zM717 936h-359v-72h144v-80h-144v-69h215
v149h144v72zM502 1145v-78h-72v78h72zM573 1217h-215v-224h359v74h-144v150zM717 1495h-357v-72h142v-80h-144v-69h359v69h-144v80h144v72zM883 1638v-2150h-682v2150h682z" />
    <glyph glyph-name=".notdef" horiz-adv-x="1075" 
d="M717 -121h-359v-72h152l-152 -100v-72h359v72h-219l149 100h70v72zM645 100v-100h-215v100h215zM717 172h-359v-244h359v244zM717 545h-215v-121h71v49h72v-100h-215v172h-72v-244h359v244zM717 807h-72v-143h-287v-72h359v215zM717 936h-359v-72h144v-80h-144v-69h215
v149h144v72zM502 1145v-78h-72v78h72zM573 1217h-215v-224h359v74h-144v150zM717 1495h-357v-72h142v-80h-144v-69h359v69h-144v80h144v72zM883 1638v-2150h-682v2150h682z" />
    <glyph glyph-name=".null" 
 />
    <glyph glyph-name="nonmarkingreturn" horiz-adv-x="681" 
 />
    <glyph glyph-name="space" unicode=" " horiz-adv-x="614" 
 />
    <glyph glyph-name="exclam" unicode="!" horiz-adv-x="450" 
d="M225 -4q-25 0 -43 18t-18 44t18 44t43 18t43 -18t18 -44t-18 -44t-43 -18zM201 410v1083h51v-1083h-51z" />
    <glyph glyph-name="quotedbl" unicode="&#x22;" horiz-adv-x="499" 
d="M276 1122l-34 13l112 331l54 -20zM119 1122l-33 13l111 331l55 -20z" />
    <glyph glyph-name="numbersign" unicode="#" horiz-adv-x="1665" 
d="M1034 467l187 504h-572l-188 -504h573zM1567 971h-303l-187 -504h285v-41h-299l-160 -432l-39 12l156 420h-574l-159 -432l-39 12l155 420h-305v41h320l186 504h-301v41h315l170 461l41 -13l-165 -448h571l170 461l39 -13l-166 -448h289v-41z" />
    <glyph glyph-name="dollar" unicode="$" horiz-adv-x="1241" 
d="M649 55q178 0 287 88q108 89 108 227t-105 212t-298 114l-2 -641h10zM233 1069q0 -225 361 -309v624q-164 0 -262 -88t-99 -227zM649 0h-10v-184h-45v186q-340 23 -457 295l49 27q102 -246 408 -267v650q-416 92 -416 362q0 164 114 267t302 104v174h51v-176
q315 -20 420 -299l-53 -17q-90 240 -367 260l-2 -632q189 -32 271 -86q42 -27 90 -66q96 -79 96 -234q0 -156 -124 -260t-327 -104z" />
    <glyph glyph-name="percent" unicode="%" horiz-adv-x="1802" 
d="M1163 311q0 -117 68 -199t163 -83q94 0 162 83q68 82 68 198t-68 200t-162 84t-163 -83q-68 -83 -68 -200zM1395 -16q-113 0 -194 96t-81 231t80 231t194 97q114 0 192 -96q78 -95 79 -231q-1 -136 -79 -232t-191 -96zM411 899q95 0 163 83t67 200q0 118 -68 200
q-69 82 -163 82t-162 -83t-68 -199t68 -200q68 -83 163 -83zM412 854q-113 0 -194 96t-81 232t80 231q80 96 194 96q115 0 193 -96t78 -231q0 -136 -78 -232t-192 -96zM381 -86l-39 29l1022 1595l41 -25z" />
    <glyph glyph-name="ampersand" unicode="&#x26;" horiz-adv-x="1308" 
d="M494 55q116 0 220 48q104 49 162 109q56 60 72 81l-401 483q-91 -49 -195 -133t-145 -151q-59 -88 -53 -170q8 -111 116 -189t224 -78zM593 1427q-111 0 -181 -57q-68 -51 -74 -147t49 -166l174 -209q266 147 281 291q14 113 -62 201t-187 87zM514 2q-160 0 -284 92
t-132 223q-6 101 52 189t155 171q96 83 207 142l-174 209l-2 4q-55 88 -55 176q0 121 88 197t225 76q137 -1 228 -107t75 -241q-18 -170 -301 -328l383 -463q104 170 100 393h56q6 -244 -119 -438l223 -268l-45 -33l-211 254q-18 -27 -49 -57q-84 -87 -199 -139t-221 -52z
" />
    <glyph glyph-name="quotesingle" unicode="'" horiz-adv-x="401" 
d="M158 1122l-33 13l111 331l55 -20z" />
    <glyph glyph-name="parenleft" unicode="(" horiz-adv-x="587" 
d="M485 -299q-87 0 -155 84t-109 219q-80 263 -81 594t83 608q41 133 109 216t153 83v-32q-100 -3 -172 -143q-133 -258 -133 -724q0 -323 74 -579q37 -129 96 -210t135 -83v-33z" />
    <glyph glyph-name="parenright" unicode=")" horiz-adv-x="587" 
d="M102 -299v33q76 2 136 83q110 151 152 499t-13 684q-31 188 -103 328t-172 145v32q86 0 154 -83q123 -150 171 -503q22 -155 22 -313q-1 -158 -21 -312t-61 -290q-41 -135 -110 -219t-155 -84z" />
    <glyph glyph-name="asterisk" unicode="*" horiz-adv-x="946" 
d="M451 1499h55l-12 -272l282 78l12 -54l-282 -61l172 -258l-47 -31l-160 270l-174 -264l-45 31l186 252l-280 76l14 55l279 -94v272z" />
    <glyph glyph-name="plus" unicode="+" horiz-adv-x="1480" 
d="M1296 578v-41h-534v-535h-41v535h-537v41h535v536h43v-536h534z" />
    <glyph glyph-name="comma" unicode="," horiz-adv-x="378" 
d="M115 -160v27q74 14 73 80q0 27 -20 39t-41 25t-21 41t18 45t48 17q31 0 51 -33q20 -34 21 -83q0 -125 -129 -158z" />
    <glyph glyph-name="hyphen" unicode="-" horiz-adv-x="798" 
d="M139 522v41h518v-41h-518z" />
    <glyph glyph-name="period" unicode="." horiz-adv-x="393" 
d="M197 -4q-25 0 -43 18t-18 44t18 44t43 18t43 -18t18 -44t-18 -44t-43 -18z" />
    <glyph glyph-name="slash" unicode="/" horiz-adv-x="657" 
d="M-4 -188l-37 14l659 1790l39 -10z" />
    <glyph glyph-name="zero" unicode="0" horiz-adv-x="1484" 
d="M743 55q229 0 383 198t154 465t-155 464q-155 196 -384 196t-383 -198t-154 -464q0 -267 156 -464q154 -197 383 -197zM742 0q-252 0 -422 214t-170 504t172 503t421 213q165 0 303 -102t214 -265q76 -164 75 -350q0 -291 -171 -504t-422 -213z" />
    <glyph glyph-name="one" unicode="1" horiz-adv-x="702" 
d="M375 0v1366l-230 -94l-22 53l268 109h39v-1434h-55z" />
    <glyph glyph-name="two" unicode="2" horiz-adv-x="1290" 
d="M166 0q0 152 91 262t345 277q115 77 174 121t134 115q143 135 145 286q1 151 -99 238t-272 87q-330 0 -430 -266l-53 21q115 303 483 303q196 0 312 -106t116 -277q0 -172 -149 -317q-78 -74 -146 -124t-177 -121q-110 -71 -160 -108q-165 -121 -214 -213
q-31 -57 -33 -123l891 2v-57h-958z" />
    <glyph glyph-name="three" unicode="3" horiz-adv-x="1236" 
d="M1071 403q0 -169 -134 -287q-135 -118 -321 -118t-318 120t-132 292h57q0 -150 115 -253q116 -103 280 -103t280 102q116 104 116 247t-116 245t-280 104v55h3q133 0 228 85t95 205q0 119 -95 203t-229 84t-230 -85t-95 -205h-55q0 143 111 244q112 102 269 102
q156 0 268 -100t111 -242q0 -102 -61 -189q-62 -86 -162 -127q131 -43 213 -146t82 -233z" />
    <glyph glyph-name="four" unicode="4" horiz-adv-x="1304" 
d="M891 514v821l-690 -821h690zM946 514h209v-55h-209v-459h-55v459h-752v67l760 908h47v-920z" />
    <glyph glyph-name="five" unicode="5" horiz-adv-x="1183" 
d="M574 920q192 0 326 -134q136 -134 136 -325q0 -189 -135 -325t-325 -136t-326 134q-135 134 -135 327h57q0 -168 118 -287t286 -119t285 119q118 119 118 287q0 167 -118 285t-286 118q-102 0 -192 -49t-147 -137h-5l-55 2l86 754h701v-58h-652l-69 -604q140 148 332 148
z" />
    <glyph glyph-name="six" unicode="6" horiz-adv-x="1269" 
d="M655 49q164 2 280 120t114 282q-2 163 -120 279t-282 114q-163 -2 -279 -119t-114 -282t120 -281t281 -113zM645 899q185 4 321 -127t139 -318q3 -186 -128 -322t-313 -138t-313 114q-132 116 -150 289q-100 455 103 806q62 107 164 177t222 80q172 16 324 -98l-33 -43
q-137 98 -288 86t-267 -134t-166 -301q-51 -179 -37 -376q45 133 161 218t261 87z" />
    <glyph glyph-name="seven" unicode="7" horiz-adv-x="1183" 
d="M139 1378v56h965v-41l-729 -1393h-64l721 1378h-893z" />
    <glyph glyph-name="eight" unicode="8" horiz-adv-x="1181" 
d="M590 55q164 1 280 103t115 248q0 146 -116 246q-115 102 -279 102t-280 -102t-116 -246q0 -143 116 -247t280 -104zM268 1098q0 -119 96 -203t228 -84q133 0 228 84t95 203q0 118 -95 202t-228 84q-132 0 -228 -84t-96 -202zM591 0q-183 0 -318 118q-134 118 -134 288
q0 131 82 233t211 147q-98 41 -160 126q-61 85 -61 186q0 143 112 242q111 100 269 100t270 -100t111 -242q1 -102 -61 -188t-162 -126q129 -45 211 -146t81 -232q0 -172 -134 -289t-317 -117z" />
    <glyph glyph-name="nine" unicode="9" horiz-adv-x="1236" 
d="M221 1001q0 -165 117 -281q116 -116 280 -116t281 117t117 281t-117 280q-117 117 -281 117t-280 -117t-117 -281zM1071 1001q0 -115 -55 -219l-430 -813l-47 23l331 633q-115 -76 -252 -76q-190 0 -321 134t-131 319q0 184 132 318t320 134t321 -133q132 -134 132 -320z
" />
    <glyph glyph-name="colon" unicode=":" horiz-adv-x="395" 
d="M198 236q-26 0 -43 18t-18 43t17 43t44 18t44 -18t18 -43t-18 -43t-44 -18zM198 807q-26 0 -43 18t-18 43t17 43q18 19 44 19t44 -18t18 -44q0 -25 -18 -43t-44 -18z" />
    <glyph glyph-name="semicolon" unicode=";" horiz-adv-x="393" 
d="M201 -53q-1 27 -21 39t-40 25t-21 41q0 28 17 45t42 18q78 0 78 -121t-127 -154v27q72 14 72 80zM179 262q-26 0 -44 18t-18 46q0 27 18 44t44 17t44 -17q19 -17 19 -44q0 -28 -18 -46t-45 -18z" />
    <glyph glyph-name="less" unicode="&#x3c;" horiz-adv-x="960" 
d="M752 59l-625 455v33l629 457l26 -43l-594 -433l594 -430z" />
    <glyph glyph-name="equal" unicode="=" horiz-adv-x="1253" 
d="M193 350v45h868v-45h-868zM193 672v45h868v-45h-868z" />
    <glyph glyph-name="greater" unicode="&#x3e;" horiz-adv-x="950" 
d="M203 63l-25 35l594 430l-594 435l23 34l624 -452v-29z" />
    <glyph glyph-name="question" unicode="?" horiz-adv-x="878" 
d="M416 -4q-27 0 -44 18q-18 18 -18 44t18 44t44 18q27 0 45 -18t18 -44t-18 -44t-45 -18zM434 1446q156 0 249 -78t93 -211t-176 -274q-120 -90 -142 -161t-18 -300h-55q-6 240 23 322t155 182q158 121 160 243q-2 99 -81 161t-210 63q-242 0 -330 -189l-51 19
q94 223 383 223z" />
    <glyph glyph-name="at" unicode="@" horiz-adv-x="1392" 
d="M657 389q131 0 222 129l36 176q-37 115 -149 115t-192 -76t-80 -161t46 -134t117 -49zM1030 367q72 1 130 79t59 220q-1 203 -149 349t-369 146t-374 -172q-153 -173 -153 -411t155 -391t388 -152q180 0 317 96l27 -37q-152 -98 -344 -98q-250 0 -419 164t-169 418
t166 439t406 185q239 0 401 -159t162 -375q0 -162 -72 -251t-162 -89q-59 0 -100 32t-53 82q-94 -98 -222 -98q-90 0 -149 62q-60 62 -60 166q0 106 96 194t214 88q117 0 174 -86l16 80h47l-78 -356q6 -125 115 -125z" />
    <glyph glyph-name="A" unicode="A" horiz-adv-x="1423" 
d="M356 516h711l-356 823zM1290 0l-198 459h-760l-199 -459h-63l622 1434h39l621 -1434h-62z" />
    <glyph glyph-name="B" unicode="B" horiz-adv-x="1331" 
d="M821 55q133 0 225.5 93.5t92.5 234.5t-102.5 223t-262.5 82h-506v-633h553zM1077 1063q0 131 -93 223t-226 92h-490v-635h508q125 0 213 94.5t88 225.5zM1196 359.5q0 -140.5 -110.5 -250t-264.5 -109.5h-610v1434h547q158 0 267.5 -108.5t109.5 -264.5
q0 -109 -56.5 -199t-150.5 -135q125 -33 196.5 -130t71.5 -237.5z" />
    <glyph glyph-name="C" unicode="C" horiz-adv-x="1591" 
d="M864 -4q-295 0 -504.5 210t-209.5 506t210.5 507t503.5 211q197 0 365 -100.5t262 -270.5l-49 -27q-88 158 -243 250t-335 92q-274 0 -466.5 -193.5t-192.5 -468t192.5 -467t466.5 -192.5q182 0 336 91.5t242 250.5l49 -28q-94 -170 -263 -270.5t-364 -100.5z" />
    <glyph glyph-name="D" unicode="D" horiz-adv-x="1462" 
d="M631 55q274 0 467.5 193.5t193.5 469.5t-194.5 468t-466.5 192h-365v-1323h365zM631 1434q297 0 507 -210t210 -507t-210 -507t-507 -210h-420v1434h420z" />
    <glyph glyph-name="E" unicode="E" horiz-adv-x="1275" 
d="M1143 1378h-877v-633h785v-55h-785v-635h877v-55h-932v1434h932v-56z" />
    <glyph glyph-name="F" unicode="F" horiz-adv-x="1230" 
d="M266 745h783v-55h-783v-690h-55v1434l938 2v-56l-883 -2v-633z" />
    <glyph glyph-name="G" unicode="G" horiz-adv-x="1691" 
d="M868 647h711q-33 -283 -236.5 -465t-488.5 -182t-494.5 211t-209.5 507t208.5 506t505.5 210q197 0 363 -97.5t264 -269.5l-49 -33q-80 156 -236.5 250t-341.5 94q-274 0 -466.5 -193.5t-192.5 -466.5t193.5 -468t449.5 -195t440.5 152.5t224.5 384.5h-645v55z" />
    <glyph glyph-name="H" unicode="H" horiz-adv-x="1431" 
d="M1165 1434h56v-1434h-56v690h-897v-690h-57v1434h57v-689h897v689z" />
    <glyph glyph-name="I" unicode="I" horiz-adv-x="483" 
d="M213 0v1434h57v-1434h-57z" />
    <glyph glyph-name="J" unicode="J" horiz-adv-x="1150" 
d="M508.5 -6q-189.5 0 -319.5 135t-130 330h56q0 -172 114.5 -291t280.5 -119t281.5 117t115.5 280v971h56v-971q0 -186 -132.5 -319t-322 -133z" />
    <glyph glyph-name="K" unicode="K" horiz-adv-x="1415" 
d="M266 0h-55v1434h55v-869l951 869h83l-720 -658l733 -776h-72l-704 737l-271 -248v-489z" />
    <glyph glyph-name="L" unicode="L" horiz-adv-x="1214" 
d="M266 55h883v-55h-938v1434h55v-1379z" />
    <glyph glyph-name="M" unicode="M" horiz-adv-x="1841" 
d="M1630 1434v-1434h-55v1311l-637 -1108h-35l-637 1112v-1315h-55v1434h51l660 -1151l659 1151h49z" />
    <glyph glyph-name="N" unicode="N" horiz-adv-x="1476" 
d="M1210 1434h58v-1434h-47l-955 1331v-1331h-55v1434h51l948 -1323v1323z" />
    <glyph glyph-name="O" unicode="O" horiz-adv-x="1695" 
d="M865 55q271 0 466 194.5t195 468t-193.5 467t-468 193.5t-467 -193.5t-192.5 -468.5t194.5 -468t465.5 -193zM863 0q-294 0 -503.5 211t-209.5 507t208.5 506t505.5 210t507 -210t210 -507t-212 -507t-506 -210z" />
    <glyph glyph-name="P" unicode="P" horiz-adv-x="1236" 
d="M764 739q133 0 226 93.5t93 226.5t-93 226t-226 93h-498v-639h498zM764 1434q156 0 265.5 -110t109.5 -265.5t-109.5 -266t-265.5 -110.5h-498v-682h-55v1434h553z" />
    <glyph glyph-name="Q" unicode="Q" horiz-adv-x="1718" 
d="M864 55q221 0 398 133l-195 203l43 35l195 -203q221 199 221 483.5t-193.5 477t-468 192.5t-467 -192.5t-192.5 -467.5t194.5 -468t464.5 -193zM1581 707q0 -307 -238 -523l160 -166l-43 -36l-160 165q-197 -147 -436 -147q-295 0 -504.5 211t-209.5 507t208.5 506
t505.5 210t507 -210t210 -517z" />
    <glyph glyph-name="R" unicode="R" horiz-adv-x="1337" 
d="M266 1378v-639h494q133 0 227 93.5t94 226.5t-94 226t-227 93h-494zM266 684v-684h-55v1434h549q156 0 267.5 -111t111.5 -261t-99.5 -257t-246.5 -119l395 -686h-66l-393 684h-463z" />
    <glyph glyph-name="S" unicode="S" horiz-adv-x="1210" 
d="M621 0q-373 0 -504 279l49 24q117 -248 455 -248q181 0 289 88q108 87 108 229t-109.5 212.5t-310.5 112.5t-323.5 128t-122.5 247t113.5 264.5t303.5 103.5q334 0 457 -271l-47 -26q-109 242 -412 241q-164 0 -262 -88t-98 -227q0 -176 211 -264q72 -29 219 -60
q436 -90 436 -374q0 -162 -123.5 -266.5t-328.5 -104.5z" />
    <glyph glyph-name="T" unicode="T" horiz-adv-x="1300" 
d="M1237 1434v-56h-559v-1378h-55v1378h-557v56h1171z" />
    <glyph glyph-name="U" unicode="U" horiz-adv-x="1443" 
d="M721 0q-221 0 -376 155.5t-155 376.5v902h56v-902q0 -201 140 -339t337 -138t337 139.5t140 337.5v902h55v-902q0 -223 -156.5 -377.5t-377.5 -154.5z" />
    <glyph glyph-name="V" unicode="V" horiz-adv-x="1357" 
d="M1219 1434h59l-573 -1434h-54l-573 1434h61l539 -1348z" />
    <glyph glyph-name="W" unicode="W" horiz-adv-x="1923" 
d="M1778 1434h59l-416 -1434h-47l-413 1137l-412 -1137h-49l-412 1434h57l383 -1325l412 1138h41l414 -1134z" />
    <glyph glyph-name="X" unicode="X" horiz-adv-x="1380" 
d="M1303 0h-72l-541 676l-540 -676h-72l577 721l-571 713h72l534 -668l535 668h71l-569 -713z" />
    <glyph glyph-name="Y" unicode="Y" horiz-adv-x="1320" 
d="M688 0h-55v700l-588 734h74l543 -680l540 680h74l-588 -736v-698z" />
    <glyph glyph-name="Z" unicode="Z" horiz-adv-x="1517" 
d="M1368 1434v-45l-1155 -1334h1149v-55h-1229v49l1149 1329h-1149v56h1235z" />
    <glyph glyph-name="bracketleft" unicode="[" horiz-adv-x="622" 
d="M201 -328v1829h317v-39h-276v-1751h276v-39h-317z" />
    <glyph glyph-name="backslash" unicode="\" horiz-adv-x="825" 
d="M748 -221l-709 1823l47 14l705 -1819z" />
    <glyph glyph-name="bracketright" unicode="]" horiz-adv-x="622" 
d="M422 -328h-316v39h277v1751h-277v39h316v-1829z" />
    <glyph glyph-name="asciicircum" unicode="^" horiz-adv-x="1099" 
d="M926 911l-37 -20l-338 543l-342 -545l-35 22l358 574h37z" />
    <glyph glyph-name="underscore" unicode="_" horiz-adv-x="950" 
d="M946 -197v-4h-942v4h942z" />
    <glyph glyph-name="grave" unicode="`" horiz-adv-x="413" 
d="M250 1245l-131 324l53 20l113 -332z" />
    <glyph glyph-name="a" unicode="a" horiz-adv-x="1046" 
d="M458.5 51q139.5 0 251 90t111.5 224v112q-154 59 -311.5 59.5t-256.5 -64t-99 -183.5v-4q0 -111 82.5 -172.5t222 -61.5zM508 1030q156 0 263.5 -103.5t107.5 -267.5v-659h-56v207q-55 -94 -157.5 -151.5t-239 -57.5t-232.5 79t-96 208v4q0 141 115 218t303.5 77
t306.5 -66v141q0 135 -92 225.5t-223 90.5q-92 0 -168 -48t-115 -128l-53 20q47 96 137 153.5t199 57.5z" />
    <glyph glyph-name="b" unicode="b" horiz-adv-x="1277" 
d="M649 43q190 0 322.5 133t132.5 323.5t-133 323.5t-322 133q-131 0 -240.5 -67.5t-168.5 -183.5v-404q53 -117 164.5 -187.5t244.5 -70.5zM649 1012q211 0 360.5 -149.5t149.5 -362.5t-148.5 -362.5t-361.5 -149.5q-123 0 -230.5 59t-178.5 162v-209h-56v1511h56v-720
q157 221 409 221z" />
    <glyph glyph-name="c" unicode="c" horiz-adv-x="1175" 
d="M633 -4q-213 0 -363.5 150.5t-150.5 362.5t151.5 362.5t362.5 150.5q139 0 257 -69.5t189 -192.5l-51 -21q-57 102 -163.5 165t-231.5 63q-188 0 -323.5 -134.5t-135.5 -323.5t134 -323.5t325 -134.5q125 0 230.5 61.5t164.5 170.5l53 -23q-70 -123 -189.5 -193.5
t-258.5 -70.5z" />
    <glyph glyph-name="d" unicode="d" horiz-adv-x="1277" 
d="M629 43q133 0 243.5 70.5t165.5 187.5v404q-59 117 -168.5 184t-240.5 67q-188 0 -321.5 -133t-133.5 -323.5t132.5 -323.5t322.5 -133zM1038 1434h56v-1434h-56v209q-72 -102 -179 -161.5t-230 -59.5q-213 0 -361.5 149.5t-148.5 362.5t149.5 362.5t360.5 149.5
q252 0 409 -221v643z" />
    <glyph glyph-name="e" unicode="e" horiz-adv-x="1255" 
d="M631 969q-172 0 -302 -113t-153 -281h907q-23 168 -151.5 281t-300.5 113zM633 51q137 0 252.5 79t169.5 208l49 -25q-59 -143 -187.5 -230t-283.5 -87q-213 0 -363.5 150.5t-150.5 364.5t150.5 363.5t359.5 149.5t356.5 -144.5t155.5 -357.5h-969v-10q0 -193 135.5 -327
t325.5 -134z" />
    <glyph glyph-name="f" unicode="f" horiz-adv-x="690" 
d="M338 1276v-281h303v-55h-303v-938h-55v938h-222v55h222v281q0 94 65.5 159.5t150.5 68.5t165 -58l-46 -31q-86 66 -183 16.5t-97 -155.5z" />
    <glyph glyph-name="g" unicode="g" horiz-adv-x="1284" 
d="M633 86q133 0 243.5 69.5t167.5 190.5v399q-57 119 -170.5 191t-240.5 72q-187 0 -323 -136q-136 -134 -136 -326t135.5 -326t323.5 -134zM1044 1053h56v-1084q0 -197 -133 -327.5t-324 -130.5q-131 0 -244.5 71.5t-171.5 190.5l52 22q49 -102 149 -165.5t215 -63.5
q168 0 284.5 115.5t116.5 287.5v285q-72 -100 -181 -161.5t-230 -61.5q-215 0 -364.5 149.5t-149.5 366.5t151.5 366.5t362.5 149.5q125 0 232.5 -62.5t178.5 -164.5v217z" />
    <glyph glyph-name="h" unicode="h" horiz-adv-x="1140" 
d="M582 1026q164 0 279.5 -113.5t115.5 -281.5v-631h-55v631q0 139 -100.5 239.5t-241.5 100.5t-240.5 -120t-99.5 -269v-582h-56v1434h56v-660q51 111 141 181.5t201 70.5z" />
    <glyph glyph-name="i" unicode="i" horiz-adv-x="491" 
d="M219 0v1024h55v-1024h-55zM245.5 1298q-24.5 0 -43 17.5t-18.5 43.5t18.5 44t43 18t43 -18.5t18.5 -44.5t-18.5 -43t-43 -17z" />
    <glyph glyph-name="j" unicode="j" horiz-adv-x="489" 
d="M-16 -410q-74 0 -138 37l27 47q53 -29 111 -28q94 0 162 68t67 161v1149h55v-1149q0 -119 -84 -202t-200 -83zM244 1327q-25 1 -43 19t-19 43q0 25 18 43t44 18q25 0 43 -18t18 -43t-18 -43t-43 -19z" />
    <glyph glyph-name="k" unicode="k" horiz-adv-x="1112" 
d="M240 0h-56v1434h56v-965l663 555h86l-516 -432l561 -592h-76l-528 557l-190 -160v-397z" />
    <glyph glyph-name="l" unicode="l" horiz-adv-x="423" 
d="M240 1434v-1434h-56v1434h56z" />
    <glyph glyph-name="m" unicode="m" horiz-adv-x="1812" 
d="M1300.5 1026q137.5 0 249 -111.5t111.5 -281.5v-633h-55v633q0 143 -97.5 240.5t-235.5 97.5t-234.5 -117t-96.5 -262v-592h-55v633q0 143 -99.5 240.5t-242 97.5t-240.5 -116t-98 -263v-592h-57v999h57v-231q51 115 143 186.5t215 71.5t227.5 -81t137.5 -210
q45 125 139 208t231.5 83z" />
    <glyph glyph-name="n" unicode="n" horiz-adv-x="1093" 
d="M557 1026q156 0 270.5 -111.5t114.5 -281.5v-633h-55v633q0 143 -100.5 240.5t-241.5 97.5t-239.5 -118t-98.5 -263v-590h-57v1016h57v-246q51 113 142 184.5t208 71.5z" />
    <glyph glyph-name="o" unicode="o" horiz-adv-x="1267" 
d="M636 51q189 0 323.5 135.5t136.5 325.5t-133.5 325.5t-326 135.5t-326.5 -136.5t-136 -325.5t136.5 -324.5t325.5 -135.5zM635 -4q-215 0 -365.5 150.5t-150.5 364.5t151.5 365.5t364.5 151.5t364.5 -151.5t152.5 -364.5t-150.5 -364.5t-366.5 -151.5z" />
    <glyph glyph-name="p" unicode="p" horiz-adv-x="1284" 
d="M651 59q193 0 326 134.5t133 325t-134 324.5t-325 134q-131 0 -242.5 -69.5t-168.5 -190.5v-406q57 -117 168.5 -184.5t242.5 -67.5zM651 1032q211 0 362.5 -149.5t151.5 -362.5t-149.5 -364.5t-364.5 -151.5q-125 0 -232.5 59.5t-178.5 161.5v-727h-56v1522h56v-209
q72 102 180 161.5t231 59.5z" />
    <glyph glyph-name="q" unicode="q" horiz-adv-x="1284" 
d="M633 55q131 0 241.5 67.5t167.5 186.5v410q-59 119 -169.5 187.5t-239.5 68.5q-190 0 -324.5 -135t-134.5 -325.5t134.5 -325t324.5 -134.5zM1042 1018h58v-1479h-58v680q-72 -100 -179 -159.5t-230 -59.5q-215 0 -364.5 152.5t-149.5 364.5t151.5 361.5t362.5 149.5
q123 0 230.5 -58.5t178.5 -160.5v209z" />
    <glyph glyph-name="r" unicode="r" horiz-adv-x="780" 
d="M242 594v-594h-58v1016h58v-242q66 158 204 222.5t297 -5.5l-26 -51q-100 47 -202.5 24.5t-176.5 -108.5q-96 -115 -96 -262z" />
    <glyph glyph-name="s" unicode="s" horiz-adv-x="921" 
d="M459 -4q-281 0 -367 221l55 16q74 -184 312 -184q127 0 201.5 59.5t74.5 157.5q0 166 -291 223q-322 61 -321 269q0 119 82 194.5t221 75.5q262 0 340 -221l-53 -14q-66 180 -287 180q-115 0 -181.5 -59.5t-66.5 -155.5q0 -164 275 -213q170 -33 254 -99.5t84 -182.5
t-90 -191.5t-242 -75.5z" />
    <glyph glyph-name="t" unicode="t" horiz-adv-x="825" 
d="M287 285v673h-205v56h205v291h55v-291h326v-56h-326v-673q0 -135 122 -204t228 3l37 -41q-70 -45 -149.5 -46t-144 34t-106.5 103.5t-42 150.5z" />
    <glyph glyph-name="u" unicode="u" horiz-adv-x="1136" 
d="M897 1024h55v-1024h-55v248q-51 -113 -142 -185.5t-200 -72.5q-170 0 -282.5 112.5t-112.5 282.5v639h57v-639q0 -139 99.5 -239.5t238.5 -100.5t240.5 119t101.5 262v598z" />
    <glyph glyph-name="v" unicode="v" horiz-adv-x="1026" 
d="M487 0l-409 1024h59l375 -938l377 938h59l-413 -1024h-48z" />
    <glyph glyph-name="w" unicode="w" horiz-adv-x="1454" 
d="M391 0l-295 1024h56l266 -924l289 797h38l287 -797l273 924h55l-299 -1024h-43l-293 795l-289 -795h-45z" />
    <glyph glyph-name="x" unicode="x" horiz-adv-x="1036" 
d="M967 0h-66l-383 477l-381 -477h-67l415 518l-405 506h67l371 -463l371 463h67l-403 -506z" />
    <glyph glyph-name="y" unicode="y" horiz-adv-x="1136" 
d="M318 -455q-77 0 -139 32t-97 83l43 31q92 -106 221 -86t176 143l99 262l-527 1014h58l493 -946l354 946h60l-486 -1294q-33 -84 -105.5 -134.5t-149.5 -50.5z" />
    <glyph glyph-name="z" unicode="z" horiz-adv-x="1052" 
d="M76 0v45l807 924h-805v53h891v-37l-813 -930h805v-55h-885z" />
    <glyph glyph-name="braceleft" unicode="{" horiz-adv-x="630" 
d="M219 -20q0 -131 139 -205q73 -36 144 -43l-2 -41q-82 12 -158 49q-162 80 -162 244q0 57 41 215t33 221q-14 104 -160 174v31q145 70 160 176q8 63 -33 222t-41 216q0 162 162 242q54 24 135 43l23 4l2 -39q-72 -8 -144 -45q-139 -72 -139 -205q0 -59 41 -218t33 -222
q-14 -117 -146 -189q131 -68 146 -192q6 -68 -34 -222t-40 -216z" />
    <glyph glyph-name="bar" unicode="|" horiz-adv-x="417" 
d="M184 1638h47l2 -2048h-47z" />
    <glyph glyph-name="braceright" unicode="}" horiz-adv-x="630" 
d="M410 1239q0 185 -263 248l-18 2l2 39q80 -10 158 -47q162 -80 162 -242q0 -57 -41 -216t-33 -222q14 -106 160 -176v-31q-145 -70 -160 -174q-8 -61 32 -219t40 -217q4 -164 -160 -244q-74 -34 -135 -45l-23 -4l-2 41q72 8 143 43q139 74 140 205q0 59 -41 214t-33 224
q14 125 145 192q-131 72 -145 189q-8 63 32 222t40 218z" />
    <glyph glyph-name="asciitilde" unicode="~" horiz-adv-x="1013" 
d="M354 793q56 -1 144 -57t135 -55t106 71l41 -27q-72 -96 -149 -96q-53 0 -143 56t-132 56q-72 0 -135 -94l-43 27q76 119 176 119z" />
    <glyph glyph-name="exclamdown" unicode="&#xa1;" horiz-adv-x="450" 
d="M250 723v-1083h-49v1083h49zM225 1149q25 -1 43 -19t18 -44t-18 -43t-43 -17t-43 17t-18 43t18 44t43 19z" />
    <glyph glyph-name="cent" unicode="&#xa2;" horiz-adv-x="1175" 
d="M195 510q1 -178 119 -309t294 -148v912q-174 -17 -294 -147t-119 -308zM653 -4h-2v-180h-43v182q-199 16 -334 164t-135 347q0 200 136 347t333 164v203h49v-201q139 -2 256 -71t187 -191l-51 -21q-57 101 -163 163t-231 65l-2 -916q125 -1 231 61t165 171l53 -23
q-70 -124 -190 -194t-259 -70z" />
    <glyph glyph-name="sterling" unicode="&#xa3;" horiz-adv-x="1316" 
d="M778 1380q-164 0 -280 -116t-115 -279v-385h645v-43h-645v-508h782v-49h-1032v49h195v508h-195v43h195v385q0 185 132 319t319 134t319 -131t133 -320h-53q-2 165 -119 279t-281 114z" />
    <glyph glyph-name="currency" unicode="&#xa4;" horiz-adv-x="1304" 
d="M193 778q0 -190 136 -326t325 -135q188 -1 324 135t136 326q2 190 -133 326t-327 135q-192 0 -326 -136q-135 -135 -135 -325zM1169 777q0 -202 -137 -349l129 -129l-26 -27l-129 127q-152 -137 -354 -137t-349 137l-127 -127l-26 27l124 127q-137 152 -137 354t137 348
l-127 129l27 27l129 -127q147 137 349 137t354 -137l129 129l26 -26l-129 -130q137 -151 137 -353z" />
    <glyph glyph-name="yen" unicode="&#xa5;" horiz-adv-x="1314" 
d="M682 633h311v-41h-311v-160h311v-43h-311v-399h-49v399h-314v43h314v160h-314v41h314v63l-592 738h74l542 -680l543 680h74l-592 -738v-63z" />
    <glyph glyph-name="brokenbar" unicode="&#xa6;" horiz-adv-x="417" 
d="M184 377h47l2 -508h-47zM184 1366h47l2 -506h-47z" />
    <glyph glyph-name="section" unicode="&#xa7;" horiz-adv-x="1073" 
d="M872 565q0 182 -270 240q-156 27 -264 -39t-107 -195q1 -203 320 -256q137 -16 229 59t92 191zM842 1178q-81 192 -330 192q-125 0 -203 -68t-78 -176q0 -109 85 -167t253 -91q356 -78 357 -307q0 -104 -72 -185t-188 -95q260 -78 260 -275q0 -133 -102 -217t-256 -84
q-313 0 -418 227l47 23q94 -197 354 -197q147 0 234 68t87 182q0 139 -143 198q-52 23 -160 49q-108 27 -161 45q-52 18 -112 54q-118 69 -118 213q0 117 74 193t197 90q-135 39 -203 102t-68 184t93 204t235 83q285 0 383 -221z" />
    <glyph glyph-name="dieresis" unicode="&#xa8;" horiz-adv-x="749" 
d="M513 1266q-26 0 -43 17t-17 43t17 44.5t43 18.5t44 -18.5t18 -44.5t-18 -43t-44 -17zM133.5 1266q-24.5 0 -43 17t-18.5 43t18.5 44.5t43 18.5t43 -18.5t18.5 -44.5t-18.5 -43t-43 -17z" />
    <glyph glyph-name="copyright" unicode="&#xa9;" horiz-adv-x="1658" 
d="M831 324q-165 0 -281 116t-116 279t117 281t280 118q101 0 191 -50t143 -138l-35 -29q-46 78 -126 124t-173 46q-145 0 -248 -102q-103 -101 -103 -247t102 -250q104 -104 249 -103q91 0 173 47t129 125l34 -27q-51 -88 -141 -139t-195 -51zM829 1397q-283 0 -481 -199
q-198 -200 -198 -482t202 -480t480 -199q278 0 478 200q200 199 200 481t-200 480q-198 198 -481 199zM828 0q-294 0 -504 211t-211 507q0 296 210 506q211 210 507 210t506 -210t210 -507t-212 -507t-506 -210z" />
    <glyph glyph-name="guillemotleft" unicode="&#xab;" horiz-adv-x="845" 
d="M694 291l-336 244v30l338 246l25 -41l-305 -221l307 -221zM428 291l-336 244v30l338 246l25 -41l-305 -221l307 -221z" />
    <glyph glyph-name="logicalnot" unicode="&#xac;" horiz-adv-x="1302" 
d="M193 522v47h915l2 -325h-47l-2 278h-868z" />
    <glyph glyph-name="registered" unicode="&#xae;" horiz-adv-x="1658" 
d="M614 735h269q72 0 122 50t50 122t-50 121t-122 49h-269v-342zM575 322v794h37l2 4v-4h269q88 0 150 -60q63 -60 63 -146t-56 -144q-56 -59 -133 -66l217 -378h-45l-213 374h-252v-374h-39zM829 1397q-283 0 -481 -199q-198 -200 -198 -482t202 -480t480 -199
q278 0 478 200q200 199 200 481t-200 480q-198 198 -481 199zM828 0q-294 0 -504 211t-211 507q0 296 210 506q211 210 507 210t506 -210t210 -507t-212 -507t-506 -210z" />
    <glyph glyph-name="macron" unicode="&#xaf;" horiz-adv-x="765" 
d="M123 1255v43h520v-43h-520z" />
    <glyph glyph-name="degree" unicode="&#xb0;" horiz-adv-x="839" 
d="M419 946q97 0 167 70t70 168t-70 168t-166 70t-166 -70t-70 -168t69 -168t166 -70zM420 1460q116 0 196 -82t80 -196t-82 -195q-82 -82 -195 -82q-114 0 -195 81t-81 196q0 114 81 196t196 82z" />
    <glyph glyph-name="plusminus" unicode="&#xb1;" horiz-adv-x="1413" 
d="M184 61v43h1045v-43h-1045zM727 649h502v-43h-500v-336h-43v336h-502v43h500v336h43v-336z" />
    <glyph glyph-name="acute" unicode="&#xb4;" horiz-adv-x="413" 
d="M158 1225l-33 12l111 332l55 -21z" />
    <glyph glyph-name="paragraph" unicode="&#xb6;" horiz-adv-x="1320" 
d="M475 1446h635v-1712h-43v1669h-549v-1669h-43v960q-157 0 -267 111t-110 265t110 266q110 110 267 110z" />
    <glyph glyph-name="periodcentered" unicode="&#xb7;" horiz-adv-x="393" 
d="M197 600q-25 0 -43 17t-18 43t18 45q18 18 43 18t43 -18t18 -44q0 -25 -18 -43t-43 -18z" />
    <glyph glyph-name="cedilla" unicode="&#xb8;" horiz-adv-x="485" 
d="M311 -195.5q0 29.5 -41 64.5q-31 23 -36 40t8 42q10 31 10 49h39q0 -20 -9 -47.5t-6 -35t23 -23.5q51 -43 51 -91.5t-49 -73t-105.5 -9t-76.5 60.5l33 20q18 -33 57 -44t70.5 3.5t31.5 44z" />
    <glyph glyph-name="guillemotright" unicode="&#xbb;" horiz-adv-x="845" 
d="M416 291l-29 37l307 221l-303 221l23 41l340 -246v-30zM150 291l-29 37l307 221l-303 221l22 41l338 -246v-30z" />
    <glyph glyph-name="onequarter" unicode="&#xbc;" horiz-adv-x="1073" 
d="M956 268v297l-249 -297h249zM991 268h82v-32h-82v-181h-35v181h-290v34l299 359h26v-361zM168 698v531l-90 -37l-10 35l110 45h23v-574h-33zM877 1298h41l-721 -1321h-41z" />
    <glyph glyph-name="onehalf" unicode="&#xbd;" horiz-adv-x="1054" 
d="M874 647q78 0 127 -43q49 -44 49 -112t-50 -118q-48 -50 -120 -98t-97 -64q-23 -17 -49 -47t-29 -61h348v-34h-385q-2 63 32 108q35 46 117 100t112 76q29 22 57 62q28 39 29 85t-38 79t-103 32q-131 0 -161 -106l-35 14q47 127 196 127zM100 698v531l-90 -37l-10 35
l111 45h22v-574h-33zM104 -23l721 1321h41l-721 -1321h-41z" />
    <glyph glyph-name="threequarters" unicode="&#xbe;" horiz-adv-x="1161" 
d="M1047 285v297l-252 -297h252zM1079 285h82v-33h-82v-180h-32v180h-293v35l299 358h26v-360zM365 830q1 -58 -53 -106t-131 -48t-130 51t-51 123h35q-2 -57 40 -98t106 -41t108 38q43 38 43 91t-43 90t-105 39h-8v35h8q49 2 84 32t35 74q0 43 -36 75t-87 32t-86 -34
t-33 -79h-32q-2 61 43 104t109 43q65 0 111 -41t46 -98q0 -84 -80 -125q47 -18 77 -58q30 -41 30 -99zM911 1298h41l-723 -1321h-41z" />
    <glyph glyph-name="questiondown" unicode="&#xbf;" horiz-adv-x="876" 
d="M444 -360q246 0 330 188l51 -18q-94 -223 -383 -224q-156 0 -248 79t-94 210q0 131 176 277q119 90 142 160t18 298h56q6 -238 -23 -322t-156 -182q-157 -119 -157 -230t77 -174q78 -62 211 -62zM460 1036q26 0 44 -18t18 -44t-18 -43t-44 -17t-43 16q-17 18 -17 44
t16 44q18 18 44 18z" />
    <glyph glyph-name="Agrave" unicode="&#xc0;" horiz-adv-x="1423" 
d="M356 516h711l-356 823zM1290 0l-198 459h-760l-199 -459h-63l622 1434h39l621 -1434h-62zM737 1585l-35 -12l-131 323l54 21z" />
    <glyph glyph-name="Aacute" unicode="&#xc1;" horiz-adv-x="1423" 
d="M356 516h711l-356 823zM1290 0l-198 459h-760l-199 -459h-63l622 1434h39l621 -1434h-62zM866 1894l-133 -323l-33 12l111 332z" />
    <glyph glyph-name="Acircumflex" unicode="&#xc2;" horiz-adv-x="1423" 
d="M356 516h711l-356 823zM1290 0l-198 459h-760l-199 -459h-63l622 1434h39l621 -1434h-62zM713 1802l-178 -286l-29 20l190 311h35l193 -311l-31 -18z" />
    <glyph glyph-name="Atilde" unicode="&#xc3;" horiz-adv-x="1423" 
d="M356 516h711l-356 823zM1290 0l-198 459h-760l-199 -459h-63l622 1434h39l621 -1434h-62zM604 1692q-72 0 -137 -99l-39 25q76 119 174 119q53 1 141 -57q87 -58 135 -57t109 73l39 -23q-63 -96 -147 -96q-53 0 -141.5 57.5t-133.5 57.5z" />
    <glyph glyph-name="Adieresis" unicode="&#xc4;" horiz-adv-x="1423" 
d="M356 516h711l-356 823zM1290 0l-198 459h-760l-199 -459h-63l622 1434h39l621 -1434h-62zM902 1593q-26 0 -43 17.5t-17 43.5t17.5 44t43 18t44 -18.5t18.5 -44t-18.5 -43t-44.5 -17.5zM522.5 1593q-24.5 0 -43 17.5t-18.5 43.5t18.5 44t43 18t43 -18.5t18.5 -44
t-18.5 -43t-43 -17.5z" />
    <glyph glyph-name="Aring" unicode="&#xc5;" horiz-adv-x="1423" 
d="M356 516h711l-356 823zM1290 0l-198 459h-760l-199 -459h-63l622 1434h39l621 -1434h-62zM714 1829q-54 0 -93 -39t-39 -95t37.5 -95t93 -39t94.5 38.5t39 95t-39 95.5t-93 39zM714 1526q-69 0 -119 49t-50 120t49 120t118.5 49t120 -49.5t50.5 -120t-50 -119.5t-119 -49
z" />
    <glyph glyph-name="AE" unicode="&#xc6;" horiz-adv-x="1792" 
d="M727 535v837l-365 -837h365zM1661 1378h-879v-633h785v-55h-785v-635h879v-55h-934v479h-387l-209 -479h-61l622 1434h969v-56z" />
    <glyph glyph-name="Ccedilla" unicode="&#xc7;" horiz-adv-x="1591" 
d="M864 53q182 0 336 91.5t242 250.5l49 -28q-94 -170 -263 -270.5t-364 -100.5h-2q0 -16 -9 -44t-6 -35t23 -23q52 -44 52 -92t-49.5 -72.5t-105.5 -9t-77 60.5l33 20q27 -51 93.5 -48t66.5 54q0 27 -41 62q-31 23 -36 40t7 42q10 31 10 47q-281 16 -477 222t-196 497
t210.5 502t503.5 211q197 0 365 -100.5t262 -270.5l-49 -27q-88 158 -243 250t-335 92q-274 0 -466.5 -193.5t-192.5 -468t192.5 -467t466.5 -192.5z" />
    <glyph glyph-name="Egrave" unicode="&#xc8;" horiz-adv-x="1275" 
d="M1143 1378h-877v-633h785v-55h-785v-635h877v-55h-932v1434h932v-56zM700 1589l-34 -12l-131 324l53 20z" />
    <glyph glyph-name="Eacute" unicode="&#xc9;" horiz-adv-x="1275" 
d="M1143 1378h-877v-633h785v-55h-785v-635h877v-55h-932v1434h932v-56zM829 1898l-133 -323l-32 12l110 332z" />
    <glyph glyph-name="Ecircumflex" unicode="&#xca;" horiz-adv-x="1275" 
d="M1143 1378h-877v-633h785v-55h-785v-635h877v-55h-932v1434h932v-56zM676 1806l-178 -286l-29 20l190 311h35l193 -311l-31 -18z" />
    <glyph glyph-name="Edieresis" unicode="&#xcb;" horiz-adv-x="1275" 
d="M1143 1378h-877v-633h785v-55h-785v-635h877v-55h-932v1434h932v-56zM865 1597q-26 0 -43 17.5t-17 43.5t17.5 44t43 18t44 -18.5t18.5 -44t-18.5 -43t-44.5 -17.5zM485.5 1597q-24.5 0 -43 17.5t-18.5 43.5t18.5 44t43 18t43 -18.5t18.5 -44t-18.5 -43t-43 -17.5z" />
    <glyph glyph-name="Igrave" unicode="&#xcc;" horiz-adv-x="483" 
d="M213 0v1434h57v-1434h-57zM233 1573l-131 323l54 21l112 -332z" />
    <glyph glyph-name="Iacute" unicode="&#xcd;" horiz-adv-x="483" 
d="M213 0v1434h57v-1434h-57zM264 1571l-33 12l111 332l55 -21z" />
    <glyph glyph-name="Icircumflex" unicode="&#xce;" horiz-adv-x="483" 
d="M213 0v1434h57v-1434h-57zM37 1536l190 311h35l193 -311l-31 -18l-180 284l-178 -286z" />
    <glyph glyph-name="Idieresis" unicode="&#xcf;" horiz-adv-x="483" 
d="M213 0v1434h57v-1434h-57zM433 1593q-26 0 -43 17.5t-17 43.5t17.5 44t43 18t44 -18.5t18.5 -44t-18.5 -43t-44.5 -17.5zM53.5 1593q-24.5 0 -43 17.5t-18.5 43.5t18.5 44t43 18t43 -18.5t18.5 -44t-18.5 -43t-43 -17.5z" />
    <glyph glyph-name="Eth" unicode="&#xd0;" horiz-adv-x="1462" 
d="M631 55q274 0 467.5 193.5t193.5 469.5t-194.5 468t-466.5 192h-365v-639h283v-43h-283v-641h365zM631 1434q297 0 507 -210t210 -507t-210 -507t-507 -210h-420v696h-197v43h197v695h420z" />
    <glyph glyph-name="Ntilde" unicode="&#xd1;" horiz-adv-x="1476" 
d="M1210 1434h58v-1434h-47l-955 1331v-1331h-55v1434h51l948 -1323v1323zM631 1622q-72 0 -137 -98l-39 24q76 119 174 119q53 0 141 -57.5t135 -56.5t109 73l39 -22q-63 -96 -148 -97q-53 0 -141 57.5t-133 57.5z" />
    <glyph glyph-name="Ograve" unicode="&#xd2;" horiz-adv-x="1695" 
d="M865 55q271 0 466 194.5t195 468t-193.5 467t-468 193.5t-467 -193.5t-192.5 -468.5t194.5 -468t465.5 -193zM863 0q-294 0 -503.5 211t-209.5 507t208.5 506t505.5 210t507 -210t210 -507t-212 -507t-506 -210zM854 1573l-131 323l53 21l113 -332z" />
    <glyph glyph-name="Oacute" unicode="&#xd3;" horiz-adv-x="1695" 
d="M865 55q271 0 466 194.5t195 468t-193.5 467t-468 193.5t-467 -193.5t-192.5 -468.5t194.5 -468t465.5 -193zM863 0q-294 0 -503.5 211t-209.5 507t208.5 506t505.5 210t507 -210t210 -507t-212 -507t-506 -210zM885 1571l-33 12l111 332l55 -21z" />
    <glyph glyph-name="Ocircumflex" unicode="&#xd4;" horiz-adv-x="1695" 
d="M865 55q271 0 466 194.5t195 468t-193.5 467t-468 193.5t-467 -193.5t-192.5 -468.5t194.5 -468t465.5 -193zM863 0q-294 0 -503.5 211t-209.5 507t208.5 506t505.5 210t507 -210t210 -507t-212 -507t-506 -210zM657 1536l191 311h35l192 -311l-31 -18l-180 284
l-178 -286z" />
    <glyph glyph-name="Otilde" unicode="&#xd5;" horiz-adv-x="1695" 
d="M865 55q271 0 466 194.5t195 468t-193.5 467t-468 193.5t-467 -193.5t-192.5 -468.5t194.5 -468t465.5 -193zM863 0q-294 0 -503.5 211t-209.5 507t208.5 506t505.5 210t507 -210t210 -507t-212 -507t-506 -210zM754 1737q53 0 141 -57.5t135 -56.5t109 73l39 -23
q-63 -96 -148 -96q-53 0 -141 57.5t-133 57.5q-72 0 -138 -99l-38 25q76 119 174 119z" />
    <glyph glyph-name="Odieresis" unicode="&#xd6;" horiz-adv-x="1695" 
d="M865 55q271 0 466 194.5t195 468t-193.5 467t-468 193.5t-467 -193.5t-192.5 -468.5t194.5 -468t465.5 -193zM863 0q-294 0 -503.5 211t-209.5 507t208.5 506t505.5 210t507 -210t210 -507t-212 -507t-506 -210zM1054 1593q-26 0 -43.5 17.5t-17.5 43.5t17.5 44t43.5 18
t44 -18.5t18 -44t-18 -43t-44 -17.5zM673.5 1593q-24.5 0 -43 17.5t-18.5 43.5t18.5 44t43 18t43 -18.5t18.5 -44t-18.5 -43t-43 -17.5z" />
    <glyph glyph-name="multiply" unicode="&#xd7;" horiz-adv-x="1134" 
d="M989 889l-391 -391l391 -394l-28 -30l-392 393l-393 -393l-31 30l394 394l-394 391l31 29l393 -392l392 392z" />
    <glyph glyph-name="Oslash" unicode="&#xd8;" horiz-adv-x="1695" 
d="M864 55q272 0 467 194.5t195 467.5q0 205 -115 371.5t-299 242.5l-461 -1239q100 -37 213 -37zM205 717q0 -205 113.5 -371t295.5 -242l461 1239q-100 35 -211 35q-274 0 -466.5 -193.5t-192.5 -467.5zM1581 717q0 -297 -212 -507t-505 -210q-117 0 -233 39l-29 -78
l-35 16l29 76q-199 82 -322.5 262.5t-123.5 401.5q0 297 208.5 507t505.5 210q123 0 230 -37l28 73l37 -10l-29 -78q201 -80 326 -261t125 -404z" />
    <glyph glyph-name="Ugrave" unicode="&#xd9;" horiz-adv-x="1443" 
d="M721 0q-221 0 -376 155.5t-155 376.5v902h56v-902q0 -201 140 -339t337 -138t337 139.5t140 337.5v902h55v-902q0 -223 -156.5 -377.5t-377.5 -154.5zM713 1556l-131 324l53 21l113 -332z" />
    <glyph glyph-name="Uacute" unicode="&#xda;" horiz-adv-x="1443" 
d="M721 0q-221 0 -376 155.5t-155 376.5v902h56v-902q0 -201 140 -339t337 -138t337 139.5t140 337.5v902h55v-902q0 -223 -156.5 -377.5t-377.5 -154.5zM743 1554l-32 13l110 331l56 -20z" />
    <glyph glyph-name="Ucircumflex" unicode="&#xdb;" horiz-adv-x="1443" 
d="M721 0q-221 0 -376 155.5t-155 376.5v902h56v-902q0 -201 140 -339t337 -138t337 139.5t140 337.5v902h55v-902q0 -223 -156.5 -377.5t-377.5 -154.5zM516 1520l191 311h34l193 -311l-31 -19l-180 285l-178 -287z" />
    <glyph glyph-name="Udieresis" unicode="&#xdc;" horiz-adv-x="1443" 
d="M721 0q-221 0 -376 155.5t-155 376.5v902h56v-902q0 -201 140 -339t337 -138t337 139.5t140 337.5v902h55v-902q0 -223 -156.5 -377.5t-377.5 -154.5zM912 1577q-26 0 -43 17.5t-17 43t17.5 44t43 18.5t44 -18.5t18.5 -44.5t-18.5 -43t-44.5 -17zM532.5 1577
q-24.5 0 -43 17.5t-18.5 43t18.5 44t43 18.5t43 -18.5t18.5 -44.5t-18.5 -43t-43 -17z" />
    <glyph glyph-name="Yacute" unicode="&#xdd;" horiz-adv-x="1320" 
d="M688 0h-55v700l-588 734h74l543 -680l540 680h74l-588 -736v-698zM815 1843l-133 -323l-33 12l111 332z" />
    <glyph glyph-name="Thorn" unicode="&#xde;" horiz-adv-x="1236" 
d="M764 436q133 0 226 93.5t93 226.5t-93 226t-226 93h-498v-639h498zM764 1130q156 0 265.5 -109.5t109.5 -265t-109.5 -266t-265.5 -110.5h-498v-379h-55v1434h55v-304h498z" />
    <glyph glyph-name="germandbls" unicode="&#xdf;" horiz-adv-x="1228" 
d="M176 0v1198q0 100 70.5 168t165.5 68h252q156 0 265 -110t109 -261q0 -113 -63.5 -205t-165.5 -131q111 -18 180 -92q111 -111 111 -263t-110.5 -262t-264.5 -110h-330v55h330q131 0 224 93.5t93 221.5t-92 226q-55 57 -113.5 74.5t-172.5 17.5h-269v55h285
q125 0 214 95.5t89 225.5t-93 222t-226 92h-252q-72 0 -126.5 -51t-54.5 -129v-1198h-55z" />
    <glyph glyph-name="agrave" unicode="&#xe0;" horiz-adv-x="1046" 
d="M458.5 51q139.5 0 251 90t111.5 224v112q-154 59 -311.5 59.5t-256.5 -64t-99 -183.5v-4q0 -111 82.5 -172.5t222 -61.5zM508 1030q156 0 263.5 -103.5t107.5 -267.5v-659h-56v207q-55 -94 -157.5 -151.5t-239 -57.5t-232.5 79t-96 208v4q0 141 115 218t303.5 77
t306.5 -66v141q0 135 -92 225.5t-223 90.5q-92 0 -168 -48t-115 -128l-53 20q47 96 137 153.5t199 57.5zM545 1182l-35 -13l-131 324l53 20z" />
    <glyph glyph-name="aacute" unicode="&#xe1;" horiz-adv-x="1046" 
d="M458.5 51q139.5 0 251 90t111.5 224v112q-154 59 -311.5 59.5t-256.5 -64t-99 -183.5v-4q0 -111 82.5 -172.5t222 -61.5zM508 1030q156 0 263.5 -103.5t107.5 -267.5v-659h-56v207q-55 -94 -157.5 -151.5t-239 -57.5t-232.5 79t-96 208v4q0 141 115 218t303.5 77
t306.5 -66v141q0 135 -92 225.5t-223 90.5q-92 0 -168 -48t-115 -128l-53 20q47 96 137 153.5t199 57.5zM674 1491l-133 -324l-33 13l110 331z" />
    <glyph glyph-name="acircumflex" unicode="&#xe2;" horiz-adv-x="1046" 
d="M458.5 51q139.5 0 251 90t111.5 224v112q-154 59 -311.5 59.5t-256.5 -64t-99 -183.5v-4q0 -111 82.5 -172.5t222 -61.5zM508 1030q156 0 263.5 -103.5t107.5 -267.5v-659h-56v207q-55 -94 -157.5 -151.5t-239 -57.5t-232.5 79t-96 208v4q0 141 115 218t303.5 77
t306.5 -66v141q0 135 -92 225.5t-223 90.5q-92 0 -168 -48t-115 -128l-53 20q47 96 137 153.5t199 57.5zM520 1399l-178 -287l-29 21l191 311h35l192 -311l-31 -19z" />
    <glyph glyph-name="atilde" unicode="&#xe3;" horiz-adv-x="1046" 
d="M458.5 51q139.5 0 251 90t111.5 224v112q-154 59 -311.5 59.5t-256.5 -64t-99 -183.5v-4q0 -111 82.5 -172.5t222 -61.5zM508 1030q156 0 263.5 -103.5t107.5 -267.5v-659h-56v207q-55 -94 -157.5 -151.5t-239 -57.5t-232.5 79t-96 208v4q0 141 115 218t303.5 77
t306.5 -66v141q0 135 -92 225.5t-223 90.5q-92 0 -168 -48t-115 -128l-53 20q47 96 137 153.5t199 57.5zM412 1288q-72 0 -138 -98l-38 24q76 119 174 119q53 0 141 -57t135 -56t109 72l39 -22q-63 -96 -148 -96q-53 0 -141 57t-133 57z" />
    <glyph glyph-name="adieresis" unicode="&#xe4;" horiz-adv-x="1046" 
d="M458.5 51q139.5 0 251 90t111.5 224v112q-154 59 -311.5 59.5t-256.5 -64t-99 -183.5v-4q0 -111 82.5 -172.5t222 -61.5zM508 1030q156 0 263.5 -103.5t107.5 -267.5v-659h-56v207q-55 -94 -157.5 -151.5t-239 -57.5t-232.5 79t-96 208v4q0 141 115 218t303.5 77
t306.5 -66v141q0 135 -92 225.5t-223 90.5q-92 0 -168 -48t-115 -128l-53 20q47 96 137 153.5t199 57.5zM710 1190q-26 0 -43.5 17.5t-17.5 43t17.5 44t43.5 18.5t44 -18.5t18 -44.5t-18 -43t-44 -17zM329.5 1190q-24.5 0 -43 17.5t-18.5 43t18.5 44t43 18.5t43 -18.5
t18.5 -44.5t-18.5 -43t-43 -17z" />
    <glyph glyph-name="aring" unicode="&#xe5;" horiz-adv-x="1046" 
d="M458.5 51q139.5 0 251 90t111.5 224v112q-154 59 -311.5 59.5t-256.5 -64t-99 -183.5v-4q0 -111 82.5 -172.5t222 -61.5zM508 1030q156 0 263.5 -103.5t107.5 -267.5v-659h-56v207q-55 -94 -157.5 -151.5t-239 -57.5t-232.5 79t-96 208v4q0 141 115 218t303.5 77
t306.5 -66v141q0 135 -92 225.5t-223 90.5q-92 0 -168 -48t-115 -128l-53 20q47 96 137 153.5t199 57.5zM521 1425q-54 0 -93 -38.5t-39 -95t38 -95.5t93 -39t94 39t39 95t-39 95t-93 39zM521 1122q-69 0 -119 49.5t-50 120t49.5 119.5t119 49t119.5 -50t50 -119.5t-50 -119
t-119 -49.5z" />
    <glyph glyph-name="ae" unicode="&#xe6;" horiz-adv-x="1964" 
d="M458.5 51q139.5 0 251 90t111.5 224v112q-154 59 -311.5 59.5t-256.5 -64t-99 -183.5v-4q0 -111 82.5 -172.5t222 -61.5zM1337 967q-172 0 -301 -112t-153 -280h909q-23 168 -153 280t-302 112zM1337 51q139 0 256 78t168 207l49 -23q-57 -143 -186 -230t-286 -87
t-283.5 84t-188.5 221q-31 -129 -151.5 -216t-272 -87t-248 79t-96.5 208v4q0 141 115 218t303.5 77t306.5 -66v141q0 131 -92 223.5t-223 92.5q-92 0 -169 -49t-114 -129l-49 26q45 94 135 150.5t211 56.5t223.5 -86t126.5 -215q63 131 188.5 212t276.5 81
q207 0 356.5 -144.5t157.5 -357.5h-972v-10q0 -190 134 -324.5t324 -134.5z" />
    <glyph glyph-name="ccedilla" unicode="&#xe7;" horiz-adv-x="1175" 
d="M668 -185q0 30 -36 58.5t-41 46t5 39.5t12 37q-207 10 -348 159.5t-141 357.5t151.5 358.5t362.5 150.5q139 0 257 -69.5t189 -192.5l-51 -21q-57 102 -163.5 165t-231.5 63q-188 0 -323.5 -134.5t-135.5 -323.5t134 -323.5t325 -134.5q125 0 230.5 61.5t164.5 170.5
l53 -23q-68 -121 -183.5 -191.5t-250.5 -72.5q-2 -18 -10 -39.5t-5 -29t23 -23.5q51 -43 51.5 -91t-49 -73t-105.5 -9.5t-77 60.5l33 21q18 -33 57 -44.5t71 3t32 44.5z" />
    <glyph glyph-name="egrave" unicode="&#xe8;" horiz-adv-x="1255" 
d="M631 969q-172 0 -302 -113t-153 -281h907q-23 168 -151.5 281t-300.5 113zM633 51q137 0 252.5 79t169.5 208l49 -25q-59 -143 -187.5 -230t-283.5 -87q-213 0 -363.5 150.5t-150.5 364.5t150.5 363.5t359.5 149.5t356.5 -144.5t155.5 -357.5h-969v-10q0 -193 135.5 -327
t325.5 -134zM655 1182l-34 -13l-132 324l54 20z" />
    <glyph glyph-name="eacute" unicode="&#xe9;" horiz-adv-x="1255" 
d="M631 969q-172 0 -302 -113t-153 -281h907q-23 168 -151.5 281t-300.5 113zM633 51q137 0 252.5 79t169.5 208l49 -25q-59 -143 -187.5 -230t-283.5 -87q-213 0 -363.5 150.5t-150.5 364.5t150.5 363.5t359.5 149.5t356.5 -144.5t155.5 -357.5h-969v-10q0 -193 135.5 -327
t325.5 -134zM784 1491l-133 -324l-33 13l111 331z" />
    <glyph glyph-name="ecircumflex" unicode="&#xea;" horiz-adv-x="1255" 
d="M631 969q-172 0 -302 -113t-153 -281h907q-23 168 -151.5 281t-300.5 113zM633 51q137 0 252.5 79t169.5 208l49 -25q-59 -143 -187.5 -230t-283.5 -87q-213 0 -363.5 150.5t-150.5 364.5t150.5 363.5t359.5 149.5t356.5 -144.5t155.5 -357.5h-969v-10q0 -193 135.5 -327
t325.5 -134zM631 1399l-178 -287l-29 21l190 311h35l193 -311l-31 -19z" />
    <glyph glyph-name="edieresis" unicode="&#xeb;" horiz-adv-x="1255" 
d="M631 969q-172 0 -302 -113t-153 -281h907q-23 168 -151.5 281t-300.5 113zM633 51q137 0 252.5 79t169.5 208l49 -25q-59 -143 -187.5 -230t-283.5 -87q-213 0 -363.5 150.5t-150.5 364.5t150.5 363.5t359.5 149.5t356.5 -144.5t155.5 -357.5h-969v-10q0 -193 135.5 -327
t325.5 -134zM820 1190q-26 0 -43 17.5t-17 43t17.5 44t43 18.5t44 -18.5t18.5 -44.5t-18.5 -43t-44.5 -17zM440.5 1190q-24.5 0 -43 17.5t-18.5 43t18.5 44t43 18.5t43 -18.5t18.5 -44.5t-18.5 -43t-43 -17z" />
    <glyph glyph-name="igrave" unicode="&#xec;" horiz-adv-x="423" 
d="M240 1024v-1024h-56v1024h56zM203 1169l-131 324l53 20l113 -331z" />
    <glyph glyph-name="iacute" unicode="&#xed;" horiz-adv-x="423" 
d="M240 1024v-1024h-56v1024h56zM233 1167l-32 13l110 331l56 -20z" />
    <glyph glyph-name="icircumflex" unicode="&#xee;" horiz-adv-x="423" 
d="M240 1024v-1024h-56v1024h56zM6 1133l191 311h34l193 -311l-31 -19l-180 285l-178 -287z" />
    <glyph glyph-name="idieresis" unicode="&#xef;" horiz-adv-x="423" 
d="M240 1024v-1024h-56v1024h56zM402 1190q-26 0 -43 17.5t-17 43t17.5 44t43 18.5t44 -18.5t18.5 -44.5t-18.5 -43t-44.5 -17zM22.5 1190q-24.5 0 -43 17.5t-18.5 43t18.5 44t43 18.5t43 -18.5t18.5 -44.5t-18.5 -43t-43 -17z" />
    <glyph glyph-name="eth" unicode="&#xf0;" horiz-adv-x="1140" 
d="M571 41q164 0 281 117t117 280q0 96 -41 178l-2 -2l-21 39q-53 84 -142 133t-192 50q-165 0 -281 -117t-116 -281t116 -280t281 -117zM1024 438q0 -186 -133 -319t-319 -133t-320 132q-133 132 -133 318t131 320t321 135q139 0 248 -74l-215 416l-215 -98l-16 36l213 97
l-94 180l47 25l96 -183l223 103l19 -37l-224 -101l316 -598q55 -104 55 -219z" />
    <glyph glyph-name="ntilde" unicode="&#xf1;" horiz-adv-x="1093" 
d="M557 1026q156 0 270.5 -111.5t114.5 -281.5v-633h-55v633q0 143 -100.5 240.5t-241.5 97.5t-239.5 -118t-98.5 -263v-590h-57v1016h57v-246q51 113 142 184.5t208 71.5zM438 1288q-72 0 -137 -98l-39 24q76 119 174 119q53 0 141.5 -57t135.5 -56t108 72l39 -22
q-63 -96 -147 -96q-53 0 -141.5 57t-133.5 57z" />
    <glyph glyph-name="ograve" unicode="&#xf2;" horiz-adv-x="1267" 
d="M636 51q189 0 323.5 135.5t136.5 325.5t-133.5 325.5t-326 135.5t-326.5 -136.5t-136 -325.5t136.5 -324.5t325.5 -135.5zM635 -4q-215 0 -365.5 150.5t-150.5 364.5t151.5 365.5t364.5 151.5t364.5 -151.5t152.5 -364.5t-150.5 -364.5t-366.5 -151.5zM623 1169l-131 324
l53 20l112 -331z" />
    <glyph glyph-name="oacute" unicode="&#xf3;" horiz-adv-x="1267" 
d="M636 51q189 0 323.5 135.5t136.5 325.5t-133.5 325.5t-326 135.5t-326.5 -136.5t-136 -325.5t136.5 -324.5t325.5 -135.5zM635 -4q-215 0 -365.5 150.5t-150.5 364.5t151.5 365.5t364.5 151.5t364.5 -151.5t152.5 -364.5t-150.5 -364.5t-366.5 -151.5zM653 1167l-32 13
l110 331l55 -20z" />
    <glyph glyph-name="ocircumflex" unicode="&#xf4;" horiz-adv-x="1267" 
d="M636 51q189 0 323.5 135.5t136.5 325.5t-133.5 325.5t-326 135.5t-326.5 -136.5t-136 -325.5t136.5 -324.5t325.5 -135.5zM635 -4q-215 0 -365.5 150.5t-150.5 364.5t151.5 365.5t364.5 151.5t364.5 -151.5t152.5 -364.5t-150.5 -364.5t-366.5 -151.5zM426 1133l190 311
h35l193 -311l-31 -19l-180 285l-178 -287z" />
    <glyph glyph-name="otilde" unicode="&#xf5;" horiz-adv-x="1267" 
d="M636 51q189 0 323.5 135.5t136.5 325.5t-133.5 325.5t-326 135.5t-326.5 -136.5t-136 -325.5t136.5 -324.5t325.5 -135.5zM635 -4q-215 0 -365.5 150.5t-150.5 364.5t151.5 365.5t364.5 151.5t364.5 -151.5t152.5 -364.5t-150.5 -364.5t-366.5 -151.5zM522 1333
q53 0 141.5 -57t135.5 -56t108 72l39 -22q-63 -96 -147 -96q-53 0 -141.5 57t-133.5 57q-72 0 -137 -98l-39 24q76 119 174 119z" />
    <glyph glyph-name="odieresis" unicode="&#xf6;" horiz-adv-x="1267" 
d="M636 51q189 0 323.5 135.5t136.5 325.5t-133.5 325.5t-326 135.5t-326.5 -136.5t-136 -325.5t136.5 -324.5t325.5 -135.5zM635 -4q-215 0 -365.5 150.5t-150.5 364.5t151.5 365.5t364.5 151.5t364.5 -151.5t152.5 -364.5t-150.5 -364.5t-366.5 -151.5zM822 1190
q-26 0 -43 17.5t-17 43t17.5 44t43 18.5t44 -18.5t18.5 -44.5t-18.5 -43t-44.5 -17zM442.5 1190q-24.5 0 -43 17.5t-18.5 43t18.5 44t43 18.5t43 -18.5t18.5 -44.5t-18.5 -43t-43 -17z" />
    <glyph glyph-name="divide" unicode="&#xf7;" horiz-adv-x="1376" 
d="M689 213q-24 0 -41 17t-17 41t17 41q17 18 41 18t41 -18q18 -18 18 -41q0 -24 -18 -41t-41 -17zM193 612v47h991v-47h-991zM689 938q-24 0 -41 17t-17 41t17 41t41 17t41 -16q18 -18 18 -42t-18 -41t-41 -17z" />
    <glyph glyph-name="oslash" unicode="&#xf8;" horiz-adv-x="1267" 
d="M635 51q190 0 324.5 135.5t136.5 325.5q2 141 -76 256t-203 168l-321 -862q72 -23 139 -23zM174 512q0 -141 79 -257t208 -169l321 864q-74 23 -145 23q-190 0 -326.5 -136.5t-136.5 -324.5zM635 -4q-84 0 -158 24l-98 -264l-35 17l96 260q-143 57 -232 188t-89 291
q0 213 151.5 364.5t364.5 151.5q82 0 166 -27l98 265l37 -11l-100 -268q141 -59 228 -188t87 -287q2 -213 -149.5 -364.5t-366.5 -151.5z" />
    <glyph glyph-name="ugrave" unicode="&#xf9;" horiz-adv-x="1136" 
d="M897 1024h55v-1024h-55v248q-51 -113 -142 -185.5t-200 -72.5q-170 0 -282.5 112.5t-112.5 282.5v639h57v-639q0 -139 99.5 -239.5t238.5 -100.5t240.5 119t101.5 262v598zM580 1182l-35 -13l-131 324l53 20z" />
    <glyph glyph-name="uacute" unicode="&#xfa;" horiz-adv-x="1136" 
d="M897 1024h55v-1024h-55v248q-51 -113 -142 -185.5t-200 -72.5q-170 0 -282.5 112.5t-112.5 282.5v639h57v-639q0 -139 99.5 -239.5t238.5 -100.5t240.5 119t101.5 262v598zM709 1491l-134 -324l-32 13l110 331z" />
    <glyph glyph-name="ucircumflex" unicode="&#xfb;" horiz-adv-x="1136" 
d="M897 1024h55v-1024h-55v248q-51 -113 -142 -185.5t-200 -72.5q-170 0 -282.5 112.5t-112.5 282.5v639h57v-639q0 -139 99.5 -239.5t238.5 -100.5t240.5 119t101.5 262v598zM555 1399l-178 -287l-29 21l191 311h34l193 -311l-31 -19z" />
    <glyph glyph-name="udieresis" unicode="&#xfc;" horiz-adv-x="1136" 
d="M897 1024h55v-1024h-55v248q-51 -113 -142 -185.5t-200 -72.5q-170 0 -282.5 112.5t-112.5 282.5v639h57v-639q0 -139 99.5 -239.5t238.5 -100.5t240.5 119t101.5 262v598zM744 1190q-26 0 -43 17.5t-17 43t17.5 44t43 18.5t44 -18.5t18.5 -44.5t-18.5 -43t-44.5 -17z
M364.5 1190q-24.5 0 -43 17.5t-18.5 43t18.5 44t43 18.5t43 -18.5t18.5 -44.5t-18.5 -43t-43 -17z" />
    <glyph glyph-name="yacute" unicode="&#xfd;" horiz-adv-x="1136" 
d="M318 -455q-77 0 -139 32t-97 83l43 31q92 -106 221 -86t176 143l99 262l-527 1014h58l493 -946l354 946h60l-486 -1294q-33 -84 -105.5 -134.5t-149.5 -50.5zM754 1491l-133 -324l-33 13l110 331z" />
    <glyph glyph-name="thorn" unicode="&#xfe;" horiz-adv-x="1284" 
d="M653 59q191 1 325 135t134 324t-134 324t-325 135q-131 0 -243 -70t-168 -190v-406q58 -117 168 -185t243 -67zM653 1032q211 0 363 -150t152 -362t-150 -364t-365 -152q-127 0 -233 59t-178 162v-669h-56v1896h56v-641q72 101 180 161t231 60z" />
    <glyph glyph-name="ydieresis" unicode="&#xff;" horiz-adv-x="1136" 
d="M318 -455q-77 0 -139 32t-97 83l43 31q92 -106 221 -86t176 143l99 262l-527 1014h58l493 -946l354 946h60l-486 -1294q-33 -84 -105.5 -134.5t-149.5 -50.5zM790 1190q-26 0 -43.5 17.5t-17.5 43t17.5 44t43.5 18.5t44 -18.5t18 -44.5t-18 -43t-44 -17zM409.5 1190
q-24.5 0 -43 17.5t-18.5 43t18.5 44t43 18.5t43 -18.5t18.5 -44.5t-18.5 -43t-43 -17z" />
    <glyph glyph-name="Amacron" unicode="&#x100;" horiz-adv-x="1423" 
d="M356 516h711l-356 823zM1290 0l-198 459h-760l-199 -459h-63l622 1434h39l621 -1434h-62zM973 1640v-43h-520v43h520z" />
    <glyph glyph-name="amacron" unicode="&#x101;" horiz-adv-x="1046" 
d="M458.5 51q139.5 0 251 90t111.5 224v112q-154 59 -311.5 59.5t-256.5 -64t-99 -183.5v-4q0 -111 82.5 -172.5t222 -61.5zM508 1030q156 0 263.5 -103.5t107.5 -267.5v-659h-56v207q-55 -94 -157.5 -151.5t-239 -57.5t-232.5 79t-96 208v4q0 141 115 218t303.5 77
t306.5 -66v141q0 135 -92 225.5t-223 90.5q-92 0 -168 -48t-115 -128l-53 20q47 96 137 153.5t199 57.5zM780 1237v-43h-520v43h520z" />
    <glyph glyph-name="Abreve" unicode="&#x102;" horiz-adv-x="1423" 
d="M356 516h711l-356 823zM1290 0l-198 459h-760l-199 -459h-63l622 1434h39l621 -1434h-62zM713 1550q-90 0 -167 61.5t-112 166.5l41 14q29 -88 94.5 -143.5t143.5 -55.5t142.5 54.5t92.5 142.5l45 -12q-37 -104 -113.5 -166t-166.5 -62z" />
    <glyph glyph-name="abreve" unicode="&#x103;" horiz-adv-x="1046" 
d="M458.5 51q139.5 0 251 90t111.5 224v112q-154 59 -311.5 59.5t-256.5 -64t-99 -183.5v-4q0 -111 82.5 -172.5t222 -61.5zM508 1030q156 0 263.5 -103.5t107.5 -267.5v-659h-56v207q-55 -94 -157.5 -151.5t-239 -57.5t-232.5 79t-96 208v4q0 141 115 218t303.5 77
t306.5 -66v141q0 135 -92 225.5t-223 90.5q-92 0 -168 -48t-115 -128l-53 20q47 96 137 153.5t199 57.5zM520 1147q-90 0 -167 61.5t-111 165.5l41 15q29 -88 94 -143.5t143 -55.5t142.5 54t93.5 142l45 -12q-37 -104 -114 -165.5t-167 -61.5z" />
    <glyph glyph-name="Aogonek" unicode="&#x104;" horiz-adv-x="1423" 
d="M1352 -12q-4 -205 140 -205q73 0 112 76l38 -21q-47 -100 -159 -100q-86 0 -131 66.5t-41 183.5h41zM356 516h711l-356 823zM1290 0l-198 459h-760l-199 -459h-63l622 1434h39l621 -1434h-62z" />
    <glyph glyph-name="aogonek" unicode="&#x105;" horiz-adv-x="1046" 
d="M458.5 51q139.5 0 251 90t111.5 224v112q-154 59 -311.5 59.5t-256.5 -64t-99 -183.5v-4q0 -111 82.5 -172.5t222 -61.5zM879 0q-1 -199 139 -199q72 0 112 76l39 -20q-47 -100 -159 -101q-84 0 -130 64.5t-42 179.5h-15v207q-55 -94 -157.5 -151.5t-239 -57.5t-232.5 79
t-96 208v4q0 141 115 218t303.5 77t306.5 -66v141q0 135 -92 225.5t-223 90.5q-92 0 -168 -48t-115 -128l-53 20q47 96 137 153.5t199 57.5q156 0 263.5 -103.5t107.5 -267.5v-659z" />
    <glyph glyph-name="Cacute" unicode="&#x106;" horiz-adv-x="1591" 
d="M864 -4q-295 0 -504.5 210t-209.5 506t210.5 507t503.5 211q197 0 365 -100.5t262 -270.5l-49 -27q-88 158 -243 250t-335 92q-274 0 -466.5 -193.5t-192.5 -468t192.5 -467t466.5 -192.5q182 0 336 91.5t242 250.5l49 -28q-94 -170 -263 -270.5t-364 -100.5zM870 1571
l-32 12l110 332l56 -21z" />
    <glyph glyph-name="cacute" unicode="&#x107;" horiz-adv-x="1175" 
d="M633 -4q-213 0 -363.5 150.5t-150.5 362.5t151.5 362.5t362.5 150.5q139 0 257 -69.5t189 -192.5l-51 -21q-57 102 -163.5 165t-231.5 63q-188 0 -323.5 -134.5t-135.5 -323.5t134 -323.5t325 -134.5q125 0 230.5 61.5t164.5 170.5l53 -23q-70 -123 -189.5 -193.5
t-258.5 -70.5zM653 1161l-32 13l110 331l55 -20z" />
    <glyph glyph-name="Cdotaccent" unicode="&#x10a;" horiz-adv-x="1591" 
d="M864 -4q-295 0 -504.5 210t-209.5 506t210.5 507t503.5 211q197 0 365 -100.5t262 -270.5l-49 -27q-88 158 -243 250t-335 92q-274 0 -466.5 -193.5t-192.5 -468t192.5 -467t466.5 -192.5q182 0 336 91.5t242 250.5l49 -28q-94 -170 -263 -270.5t-364 -100.5zM849.5 1593
q-24.5 0 -43 17.5t-18.5 43.5t18.5 44t43 18t42.5 -18t18.5 -44t-18 -43.5t-43 -17.5z" />
    <glyph glyph-name="cdotaccent" unicode="&#x10b;" horiz-adv-x="1175" 
d="M633 -4q-213 0 -363.5 150.5t-150.5 362.5t151.5 362.5t362.5 150.5q139 0 257 -69.5t189 -192.5l-51 -21q-57 102 -163.5 165t-231.5 63q-188 0 -323.5 -134.5t-135.5 -323.5t134 -323.5t325 -134.5q125 0 230.5 61.5t164.5 170.5l53 -23q-70 -123 -189.5 -193.5
t-258.5 -70.5zM632.5 1184q-24.5 0 -42.5 18q-18 16 -18.5 42t18 44.5t43 18.5t43 -18.5t18.5 -44.5t-18.5 -43t-43 -17z" />
    <glyph glyph-name="Ccaron" unicode="&#x10c;" horiz-adv-x="1591" 
d="M864 -4q-295 0 -504.5 210t-209.5 506t210.5 507t503.5 211q197 0 365 -100.5t262 -270.5l-49 -27q-88 158 -243 250t-335 92q-274 0 -466.5 -193.5t-192.5 -468t192.5 -467t466.5 -192.5q182 0 336 91.5t242 250.5l49 -28q-94 -170 -263 -270.5t-364 -100.5zM672 1882
l178 -287l180 287l31 -20l-193 -312h-34l-191 314z" />
    <glyph glyph-name="ccaron" unicode="&#x10d;" horiz-adv-x="1175" 
d="M633 -4q-213 0 -363.5 150.5t-150.5 362.5t151.5 362.5t362.5 150.5q139 0 257 -69.5t189 -192.5l-51 -21q-57 102 -163.5 165t-231.5 63q-188 0 -323.5 -134.5t-135.5 -323.5t134 -323.5t325 -134.5q125 0 230.5 61.5t164.5 170.5l53 -23q-70 -123 -189.5 -193.5
t-258.5 -70.5zM455 1473l178 -287l180 287l31 -21l-193 -311h-35l-190 313z" />
    <glyph glyph-name="Dcaron" unicode="&#x10e;" horiz-adv-x="1462" 
d="M631 55q274 0 467.5 193.5t193.5 469.5t-194.5 468t-466.5 192h-365v-1323h365zM631 1434q297 0 507 -210t210 -507t-210 -507t-507 -210h-420v1434h420zM692 1550h-35l-190 314l29 18l178 -287l180 287l31 -20z" />
    <glyph glyph-name="dcaron" unicode="&#x10f;" horiz-adv-x="1323" 
d="M629 43q133 0 243 71t166 187v404q-59 117 -169 185t-240 66q-187 0 -321 -133t-134 -323t132 -324q133 -133 323 -133zM1038 1511h56v-1511h-56v209q-72 -101 -180 -161t-229 -60q-213 0 -362 149q-148 150 -148 363q-1 212 149 362t361 150q251 0 409 -221v720z
M1329 1587l55 -20l-131 -322l-36 12z" />
    <glyph glyph-name="Dcroat" unicode="&#x110;" horiz-adv-x="1462" 
d="M631 55q274 0 467.5 193.5t193.5 469.5t-194.5 468t-466.5 192h-365v-639h283v-43h-283v-641h365zM631 1434q297 0 507 -210t210 -507t-210 -507t-507 -210h-420v696h-197v43h197v695h420z" />
    <glyph glyph-name="dcroat" unicode="&#x111;" horiz-adv-x="1277" 
d="M629 43q133 0 243.5 70.5t165.5 187.5v404q-59 117 -168.5 184t-240.5 67q-188 0 -321.5 -133t-133.5 -323.5t132.5 -323.5t322.5 -133zM1315 1233v-43h-221v-1190h-56v209q-72 -102 -179 -161.5t-230 -59.5q-213 0 -361.5 149.5t-148.5 362.5t149.5 362.5t360.5 149.5
q252 0 409 -221v399h-245v43h245v201h56v-201h221z" />
    <glyph glyph-name="Emacron" unicode="&#x112;" horiz-adv-x="1275" 
d="M1143 1378h-877v-633h785v-55h-785v-635h877v-55h-932v1434h932v-56zM936 1645v-43h-520v43h520z" />
    <glyph glyph-name="emacron" unicode="&#x113;" horiz-adv-x="1255" 
d="M631 969q-172 0 -302 -113t-153 -281h907q-23 168 -151.5 281t-300.5 113zM633 51q137 0 252.5 79t169.5 208l49 -25q-59 -143 -187.5 -230t-283.5 -87q-213 0 -363.5 150.5t-150.5 364.5t150.5 363.5t359.5 149.5t356.5 -144.5t155.5 -357.5h-969v-10q0 -193 135.5 -327
t325.5 -134zM891 1237v-43h-520v43h520z" />
    <glyph glyph-name="Edotaccent" unicode="&#x116;" horiz-adv-x="1275" 
d="M1143 1378h-877v-633h785v-55h-785v-635h877v-55h-932v1434h932v-56zM675.5 1597q-24.5 0 -43 17.5t-18.5 43.5t18.5 44t43 18t42.5 -18t18.5 -44t-18 -43.5t-43 -17.5z" />
    <glyph glyph-name="edotaccent" unicode="&#x117;" horiz-adv-x="1255" 
d="M631 969q-172 0 -302 -113t-153 -281h907q-23 168 -151.5 281t-300.5 113zM633 51q137 0 252.5 79t169.5 208l49 -25q-59 -143 -187.5 -230t-283.5 -87q-213 0 -363.5 150.5t-150.5 364.5t150.5 363.5t359.5 149.5t356.5 -144.5t155.5 -357.5h-969v-10q0 -193 135.5 -327
t325.5 -134zM630.5 1190q-24.5 0 -43 17.5t-18.5 43t18.5 44t43 18.5t43 -18.5t18.5 -44.5t-18.5 -43t-43 -17z" />
    <glyph glyph-name="Eogonek" unicode="&#x118;" horiz-adv-x="1275" 
d="M1143 -6q-4 -205 140 -205q73 0 112 76l39 -21q-47 -100 -160 -100q-86 0 -131 66.5t-41 183.5h41zM1143 55v-55h-932v1434h932v-56h-877v-633h785v-55h-785v-635h877z" />
    <glyph glyph-name="eogonek" unicode="&#x119;" horiz-adv-x="1255" 
d="M774 -254q-86 0 -131 66.5t-41 183.5h31q-213 0 -363.5 150.5t-150.5 364.5t150.5 363.5t359.5 149.5t356.5 -144.5t155.5 -357.5h-969v-10q0 -193 135 -327t326 -134q137 0 252.5 79t169.5 208l49 -25q-59 -143 -185.5 -228.5t-275.5 -88.5q-3 -205 141 -205
q72 0 111 76l39 -21q-47 -100 -160 -100zM631 969q-172 0 -302 -113t-153 -281h907q-23 168 -151.5 281t-300.5 113z" />
    <glyph glyph-name="Ecaron" unicode="&#x11a;" horiz-adv-x="1275" 
d="M1143 1378h-877v-633h785v-55h-785v-635h877v-55h-932v1434h932v-56zM694 1554h-35l-190 314l29 18l178 -287l180 287l31 -20z" />
    <glyph glyph-name="ecaron" unicode="&#x11b;" horiz-adv-x="1255" 
d="M631 969q-172 0 -302 -113t-153 -281h907q-23 168 -151.5 281t-300.5 113zM633 51q137 0 252.5 79t169.5 208l49 -25q-59 -143 -187.5 -230t-283.5 -87q-213 0 -363.5 150.5t-150.5 364.5t150.5 363.5t359.5 149.5t356.5 -144.5t155.5 -357.5h-969v-10q0 -193 135.5 -327
t325.5 -134zM649 1147h-35l-190 313l29 19l178 -287l180 287l31 -21z" />
    <glyph glyph-name="Gbreve" unicode="&#x11e;" horiz-adv-x="1691" 
d="M868 647h711q-33 -283 -236.5 -465t-488.5 -182t-494.5 211t-209.5 507t208.5 506t505.5 210q197 0 363 -97.5t264 -269.5l-49 -33q-80 156 -236.5 250t-341.5 94q-274 0 -466.5 -193.5t-192.5 -466.5t193.5 -468t449.5 -195t440.5 152.5t224.5 384.5h-645v55zM844 1550
q-90 0 -167 61.5t-112 166.5l41 14q29 -88 94.5 -143.5t143.5 -55.5t142.5 54.5t92.5 142.5l45 -12q-37 -104 -113.5 -166t-166.5 -62z" />
    <glyph glyph-name="gbreve" unicode="&#x11f;" horiz-adv-x="1284" 
d="M633 86q133 0 243.5 69.5t167.5 190.5v399q-57 119 -170.5 191t-240.5 72q-187 0 -323 -136q-136 -134 -136 -326t135.5 -326t323.5 -134zM1044 1053h56v-1084q0 -197 -133 -327.5t-324 -130.5q-131 0 -244.5 71.5t-171.5 190.5l52 22q49 -102 149 -165.5t215 -63.5
q168 0 284.5 115.5t116.5 287.5v285q-72 -100 -181 -161.5t-230 -61.5q-215 0 -364.5 149.5t-149.5 366.5t151.5 366.5t362.5 149.5q125 0 232.5 -62.5t178.5 -164.5v217zM633 1214q-90 0 -167 61.5t-112 166.5l41 14q29 -88 94.5 -143.5t143.5 -55.5t142.5 54.5t92.5 142.5
l45 -12q-37 -104 -113.5 -166t-166.5 -62z" />
    <glyph glyph-name="Gdotaccent" unicode="&#x120;" horiz-adv-x="1691" 
d="M868 647h711q-33 -283 -236.5 -465t-488.5 -182t-494.5 211t-209.5 507t208.5 506t505.5 210q197 0 363 -97.5t264 -269.5l-49 -33q-80 156 -236.5 250t-341.5 94q-274 0 -466.5 -193.5t-192.5 -466.5t193.5 -468t449.5 -195t440.5 152.5t224.5 384.5h-645v55z
M843.5 1593q-24.5 0 -43 17.5t-18.5 43.5t18.5 44t43 18t42.5 -18t18.5 -44t-18 -43.5t-43 -17.5z" />
    <glyph glyph-name="gdotaccent" unicode="&#x121;" horiz-adv-x="1284" 
d="M633 86q133 0 243.5 69.5t167.5 190.5v399q-57 119 -170.5 191t-240.5 72q-187 0 -323 -136q-136 -134 -136 -326t135.5 -326t323.5 -134zM1044 1053h56v-1084q0 -197 -133 -327.5t-324 -130.5q-131 0 -244.5 71.5t-171.5 190.5l52 22q49 -102 149 -165.5t215 -63.5
q168 0 284.5 115.5t116.5 287.5v285q-72 -100 -181 -161.5t-230 -61.5q-215 0 -364.5 149.5t-149.5 366.5t151.5 366.5t362.5 149.5q125 0 232.5 -62.5t178.5 -164.5v217zM632.5 1257q-24.5 0 -43 17.5t-18.5 43.5t18.5 44t42.5 18q26 0 44 -18t18 -44t-18.5 -43.5
t-43 -17.5z" />
    <glyph glyph-name="Gcommaaccent" unicode="&#x122;" horiz-adv-x="1691" 
d="M819 -210q0 65 67 65q32 0 51 -33t19 -84q0 -123 -129 -156v25q74 14 74 82q0 33 -41 51t-41 50zM868 647h711q-33 -283 -236.5 -465t-488.5 -182t-494.5 211t-209.5 507t208.5 506t505.5 210q197 0 363 -97.5t264 -269.5l-49 -33q-80 156 -236.5 250t-341.5 94
q-274 0 -466.5 -193.5t-192.5 -466.5t193.5 -468t449.5 -195t440.5 152.5t224.5 384.5h-645v55z" />
    <glyph glyph-name="gcommaaccent" unicode="&#x123;" horiz-adv-x="1284" 
d="M633 86q133 0 243.5 69.5t167.5 190.5v399q-57 119 -170.5 191t-240.5 72q-188 0 -323.5 -135.5t-135.5 -327t135.5 -325.5t323.5 -134zM1044 1053h56v-1084q0 -197 -133 -327.5t-324 -130.5q-131 0 -244.5 71.5t-171.5 190.5l52 22q49 -102 149 -165.5t215 -63.5
q168 0 284.5 115.5t116.5 287.5v285q-72 -100 -181 -161.5t-230 -61.5q-215 0 -364.5 149.5t-149.5 366.5t151.5 366.5t362.5 149.5q125 0 232.5 -62.5t178.5 -164.5v217zM625 1169q-31 0 -51.5 34t-20.5 83q0 127 129 156v-25q-74 -14 -74 -80q0 -27 20.5 -39t41 -25
t20.5 -41t-17 -45.5t-48 -17.5z" />
    <glyph glyph-name="Hbar" unicode="&#x126;" horiz-adv-x="1431" 
d="M1165 1434h56v-1434h-56v690h-897v-690h-57v1434h57v-689h897v689z" />
    <glyph glyph-name="hbar" unicode="&#x127;" horiz-adv-x="1140" 
d="M582 1026q164 0 279.5 -113.5t115.5 -281.5v-631h-55v631q0 139 -100.5 239.5t-241.5 100.5t-240.5 -120t-99.5 -269v-582h-56v1206h-235v43h235v185h56v-185h231v-43h-231v-432q51 111 141 181.5t201 70.5z" />
    <glyph glyph-name="Itilde" unicode="&#x128;" horiz-adv-x="483" 
d="M213 0v1434h57v-1434h-57zM133 1737q53 0 141 -57.5t135.5 -56.5t108.5 73l39 -23q-63 -96 -147 -96q-53 0 -141.5 57.5t-133.5 57.5q-72 0 -137 -99l-39 25q76 119 174 119z" />
    <glyph glyph-name="itilde" unicode="&#x129;" horiz-adv-x="423" 
d="M240 1024v-1024h-56v1024h56zM102 1333q53 0 141.5 -57t135.5 -56t108 72l39 -22q-63 -96 -147 -96q-53 0 -141 57t-134 57q-72 0 -137 -98l-39 24q76 119 174 119z" />
    <glyph glyph-name="Imacron" unicode="&#x12a;" horiz-adv-x="483" 
d="M213 0v1434h57v-1434h-57zM-16 1597v43h520v-43h-520z" />
    <glyph glyph-name="imacron" unicode="&#x12b;" horiz-adv-x="423" 
d="M240 1024v-1024h-56v1024h56zM-47 1194v43h520v-43h-520z" />
    <glyph glyph-name="Iogonek" unicode="&#x12e;" horiz-adv-x="483" 
d="M272 2q-4 -205 140 -205q72 0 112 76l39 -20q-47 -100 -160 -101q-86 0 -131 66.5t-41 181.5h-18v1434h57v-1432h2z" />
    <glyph glyph-name="iogonek" unicode="&#x12f;" horiz-adv-x="423" 
d="M238 0q0 -199 140 -199q72 0 111 76l39 -20q-47 -100 -159 -101q-84 0 -130 64.5t-42 179.5h-13v1024h56v-1024h-2zM274 1250q0 -26 -18 -43t-43 -17t-43 17.5t-18 43t18 44t43 18.5t43 -18.5t18 -44.5z" />
    <glyph glyph-name="Idotaccent" unicode="&#x130;" horiz-adv-x="483" 
d="M213 0v1434h57v-1434h-57zM243.5 1593q-24.5 0 -43 17.5t-18.5 43.5t18.5 44t43 18t42.5 -18t18.5 -44t-18 -43.5t-43 -17.5z" />
    <glyph glyph-name="dotlessi" unicode="&#x131;" horiz-adv-x="423" 
d="M240 1024v-1024h-56v1024h56z" />
    <glyph glyph-name="Kcommaaccent" unicode="&#x136;" horiz-adv-x="1415" 
d="M610 -210q0 65 67 65q32 0 51.5 -33t19.5 -84q0 -123 -130 -156v25q74 14 74 82q0 33 -41 51t-41 50zM266 0h-55v1434h55v-869l951 869h83l-720 -658l733 -776h-72l-704 737l-271 -248v-489z" />
    <glyph glyph-name="kcommaaccent" unicode="&#x137;" horiz-adv-x="1112" 
d="M498 -210q0 65 66 65q32 0 51.5 -33t19.5 -84q0 -123 -129 -156v25q74 14 74 82q0 33 -41 51t-41 50zM240 0h-56v1434h56v-965l663 555h86l-516 -432l561 -592h-76l-528 557l-190 -160v-397z" />
    <glyph glyph-name="Lacute" unicode="&#x139;" horiz-adv-x="1214" 
d="M266 55h883v-55h-938v1434h55v-1379zM461 1913l-133 -324l-33 13l111 331z" />
    <glyph glyph-name="lacute" unicode="&#x13a;" horiz-adv-x="395" 
d="M240 1434v-1434h-56v1434h56zM233 1544l-34 12l110 332l58 -20z" />
    <glyph glyph-name="Lcommaaccent" unicode="&#x13b;" horiz-adv-x="1214" 
d="M643 -210q0 65 66 65q32 0 51.5 -33t19.5 -84q0 -123 -129 -156v25q74 14 74 82q0 33 -41 51t-41 50zM266 55h883v-55h-938v1434h55v-1379z" />
    <glyph glyph-name="lcommaaccent" unicode="&#x13c;" horiz-adv-x="423" 
d="M160 -210q0 65 66 65q32 0 51.5 -33t19.5 -84q0 -123 -129 -156v25q74 14 74 82q0 33 -41 51t-41 50zM240 1434v-1434h-56v1434h56z" />
    <glyph glyph-name="Lcaron" unicode="&#x13d;" horiz-adv-x="1214" 
d="M639 1407l-133 -324l-35 15l111 329zM266 55h883v-55h-938v1434h55v-1379z" />
    <glyph glyph-name="lcaron" unicode="&#x13e;" horiz-adv-x="438" 
d="M240 1434v-1434h-56v1434h56zM350 1245l-35 12l111 330l57 -20z" />
    <glyph glyph-name="Lslash" unicode="&#x141;" horiz-adv-x="1214" 
d="M266 55h883v-55h-938v635l-193 -273l-28 23l221 313v736h55v-658l205 289l31 -21l-236 -331v-658z" />
    <glyph glyph-name="lslash" unicode="&#x142;" horiz-adv-x="423" 
d="M240 0h-56v639l-200 -283l-29 23l229 323v732h56v-654l196 279l31 -21l-227 -321v-717z" />
    <glyph glyph-name="Nacute" unicode="&#x143;" horiz-adv-x="1476" 
d="M1210 1434h58v-1434h-47l-955 1331v-1331h-55v1434h51l948 -1323v1323zM893 1825l-133 -324l-33 12l111 332z" />
    <glyph glyph-name="nacute" unicode="&#x144;" horiz-adv-x="1093" 
d="M557 1026q156 0 270.5 -111.5t114.5 -281.5v-633h-55v633q0 143 -100.5 240.5t-241.5 97.5t-239.5 -118t-98.5 -263v-590h-57v1016h57v-246q51 113 142 184.5t208 71.5zM700 1491l-133 -324l-32 13l110 331z" />
    <glyph glyph-name="Ncommaaccent" unicode="&#x145;" horiz-adv-x="1476" 
d="M698 -210q0 65 67 65q32 0 51.5 -33t19.5 -84q0 -123 -129 -156v25q74 14 73 82q0 33 -41 51t-41 50zM1210 1434h58v-1434h-47l-955 1331v-1331h-55v1434h51l948 -1323v1323z" />
    <glyph glyph-name="ncommaaccent" unicode="&#x146;" horiz-adv-x="1093" 
d="M504 -210q0 65 66 65q32 0 51.5 -33t19.5 -84q0 -123 -129 -156v25q74 14 74 82q0 33 -41 51t-41 50zM557 1026q156 0 270.5 -111.5t114.5 -281.5v-633h-55v633q0 143 -100.5 240.5t-241.5 97.5t-239.5 -118t-98.5 -263v-590h-57v1016h57v-246q51 113 142 184.5t208 71.5
z" />
    <glyph glyph-name="Ncaron" unicode="&#x147;" horiz-adv-x="1476" 
d="M1210 1434h58v-1434h-47l-955 1331v-1331h-55v1434h51l948 -1323v1323zM758 1481h-35l-191 313l29 18l178 -286l181 286l30 -20z" />
    <glyph glyph-name="ncaron" unicode="&#x148;" horiz-adv-x="1093" 
d="M557 1026q156 0 270.5 -111.5t114.5 -281.5v-633h-55v633q0 143 -100.5 240.5t-241.5 97.5t-239.5 -118t-98.5 -263v-590h-57v1016h57v-246q51 113 142 184.5t208 71.5zM565 1147h-35l-190 313l29 19l178 -287l180 287l31 -21z" />
    <glyph glyph-name="Eng" unicode="&#x14a;" horiz-adv-x="1476" 
d="M1210 1434h58v-1604q0 -72 -39 -129q-82 -119 -222 -103q-69 7 -126 54l39 43q61 -45 127 -43q65 2 115 53t50 125v182l-946 1319v-1331h-55v1434h51l948 -1323v1323z" />
    <glyph glyph-name="eng" unicode="&#x14b;" horiz-adv-x="1093" 
d="M561 1026q153 0 267 -112t114 -281v-758q0 -119 -83 -202t-200 -83q-74 0 -139 37l29 47q51 -29 108 -28q96 0 163 68t67 161v758q-1 141 -101 239t-241 98t-239 -116q-98 -117 -99 -264v-590h-57v1016h57v-246q51 112 143 184t211 72z" />
    <glyph glyph-name="Omacron" unicode="&#x14c;" horiz-adv-x="1695" 
d="M865 55q271 0 466 194.5t195 468t-193.5 467t-468 193.5t-467 -193.5t-192.5 -468.5t194.5 -468t465.5 -193zM863 0q-294 0 -503.5 211t-209.5 507t208.5 506t505.5 210t507 -210t210 -507t-212 -507t-506 -210zM604 1597v43h520v-43h-520z" />
    <glyph glyph-name="omacron" unicode="&#x14d;" horiz-adv-x="1267" 
d="M636 51q189 0 323.5 135.5t136.5 325.5t-133.5 325.5t-326 135.5t-326.5 -136.5t-136 -325.5t136.5 -324.5t325.5 -135.5zM635 -4q-215 0 -365.5 150.5t-150.5 364.5t151.5 365.5t364.5 151.5t364.5 -151.5t152.5 -364.5t-150.5 -364.5t-366.5 -151.5zM373 1194v43h520
v-43h-520z" />
    <glyph glyph-name="Ohungarumlaut" unicode="&#x150;" horiz-adv-x="1695" 
d="M865 55q271 0 466 194.5t195 468t-193.5 467t-468 193.5t-467 -193.5t-192.5 -468.5t194.5 -468t465.5 -193zM863 0q-294 0 -503.5 211t-209.5 507t208.5 506t505.5 210t507 -210t210 -507t-212 -507t-506 -210zM981 1573l-37 12l113 332l55 -21zM813 1573l-35 12
l111 332l57 -21z" />
    <glyph glyph-name="ohungarumlaut" unicode="&#x151;" horiz-adv-x="1267" 
d="M636 51q189 0 323.5 135.5t136.5 325.5t-133.5 325.5t-326 135.5t-326.5 -136.5t-136 -325.5t136.5 -324.5t325.5 -135.5zM635 -4q-215 0 -365.5 150.5t-150.5 364.5t151.5 365.5t364.5 151.5t364.5 -151.5t152.5 -364.5t-150.5 -364.5t-366.5 -151.5zM727 1180l-37 12
l113 332l55 -21zM559 1180l-35 12l111 332l57 -21z" />
    <glyph glyph-name="OE" unicode="&#x152;" horiz-adv-x="2590" 
d="M865 55q271 0 466 194.5t195 468t-193.5 467t-468 193.5t-467 -193.5t-192.5 -468.5t194.5 -468t465.5 -193zM2460 1378h-879v-633h784v-55h-784v-635h879v-55h-934v440q-82 -197 -263.5 -318.5t-398.5 -121.5q-295 0 -504.5 211t-209.5 507t208.5 506t505.5 210
q221 0 400.5 -122t261.5 -319v441h934v-56z" />
    <glyph glyph-name="oe" unicode="&#x153;" horiz-adv-x="2232" 
d="M1610 967q-172 0 -301 -112t-154 -280h905q-23 168 -150.5 280t-299.5 112zM636 51q189 0 323.5 135.5t136.5 325.5t-133.5 325.5t-326.5 135.5t-326.5 -136.5t-135.5 -325.5t136.5 -324.5t325.5 -135.5zM1151 520v-14q2 -190 136.5 -322.5t322.5 -132.5q139 0 253.5 78
t168.5 207l51 -23q-57 -143 -187.5 -230t-292 -87t-294.5 97t-185 249q-53 -154 -187 -250t-302 -96q-215 0 -365.5 150.5t-150.5 364.5t151.5 365.5t364.5 151.5q168 0 302 -98.5t187 -251.5q53 152 186.5 248t299.5 96q207 0 354 -144.5t156 -357.5h-969z" />
    <glyph glyph-name="Racute" unicode="&#x154;" horiz-adv-x="1337" 
d="M266 1378v-639h494q133 0 227 93.5t94 226.5t-94 226t-227 93h-494zM266 684v-684h-55v1434h549q156 0 267.5 -111t111.5 -261t-99.5 -257t-246.5 -119l395 -686h-66l-393 684h-463zM776 1894l-133 -323l-33 12l111 332z" />
    <glyph glyph-name="racute" unicode="&#x155;" horiz-adv-x="780" 
d="M242 594v-594h-58v1016h58v-242q66 158 204 222.5t297 -5.5l-26 -51q-100 47 -202.5 24.5t-176.5 -108.5q-96 -115 -96 -262zM592 1491l-133 -324l-33 13l111 331z" />
    <glyph glyph-name="Rcommaaccent" unicode="&#x156;" horiz-adv-x="1337" 
d="M639 -210q0 65 66 65q32 0 51.5 -33t19.5 -84q0 -123 -129 -156v25q74 14 74 82q0 33 -41 51t-41 50zM266 1378v-639h494q133 0 227 93.5t94 226.5t-94 226t-227 93h-494zM266 684v-684h-55v1434h549q156 0 267.5 -111t111.5 -261t-99.5 -257t-246.5 -119l395 -686h-66
l-393 684h-463z" />
    <glyph glyph-name="rcommaaccent" unicode="&#x157;" horiz-adv-x="780" 
d="M150 -210q0 65 66 65q32 0 51.5 -33t19.5 -84q0 -123 -129 -156v25q74 14 73 82q0 33 -40.5 51t-40.5 50zM242 594v-594h-58v1016h58v-242q66 158 204 222.5t297 -5.5l-26 -51q-100 47 -202.5 24.5t-176.5 -108.5q-96 -115 -96 -262z" />
    <glyph glyph-name="Rcaron" unicode="&#x158;" horiz-adv-x="1337" 
d="M266 1378v-639h494q133 0 227 93.5t94 226.5t-94 226t-227 93h-494zM266 684v-684h-55v1434h549q156 0 267.5 -111t111.5 -261t-99.5 -257t-246.5 -119l395 -686h-66l-393 684h-463zM641 1550h-35l-190 314l28 18l179 -287l180 287l31 -20z" />
    <glyph glyph-name="rcaron" unicode="&#x159;" horiz-adv-x="780" 
d="M242 594v-594h-58v1016h58v-242q66 158 204 222.5t297 -5.5l-26 -51q-100 47 -202.5 24.5t-176.5 -108.5q-96 -115 -96 -262zM457 1147h-35l-191 313l29 19l178 -287l180 287l31 -21z" />
    <glyph glyph-name="Sacute" unicode="&#x15a;" horiz-adv-x="1210" 
d="M621 0q-373 0 -504 279l49 24q117 -248 455 -248q181 0 289 88q108 87 108 229t-109.5 212.5t-310.5 112.5t-323.5 128t-122.5 247t113.5 264.5t303.5 103.5q334 0 457 -271l-47 -26q-109 242 -412 241q-164 0 -262 -88t-98 -227q0 -176 211 -264q72 -29 219 -60
q436 -90 436 -374q0 -162 -123.5 -266.5t-328.5 -104.5zM608 1571l-33 12l111 332l55 -21z" />
    <glyph glyph-name="sacute" unicode="&#x15b;" horiz-adv-x="921" 
d="M459 -4q-281 0 -367 221l55 16q74 -184 312 -184q127 0 201.5 59.5t74.5 157.5q0 166 -291 223q-322 61 -321 269q0 119 82 194.5t221 75.5q262 0 340 -221l-53 -14q-66 180 -287 180q-115 0 -181.5 -59.5t-66.5 -155.5q0 -164 275 -213q170 -33 254 -99.5t84 -182.5
t-90 -191.5t-242 -75.5zM463 1167l-33 13l111 331l55 -20z" />
    <glyph glyph-name="Scedilla" unicode="&#x15e;" horiz-adv-x="1210" 
d="M690 -195q0 -48 -49 -73t-105.5 -9.5t-76.5 60.5l33 20q18 -33 57 -44t70.5 3.5t31.5 44.5t-36 58.5t-41 45.5t8 42q10 31 10 47q-350 12 -475 279l49 24q117 -248 455 -248q180 0 288.5 88t108.5 229.5t-109.5 212t-310.5 112.5t-323.5 128t-122.5 247t113.5 264.5
t303.5 103.5q334 0 457 -271l-47 -26q-109 242 -412 241q-164 0 -262 -88t-98 -227q0 -176 211 -264q72 -29 219 -60q436 -90 436 -374q0 -160 -120.5 -264.5t-321.5 -106.5q0 -18 -9 -45.5t-6.5 -35t23.5 -23.5q51 -43 51 -91z" />
    <glyph glyph-name="scedilla" unicode="&#x15f;" horiz-adv-x="921" 
d="M504 -199.5q0 29.5 -41 64.5q-31 23 -36 40t7 42q10 31 10 49q-268 6 -352 221l55 16q74 -184 312 -184q127 0 201.5 59.5t74.5 157.5q0 166 -291 223q-322 61 -321 269q0 119 82 194.5t221 75.5q262 0 340 -221l-53 -14q-66 180 -287 180q-115 0 -181.5 -59.5
t-66.5 -155.5q0 -164 275 -213q170 -33 254 -99.5t84 -182.5t-87 -188.5t-221 -78.5q0 -20 -9 -47.5t-6 -35t24 -24.5q51 -43 51 -91t-49.5 -72.5t-106 -9t-76.5 60.5l33 20q18 -33 57 -44t71 3.5t32 44z" />
    <glyph glyph-name="Scaron" unicode="&#x160;" horiz-adv-x="1210" 
d="M621 0q-373 0 -504 279l49 24q117 -248 455 -248q181 0 289 88q108 87 108 229t-109.5 212.5t-310.5 112.5t-323.5 128t-122.5 247t113.5 264.5t303.5 103.5q334 0 457 -271l-47 -26q-109 242 -412 241q-164 0 -262 -88t-98 -227q0 -176 211 -264q72 -29 219 -60
q436 -90 436 -374q0 -162 -123.5 -266.5t-328.5 -104.5zM410 1882l178 -287l180 287l31 -20l-193 -312h-35l-190 314z" />
    <glyph glyph-name="scaron" unicode="&#x161;" horiz-adv-x="921" 
d="M459 -4q-281 0 -367 221l55 16q74 -184 312 -184q127 0 201.5 59.5t74.5 157.5q0 166 -291 223q-322 61 -321 269q0 119 82 194.5t221 75.5q262 0 340 -221l-53 -14q-66 180 -287 180q-115 0 -181.5 -59.5t-66.5 -155.5q0 -164 275 -213q170 -33 254 -99.5t84 -182.5
t-90 -191.5t-242 -75.5zM264 1479l178 -287l181 287l30 -21l-192 -311h-35l-190 313z" />
    <glyph glyph-name="uni0162" unicode="&#x162;" horiz-adv-x="1300" 
d="M666 0q0 -20 -10 -48t-6.5 -35t24.5 -23q51 -44 51 -92t-49 -72.5t-105.5 -9t-76.5 60.5l32 20q27 -51 93.5 -48t66.5 54q0 27 -41 62q-31 23 -36 40t7 42q10 31 11 49h-4v1378h-557v56h1171v-56h-559v-1378h-12z" />
    <glyph glyph-name="uni0163" unicode="&#x163;" horiz-adv-x="825" 
d="M582 -187q0 30 -36 58.5t-41 45.5t5 39.5t12 43.5q-100 18 -167.5 97t-67.5 188v673h-205v56h205v291h55v-291h326v-56h-326v-673q0 -135 122 -204t228 3l37 -41q-78 -51 -168 -47q-2 -20 -10 -41.5t-5 -29t23 -23.5q51 -43 51.5 -91t-49 -73t-105.5 -9.5t-77 60.5l33 21
q18 -33 57 -44.5t71 3t32 44.5z" />
    <glyph glyph-name="Tcaron" unicode="&#x164;" horiz-adv-x="1300" 
d="M1237 1434v-56h-559v-1378h-55v1378h-557v56h1171zM670 1550h-35l-191 314l29 18l178 -287l180 287l31 -20z" />
    <glyph glyph-name="tcaron" unicode="&#x165;" horiz-adv-x="831" 
d="M287 958h-205v56h205v291h55v-291h326v-56h-326v-669q0 -135 122 -204t228 3l37 -43q-143 -92 -293 -9t-149 253v669zM645 1567l-133 -322l-35 12l113 330z" />
    <glyph glyph-name="Tbar" unicode="&#x166;" horiz-adv-x="1300" 
d="M1237 1378h-559v-639h235v-43h-235v-696h-55v696h-232v43h232v639h-557v56h1171v-56z" />
    <glyph glyph-name="tbar" unicode="&#x167;" horiz-adv-x="825" 
d="M287 285v227h-176v43h176v403h-205v56h205v291h55v-291h326v-56h-326v-403h291v-43h-291v-227q0 -135 122 -204t228 3l37 -41q-70 -45 -149.5 -46t-144 34t-106.5 103.5t-42 150.5z" />
    <glyph glyph-name="Utilde" unicode="&#x168;" horiz-adv-x="1443" 
d="M721 0q-221 0 -376 155.5t-155 376.5v902h56v-902q0 -201 140 -339t337 -138t337 139.5t140 337.5v902h55v-902q0 -223 -156.5 -377.5t-377.5 -154.5zM889 1561q-53 0 -141.5 57t-133.5 57q-72 0 -137 -98l-39 25q76 119 174 118q53 0 141.5 -57t135.5 -56t108 72l39 -22
q-63 -96 -147 -96z" />
    <glyph glyph-name="utilde" unicode="&#x169;" horiz-adv-x="1136" 
d="M897 1024h55v-1024h-55v248q-51 -113 -142 -185.5t-200 -72.5q-170 0 -282.5 112.5t-112.5 282.5v639h57v-639q0 -139 99.5 -239.5t238.5 -100.5t240.5 119t101.5 262v598zM446 1288q-72 0 -137 -98l-39 24q76 119 174 119q53 0 141.5 -57t135.5 -56t108 72l39 -22
q-63 -96 -147 -96q-53 0 -141.5 57t-133.5 57z" />
    <glyph glyph-name="Umacron" unicode="&#x16a;" horiz-adv-x="1443" 
d="M721 0q-221 0 -376 155.5t-155 376.5v902h56v-902q0 -201 140 -339t337 -138t337 139.5t140 337.5v902h55v-902q0 -223 -156.5 -377.5t-377.5 -154.5zM463 1581v43h520v-43h-520z" />
    <glyph glyph-name="umacron" unicode="&#x16b;" horiz-adv-x="1136" 
d="M897 1024h55v-1024h-55v248q-51 -113 -142 -185.5t-200 -72.5q-170 0 -282.5 112.5t-112.5 282.5v639h57v-639q0 -139 99.5 -239.5t238.5 -100.5t240.5 119t101.5 262v598zM815 1237v-43h-520v43h520z" />
    <glyph glyph-name="Uring" unicode="&#x16e;" horiz-adv-x="1443" 
d="M721 0q-221 0 -376 155.5t-155 376.5v902h56v-902q0 -201 140 -339t337 -138t337 139.5t140 337.5v902h55v-902q0 -223 -156.5 -377.5t-377.5 -154.5zM723 1544q55 0 94 39t39 95t-39 95t-93 39t-93 -38.5t-39 -95t38 -95.5t93 -39zM724 1509q-69 0 -119 49.5t-50 120
t49 119.5t120 49t120 -49t49 -120t-50 -120t-119 -49z" />
    <glyph glyph-name="uring" unicode="&#x16f;" horiz-adv-x="1136" 
d="M897 1024h55v-1024h-55v248q-51 -113 -142 -185.5t-200 -72.5q-170 0 -282.5 112.5t-112.5 282.5v639h57v-639q0 -139 99.5 -239.5t238.5 -100.5t240.5 119t101.5 262v598zM556 1425q-54 0 -93 -38.5t-39 -95t38 -95.5t93 -39t94 39t39 95t-39 95t-93 39zM556 1122
q-69 0 -119 49.5t-50 120t49 119.5t120 49t120 -50t49 -119.5t-50 -119t-119 -49.5z" />
    <glyph glyph-name="Uhungarumlaut" unicode="&#x170;" horiz-adv-x="1443" 
d="M721 0q-221 0 -376 155.5t-155 376.5v902h56v-902q0 -201 140 -339t337 -138t337 139.5t140 337.5v902h55v-902q0 -223 -156.5 -377.5t-377.5 -154.5zM817 1567l-37 12l113 332l55 -21zM649 1567l-35 12l111 332l57 -21z" />
    <glyph glyph-name="uhungarumlaut" unicode="&#x171;" horiz-adv-x="1136" 
d="M897 1024h55v-1024h-55v248q-51 -113 -142 -185.5t-200 -72.5q-170 0 -282.5 112.5t-112.5 282.5v639h57v-639q0 -139 99.5 -239.5t238.5 -100.5t240.5 119t101.5 262v598zM649 1180l-37 12l113 332l55 -21zM614 1503l-133 -323l-35 12l111 332z" />
    <glyph glyph-name="Uogonek" unicode="&#x172;" horiz-adv-x="1443" 
d="M1200 1434h55v-902q0 -219 -151.5 -372.5t-364.5 -159.5q-5 -201 139 -201q74 0 113 76l39 -20q-47 -100 -160 -101q-86 0 -131 65.5t-41 180.5q-213 10 -360.5 163.5t-147.5 368.5v902h56v-902q0 -201 140 -339t337 -138t337 139.5t140 337.5v902z" />
    <glyph glyph-name="uogonek" unicode="&#x173;" horiz-adv-x="1136" 
d="M952 0q-4 -203 140 -203q72 0 112 76l39 -20q-47 -100 -160 -101q-86 0 -131 66.5t-41 181.5h-14v248q-51 -113 -142 -185.5t-200 -72.5q-170 0 -282.5 112.5t-112.5 282.5v639h57v-639q0 -139 99.5 -239.5t238.5 -100.5t240.5 119t101.5 262v598h55v-1024z" />
    <glyph glyph-name="Wcircumflex" unicode="&#x174;" horiz-adv-x="1923" 
d="M1778 1434h59l-416 -1434h-47l-413 1137l-412 -1137h-49l-412 1434h57l383 -1325l412 1138h41l414 -1134zM956 1751l-178 -287l-28 21l190 311h35l192 -311l-30 -19z" />
    <glyph glyph-name="wcircumflex" unicode="&#x175;" horiz-adv-x="1454" 
d="M391 0l-295 1024h56l266 -924l289 797h38l287 -797l273 924h55l-299 -1024h-43l-293 795l-289 -795h-45zM520 1133l191 311h34l193 -311l-31 -19l-180 285l-178 -287z" />
    <glyph glyph-name="Ycircumflex" unicode="&#x176;" horiz-adv-x="1320" 
d="M688 0h-55v700l-588 734h74l543 -680l540 680h74l-588 -736v-698zM662 1751l-179 -287l-28 21l190 311h35l192 -311l-30 -19z" />
    <glyph glyph-name="ycircumflex" unicode="&#x177;" horiz-adv-x="1136" 
d="M318 -455q-77 0 -139 32t-97 83l43 31q92 -106 221 -86t176 143l99 262l-527 1014h58l493 -946l354 946h60l-486 -1294q-33 -84 -105.5 -134.5t-149.5 -50.5zM600 1399l-178 -287l-29 21l191 311h34l193 -311l-31 -19z" />
    <glyph glyph-name="Ydieresis" unicode="&#x178;" horiz-adv-x="1320" 
d="M688 0h-55v700l-588 734h74l543 -680l540 680h74l-588 -736v-698zM851 1542q-26 0 -43 17.5t-17 43.5t17 44t43 18t44 -18.5t18 -44t-18 -43t-44 -17.5zM471 1542q-25 0 -43 17.5t-18 43.5t18 44t43 18t43 -18.5t18 -44t-18 -43t-43 -17.5z" />
    <glyph glyph-name="Zacute" unicode="&#x179;" horiz-adv-x="1517" 
d="M1368 1434v-45l-1155 -1334h1149v-55h-1229v49l1149 1329h-1149v56h1235zM905 1894l-133 -323l-33 12l111 332z" />
    <glyph glyph-name="zacute" unicode="&#x17a;" horiz-adv-x="1052" 
d="M76 0v45l807 924h-805v53h891v-37l-813 -930h805v-55h-885zM543 1171l-33 13l111 332l55 -21z" />
    <glyph glyph-name="Zdotaccent" unicode="&#x17b;" horiz-adv-x="1517" 
d="M1368 1434v-45l-1155 -1334h1149v-55h-1229v49l1149 1329h-1149v56h1235zM751.5 1593q-24.5 0 -43 17.5t-18.5 43.5t18.5 44t43 18t42.5 -18t18.5 -44t-18 -43.5t-43 -17.5z" />
    <glyph glyph-name="zdotaccent" unicode="&#x17c;" horiz-adv-x="1052" 
d="M76 0v45l807 924h-805v53h891v-37l-813 -930h805v-55h-885zM522.5 1194q-24.5 0 -42.5 18q-18 16 -18.5 42t18 44.5t43 18.5t43 -18.5t18.5 -44.5t-18.5 -43t-43 -17z" />
    <glyph glyph-name="Zcaron" unicode="&#x17d;" horiz-adv-x="1517" 
d="M1368 1434v-45l-1155 -1334h1149v-55h-1229v49l1149 1329h-1149v56h1235zM770 1550h-35l-190 314l28 18l179 -287l180 287l31 -20z" />
    <glyph glyph-name="zcaron" unicode="&#x17e;" horiz-adv-x="1052" 
d="M76 0v45l807 924h-805v53h891v-37l-813 -930h805v-55h-885zM344 1483l178 -287l180 287l31 -21l-192 -311h-35l-191 313z" />
    <glyph glyph-name="uni0181" unicode="&#x181;" horiz-adv-x="1343" 
d="M272 55h553q131 0 225 93q93 94 93 226t-94 222q-55 56 -113 74t-170 18h-494v-633zM272 743h508q125 3 213 97t88 224t-93 222t-224 92h-492v-635zM215 0v1378h-133q-74 0 -125 -50t-53 -116t43 -127l-43 -38q-46 57 -54 125q-15 139 103 223q57 39 129 39h682
q156 0 266 -110t109 -261q0 -113 -65 -205t-165 -131q102 -14 181 -92q110 -111 110 -263t-110 -262t-265 -110h-610z" />
    <glyph glyph-name="uni0186" unicode="&#x186;" horiz-adv-x="1605" 
d="M774 0q-195 0 -362.5 100.5t-261.5 270.5l49 28q86 -160 240.5 -252t334.5 -92q274 0 468 193.5t194 468t-193.5 468t-468.5 193.5q-180 0 -334.5 -92t-240.5 -250l-49 27q92 170 260 270.5t364 100.5q295 0 506 -211t211 -507t-210 -506t-507 -210z" />
    <glyph glyph-name="uni0187" unicode="&#x187;" horiz-adv-x="1771" 
d="M1313 1393q0 96 65.5 163.5t151.5 70.5t168 -56l-37 -43q-63 45 -128 43t-115 -53.5t-50 -124.5v-168q76 -76 123 -162l-49 -27q-88 158 -243 250t-335 92q-274 0 -466.5 -193.5t-192.5 -468t193.5 -468t465.5 -193.5q180 0 335 92.5t243 251.5l49 -28
q-94 -170 -263 -270.5t-364 -100.5q-297 0 -505.5 210t-208.5 506t210.5 507t503.5 211q252 0 449 -160v119z" />
    <glyph glyph-name="uni0188" unicode="&#x188;" horiz-adv-x="1202" 
d="M967 1022q0 72 39 129q82 119 222 103q69 -7 126 -54l-39 -41q-89 74 -191 26t-102 -163v-180q33 -41 57 -82l-51 -21q-58 103 -164 165t-231 63q-187 0 -323 -134q-136 -133 -136 -323t134 -324t325 -135q125 -1 230 61t165 171l53 -23q-69 -124 -189 -194t-259 -70
q-213 0 -364 150t-151 363t152 363t352 150t345 -125v125z" />
    <glyph glyph-name="uni0189" unicode="&#x189;" horiz-adv-x="1492" 
d="M662 55q272 0 466 194t195 469q0 275 -195 468t-466 192h-367v-645h450v-43h-450v-635h367zM662 1434q296 0 506 -210t210 -507t-210 -507t-506 -210h-422v690h-236v43h236v701h422z" />
    <glyph glyph-name="uni018A" unicode="&#x18a;" horiz-adv-x="1531" 
d="M702 55q272 0 467 193.5t195 469.5t-194.5 468t-467.5 192h-366v-1323h366zM702 1434q297 0 507 -210t210 -507t-210 -507t-507 -210h-421v1378h-175q-74 0 -125 -50t-54 -115.5t42 -127.5l-41 -38q-47 57 -54 125.5t19.5 126t84 96.5t128.5 39h596z" />
    <glyph glyph-name="uni018E" unicode="&#x18e;" horiz-adv-x="1271" 
d="M135 1434h934v-1434h-934v55h879v635h-785v55h785v633h-879v56z" />
    <glyph glyph-name="uni018F" unicode="&#x18f;" horiz-adv-x="1368" 
d="M725 55q172 0 300 112t153 279h-908q23 -168 153 -279.5t302 -111.5zM723 1026q213 0 363.5 -150.5t150.5 -363.5t-150.5 -363.5t-359.5 -150.5t-358.5 145.5t-157.5 358.5h971v10q0 193 -134.5 326t-324.5 133q-139 0 -254 -78t-168 -207l-49 23q57 143 186 230t285 87z
" />
    <glyph glyph-name="uni0190" unicode="&#x190;" horiz-adv-x="1021" 
d="M513 0q-187 0 -321.5 118t-134.5 288q0 131 82 234t213 146q-100 43 -161.5 127t-61.5 187q0 143 110.5 242.5t270.5 99.5t272.5 -104.5t106.5 -250.5h-58q8 121 -88 210t-232 89t-230.5 -83.5t-94.5 -202.5t95.5 -204t228.5 -85v-57q-164 0 -279.5 -102.5t-115.5 -246
t115.5 -247t281.5 -103.5t283.5 108.5t107.5 256.5h60q8 -172 -127.5 -296t-322.5 -124z" />
    <glyph glyph-name="uni0191" unicode="&#x191;" horiz-adv-x="1224" 
d="M233 745h803v-55h-803v-872q-1 -96 -67 -164t-152 -72t-168 58l37 41q88 -76 192 -27q103 49 103 164v1634l963 2v-55l-908 -2v-652z" />
    <glyph glyph-name="florin" unicode="&#x192;" horiz-adv-x="927" 
d="M-45 -262l31 43q74 -59 170 -29t118 131l181 813l-246 2l2 39h252l139 613q27 127 150 170t219 -35l-31 -43q-74 59 -169 27t-118 -130l-133 -604h314l-3 -41l-319 2l-184 -823q-27 -127 -150 -170t-223 35z" />
    <glyph glyph-name="uni0193" unicode="&#x193;" horiz-adv-x="1822" 
d="M1372 1393v-170q70 -70 119 -156l-49 -33q-80 156 -236.5 250t-341.5 94q-274 0 -466.5 -193.5t-192.5 -466.5t193.5 -468t449.5 -195t440.5 152.5t224.5 384.5h-645v55h711q-33 -283 -236.5 -465t-488.5 -182t-494.5 211t-209.5 507t208.5 506t505.5 210q260 0 453 -162
v121q0 72 39 129t96 83.5t126 19.5t126 -54l-39 -43q-61 45 -126.5 43t-116 -53.5t-50.5 -124.5z" />
    <glyph glyph-name="uni0196" unicode="&#x196;" horiz-adv-x="536" 
d="M203 1475h55v-1258q0 -115 103 -164t192 27l37 -43q-82 -59 -168 -56t-153 71t-66 165v1258z" />
    <glyph glyph-name="uni0197" unicode="&#x197;" horiz-adv-x="673" 
d="M600 825v-41h-233v-784h-58v784h-235v41h235v609h58v-609h233z" />
    <glyph glyph-name="uni0198" unicode="&#x198;" horiz-adv-x="1411" 
d="M266 0h-55v1434h55v-828l631 535q55 45 124 52t126 -20.5t96 -86t37 -132.5l-57 2q2 115 -100.5 165t-190.5 -23l-365 -307l746 -791h-72l-719 754l-256 -217v-537z" />
    <glyph glyph-name="uni0199" unicode="&#x199;" horiz-adv-x="1112" 
d="M240 0h-56v1249q0 98 66 166t152 71t169 -59l-39 -41q-86 76 -189 27t-103 -164v-780l663 555h86l-516 -432l561 -592h-76l-528 557l-190 -160v-397z" />
    <glyph glyph-name="uni019D" unicode="&#x19d;" horiz-adv-x="1447" 
d="M1182 1434h57v-1434h-47l-956 1333v-1505q0 -96 -66 -163.5t-152 -71t-168 56.5l37 43q63 -45 129 -43t116 53t50 125v1606h49l951 -1323v1323z" />
    <glyph glyph-name="Ohorn" unicode="&#x1a0;" horiz-adv-x="1695" 
d="M865 55q271 0 466 194.5t195 468t-193.5 467t-468 193.5t-467 -193.5t-192.5 -468.5t194.5 -468t465.5 -193zM1581 717q0 -297 -212 -507t-506 -210t-503.5 211t-209.5 507t208.5 506t505.5 210q166 0 310.5 -71t244.5 -194q39 -10 74 25q23 20 6.5 63t5.5 64.5t47 20.5
t41 -17q56 -49 -24 -137q-53 -53 -127 -47q139 -188 139 -424z" />
    <glyph glyph-name="ohorn" unicode="&#x1a1;" horiz-adv-x="1243" 
d="M636.5 973q-190.5 0 -326.5 -136.5t-136 -325.5t136 -324.5t325.5 -135.5t324 135.5t136.5 325.5t-133.5 325.5t-326 135.5zM635 -4q-215 0 -365.5 150.5t-150.5 364.5t151.5 365.5t364.5 151.5q131 0 243.5 -61.5t184.5 -165.5q49 -27 92 16q23 20 6.5 63.5t12.5 69.5
q16 16 40.5 15.5t40.5 -17.5q56 -49 -24 -137q-66 -63 -148 -43q68 -119 68 -256q2 -213 -149.5 -364.5t-366.5 -151.5z" />
    <glyph glyph-name="uni01A4" unicode="&#x1a4;" horiz-adv-x="1269" 
d="M797 739q133 -1 226 93t93 227t-93 226t-226 93h-498v-639h498zM797 1434q155 0 265 -110t110 -266t-110 -266t-265 -110h-498v-682h-55v1378h-123q-115 0 -164 -103t27 -190l-41 -38q-61 84 -58 170q4 85 72 151t164 66h676z" />
    <glyph glyph-name="uni01A5" unicode="&#x1a5;" horiz-adv-x="1284" 
d="M651 59q193 1 326 135t133 324t-134 324t-325 135q-131 0 -243 -70t-168 -190v-406q56 -117 168 -185t243 -67zM651 1032q211 0 363 -150t152 -362t-150 -364t-365 -152q-125 0 -233 59t-178 162v-635h-56v1702q0 119 84 202t201 83q72 0 137 -37l-26 -45q-51 27 -111 27
q-94 0 -162 -68t-67 -162v-481q72 101 180 161t231 60z" />
    <glyph glyph-name="uni01A9" unicode="&#x1a9;" horiz-adv-x="1271" 
d="M1137 1434v-56h-858l446 -661l-451 -662h863v-55h-934v55l450 662l-450 661v56h934z" />
    <glyph glyph-name="uni01AC" unicode="&#x1ac;" horiz-adv-x="1202" 
d="M1137 1434v-56h-559v-1378h-56v1378h-391q-115 0 -164 -103.5t27 -189.5l-41 -38q-61 84 -57 170t71.5 151.5t163.5 65.5h1006z" />
    <glyph glyph-name="uni01AD" unicode="&#x1ad;" horiz-adv-x="825" 
d="M287 965h-205v55h205v289q0 81 42 149q88 142 251 138q80 -1 149 -46l-37 -43q-106 72 -228 4t-122 -202v-289h326v-55h-326v-676q0 -135 122 -204t228 3l37 -43q-143 -92 -293 -9t-149 253v676z" />
    <glyph glyph-name="uni01AE" unicode="&#x1ae;" horiz-adv-x="1300" 
d="M1237 1434v-56h-559v-1560q0 -96 -67 -165t-153 -72t-167 57l37 43q88 -76 191 -27t104 164v1560h-557v56h1171z" />
    <glyph glyph-name="Uhorn" unicode="&#x1af;" horiz-adv-x="1443" 
d="M1255 532q0 -223 -156.5 -377.5t-377.5 -154.5t-376 155.5t-155 376.5v902h56v-902q0 -201 140 -339t337 -138t337 139.5t140 337.5v902h55v-74q55 -35 101 12q23 20 6.5 63.5t11.5 69.5q39 39 82 -2q55 -49 -24 -137q-78 -76 -177 -33v-801z" />
    <glyph glyph-name="uhorn" unicode="&#x1b0;" horiz-adv-x="1148" 
d="M952 0h-55v248q-51 -113 -142 -185.5t-200 -72.5q-170 0 -282.5 112.5t-112.5 282.5v639h57v-639q0 -139 99.5 -239.5t238.5 -100.5t240.5 119t101.5 262v598h55v-68q59 -43 109 7q23 23 6.5 65.5t5.5 64t47 20.5t41 -17q55 -49 -24 -138q-80 -80 -185 -28v-930z" />
    <glyph glyph-name="uni01B1" unicode="&#x1b1;" horiz-adv-x="1953" 
d="M1839 1323v-51h-420q135 -100 213 -251t78 -323q0 -296 -211 -506t-507 -210t-506 210t-210 506q0 170 78 322t213 252h-417v51h497l29 -49q-160 -86 -251 -241t-91 -335q0 -274 192 -468t467 -194q274 0 468 194t194 468q0 180 -92 335t-250 241l26 49h500z" />
    <glyph glyph-name="uni01B3" unicode="&#x1b3;" horiz-adv-x="1419" 
d="M688 0h-55v700l-588 734h74l540 -678l488 606q59 76 150 88t167 -40t95 -148l-54 -11q-14 74 -71 114t-127 31t-117 -67l-502 -631v-698z" />
    <glyph glyph-name="uni01B4" unicode="&#x1b4;" horiz-adv-x="1202" 
d="M316 -461q-77 0 -139 32t-97 83l43 31q94 -106 222 -86t175 143l101 268l-527 1014h60l493 -944l469 1253q47 125 174 149t213 -69l-45 -35q-66 68 -160 48t-131 -115l-596 -1587q-33 -84 -105 -135q-73 -50 -150 -50z" />
    <glyph glyph-name="uni01B7" unicode="&#x1b7;" horiz-adv-x="1210" 
d="M1075 1434v-45l-416 -582q162 -23 272 -137q109 -114 109 -274t-134 -278t-321 -118t-322 124q-134 124 -126 296h60q-9 -147 107 -256t282 -109q166 -1 282 103t115 248q0 144 -116 246q-116 101 -279 102v57l405 567h-731v56h813z" />
    <glyph glyph-name="uni01C0" unicode="&#x1c0;" horiz-adv-x="413" 
d="M184 1495h43l2 -1495h-43z" />
    <glyph glyph-name="uni01C1" unicode="&#x1c1;" horiz-adv-x="731" 
d="M502 1495h43l2 -1495h-43zM184 1495h43l2 -1495h-43z" />
    <glyph glyph-name="uni01C2" unicode="&#x1c2;" horiz-adv-x="1224" 
d="M1169 936h-536l2 -404h534v-40h-534v-492h-43v492h-535v40h535l-2 404h-533v41h533v553h43v-553h536v-41z" />
    <glyph glyph-name="uni01CD" unicode="&#x1cd;" horiz-adv-x="1423" 
d="M356 516h711l-356 823zM1290 0l-198 459h-760l-199 -459h-63l622 1434h39l621 -1434h-62zM731 1550h-35l-190 314l29 18l178 -287l180 287l31 -20z" />
    <glyph glyph-name="uni01CE" unicode="&#x1ce;" horiz-adv-x="1046" 
d="M458.5 51q139.5 0 251 90t111.5 224v112q-154 59 -311.5 59.5t-256.5 -64t-99 -183.5v-4q0 -111 82.5 -172.5t222 -61.5zM508 1030q156 0 263.5 -103.5t107.5 -267.5v-659h-56v207q-55 -94 -157.5 -151.5t-239 -57.5t-232.5 79t-96 208v4q0 141 115 218t303.5 77
t306.5 -66v141q0 135 -92 225.5t-223 90.5q-92 0 -168 -48t-115 -128l-53 20q47 96 137 153.5t199 57.5zM539 1147h-35l-191 313l29 19l178 -287l180 287l31 -21z" />
    <glyph glyph-name="uni01CF" unicode="&#x1cf;" horiz-adv-x="483" 
d="M213 0v1434h57v-1434h-57zM66 1882l178 -287l180 287l31 -20l-193 -312h-35l-190 314z" />
    <glyph glyph-name="uni01D0" unicode="&#x1d0;" horiz-adv-x="423" 
d="M240 1024v-1024h-56v1024h56zM35 1479l178 -287l180 287l31 -21l-193 -311h-34l-191 313z" />
    <glyph glyph-name="uni01D1" unicode="&#x1d1;" horiz-adv-x="1695" 
d="M865 55q271 0 466 194.5t195 468t-193.5 467t-468 193.5t-467 -193.5t-192.5 -468.5t194.5 -468t465.5 -193zM863 0q-294 0 -503.5 211t-209.5 507t208.5 506t505.5 210t507 -210t210 -507t-212 -507t-506 -210zM686 1882l178 -287l180 287l31 -20l-192 -312h-35
l-191 314z" />
    <glyph glyph-name="uni01D2" unicode="&#x1d2;" horiz-adv-x="1267" 
d="M636 51q189 0 323.5 135.5t136.5 325.5t-133.5 325.5t-326 135.5t-326.5 -136.5t-136 -325.5t136.5 -324.5t325.5 -135.5zM635 -4q-215 0 -365.5 150.5t-150.5 364.5t151.5 365.5t364.5 151.5t364.5 -151.5t152.5 -364.5t-150.5 -364.5t-366.5 -151.5zM455 1479l178 -287
l180 287l31 -21l-193 -311h-35l-190 313z" />
    <glyph glyph-name="uni01D3" unicode="&#x1d3;" horiz-adv-x="1443" 
d="M721 0q-221 0 -376 155.5t-155 376.5v902h56v-902q0 -201 140 -339t337 -138t337 139.5t140 337.5v902h55v-902q0 -223 -156.5 -377.5t-377.5 -154.5zM545 1866l178 -287l180 287l31 -21l-193 -311h-34l-191 313z" />
    <glyph glyph-name="uni01D4" unicode="&#x1d4;" horiz-adv-x="1136" 
d="M897 1024h55v-1024h-55v248q-51 -113 -142 -185.5t-200 -72.5q-170 0 -282.5 112.5t-112.5 282.5v639h57v-639q0 -139 99.5 -239.5t238.5 -100.5t240.5 119t101.5 262v598zM573 1147h-34l-191 313l29 19l178 -287l180 287l31 -21z" />
    <glyph glyph-name="uni01D5" unicode="&#x1d5;" horiz-adv-x="1443" 
d="M721 0q-221 0 -376 155.5t-155 376.5v902h56v-902q0 -201 140 -339t337 -138t337 139.5t140 337.5v902h55v-902q0 -223 -156.5 -377.5t-377.5 -154.5zM912 1577q-26 0 -43 17.5t-17 43t17.5 44t43 18.5t44 -18.5t18.5 -44.5t-18.5 -43t-44.5 -17zM532.5 1577
q-24.5 0 -43 17.5t-18.5 43t18.5 44t43 18.5t43 -18.5t18.5 -44.5t-18.5 -43t-43 -17zM463 1823v43h520v-43h-520z" />
    <glyph glyph-name="uni01D6" unicode="&#x1d6;" horiz-adv-x="1136" 
d="M897 1024h55v-1024h-55v248q-51 -113 -142 -185.5t-200 -72.5q-170 0 -282.5 112.5t-112.5 282.5v639h57v-639q0 -139 99.5 -239.5t238.5 -100.5t240.5 119t101.5 262v598zM684 1250q0 26 17.5 44.5t43 18.5t44 -18.5t18.5 -44.5t-18.5 -43t-44.5 -17t-43 17t-17 43z
M303 1250q0 26 18.5 44.5t43 18.5t43 -18.5t18.5 -44.5t-18.5 -43t-43 -17t-43 17t-18.5 43zM815 1479v-43h-520v43h520z" />
    <glyph glyph-name="uni01D7" unicode="&#x1d7;" horiz-adv-x="1443" 
d="M721 0q-221 0 -376 155.5t-155 376.5v902h56v-902q0 -201 140 -339t337 -138t337 139.5t140 337.5v902h55v-902q0 -223 -156.5 -377.5t-377.5 -154.5zM912 1577q-26 0 -43 17.5t-17 43t17.5 44t43 18.5t44 -18.5t18.5 -44.5t-18.5 -43t-44.5 -17zM532.5 1577
q-24.5 0 -43 17.5t-18.5 43t18.5 44t43 18.5t43 -18.5t18.5 -44.5t-18.5 -43t-43 -17zM743 1796l-32 12l110 332l56 -20z" />
    <glyph glyph-name="uni01D8" unicode="&#x1d8;" horiz-adv-x="1136" 
d="M897 1024h55v-1024h-55v248q-51 -113 -142 -185.5t-200 -72.5q-170 0 -282.5 112.5t-112.5 282.5v639h57v-639q0 -139 99.5 -239.5t238.5 -100.5t240.5 119t101.5 262v598zM684 1250q0 26 17.5 44.5t43 18.5t44 -18.5t18.5 -44.5t-18.5 -43t-44.5 -17t-43 17t-17 43z
M364.5 1190q-24.5 0 -43 17.5t-18.5 43t18.5 44t43 18.5t43 -18.5t18.5 -44.5t-18.5 -43t-43 -17zM709 1733l-134 -324l-32 12l110 332z" />
    <glyph glyph-name="uni01D9" unicode="&#x1d9;" horiz-adv-x="1443" 
d="M721 0q-221 0 -376 155.5t-155 376.5v902h56v-902q0 -201 140 -339t337 -138t337 139.5t140 337.5v902h55v-902q0 -223 -156.5 -377.5t-377.5 -154.5zM912 1577q-26 0 -43 17.5t-17 43t17.5 44t43 18.5t44 -18.5t18.5 -44.5t-18.5 -43t-44.5 -17zM532.5 1577
q-24.5 0 -43 17.5t-18.5 43t18.5 44t43 18.5t43 -18.5t18.5 -44.5t-18.5 -43t-43 -17zM545 2107l178 -286l180 286l31 -20l-193 -311h-34l-191 313z" />
    <glyph glyph-name="uni01DA" unicode="&#x1da;" horiz-adv-x="1136" 
d="M897 1024h55v-1024h-55v248q-51 -113 -142 -185.5t-200 -72.5q-170 0 -282.5 112.5t-112.5 282.5v639h57v-639q0 -139 99.5 -239.5t238.5 -100.5t240.5 119t101.5 262v598zM684 1250q0 26 17.5 44.5t43 18.5t44 -18.5t18.5 -44.5t-18.5 -43t-44.5 -17t-43 17t-17 43z
M364.5 1190q-24.5 0 -43 17.5t-18.5 43t18.5 44t43 18.5t43 -18.5t18.5 -44.5t-18.5 -43t-43 -17zM573 1389h-34l-191 313l29 18l178 -286l180 286l31 -20z" />
    <glyph glyph-name="uni01DB" unicode="&#x1db;" horiz-adv-x="1443" 
d="M721 0q-221 0 -376 155.5t-155 376.5v902h56v-902q0 -201 140 -339t337 -138t337 139.5t140 337.5v902h55v-902q0 -223 -156.5 -377.5t-377.5 -154.5zM912 1577q-26 0 -43 17.5t-17 43t17.5 44t43 18.5t44 -18.5t18.5 -44.5t-18.5 -43t-44.5 -17zM532.5 1577
q-24.5 0 -43 17.5t-18.5 43t18.5 44t43 18.5t43 -18.5t18.5 -44.5t-18.5 -43t-43 -17zM713 1798l-131 324l53 20l113 -332z" />
    <glyph glyph-name="uni01DC" unicode="&#x1dc;" horiz-adv-x="1136" 
d="M897 1024h55v-1024h-55v248q-51 -113 -142 -185.5t-200 -72.5q-170 0 -282.5 112.5t-112.5 282.5v639h57v-639q0 -139 99.5 -239.5t238.5 -100.5t240.5 119t101.5 262v598zM744 1190q-26 0 -43 17.5t-17 43t17.5 44t43 18.5t44 -18.5t18.5 -44.5t-18.5 -43t-44.5 -17z
M364.5 1190q-24.5 0 -43 17.5t-18.5 43t18.5 44t43 18.5t43 -18.5t18.5 -44.5t-18.5 -43t-43 -17zM580 1423l-35 -12l-131 324l53 20z" />
    <glyph glyph-name="uni01DD" unicode="&#x1dd;" horiz-adv-x="1257" 
d="M633 51q172 0 301 112t153 279h-909q23 -168 153 -280t302 -111zM631 1022q213 0 363 -151t151 -363q0 -212 -151 -363q-150 -149 -360 -149t-359 144q-148 144 -156 358h973v10q0 190 -136 324t-325 135q-139 0 -255 -78t-167 -207l-49 23q57 143 186 230t285 87z" />
    <glyph glyph-name="uni01DE" unicode="&#x1de;" horiz-adv-x="1423" 
d="M356 516h711l-356 823zM1290 0l-198 459h-760l-199 -459h-63l622 1434h39l621 -1434h-62zM842 1654q0 26 17.5 44t43 18t44 -18.5t18.5 -44t-18.5 -43t-44.5 -17.5t-43 17.5t-17 43.5zM461 1654q0 26 18.5 44t43 18t43 -18.5t18.5 -44t-18.5 -43t-43 -17.5t-43 17.5
t-18.5 43.5zM973 1882v-43h-520v43h520z" />
    <glyph glyph-name="uni01DF" unicode="&#x1df;" horiz-adv-x="1046" 
d="M458.5 51q139.5 0 251 90t111.5 224v112q-154 59 -311.5 59.5t-256.5 -64t-99 -183.5v-4q0 -111 82.5 -172.5t222 -61.5zM508 1030q156 0 263.5 -103.5t107.5 -267.5v-659h-56v207q-55 -94 -157.5 -151.5t-239 -57.5t-232.5 79t-96 208v4q0 141 115 218t303.5 77
t306.5 -66v141q0 135 -92 225.5t-223 90.5q-92 0 -168 -48t-115 -128l-53 20q47 96 137 153.5t199 57.5zM649 1250q0 26 17.5 44.5t43.5 18.5t44 -18.5t18 -44.5t-18.5 -43t-44 -17t-43 17t-17.5 43zM268 1250q0 26 18.5 44.5t43 18.5t43 -18.5t18.5 -44.5t-18.5 -43
t-43 -17t-43 17t-18.5 43zM780 1479v-43h-520v43h520z" />
    <glyph glyph-name="Gcaron" unicode="&#x1e6;" horiz-adv-x="1691" 
d="M868 647h711q-33 -283 -236.5 -465t-488.5 -182t-494.5 211t-209.5 507t208.5 506t505.5 210q197 0 363 -97.5t264 -269.5l-49 -33q-80 156 -236.5 250t-341.5 94q-274 0 -466.5 -193.5t-192.5 -466.5t193.5 -468t449.5 -195t440.5 152.5t224.5 384.5h-645v55zM862 1550
h-35l-190 314l29 18l178 -287l180 287l31 -20z" />
    <glyph glyph-name="gcaron" unicode="&#x1e7;" horiz-adv-x="1284" 
d="M633 86q133 0 243.5 69.5t167.5 190.5v399q-57 119 -170.5 191t-240.5 72q-187 0 -323 -136q-136 -134 -136 -326t135.5 -326t323.5 -134zM1044 1053h56v-1084q0 -197 -133 -327.5t-324 -130.5q-131 0 -244.5 71.5t-171.5 190.5l52 22q49 -102 149 -165.5t215 -63.5
q168 0 284.5 115.5t116.5 287.5v285q-72 -100 -181 -161.5t-230 -61.5q-215 0 -364.5 149.5t-149.5 366.5t151.5 366.5t362.5 149.5q125 0 232.5 -62.5t178.5 -164.5v217zM651 1214h-35l-190 314l29 18l178 -286l180 286l31 -20z" />
    <glyph glyph-name="Oslashacute" unicode="&#x1fe;" horiz-adv-x="1695" 
d="M864 55q272 0 467 194.5t195 467.5q0 205 -115 371.5t-299 242.5l-461 -1239q100 -37 213 -37zM205 717q0 -205 113.5 -371t295.5 -242l461 1239q-100 35 -211 35q-274 0 -466.5 -193.5t-192.5 -467.5zM1581 717q0 -297 -212 -507t-505 -210q-117 0 -233 39l-29 -78
l-35 16l29 76q-199 82 -322.5 262.5t-123.5 401.5q0 297 208.5 507t505.5 210q123 0 230 -37l28 73l37 -10l-29 -78q201 -80 326 -261t125 -404zM1028 1894l-133 -323l-33 12l111 332z" />
    <glyph glyph-name="oslashacute" unicode="&#x1ff;" horiz-adv-x="1267" 
d="M635 51q190 0 324.5 135.5t136.5 325.5q2 141 -76 256t-203 168l-321 -862q72 -23 139 -23zM174 512q0 -141 79 -257t208 -169l321 864q-74 23 -145 23q-190 0 -326.5 -136.5t-136.5 -324.5zM635 -4q-84 0 -158 24l-98 -264l-35 17l96 260q-143 57 -232 188t-89 291
q0 213 151.5 364.5t364.5 151.5q82 0 166 -27l98 265l37 -11l-100 -268q141 -59 228 -188t87 -287q2 -213 -149.5 -364.5t-366.5 -151.5zM768 1495l-133 -324l-33 13l111 332z" />
    <glyph glyph-name="Scommaaccent" unicode="&#x218;" horiz-adv-x="1210" 
d="M543 -207q1 64 67 64q32 0 51 -33t19 -84q0 -123 -129 -156v25q74 14 74 82q0 31 -41 51t-41 51zM621 0q-373 0 -504 279l49 24q117 -248 455 -248q180 0 288.5 88t108.5 229.5t-109.5 212t-310.5 112.5t-323.5 128t-122.5 247t113.5 264.5t303.5 103.5q334 0 457 -271
l-47 -26q-109 242 -412 241q-164 0 -262 -88t-98 -227q0 -176 211 -264q72 -29 219 -60q436 -90 436 -374q0 -162 -123.5 -266.5t-328.5 -104.5z" />
    <glyph glyph-name="scommaaccent" unicode="&#x219;" horiz-adv-x="921" 
d="M455 -150q77 0 77 -119.5t-129 -152.5v25q74 14 74 82q0 33 -41 51t-41 50t17.5 48t42.5 16zM459 -4q-281 0 -367 221l55 16q74 -184 312 -184q127 0 201.5 59.5t74.5 157.5q0 166 -291 223q-322 61 -321 269q0 119 82 194.5t221 75.5q262 0 340 -221l-53 -14
q-66 180 -287 180q-115 0 -181.5 -59.5t-66.5 -155.5q0 -164 275 -213q170 -33 254 -99.5t84 -182.5t-90 -191.5t-242 -75.5z" />
    <glyph glyph-name="uni021A" unicode="&#x21a;" horiz-adv-x="1300" 
d="M578 -210q0 65 66 65q32 0 51.5 -33t19.5 -84q0 -123 -129 -156v25q74 14 73 82q0 33 -40.5 51t-40.5 50zM66 1434h1171v-56h-559v-1378h-55v1378h-557v56z" />
    <glyph glyph-name="uni021B" unicode="&#x21b;" horiz-adv-x="825" 
d="M473 -200q0 64 66 63q32 0 51.5 -33t19.5 -84q0 -123 -129 -156v25q74 14 74 82q0 33 -41 53t-41 50zM287 285v673h-205v56h205v291h55v-291h326v-56h-326v-673q0 -135 122 -204t228 3l37 -41q-70 -45 -149.5 -46t-144 34t-106.5 103.5t-42 150.5z" />
    <glyph glyph-name="uni0228" unicode="&#x228;" horiz-adv-x="1275" 
d="M1143 1378h-877v-633h785v-55h-785v-635h877v-55h-428q0 -20 -9 -48t-6.5 -35t23.5 -23q51 -44 51 -92t-49 -72.5t-105.5 -9t-76.5 60.5l32 20q27 -51 93.5 -48t66.5 54q0 27 -41 62q-31 23 -36 40t8 42q10 31 10 49h-465v1434h932v-56z" />
    <glyph glyph-name="uni0229" unicode="&#x229;" horiz-adv-x="1255" 
d="M631 969q-172 0 -302 -113t-153 -281h907q-23 168 -151.5 281t-300.5 113zM633 51q137 0 252.5 79t169.5 208l49 -25q-57 -139 -181 -226t-276 -91q0 -16 -9 -43.5t-6 -35t23 -23.5q51 -43 51.5 -91.5t-49 -73t-105.5 -9t-77 60.5l33 20q18 -33 57 -44t71 3.5t32 44
t-41 64.5q-31 23 -36 40t7 42q10 31 10 45q-205 10 -347 158.5t-142 359.5t150.5 360.5t359.5 149.5t356.5 -144.5t155.5 -357.5h-969v-10q0 -193 135.5 -327t325.5 -134z" />
    <glyph glyph-name="uni022A" unicode="&#x22a;" horiz-adv-x="1695" 
d="M865 55q271 0 466 194.5t195 468t-193.5 467t-468 193.5t-467 -193.5t-192.5 -468.5t194.5 -468t465.5 -193zM863 0q-294 0 -503.5 211t-209.5 507t208.5 506t505.5 210t507 -210t210 -507t-212 -507t-506 -210zM1054 1593q-26 0 -43.5 17.5t-17.5 43.5t17.5 44t43.5 18
t44 -18.5t18 -44t-18 -43t-44 -17.5zM673.5 1593q-24.5 0 -43 17.5t-18.5 43.5t18.5 44t43 18t43 -18.5t18.5 -44t-18.5 -43t-43 -17.5zM604 1839v43h520v-43h-520z" />
    <glyph glyph-name="uni022B" unicode="&#x22b;" horiz-adv-x="1267" 
d="M636 51q189 0 323.5 135.5t136.5 325.5t-133.5 325.5t-326 135.5t-326.5 -136.5t-136 -325.5t136.5 -324.5t325.5 -135.5zM635 -4q-215 0 -365.5 150.5t-150.5 364.5t151.5 365.5t364.5 151.5t364.5 -151.5t152.5 -364.5t-150.5 -364.5t-366.5 -151.5zM822 1190
q-26 0 -43 17.5t-17 43t17.5 44t43 18.5t44 -18.5t18.5 -44.5t-18.5 -43t-44.5 -17zM442.5 1190q-24.5 0 -43 17.5t-18.5 43t18.5 44t43 18.5t43 -18.5t18.5 -44.5t-18.5 -43t-43 -17zM373 1436v43h520v-43h-520z" />
    <glyph glyph-name="uni0242" unicode="&#x242;" horiz-adv-x="976" 
d="M459 0v162q-3 158 31 230t149 157q154 119 155 231t-76 171q-77 60 -210 61q-244 0 -328 -189l-53 21q92 223 383 223q156 0 249 -78t91 -198q0 -154 -176 -285q-102 -78 -131 -139t-29 -205v-162h-55z" />
    <glyph glyph-name="uni0243" unicode="&#x243;" horiz-adv-x="1331" 
d="M821 55q133 0 225.5 93.5t92.5 234.5t-102.5 223t-262.5 82h-506v-264h193v-43h-193v-326h553zM1077 1063q0 131 -93 223t-226 92h-490v-635h508q125 0 213 94.5t88 225.5zM1196 359.5q0 -140.5 -110.5 -250t-264.5 -109.5h-610v381h-272v43h272v1010h547
q158 0 267.5 -108.5t109.5 -264.5q0 -109 -56.5 -199t-150.5 -135q125 -33 196.5 -130t71.5 -237.5z" />
    <glyph glyph-name="uni0244" unicode="&#x244;" horiz-adv-x="1556" 
d="M1257 532v275h-954v-275q0 -200 140 -338t337 -138t337 138q140 139 140 338zM1501 848v-41h-188v-275q0 -224 -157 -378t-378 -154t-376 156t-154 376v275h-191v41h191v586h55v-586h954v586h56v-586h188z" />
    <glyph glyph-name="uni0245" unicode="&#x245;" horiz-adv-x="1357" 
d="M1278 0h-59l-541 1350l-539 -1350h-61l573 1434h54z" />
    <glyph glyph-name="uni024B" unicode="&#x24b;" horiz-adv-x="1257" 
d="M633 55q131 0 241 68t168 186v410q-59 119 -170 187t-239 69q-191 0 -325 -135q-134 -136 -134 -326t134 -325q135 -134 325 -134zM1329 -410q-119 0 -203 83t-84 202v346q-72 -101 -178 -161t-231 -60q-215 0 -365 153t-150 365t152 361q152 150 363 149q123 0 231 -58
t178 -161v209h58v-1143q0 -94 66 -162t163 -67q58 -1 109 28l26 -47q-61 -37 -135 -37z" />
    <glyph glyph-name="uni024C" unicode="&#x24c;" horiz-adv-x="1425" 
d="M354 739h496q133 -1 226 93t93 227t-93 226t-226 93h-496v-639zM354 684v-684h-55v684h-295v55h295v695h551q156 0 266 -111t111 -261q-1 -150 -101 -258t-245 -118l395 -686h-66l-393 684h-463z" />
    <glyph glyph-name="uni0250" unicode="&#x250;" horiz-adv-x="1081" 
d="M909 741v4q0 111 -83 173t-222 61q-139 0 -251 -90t-111 -223v-113q147 -59 308 -59t260 64t99 183zM638 1030q136 0 230 -78q96 -78 97 -207v-4q0 -141 -115 -219q-116 -78 -304 -78t-306 68v-141q0 -131 92 -223t223 -93q92 0 170 49t115 129l49 -26q-47 -97 -137 -153
t-197 -56q-155 0 -263 108t-108 265v659h56v-201q58 89 160 145t238 56z" />
    <glyph glyph-name="uni0251" unicode="&#x251;" horiz-adv-x="1277" 
d="M629 43q133 0 243.5 70.5t165.5 187.5v404q-59 117 -168.5 184t-240.5 67q-188 0 -321.5 -133t-133.5 -323.5t132.5 -323.5t322.5 -133zM1038 1016h56v-1016h-56v203q-74 -100 -181 -157.5t-228 -57.5q-213 0 -361.5 149.5t-148.5 362.5t149.5 362.5t360.5 149.5
q248 0 409 -217v221z" />
    <glyph glyph-name="uni0252" unicode="&#x252;" horiz-adv-x="1327" 
d="M649 43q190 0 322.5 133t132.5 323.5t-133 323.5t-322 133q-131 0 -240.5 -67.5t-168.5 -183.5v-404q55 -117 165.5 -187.5t243.5 -70.5zM649 1012q211 0 360.5 -149.5t149.5 -362.5t-148.5 -362.5t-361.5 -149.5q-121 0 -228.5 57t-180.5 158v-203h-56v1016h56v-221
q161 217 409 217z" />
    <glyph glyph-name="uni0253" unicode="&#x253;" horiz-adv-x="1277" 
d="M649 43q190 0 323 133q132 134 132 324t-133 323t-322 133q-131 0 -241 -68t-168 -183v-404q52 -117 164 -187t245 -71zM649 1012q211 0 361 -150t150 -362t-149 -363q-148 -150 -362 -149q-121 0 -229 58t-180 159v-205h-56v1331q0 72 39 129t96 84t126 20t126 -55
l-39 -41q-86 76 -189 27t-103 -164v-536q161 217 409 217z" />
    <glyph glyph-name="uni0254" unicode="&#x254;" horiz-adv-x="1198" 
d="M565 -4q-139 0 -259 71t-187 193l51 23q60 -107 166 -169t229 -63q190 0 326 134q135 133 135 323t-136 324t-325 135q-123 -1 -231 -63t-162 -165l-53 21q71 122 189 192t257 70q213 0 365 -151t152 -363t-151 -362t-366 -150z" />
    <glyph glyph-name="uni0256" unicode="&#x256;" horiz-adv-x="1271" 
d="M629 43q133 0 243 71t166 187v404q-59 117 -169 185t-240 66q-187 0 -321 -133t-134 -323t132 -324q133 -133 323 -133zM1038 -170v379q-72 -101 -180 -161t-229 -60q-213 0 -362 149q-148 150 -148 363q-1 212 149 362t361 150q252 0 409 -221v643h56v-1604
q0 -74 50 -125t114 -53t128 43l39 -43q-57 -47 -126 -54q-140 -14 -222 103q-39 57 -39 129z" />
    <glyph glyph-name="uni0257" unicode="&#x257;" horiz-adv-x="1273" 
d="M629 43q133 0 243 71t166 187v404q-59 117 -169 185t-240 66q-187 0 -321 -133t-134 -323t132 -324q133 -133 323 -133zM1038 1331q0 72 39 129q81 119 222 104q69 -7 126 -55l-39 -41q-86 76 -189 27t-103 -164v-1331h-56v203q-74 -99 -182 -157t-227 -58
q-213 0 -362 149q-148 150 -148 363q-1 212 149 362t361 150q248 0 409 -217v536z" />
    <glyph glyph-name="uni0258" unicode="&#x258;" horiz-adv-x="1255" 
d="M629 967q-172 0 -300 -112t-151 -280h905q-25 168 -153 280q-129 112 -301 112zM632 1022q210 0 360 -150t151 -362q0 -212 -151 -364q-151 -151 -363 -150q-156 0 -286 87t-187 230l51 23q53 -129 168 -207t254 -78q190 0 324 134t134 325v10h-968q8 213 155 358
q148 144 358 144z" />
    <glyph glyph-name="uni0259" unicode="&#x259;" horiz-adv-x="1255" 
d="M629 51q172 0 301 112t153 279h-905q23 -168 151 -280t300 -111zM629 1022q213 0 363 -151t151 -363q0 -212 -151 -363q-150 -149 -360 -149t-358 144q-147 144 -155 358h968v10q0 190 -134 324t-324 135q-139 0 -254 -78t-168 -207l-51 23q57 143 187 230t286 87z" />
    <glyph glyph-name="uni0260" unicode="&#x260;" horiz-adv-x="1239" 
d="M633 86q133 0 244 71t167 191v397q-57 119 -171 191t-240 72q-187 0 -323 -136t-136 -326q0 -192 136 -326t323 -134zM1044 1049q0 72 39 129q81 119 222 103q70 -7 127 -54l-39 -43q-61 45 -127 43t-116 -53t-50 -125v-1104q0 -197 -132 -328t-323 -131q-135 0 -249 72
t-169 190l52 23q49 -105 148 -167t218 -63q166 0 283 116t116 288v309q-72 -102 -182 -162t-233 -61q-211 1 -361 151t-149 365q-1 215 151 365t361 151q256 0 413 -227v213z" />
    <glyph glyph-name="uni0261" unicode="&#x261;" horiz-adv-x="1212" 
d="M530 53q123 1 243 59t200 162v621q-92 72 -215 72q-186 0 -354 -134q-168 -135 -216 -325t54 -322t288 -133zM973 1053h55v-1082q0 -190 -133 -324t-324 -134q-133 -1 -245 71t-170 191l51 22q49 -105 149 -167t215 -62q166 0 284 118t118 285v244q-199 -209 -459 -215
q-211 0 -323 151q-111 151 -57 365t240 360t400 142q111 -2 199 -55v90z" />
    <glyph glyph-name="uni0265" unicode="&#x265;" horiz-adv-x="1140" 
d="M922 1010h55v-1450h-55v676q-48 -111 -140 -183t-202 -71q-164 0 -280 114t-116 281v633h56v-633q0 -139 100 -239t242 -101q142 0 240 120q99 120 100 269v584z" />
    <glyph glyph-name="uni0266" unicode="&#x266;" horiz-adv-x="1140" 
d="M977 633v-633h-55v633q0 141 -100 239t-244 98q-142 0 -240 -116q-98 -117 -98 -264v-590h-56v1303q0 119 84 203t199 83q70 0 139 -37l-26 -47q-51 27 -109 27q-96 0 -164 -67t-67 -162v-533q51 112 144 184q92 72 228 72t250 -112t115 -281z" />
    <glyph glyph-name="uni0267" unicode="&#x267;" horiz-adv-x="1140" 
d="M977 633v-758q0 -117 -83 -201t-200 -84q-76 0 -139 37l27 47q53 -29 108 -28q96 0 164 68t68 161v758q0 141 -100 239t-244 98q-142 0 -240 -116q-98 -117 -98 -264v-590h-56v1303q0 119 84 203t199 83q70 0 139 -37l-26 -47q-51 27 -109 27q-96 0 -164 -67t-67 -162
v-533q51 112 144 184q92 72 228 72t250 -112t115 -281z" />
    <glyph glyph-name="uni0268" unicode="&#x268;" horiz-adv-x="423" 
d="M481 514v-43h-241v-471h-56v471h-225v43h225v510h56v-510h241zM213 1190q-25 0 -43 18q-18 16 -18 42t18 44.5t43 18.5t43 -18.5t18 -44.5t-18 -43t-43 -17z" />
    <glyph glyph-name="uni0269" unicode="&#x269;" horiz-adv-x="645" 
d="M444 -2q-120 0 -202 84t-82 201v800h55v-800q0 -94 67 -162t162 -68q57 0 109 29l27 -47q-62 -37 -136 -37z" />
    <glyph glyph-name="uni026B" unicode="&#x26b;" horiz-adv-x="774" 
d="M362 1513h56v-684q57 -49 97 -48q63 2 132 96l6 10l43 -29q-24 -39 -72 -83t-102 -44t-104 35v-766h-56v807q-36 29 -62 41q-69 33 -148 -57l-29 -39l-45 24q139 201 284 94v643z" />
    <glyph glyph-name="uni026D" unicode="&#x26d;" horiz-adv-x="415" 
d="M469 -410q-117 0 -201 83t-84 202v1702h56v-1702q0 -94 68 -162t161 -67q57 0 111 28l26 -47q-65 -37 -137 -37z" />
    <glyph glyph-name="uni026F" unicode="&#x26f;" horiz-adv-x="1812" 
d="M1610 997h51v-997h-51v221q-52 -109 -146 -179t-215 -71q-121 0 -224 80t-138 207q-45 -123 -141 -205t-234 -82t-250 114t-112 280v632h51v-632q0 -143 98 -243t237 -99q139 0 238 117q98 118 98 266v591h50v-632q0 -143 101 -243t245 -99t242 117t100 266v591z" />
    <glyph glyph-name="uni0270" unicode="&#x270;" horiz-adv-x="1812" 
d="M1610 997h51v-1417h-51v641q-52 -109 -146 -179t-215 -71q-121 0 -224 80t-138 207q-45 -123 -141 -205t-234 -82t-250 114t-112 280v632h51v-632q0 -143 98 -243t237 -99q139 0 238 117q98 118 98 266v591h50v-632q0 -143 101 -243t245 -99t242 117t100 266v591z" />
    <glyph glyph-name="uni0271" unicode="&#x271;" horiz-adv-x="1812" 
d="M1300 1026q136 0 248 -114t113 -279v-842q0 -96 -66 -164q-65 -69 -151 -71t-168 57l37 43q63 -45 128 -43t115 53t50 125v842q0 143 -98 240t-235 97q-139 0 -235 -116q-96 -117 -96 -262v-592h-55v633q1 143 -99 240t-242 97t-241 -115q-98 -116 -98 -263v-592h-57v999
h57v-217q55 106 146 175t211 69t222 -78t140 -203q49 121 144 201q94 80 230 80z" />
    <glyph glyph-name="uni0272" unicode="&#x272;" horiz-adv-x="1120" 
d="M971 633v-633h-58v633q0 141 -100 239t-241 98q-142 0 -240 -116q-98 -117 -99 -264v-715q1 -119 -83 -202t-201 -83q-72 0 -137 37l26 47q53 -29 109 -28q96 0 164 68t67 161v1141h55v-246q51 112 145 184t228 72q136 0 250 -112t115 -281z" />
    <glyph glyph-name="uni0273" unicode="&#x273;" horiz-adv-x="1116" 
d="M1169 -410q-117 0 -199 84t-83 201v758q-1 141 -101 239t-241 98t-239 -116q-98 -117 -99 -264v-590h-57v1016h57v-246q51 112 143 184t211 72q153 0 267 -112t114 -281v-758q0 -94 68 -162t164 -67q55 -1 108 28l27 -47q-63 -37 -140 -37z" />
    <glyph glyph-name="uni0278" unicode="&#x278;" horiz-adv-x="2142" 
d="M1509 59q193 1 326 135t133 324t-134 324t-325 135q-129 0 -239 -69t-170 -187v-410q58 -117 168 -185t241 -67zM633 59q131 0 241 68t168 184v410q-59 119 -170 187t-239 69q-191 0 -325 -134q-134 -135 -134 -325t133 -324t326 -135zM1509 1032q211 0 363 -150
t152 -362t-150 -364t-365 -152q-125 0 -231 59t-178 162v-727h-58v727q-72 -101 -178 -161t-231 -60q-215 0 -365 152t-150 364t152 363q152 150 363 149q123 0 231 -59t178 -162v623h58v-623q72 101 179 161t230 60z" />
    <glyph glyph-name="uni0279" unicode="&#x279;" horiz-adv-x="768" 
d="M526 1024h58v-1016h-58v217q-94 -167 -263 -213q-122 -33 -238 21l26 51q95 -44 199 -22t176 108q100 119 100 262v592z" />
    <glyph glyph-name="uni027A" unicode="&#x27a;" horiz-adv-x="768" 
d="M526 1475h58v-1467h-58v217q-94 -167 -263 -213q-122 -33 -238 21l26 51q95 -44 199 -22t176 108q100 119 100 262v1043z" />
    <glyph glyph-name="uni027B" unicode="&#x27b;" horiz-adv-x="712" 
d="M526 -223v448q-94 -167 -263 -213q-122 -33 -238 21l26 51q95 -44 199 -22t176 108q100 119 100 262v592h58v-1247q0 -74 50 -125t115 -53t128 43l36 -43q-82 -59 -168 -57q-87 2 -153 71q-66 68 -66 164z" />
    <glyph glyph-name="uni027D" unicode="&#x27d;" horiz-adv-x="778" 
d="M242 592v-793q0 -74 50 -125t115 -53t128 43l38 -43q-57 -47 -127 -54t-127 19t-96 84q-39 57 -39 129v1217h58v-217q93 167 262 213q121 33 239 -21l-28 -51q-93 46 -197 24t-178 -110q-98 -121 -98 -262z" />
    <glyph glyph-name="uni027E" unicode="&#x27e;" horiz-adv-x="606" 
d="M184 0v750q0 98 66 166t152 70q86 3 169 -58l-39 -41q-86 77 -189 27t-103 -164v-750h-56z" />
    <glyph glyph-name="uni0283" unicode="&#x283;" horiz-adv-x="647" 
d="M295 1319q0 96 66 164q67 69 153 71t168 -57l-37 -43q-63 45 -129 43t-116 -53t-50 -125v-1487q0 -74 -39 -131q-82 -119 -222 -103q-69 7 -126 54l39 43q88 -76 191 -27q102 49 102 164v1487z" />
    <glyph glyph-name="uni0284" unicode="&#x284;" horiz-adv-x="899" 
d="M588 1350q29 127 151 170q123 43 219 -35l-34 -47q-72 63 -166 31t-117 -130l-283 -1263l289 -15l-137 -12l-156 8l-41 -184q-27 -127 -149 -170t-221 35l32 49q70 -66 166 -35t119 131l39 178l-272 15l139 10l137 -6l127 571h2z" />
    <glyph glyph-name="uni0288" unicode="&#x288;" horiz-adv-x="825" 
d="M287 -152v1110h-205v56h205v291h55v-291h326v-56h-326v-1110q0 -135 122 -203.5t228 3.5l37 -41q-70 -45 -149.5 -46t-144 33.5t-106.5 103.5t-42 150z" />
    <glyph glyph-name="uni0289" unicode="&#x289;" horiz-adv-x="1257" 
d="M969 426v176h-682v-217q0 -139 100 -239q99 -100 239 -101q140 0 242 119t101 262zM1165 643v-41h-141v-602h-55v254q-49 -117 -141 -191t-201 -73q-164 0 -280 116t-116 279v217h-139v41h139v381h56v-381h682v381h55v-381h141z" />
    <glyph glyph-name="uni028A" unicode="&#x28a;" horiz-adv-x="1378" 
d="M1260 983v-55h-242q186 -154 186 -382t-150 -378t-363 -150q-211 0 -363 151t-152 378t186 381h-243v53h342v-53q-101 -55 -165 -163t-65 -233q-1 -188 135 -323t325 -135t324 134q134 134 134 324q1 124 -61 230t-170 166v55h342z" />
    <glyph glyph-name="uni028C" unicode="&#x28c;" horiz-adv-x="1026" 
d="M487 1024h48l413 -1024h-59l-377 938l-375 -938h-59z" />
    <glyph glyph-name="uni028D" unicode="&#x28d;" horiz-adv-x="1454" 
d="M391 1024h45l289 -795l293 795h43l299 -1024h-55l-273 926l-287 -797h-38l-289 797l-266 -926h-56z" />
    <glyph glyph-name="uni028E" unicode="&#x28e;" horiz-adv-x="1138" 
d="M818 1470q76 0 139 -32q62 -32 98 -84l-41 -35q-92 111 -222 93t-178 -144l-94 -252l527 -1016h-62l-491 946l-355 -946h-59l483 1286q31 82 105 133t150 51z" />
    <glyph glyph-name="uni0292" unicode="&#x292;" horiz-adv-x="1282" 
d="M1151 1024v-45l-418 -582q164 -23 274 -135q109 -112 109 -274t-134 -280t-319 -118t-319 118q-133 118 -133 286h57q0 -144 117 -246t280 -102t279 103t115 247q0 144 -116 246t-279 102v57l405 568h-731v55h813z" />
    <glyph glyph-name="uni0294" unicode="&#x294;" horiz-adv-x="978" 
d="M449 0v541q-3 157 31 229t149 160q154 117 155 241q0 100 -76 161q-77 60 -210 61q-244 0 -328 -189l-53 19q92 225 383 225q156 0 249 -78t91 -199q0 -154 -176 -284q-102 -79 -132 -141t-28 -205v-541h-55z" />
    <glyph glyph-name="uni0295" unicode="&#x295;" horiz-adv-x="976" 
d="M518 0h-55v541q0 143 -29 203t-131 141q-176 139 -176 286q0 121 92 199t248 78q295 0 383 -225l-53 -19q-84 188 -328 189q-131 1 -209 -61t-77 -173t155 -229q114 -88 148 -160t32 -229v-541z" />
    <glyph glyph-name="uni0298" unicode="&#x298;" horiz-adv-x="1449" 
d="M748 545q-66 0 -113 46q-47 45 -47 111t47 113t113 47t112 -47t45 -113q1 -66 -45 -112t-112 -45zM743 55q229 0 383 198t154 465t-155 464q-155 196 -384 196t-383 -198t-154 -464q0 -267 156 -464q154 -197 383 -197zM742 0q-252 0 -422 214t-170 504t172 503t421 213
q165 0 303 -102t214 -265q76 -164 75 -350q0 -291 -171 -504t-422 -213z" />
    <glyph glyph-name="uni02A7" unicode="&#x2a7;" horiz-adv-x="1091" 
d="M342 958v-669q0 -100 75 -168t167 -62l200 899h-442zM287 289v669h-205v56h205v291h55v-291h453l75 336q29 127 154 170t219 -35l-35 -47q-70 61 -165 31t-117 -130l-328 -1466q-27 -127 -150 -170t-221 35l33 49q70 -66 166 -35t119 131l26 115q-115 4 -199 86t-85 205z
" />
    <glyph glyph-name="uni02BC" unicode="&#x2bc;" horiz-adv-x="419" 
d="M162 1022l-35 12l111 332l57 -20z" />
    <glyph glyph-name="circumflex" unicode="&#x2c6;" horiz-adv-x="827" 
d="M207 1208l190 312h35l193 -312l-31 -18l-180 285l-178 -287z" />
    <glyph glyph-name="caron" unicode="&#x2c7;" horiz-adv-x="827" 
d="M236 1554l178 -286l180 286l31 -20l-193 -311h-35l-190 313z" />
    <glyph glyph-name="breve" unicode="&#x2d8;" horiz-adv-x="806" 
d="M403.5 1225q-90.5 0 -167 61.5t-111.5 165.5l41 14q29 -88 94.5 -143t143 -55t142 54t93.5 142l45 -12q-37 -104 -113.5 -165.5t-167 -61.5z" />
    <glyph glyph-name="dotaccent" unicode="&#x2d9;" horiz-adv-x="368" 
d="M108.5 1266q-24.5 0 -43 17t-18.5 43t18.5 44.5t43 18.5t43 -18.5t18.5 -44.5t-18.5 -43t-43 -17z" />
    <glyph glyph-name="ring" unicode="&#x2da;" horiz-adv-x="591" 
d="M295 1219q55 0 94 38.5t39 95t-39 95.5t-93 39t-93 -39t-39 -95t38 -95t93 -39zM296 1184q-69 0 -119 49t-50 120t49 120t119 49t120 -50.5t50 -120t-50 -118.5t-119 -49z" />
    <glyph glyph-name="ogonek" unicode="&#x2db;" horiz-adv-x="581" 
d="M168 4q-4 -204 140 -204q72 0 112 75l39 -20q-47 -101 -160 -101q-86 0 -131 67t-41 183h41z" />
    <glyph glyph-name="tilde" unicode="&#x2dc;" horiz-adv-x="927" 
d="M350 1405q53 0 141.5 -57.5t135.5 -56.5t108 73l39 -23q-63 -96 -147 -96q-53 0 -141.5 57.5t-133.5 57.5q-72 0 -137 -98l-39 24q76 119 174 119z" />
    <glyph glyph-name="hungarumlaut" unicode="&#x2dd;" horiz-adv-x="581" 
d="M326 1241l-37 12l112 332l56 -20zM158 1241l-35 12l110 332l58 -20z" />
    <glyph glyph-name="gravecomb" unicode="&#x300;" 
d="M-199 1245l-131 324l54 20l112 -332z" />
    <glyph glyph-name="acutecomb" unicode="&#x301;" 
d="M-252 1225l-33 12l111 332l55 -21z" />
    <glyph glyph-name="uni0302" unicode="&#x302;" 
d="M-621 1208l191 312h35l192 -312l-30 -18l-181 285l-178 -287z" />
    <glyph glyph-name="tildecomb" unicode="&#x303;" 
d="M-582 1405q53 0 141.5 -57.5t135.5 -56.5t108 73l39 -23q-63 -96 -147 -96q-53 0 -141.5 57.5t-133.5 57.5q-72 0 -137 -98l-39 24q76 119 174 119z" />
    <glyph glyph-name="uni0304" unicode="&#x304;" 
d="M-647 1255v43h520v-43h-520z" />
    <glyph glyph-name="uni0306" unicode="&#x306;" 
d="M-403.5 1225q-90.5 0 -167 61.5t-111.5 165.5l41 14q29 -88 94.5 -143t143 -55t142 54t93.5 142l45 -12q-37 -104 -113.5 -165.5t-167 -61.5z" />
    <glyph glyph-name="uni0307" unicode="&#x307;" 
d="M-153.5 1266q-24.5 0 -43 17t-18.5 43t18.5 44.5t43 18.5t43 -18.5t18.5 -44.5t-18.5 -43t-43 -17z" />
    <glyph glyph-name="uni0308" unicode="&#x308;" 
d="M-144 1266q-26 0 -43.5 17t-17.5 43t17.5 44.5t43.5 18.5t44 -18.5t18 -44.5t-18 -43t-44 -17zM-524.5 1266q-24.5 0 -43 17t-18.5 43t18.5 44.5t43 18.5t43 -18.5t18.5 -44.5t-18.5 -43t-43 -17z" />
    <glyph glyph-name="hookabovecomb" unicode="&#x309;" 
d="M-147 1415q66 -135 -95 -231l-20 35q123 78 78 178q-37 66 -119 76v38q99 4 156 -96z" />
    <glyph glyph-name="uni030A" unicode="&#x30a;" 
d="M-301 1219q55 0 94 38.5t39 95t-39 95.5t-93 39t-93 -39t-39 -95t38 -95t93 -39zM-300 1184q-69 0 -119 49t-50 120t49 120t120 49t120 -50.5t49 -120t-50 -118.5t-119 -49z" />
    <glyph glyph-name="uni030B" unicode="&#x30b;" 
d="M-258 1241l-37 12l113 332l55 -20zM-426 1241l-35 12l111 332l57 -20z" />
    <glyph glyph-name="uni030C" unicode="&#x30c;" 
d="M-592 1554l178 -286l181 286l30 -20l-192 -311h-35l-191 313z" />
    <glyph glyph-name="uni0312" unicode="&#x312;" 
d="M-207 1346q0 -27 20.5 -39.5t41 -25.5t20.5 -41t-17.5 -45t-48 -17t-51 33.5t-20.5 82.5q0 127 129 156v-25q-74 -14 -74 -79z" />
    <glyph glyph-name="uni031B" unicode="&#x31b;" 
d="M-373 1022l17 20q59 -45 108 7q22 20 6 63q-16 42 6 64t47 21t42 -17q55 -49 -25 -138q-90 -86 -201 -20z" />
    <glyph glyph-name="dotbelowcomb" unicode="&#x323;" 
d="M-187 -254q-26 0 -43.5 17.5t-17.5 43t17.5 43t43.5 17.5t44 -17.5t18 -43.5t-18 -43t-44 -17z" />
    <glyph glyph-name="uni0326" unicode="&#x326;" 
d="M-264 -197q0 64 66 64q32 0 51.5 -33t19.5 -84q0 -123 -129 -156v25q74 14 74 82q0 33 -41 51.5t-41 50.5z" />
    <glyph glyph-name="uni0327" unicode="&#x327;" 
d="M-156 -195.5q0 29.5 -41 64.5q-31 23 -36 40t8 42q10 31 10 49h39q0 -20 -9 -47.5t-6 -35t23 -23.5q51 -43 51 -91.5t-49 -73t-105.5 -9t-76.5 60.5l33 20q18 -33 57 -44t70.5 3.5t31.5 44z" />
    <glyph glyph-name="uni0328" unicode="&#x328;" 
d="M-412 4q-4 -205 140 -205q72 0 112 76l39 -20q-47 -101 -160 -101q-86 0 -131 66.5t-41 183.5h41z" />
    <glyph glyph-name="uni0331" unicode="&#x331;" 
d="M-643 -195v43h518v-43h-518z" />
    <glyph glyph-name="uni0335" unicode="&#x335;" 
d="M-649 471v43h522v-43h-522z" />
    <glyph glyph-name="uni0336" unicode="&#x336;" 
d="M-725 471v43h600v-43h-600z" />
    <glyph glyph-name="uni0337" unicode="&#x337;" 
d="M-610 397l-29 23l481 680l31 -21z" />
    <glyph glyph-name="uni0338" unicode="&#x338;" 
d="M-684 -29l-35 17l555 1493l37 -11z" />
    <glyph glyph-name="beta" unicode="&#x3b2;" horiz-adv-x="1228" 
d="M725 55q131 0 224 93q93 94 93 222t-92 226q-55 56 -113 74t-173 18h-136v55h152q125 -1 214 95t89 226t-93 222t-226 92h-252q-72 0 -126 -51t-55 -129v-1143h494zM1100 372q0 -152 -111 -262t-264 -110h-494v-410h-55v1608q0 100 71 168t165 68h252q156 0 266 -110
t108 -261q0 -113 -63 -205t-166 -131q110 -18 180 -92q111 -111 111 -263z" />
    <glyph glyph-name="theta" unicode="&#x3b8;" horiz-adv-x="1449" 
d="M743 55q225 1 378 191t159 450h-1075q5 -262 159 -452t379 -189zM742 1378q-224 0 -378 -191t-159 -452h1075q-6 263 -160 453t-378 190zM743 1434q165 0 303 -102t214 -265q76 -164 75 -350q0 -291 -171 -504t-422 -213q-252 0 -422 214t-170 504t172 503t421 213z" />
    <glyph glyph-name="uni1E04" unicode="&#x1e04;" horiz-adv-x="1331" 
d="M669 -145q26 0 44 -17.5t18 -43.5t-18.5 -43t-44 -17t-43 17.5t-17.5 43t17.5 43t43.5 17.5zM821 55q133 0 225.5 93.5t92.5 234.5t-102.5 223t-262.5 82h-506v-633h553zM1077 1063q0 131 -93 223t-226 92h-490v-635h508q125 0 213 94.5t88 225.5zM1196 359.5
q0 -140.5 -110.5 -250t-264.5 -109.5h-610v1434h547q158 0 267.5 -108.5t109.5 -264.5q0 -109 -56.5 -199t-150.5 -135q125 -33 196.5 -130t71.5 -237.5z" />
    <glyph glyph-name="uni1E05" unicode="&#x1e05;" horiz-adv-x="1277" 
d="M648 -145q26 0 44.5 -17.5t18.5 -43.5t-18.5 -43t-44.5 -17t-43 17.5t-17 43t17 43t43 17.5zM649 43q190 0 322.5 133t132.5 323.5t-133 323.5t-322 133q-131 0 -240.5 -67.5t-168.5 -183.5v-404q53 -117 164.5 -187.5t244.5 -70.5zM649 1012q211 0 360.5 -149.5
t149.5 -362.5t-148.5 -362.5t-361.5 -149.5q-123 0 -230.5 59t-178.5 162v-209h-56v1511h56v-720q157 221 409 221z" />
    <glyph glyph-name="uni1E0C" unicode="&#x1e0c;" horiz-adv-x="1462" 
d="M656 -145q26 0 44.5 -17.5t18.5 -43.5t-18.5 -43t-44.5 -17t-43 17.5t-17 43t17 43t43 17.5zM631 55q274 0 467.5 193.5t193.5 469t-194.5 468t-466.5 192.5h-365v-1323h365zM631 1434q297 0 507 -210t210 -507t-210 -507t-507 -210h-420v1434h420z" />
    <glyph glyph-name="uni1E0D" unicode="&#x1e0d;" horiz-adv-x="1277" 
d="M638 -145q26 0 44 -17.5t18 -43.5t-18 -43t-44 -17t-43 17.5t-17 43t17 43t43 17.5zM629 43q133 0 243.5 70.5t165.5 187.5v404q-59 117 -168.5 184t-240.5 67q-188 0 -321.5 -133t-133.5 -323.5t132.5 -323.5t322.5 -133zM1038 1434h56v-1434h-56v209
q-72 -102 -179 -161.5t-230 -59.5q-213 0 -361.5 149.5t-148.5 362.5t149.5 362.5t360.5 149.5q252 0 409 -221v643z" />
    <glyph glyph-name="uni1E0E" unicode="&#x1e0e;" horiz-adv-x="1462" 
d="M403 -195v43h519v-43h-519zM631 55q274 0 467.5 193.5t193.5 469.5t-194.5 468t-466.5 192h-365v-1323h365zM631 1434q297 0 507 -210t210 -507t-210 -507t-507 -210h-420v1434h420z" />
    <glyph glyph-name="uni1E0F" unicode="&#x1e0f;" horiz-adv-x="1277" 
d="M385 -195v43h518v-43h-518zM629 43q133 0 243.5 70.5t165.5 187.5v404q-59 117 -168.5 184t-240.5 67q-188 0 -321.5 -133t-133.5 -323.5t132.5 -323.5t322.5 -133zM1038 1434h56v-1434h-56v209q-72 -102 -179 -161.5t-230 -59.5q-213 0 -361.5 149.5t-148.5 362.5
t149.5 362.5t360.5 149.5q252 0 409 -221v643z" />
    <glyph glyph-name="uni1E12" unicode="&#x1e12;" horiz-adv-x="1462" 
d="M465 -406l-31 19l193 313h32l195 -311l-33 -21l-178 287zM266 55h365q274 0 468 194q193 194 193 469t-194 468q-195 193 -467 192h-365v-1323zM211 0v1434h420q297 0 507 -210t210 -507t-210 -507t-507 -210h-420z" />
    <glyph glyph-name="uni1E13" unicode="&#x1e13;" horiz-adv-x="1277" 
d="M629 -74h33l194 -311l-33 -21l-178 287l-178 -287l-31 19zM629 43q133 0 243 71t166 187v404q-59 117 -169 185t-240 66q-187 0 -321 -133t-134 -323t132 -324q133 -133 323 -133zM1038 1511h56v-1511h-56v203q-74 -99 -182 -157t-227 -58q-213 0 -362 149
q-148 150 -148 363q-1 212 149 362t361 150q248 0 409 -217v716z" />
    <glyph glyph-name="uni1E24" unicode="&#x1e24;" horiz-adv-x="1431" 
d="M714 -145q26 0 44 -17.5t18 -43.5t-18.5 -43t-44 -17t-43 17.5t-17.5 43t17.5 43t43.5 17.5zM1165 1434h56v-1434h-56v690h-897v-690h-57v1434h57v-689h897v689z" />
    <glyph glyph-name="uni1E25" unicode="&#x1e25;" horiz-adv-x="1140" 
d="M556 -145q26 0 44 -17.5t18 -43.5t-18 -43t-44 -17t-43 17.5t-17 43t17 43t43 17.5zM582 1026q164 0 279.5 -113.5t115.5 -281.5v-631h-55v631q0 139 -100.5 239.5t-241.5 100.5t-240.5 -120t-99.5 -269v-582h-56v1434h56v-660q51 111 141 181.5t201 70.5z" />
    <glyph glyph-name="uni1E2E" unicode="&#x1e2e;" horiz-adv-x="483" 
d="M213 0v1434h57v-1434h-57zM433 1593q-26 0 -43 17.5t-17 43.5t17.5 44t43 18t44 -18.5t18.5 -44t-18.5 -43t-44.5 -17.5zM53.5 1593q-24.5 0 -43 17.5t-18.5 43.5t18.5 44t43 18t43 -18.5t18.5 -44t-18.5 -43t-43 -17.5zM264 1812l-33 13l111 332l55 -21z" />
    <glyph glyph-name="uni1E2F" unicode="&#x1e2f;" horiz-adv-x="423" 
d="M240 1024v-1024h-56v1024h56zM402 1190q-26 0 -43 17.5t-17 43t17.5 44t43 18.5t44 -18.5t18.5 -44.5t-18.5 -43t-44.5 -17zM22.5 1190q-24.5 0 -43 17.5t-18.5 43t18.5 44t43 18.5t43 -18.5t18.5 -44.5t-18.5 -43t-43 -17zM233 1409l-32 12l110 332l56 -20z" />
    <glyph glyph-name="uni1E36" unicode="&#x1e36;" horiz-adv-x="1214" 
d="M687 -145q26 0 44.5 -17.5t18.5 -43.5t-18.5 -43t-44.5 -17t-43 17.5t-17 43t17 43t43 17.5zM266 55h883v-55h-938v1434h55v-1379z" />
    <glyph glyph-name="uni1E37" unicode="&#x1e37;" horiz-adv-x="423" 
d="M204 -266q-26 0 -43.5 17.5t-17.5 43t17.5 43t43.5 17.5t44 -17.5t18 -43.5t-18 -43t-44 -17zM240 1434v-1434h-56v1434h56z" />
    <glyph glyph-name="uni1E3C" unicode="&#x1e3c;" horiz-adv-x="1214" 
d="M637 -74h33l194 -311l-33 -21l-178 287l-178 -287l-31 19zM266 55h883v-55h-938v1434h55v-1379z" />
    <glyph glyph-name="uni1E3D" unicode="&#x1e3d;" horiz-adv-x="468" 
d="M27 -387l190 313h35l192 -311l-30 -21l-181 287l-178 -287zM262 1434v-1434h-55v1434h55z" />
    <glyph glyph-name="uni1E3E" unicode="&#x1e3e;" horiz-adv-x="1841" 
d="M1630 1434v-1434h-55v1311l-637 -1108h-35l-637 1112v-1315h-55v1434h51l660 -1151l659 1151h49zM1073 1825l-133 -324l-33 12l111 332z" />
    <glyph glyph-name="uni1E3F" unicode="&#x1e3f;" horiz-adv-x="1812" 
d="M1300.5 1026q137.5 0 249 -111.5t111.5 -281.5v-633h-55v633q0 143 -97.5 240.5t-235.5 97.5t-234.5 -117t-96.5 -262v-592h-55v633q0 143 -99.5 240.5t-242 97.5t-240.5 -116t-98 -263v-592h-57v999h57v-231q51 115 143 186.5t215 71.5t227.5 -81t137.5 -210
q45 125 139 208t231.5 83zM1067 1491l-133 -324l-33 13l111 331z" />
    <glyph glyph-name="uni1E44" unicode="&#x1e44;" horiz-adv-x="1476" 
d="M1210 1434h58v-1434h-47l-955 1331v-1331h-55v1434h51l948 -1323v1323zM740 1524q-26 0 -44 18q-18 16 -18 42t18.5 44.5t43 18.5t43 -18.5t18.5 -44.5t-18.5 -43t-42.5 -17z" />
    <glyph glyph-name="uni1E45" unicode="&#x1e45;" horiz-adv-x="1093" 
d="M557 1026q156 0 270.5 -111.5t114.5 -281.5v-633h-55v633q0 143 -100.5 240.5t-241.5 97.5t-239.5 -118t-98.5 -263v-590h-57v1016h57v-246q51 113 142 184.5t208 71.5zM546.5 1190q-24.5 0 -42.5 18q-18 16 -18.5 42t18 44.5t43 18.5t43 -18.5t18.5 -44.5t-18.5 -43
t-43 -17z" />
    <glyph glyph-name="uni1E46" unicode="&#x1e46;" horiz-adv-x="1476" 
d="M742 -145q26 0 44.5 -17.5t18.5 -43.5t-18.5 -43t-44.5 -17t-43 17.5t-17 43t17 43t43 17.5zM1210 1434h58v-1434h-47l-955 1331v-1331h-55v1434h51l948 -1323v1323z" />
    <glyph glyph-name="uni1E47" unicode="&#x1e47;" horiz-adv-x="1093" 
d="M548 -145q26 0 44 -17.5t18 -43.5t-18.5 -43t-44 -17t-43 17.5t-17.5 43t17.5 43t43.5 17.5zM557 1026q156 0 270.5 -111.5t114.5 -281.5v-633h-55v633q0 143 -100.5 240.5t-241.5 97.5t-239.5 -118t-98.5 -263v-590h-57v1016h57v-246q51 113 142 184.5t208 71.5z" />
    <glyph glyph-name="uni1E4A" unicode="&#x1e4a;" horiz-adv-x="1476" 
d="M702 -74h33l195 -311l-33 -21l-178 287l-178 -287l-31 19zM1210 1434h58v-1434h-47l-955 1331v-1331h-55v1434h51l948 -1323v1323z" />
    <glyph glyph-name="uni1E4B" unicode="&#x1e4b;" horiz-adv-x="1093" 
d="M532 -74h33l195 -311l-31 -21l-180 287l-178 -287l-31 19zM547 1026q163 0 279 -113t116 -280v-633h-55v633q1 143 -99 240t-242 97t-240 -117q-98 -118 -99 -263v-590h-57v1016h57v-234q53 106 144 175q92 69 196 69z" />
    <glyph glyph-name="uni1E4C" unicode="&#x1e4c;" horiz-adv-x="1695" 
d="M865 55q271 0 466 194.5t195 468t-193.5 467t-468 193.5t-467 -193.5t-192.5 -468.5t194.5 -468t465.5 -193zM863 0q-294 0 -503.5 211t-209.5 507t208.5 506t505.5 210t507 -210t210 -507t-212 -507t-506 -210zM754 1737q53 0 141 -57.5t135 -56.5t109 73l39 -23
q-63 -96 -148 -96q-53 0 -141 57.5t-133 57.5q-72 0 -138 -99l-38 25q76 119 174 119zM887 1847l-33 13l111 331l55 -20z" />
    <glyph glyph-name="uni1E4D" unicode="&#x1e4d;" horiz-adv-x="1267" 
d="M636 51q189 0 323.5 135.5t136.5 325.5t-133.5 325.5t-326 135.5t-326.5 -136.5t-136 -325.5t136.5 -324.5t325.5 -135.5zM635 -4q-215 0 -365.5 150.5t-150.5 364.5t151.5 365.5t364.5 151.5t364.5 -151.5t152.5 -364.5t-150.5 -364.5t-366.5 -151.5zM522 1333
q53 0 141.5 -57t135.5 -56t108 72l39 -22q-63 -96 -147 -96q-53 0 -141.5 57t-133.5 57q-72 0 -137 -98l-39 24q76 119 174 119zM655 1444l-32 12l110 332l55 -21z" />
    <glyph glyph-name="uni1E50" unicode="&#x1e50;" horiz-adv-x="1695" 
d="M865 55q271 0 466 194.5t195 468t-193.5 467t-468 193.5t-467 -193.5t-192.5 -468.5t194.5 -468t465.5 -193zM863 0q-294 0 -503.5 211t-209.5 507t208.5 506t505.5 210t507 -210t210 -507t-212 -507t-506 -210zM604 1597v43h520v-43h-520zM854 1747l-131 324l53 20
l113 -332z" />
    <glyph glyph-name="uni1E51" unicode="&#x1e51;" horiz-adv-x="1267" 
d="M636 51q189 0 323.5 135.5t136.5 325.5t-133.5 325.5t-326 135.5t-326.5 -136.5t-136 -325.5t136.5 -324.5t325.5 -135.5zM635 -4q-215 0 -365.5 150.5t-150.5 364.5t151.5 365.5t364.5 151.5t364.5 -151.5t152.5 -364.5t-150.5 -364.5t-366.5 -151.5zM373 1194v43h520
v-43h-520zM623 1343l-131 324l53 21l112 -332z" />
    <glyph glyph-name="uni1E52" unicode="&#x1e52;" horiz-adv-x="1695" 
d="M865 55q271 0 466 194.5t195 468t-193.5 467t-468 193.5t-467 -193.5t-192.5 -468.5t194.5 -468t465.5 -193zM863 0q-294 0 -503.5 211t-209.5 507t208.5 506t505.5 210t507 -210t210 -507t-212 -507t-506 -210zM604 1597v43h520v-43h-520zM885 1745l-33 12l111 332
l55 -21z" />
    <glyph glyph-name="uni1E53" unicode="&#x1e53;" horiz-adv-x="1267" 
d="M636 51q189 0 323.5 135.5t136.5 325.5t-133.5 325.5t-326 135.5t-326.5 -136.5t-136 -325.5t136.5 -324.5t325.5 -135.5zM635 -4q-215 0 -365.5 150.5t-150.5 364.5t151.5 365.5t364.5 151.5t364.5 -151.5t152.5 -364.5t-150.5 -364.5t-366.5 -151.5zM373 1194v43h520
v-43h-520zM653 1341l-32 13l110 332l55 -21z" />
    <glyph glyph-name="uni1E62" unicode="&#x1e62;" horiz-adv-x="1210" 
d="M587 -264q-26 0 -43.5 17.5t-17.5 43t17.5 43t43.5 17.5t44 -17.5t18 -43.5t-18 -43t-44 -17zM621 0q-373 0 -504 279l49 24q117 -248 455 -248q180 0 288.5 88t108.5 229.5t-109.5 212t-310.5 112.5t-323.5 128t-122.5 247t113.5 264.5t303.5 103.5q334 0 457 -271
l-47 -26q-109 242 -412 241q-164 0 -262 -88t-98 -227q0 -176 211 -264q72 -29 219 -60q436 -90 436 -374q0 -162 -123.5 -266.5t-328.5 -104.5z" />
    <glyph glyph-name="uni1E63" unicode="&#x1e63;" horiz-adv-x="921" 
d="M439 -270q-26 0 -43 17t-17 43t17.5 43t43 17t44 -17t18.5 -43t-18.5 -43t-44.5 -17zM459 -4q-281 0 -367 221l55 16q74 -184 312 -184q127 0 201.5 59.5t74.5 157.5q0 166 -291 223q-322 61 -321 269q0 119 82 194.5t221 75.5q262 0 340 -221l-53 -14q-66 180 -287 180
q-115 0 -181.5 -59.5t-66.5 -155.5q0 -164 275 -213q170 -33 254 -99.5t84 -182.5t-90 -191.5t-242 -75.5z" />
    <glyph glyph-name="uni1E6C" unicode="&#x1e6c;" horiz-adv-x="1300" 
d="M622 -145q26 0 44 -17.5t18 -43.5t-18.5 -43t-44 -17t-43 17.5t-17.5 43t17.5 43t43.5 17.5zM66 1434h1171v-56h-559v-1378h-55v1378h-557v56z" />
    <glyph glyph-name="uni1E6D" unicode="&#x1e6d;" horiz-adv-x="825" 
d="M517 -137q26 0 44.5 -17.5t18.5 -43.5t-18.5 -43t-44.5 -17t-43 17.5t-17 43t17 43t43 17.5zM287 285v673h-205v56h205v291h55v-291h326v-56h-326v-673q0 -135 122 -204t228 3l37 -41q-70 -45 -149.5 -46t-144 34t-106.5 103.5t-42 150.5z" />
    <glyph glyph-name="uni1E6E" unicode="&#x1e6e;" horiz-adv-x="1300" 
d="M369 -195v43h518v-43h-518zM66 1434h1171v-56h-559v-1378h-55v1378h-557v56z" />
    <glyph glyph-name="uni1E6F" unicode="&#x1e6f;" horiz-adv-x="825" 
d="M264 -143h518v-43h-518v43zM287 285v673h-205v56h205v291h55v-291h326v-56h-326v-673q0 -135 122 -204t228 3l37 -41q-70 -45 -149.5 -46t-144 34t-106.5 103.5t-42 150.5z" />
    <glyph glyph-name="uni1E70" unicode="&#x1e70;" horiz-adv-x="1300" 
d="M633 -74h33l192 -311l-31 -21l-178 287l-178 -287l-31 19zM66 1434h1171v-56h-557v-1378h-57v1378h-557v56z" />
    <glyph glyph-name="uni1E71" unicode="&#x1e71;" horiz-adv-x="825" 
d="M432 -74h33l194 -311l-32 -21l-178 287l-179 -287l-30 19zM287 289v669h-205v56h205v291h55v-291h326v-56h-326v-669q0 -135 122 -204t228 3l37 -43q-143 -92 -293 -9q-149 83 -149 253z" />
    <glyph glyph-name="Wgrave" unicode="&#x1e80;" horiz-adv-x="1923" 
d="M1778 1434h59l-416 -1434h-47l-413 1137l-412 -1137h-49l-412 1434h57l383 -1325l412 1138h41l414 -1134zM981 1534l-35 -12l-131 323l53 21z" />
    <glyph glyph-name="wgrave" unicode="&#x1e81;" horiz-adv-x="1454" 
d="M391 0l-295 1024h56l266 -924l289 797h38l287 -797l273 924h55l-299 -1024h-43l-293 795l-289 -795h-45zM717 1169l-131 324l53 20l113 -331z" />
    <glyph glyph-name="Wacute" unicode="&#x1e82;" horiz-adv-x="1923" 
d="M1778 1434h59l-416 -1434h-47l-413 1137l-412 -1137h-49l-412 1434h57l383 -1325l412 1138h41l414 -1134zM1110 1843l-133 -323l-33 12l111 332z" />
    <glyph glyph-name="wacute" unicode="&#x1e83;" horiz-adv-x="1454" 
d="M391 0l-295 1024h56l266 -924l289 797h38l287 -797l273 924h55l-299 -1024h-43l-293 795l-289 -795h-45zM748 1167l-33 13l110 331l56 -20z" />
    <glyph glyph-name="Wdieresis" unicode="&#x1e84;" horiz-adv-x="1923" 
d="M1778 1434h59l-416 -1434h-47l-413 1137l-412 -1137h-49l-412 1434h57l383 -1325l412 1138h41l414 -1134zM1146 1542q-26 0 -43.5 17.5t-17.5 43.5t17.5 44t43.5 18t44 -18.5t18 -44t-18 -43t-44 -17.5zM766 1542q-25 0 -43 17.5t-18 43.5t18 44t43 18t43 -18.5t18 -44
t-18 -43t-43 -17.5z" />
    <glyph glyph-name="wdieresis" unicode="&#x1e85;" horiz-adv-x="1454" 
d="M391 0l-295 1024h56l266 -924l289 797h38l287 -797l273 924h55l-299 -1024h-43l-293 795l-289 -795h-45zM917 1190q-26 0 -43.5 17.5t-17.5 43t17.5 44t43.5 18.5t44 -18.5t18 -44.5t-18 -43t-44 -17zM536.5 1190q-24.5 0 -43 17.5t-18.5 43t18.5 44t43 18.5t43 -18.5
t18.5 -44.5t-18.5 -43t-43 -17z" />
    <glyph glyph-name="uni1E92" unicode="&#x1e92;" horiz-adv-x="1517" 
d="M751 -199q26 0 44 -17t18 -43t-18.5 -43t-44 -17t-43 17t-17.5 43t17.5 43t43.5 17zM1368 1434v-45l-1155 -1334h1149v-55h-1229v49l1149 1329h-1149v56h1235z" />
    <glyph glyph-name="uni1E93" unicode="&#x1e93;" horiz-adv-x="1052" 
d="M521 -266q-26 0 -43 17.5t-17 43t17.5 43t43 17.5t44 -17.5t18.5 -43.5t-18.5 -43t-44.5 -17zM76 0v45l807 924h-805v53h891v-37l-813 -930h805v-55h-885z" />
    <glyph glyph-name="uni1EA0" unicode="&#x1ea0;" horiz-adv-x="1423" 
d="M712 -145q26 0 44 -17.5t18 -43.5t-18.5 -43t-44 -17t-43 17.5t-17.5 43t17.5 43t43.5 17.5zM356 516h711l-356 823zM1352 0h-62l-198 459h-760l-199 -459h-63l622 1434h39z" />
    <glyph glyph-name="uni1EA1" unicode="&#x1ea1;" horiz-adv-x="1046" 
d="M517 -145q26 0 44.5 -17.5t18.5 -43.5t-18.5 -43t-44.5 -17t-43 17.5t-17 43t17 43t43 17.5zM458.5 51q139.5 0 251 90t111.5 224v112q-154 59 -311.5 59.5t-256.5 -64t-99 -183.5v-4q0 -111 82.5 -172.5t222 -61.5zM508 1030q156 0 263.5 -103.5t107.5 -267.5v-659h-56
v207q-55 -94 -157.5 -151.5t-239 -57.5t-232.5 79t-96 208v4q0 141 115 218t303.5 77t306.5 -66v141q0 135 -92 225.5t-223 90.5q-92 0 -168 -48t-115 -128l-53 20q47 96 137 153.5t199 57.5z" />
    <glyph glyph-name="uni1EA2" unicode="&#x1ea2;" horiz-adv-x="1423" 
d="M356 516h711l-356 823zM1290 0l-198 459h-760l-199 -459h-63l622 1434h39l621 -1434h-62zM750 1733q-37 66 -119 75v39q98 4 155 -96q66 -135 -94 -231l-20 34q123 79 78 179z" />
    <glyph glyph-name="uni1EA3" unicode="&#x1ea3;" horiz-adv-x="1046" 
d="M458.5 51q139.5 0 251 90t111.5 224v112q-154 59 -311.5 59.5t-256.5 -64t-99 -183.5v-4q0 -111 82.5 -172.5t222 -61.5zM508 1030q156 0 263.5 -103.5t107.5 -267.5v-659h-56v207q-55 -94 -157.5 -151.5t-239 -57.5t-232.5 79t-96 208v4q0 141 115 218t303.5 77
t306.5 -66v141q0 135 -92 225.5t-223 90.5q-92 0 -168 -48t-115 -128l-53 20q47 96 137 153.5t199 57.5zM557 1329q-37 66 -119 76v39q98 4 156 -96q66 -135 -94 -232l-21 35q123 78 78 178z" />
    <glyph glyph-name="uni1EA4" unicode="&#x1ea4;" horiz-adv-x="1423" 
d="M356 516h711l-356 823zM1290 0l-198 459h-760l-199 -459h-63l622 1434h39l621 -1434h-62zM713 1802l-178 -286l-29 20l190 311h35l193 -311l-31 -18zM866 2281l-133 -323l-33 12l111 332z" />
    <glyph glyph-name="uni1EA5" unicode="&#x1ea5;" horiz-adv-x="1046" 
d="M458.5 51q139.5 0 251 90t111.5 224v112q-154 59 -311.5 59.5t-256.5 -64t-99 -183.5v-4q0 -111 82.5 -172.5t222 -61.5zM508 1030q156 0 263.5 -103.5t107.5 -267.5v-659h-56v207q-55 -94 -157.5 -151.5t-239 -57.5t-232.5 79t-96 208v4q0 141 115 218t303.5 77
t306.5 -66v141q0 135 -92 225.5t-223 90.5q-92 0 -168 -48t-115 -128l-53 20q47 96 137 153.5t199 57.5zM520 1399l-178 -287l-29 21l191 311h35l192 -311l-31 -19zM674 1878l-133 -324l-33 13l110 331z" />
    <glyph glyph-name="uni1EA6" unicode="&#x1ea6;" horiz-adv-x="1423" 
d="M356 516h711l-356 823zM1290 0l-198 459h-760l-199 -459h-63l622 1434h39l621 -1434h-62zM713 1802l-178 -286l-29 20l190 311h35l193 -311l-31 -18zM737 1972l-35 -12l-131 324l54 20z" />
    <glyph glyph-name="uni1EA7" unicode="&#x1ea7;" horiz-adv-x="1046" 
d="M458.5 51q139.5 0 251 90t111.5 224v112q-154 59 -311.5 59.5t-256.5 -64t-99 -183.5v-4q0 -111 82.5 -172.5t222 -61.5zM508 1030q156 0 263.5 -103.5t107.5 -267.5v-659h-56v207q-55 -94 -157.5 -151.5t-239 -57.5t-232.5 79t-96 208v4q0 141 115 218t303.5 77
t306.5 -66v141q0 135 -92 225.5t-223 90.5q-92 0 -168 -48t-115 -128l-53 20q47 96 137 153.5t199 57.5zM520 1399l-178 -287l-29 21l191 311h35l192 -311l-31 -19zM545 1569l-35 -13l-131 324l53 21z" />
    <glyph glyph-name="uni1EA8" unicode="&#x1ea8;" horiz-adv-x="1423" 
d="M356 516h711l-356 823zM1290 0l-198 459h-760l-199 -459h-63l622 1434h39l621 -1434h-62zM713 1802l-178 -286l-29 20l190 311h35l193 -311l-31 -18zM750 2120q-37 66 -119 75v39q98 4 155 -96q66 -135 -94 -231l-20 35q123 78 78 178z" />
    <glyph glyph-name="uni1EA9" unicode="&#x1ea9;" horiz-adv-x="1046" 
d="M458.5 51q139.5 0 251 90t111.5 224v112q-154 59 -311.5 59.5t-256.5 -64t-99 -183.5v-4q0 -111 82.5 -172.5t222 -61.5zM508 1030q156 0 263.5 -103.5t107.5 -267.5v-659h-56v207q-55 -94 -157.5 -151.5t-239 -57.5t-232.5 79t-96 208v4q0 141 115 218t303.5 77
t306.5 -66v141q0 135 -92 225.5t-223 90.5q-92 0 -168 -48t-115 -128l-53 20q47 96 137 153.5t199 57.5zM520 1399l-178 -287l-29 21l191 311h35l192 -311l-31 -19zM557 1716q-37 66 -119 76v39q98 4 156 -96q66 -135 -94 -232l-21 35q123 78 78 178z" />
    <glyph glyph-name="uni1EAA" unicode="&#x1eaa;" horiz-adv-x="1423" 
d="M356 516h711l-356 823zM1290 0l-198 459h-760l-199 -459h-63l622 1434h39l621 -1434h-62zM696 1847h35l193 -311l-31 -18l-180 284l-178 -286l-29 20zM604 2079q-72 0 -137 -99l-39 25q76 119 174 119q53 0 141 -58q87 -58 135 -56.5t109 73.5l39 -23q-63 -96 -147 -96
q-53 0 -141.5 57.5t-133.5 57.5z" />
    <glyph glyph-name="uni1EAB" unicode="&#x1eab;" horiz-adv-x="1046" 
d="M458.5 51q139.5 0 251 90t111.5 224v112q-154 59 -311.5 59.5t-256.5 -64t-99 -183.5v-4q0 -111 82.5 -172.5t222 -61.5zM508 1030q156 0 263.5 -103.5t107.5 -267.5v-659h-56v207q-55 -94 -157.5 -151.5t-239 -57.5t-232.5 79t-96 208v4q0 141 115 218t303.5 77
t306.5 -66v141q0 135 -92 225.5t-223 90.5q-92 0 -168 -48t-115 -128l-53 20q47 96 137 153.5t199 57.5zM504 1444h35l192 -311l-31 -19l-180 285l-178 -287l-29 21zM412 1675q-72 0 -138 -98l-38 25q76 119 174 118q53 0 141 -57t135 -56t109 72l39 -22q-63 -96 -148 -96
q-53 0 -141 57t-133 57z" />
    <glyph glyph-name="uni1EAC" unicode="&#x1eac;" horiz-adv-x="1423" 
d="M712 -145q26 0 44 -17.5t18 -43.5t-18.5 -43t-44 -17t-43 17.5t-17.5 43t17.5 43t43.5 17.5zM356 516h711l-356 823zM1352 0h-62l-198 459h-760l-199 -459h-63l622 1434h39zM713 1802l-178 -286l-29 20l190 311h35l193 -311l-31 -18z" />
    <glyph glyph-name="uni1EAD" unicode="&#x1ead;" horiz-adv-x="1046" 
d="M517 -145q26 0 44.5 -17.5t18.5 -43.5t-18.5 -43t-44.5 -17t-43 17.5t-17 43t17 43t43 17.5zM458.5 51q139.5 0 251 90t111.5 224v112q-154 59 -311.5 59.5t-256.5 -64t-99 -183.5v-4q0 -111 82.5 -172.5t222 -61.5zM508 1030q156 0 263.5 -103.5t107.5 -267.5v-659h-56
v207q-55 -94 -157.5 -151.5t-239 -57.5t-232.5 79t-96 208v4q0 141 115 218t303.5 77t306.5 -66v141q0 135 -92 225.5t-223 90.5q-92 0 -168 -48t-115 -128l-53 20q47 96 137 153.5t199 57.5zM520 1399l-178 -287l-29 21l191 311h35l192 -311l-31 -19z" />
    <glyph glyph-name="uni1EAE" unicode="&#x1eae;" horiz-adv-x="1423" 
d="M356 516h711l-356 823zM1290 0l-198 459h-760l-199 -459h-63l622 1434h39l621 -1434h-62zM713 1550q-90 0 -167 61.5t-112 166.5l41 14q29 -88 94.5 -143.5t143.5 -55.5t142.5 54.5t92.5 142.5l45 -12q-37 -104 -113.5 -166t-166.5 -62zM868 2224l-133 -323l-33 12
l111 332z" />
    <glyph glyph-name="uni1EAF" unicode="&#x1eaf;" horiz-adv-x="1046" 
d="M458.5 51q139.5 0 251 90t111.5 224v112q-154 59 -311.5 59.5t-256.5 -64t-99 -183.5v-4q0 -111 82.5 -172.5t222 -61.5zM508 1030q156 0 263.5 -103.5t107.5 -267.5v-659h-56v207q-55 -94 -157.5 -151.5t-239 -57.5t-232.5 79t-96 208v4q0 141 115 218t303.5 77
t306.5 -66v141q0 135 -92 225.5t-223 90.5q-92 0 -168 -48t-115 -128l-53 20q47 96 137 153.5t199 57.5zM520 1147q-90 0 -167 61.5t-111 165.5l41 15q29 -88 94 -143.5t143 -55.5t142.5 54t93.5 142l45 -12q-37 -104 -114 -165.5t-167 -61.5zM676 1821l-133 -324l-33 12
l111 332z" />
    <glyph glyph-name="uni1EB0" unicode="&#x1eb0;" horiz-adv-x="1423" 
d="M356 516h711l-356 823zM1290 0l-198 459h-760l-199 -459h-63l622 1434h39l621 -1434h-62zM713 1550q-90 0 -167 61.5t-112 166.5l41 14q29 -88 94.5 -143.5t143.5 -55.5t142.5 54.5t92.5 142.5l45 -12q-37 -104 -113.5 -166t-166.5 -62zM739 1915l-34 -12l-132 323l54 21
z" />
    <glyph glyph-name="uni1EB1" unicode="&#x1eb1;" horiz-adv-x="1046" 
d="M458.5 51q139.5 0 251 90t111.5 224v112q-154 59 -311.5 59.5t-256.5 -64t-99 -183.5v-4q0 -111 82.5 -172.5t222 -61.5zM508 1030q156 0 263.5 -103.5t107.5 -267.5v-659h-56v207q-55 -94 -157.5 -151.5t-239 -57.5t-232.5 79t-96 208v4q0 141 115 218t303.5 77
t306.5 -66v141q0 135 -92 225.5t-223 90.5q-92 0 -168 -48t-115 -128l-53 20q47 96 137 153.5t199 57.5zM520 1147q-90 0 -167 61.5t-111 165.5l41 15q29 -88 94 -143.5t143 -55.5t142.5 54t93.5 142l45 -12q-37 -104 -114 -165.5t-167 -61.5zM547 1511l-35 -12l-131 324
l53 20z" />
    <glyph glyph-name="uni1EB2" unicode="&#x1eb2;" horiz-adv-x="1423" 
d="M356 516h711l-356 823zM1290 0l-198 459h-760l-199 -459h-63l622 1434h39l621 -1434h-62zM713 1550q-90 0 -167 61.5t-112 166.5l41 14q29 -88 94.5 -143.5t143.5 -55.5t142.5 54.5t92.5 142.5l45 -12q-37 -104 -113.5 -166t-166.5 -62zM752 2062q-37 66 -119 76v39
q98 4 155 -96q66 -135 -94 -232l-20 35q123 78 78 178z" />
    <glyph glyph-name="uni1EB3" unicode="&#x1eb3;" horiz-adv-x="1046" 
d="M458.5 51q139.5 0 251 90t111.5 224v112q-154 59 -311.5 59.5t-256.5 -64t-99 -183.5v-4q0 -111 82.5 -172.5t222 -61.5zM508 1030q156 0 263.5 -103.5t107.5 -267.5v-659h-56v207q-55 -94 -157.5 -151.5t-239 -57.5t-232.5 79t-96 208v4q0 141 115 218t303.5 77
t306.5 -66v141q0 135 -92 225.5t-223 90.5q-92 0 -168 -48t-115 -128l-53 20q47 96 137 153.5t199 57.5zM520 1147q-90 0 -167 61.5t-111 165.5l41 15q29 -88 94 -143.5t143 -55.5t142.5 54t93.5 142l45 -12q-37 -104 -114 -165.5t-167 -61.5zM559 1659q-37 66 -119 76v39
q98 4 156 -97q66 -135 -94 -231l-21 35q123 78 78 178z" />
    <glyph glyph-name="uni1EB4" unicode="&#x1eb4;" horiz-adv-x="1423" 
d="M356 516h711l-356 823zM1290 0l-198 459h-760l-199 -459h-63l622 1434h39l621 -1434h-62zM713 1593q78 0 142.5 54.5t92.5 142.5l45 -12q-37 -104 -113.5 -166t-166.5 -62t-167 61.5t-112 166.5l41 14q29 -88 94.5 -143.5t143.5 -55.5zM606 2021q-72 0 -137 -98l-39 25
q76 119 174 118q53 0 141.5 -57t135.5 -56t108 72l39 -22q-63 -96 -147 -96q-53 0 -141.5 57t-133.5 57z" />
    <glyph glyph-name="uni1EB5" unicode="&#x1eb5;" horiz-adv-x="1046" 
d="M458.5 51q139.5 0 251 90t111.5 224v112q-154 59 -311.5 59.5t-256.5 -64t-99 -183.5v-4q0 -111 82.5 -172.5t222 -61.5zM508 1030q156 0 263.5 -103.5t107.5 -267.5v-659h-56v207q-55 -94 -157.5 -151.5t-239 -57.5t-232.5 79t-96 208v4q0 141 115 218t303.5 77
t306.5 -66v141q0 135 -92 225.5t-223 90.5q-92 0 -168 -48t-115 -128l-53 20q47 96 137 153.5t199 57.5zM520 1190q78 0 142.5 54t93.5 142l45 -12q-37 -104 -114 -165.5t-167 -61.5t-167 61.5t-111 165.5l41 15q29 -88 94 -143.5t143 -55.5zM414 1618q-72 0 -138 -98
l-38 24q76 119 174 119q53 0 141 -57.5t135 -56.5t109 73l39 -23q-63 -96 -148 -96q-53 0 -141 57.5t-133 57.5z" />
    <glyph glyph-name="uni1EB6" unicode="&#x1eb6;" horiz-adv-x="1423" 
d="M712 -145q26 0 44 -17.5t18 -43.5t-18.5 -43t-44 -17t-43 17.5t-17.5 43t17.5 43t43.5 17.5zM356 516h711l-356 823zM1352 0h-62l-198 459h-760l-199 -459h-63l622 1434h39zM713 1550q-90 0 -167 61.5t-112 166.5l41 14q29 -88 94.5 -143.5t143.5 -55.5t142.5 54.5
t92.5 142.5l45 -12q-37 -104 -113.5 -166t-166.5 -62z" />
    <glyph glyph-name="uni1EB7" unicode="&#x1eb7;" horiz-adv-x="1046" 
d="M517 -145q26 0 44.5 -17.5t18.5 -43.5t-18.5 -43t-44.5 -17t-43 17.5t-17 43t17 43t43 17.5zM458.5 51q139.5 0 251 90t111.5 224v112q-154 59 -311.5 59.5t-256.5 -64t-99 -183.5v-4q0 -111 82.5 -172.5t222 -61.5zM508 1030q156 0 263.5 -103.5t107.5 -267.5v-659h-56
v207q-55 -94 -157.5 -151.5t-239 -57.5t-232.5 79t-96 208v4q0 141 115 218t303.5 77t306.5 -66v141q0 135 -92 225.5t-223 90.5q-92 0 -168 -48t-115 -128l-53 20q47 96 137 153.5t199 57.5zM520 1147q-90 0 -167 61.5t-111 165.5l41 15q29 -88 94 -143.5t143 -55.5
t142.5 54t93.5 142l45 -12q-37 -104 -114 -165.5t-167 -61.5z" />
    <glyph glyph-name="uni1EB8" unicode="&#x1eb8;" horiz-adv-x="1275" 
d="M671 -145q26 0 44 -17.5t18 -43.5t-18.5 -43t-44 -17t-43 17.5t-17.5 43t17.5 43t43.5 17.5zM1143 1378h-877v-633h785v-55h-785v-635h877v-55h-932v1434h932v-56z" />
    <glyph glyph-name="uni1EB9" unicode="&#x1eb9;" horiz-adv-x="1255" 
d="M603 -145q26 0 44.5 -17.5t18.5 -43.5t-18.5 -43t-44.5 -17t-43 17.5t-17 43t17 43t43 17.5zM631 969q-172 0 -302 -113t-153 -281h907q-23 168 -151.5 281t-300.5 113zM633 51q137 0 252.5 79t169.5 208l49 -25q-59 -143 -187.5 -230t-283.5 -87q-213 0 -363.5 150.5
t-150.5 364.5t150.5 363.5t359.5 149.5t356.5 -144.5t155.5 -357.5h-969v-10q0 -193 135.5 -327t325.5 -134z" />
    <glyph glyph-name="uni1EBA" unicode="&#x1eba;" horiz-adv-x="1275" 
d="M1143 1378h-877v-633h785v-55h-785v-635h877v-55h-932v1434h932v-56zM713 1737q-37 66 -119 75v39q98 4 156 -96q66 -135 -95 -231l-20 35q123 78 78 178z" />
    <glyph glyph-name="uni1EBB" unicode="&#x1ebb;" horiz-adv-x="1255" 
d="M631 969q-172 0 -302 -113t-153 -281h907q-23 168 -151.5 281t-300.5 113zM633 51q137 0 252.5 79t169.5 208l49 -25q-59 -143 -187.5 -230t-283.5 -87q-213 0 -363.5 150.5t-150.5 364.5t150.5 363.5t359.5 149.5t356.5 -144.5t155.5 -357.5h-969v-10q0 -193 135.5 -327
t325.5 -134zM668 1329q-37 66 -119 76v39q98 4 156 -96q66 -135 -95 -232l-20 35q123 78 78 178z" />
    <glyph glyph-name="uni1EBC" unicode="&#x1ebc;" horiz-adv-x="1275" 
d="M1143 1378h-877v-633h785v-55h-785v-635h877v-55h-932v1434h932v-56zM567 1696q-72 0 -137 -99l-39 25q76 119 174 119q53 0 141.5 -57.5t135.5 -56.5t108 73l39 -23q-63 -96 -147 -96q-53 0 -141.5 57.5t-133.5 57.5z" />
    <glyph glyph-name="uni1EBD" unicode="&#x1ebd;" horiz-adv-x="1255" 
d="M631 969q-172 0 -302 -113t-153 -281h907q-23 168 -151.5 281t-300.5 113zM633 51q137 0 252.5 79t169.5 208l49 -25q-59 -143 -187.5 -230t-283.5 -87q-213 0 -363.5 150.5t-150.5 364.5t150.5 363.5t359.5 149.5t356.5 -144.5t155.5 -357.5h-969v-10q0 -193 135.5 -327
t325.5 -134zM522 1288q-72 0 -137 -98l-39 24q76 119 174 119q53 0 141.5 -57t135.5 -56t108 72l39 -22q-63 -96 -147 -96q-53 0 -141.5 57t-133.5 57z" />
    <glyph glyph-name="uni1EBE" unicode="&#x1ebe;" horiz-adv-x="1275" 
d="M1143 1378h-877v-633h785v-55h-785v-635h877v-55h-932v1434h932v-56zM676 1806l-178 -286l-29 20l190 311h35l193 -311l-31 -18zM829 2286l-133 -324l-32 12l110 332z" />
    <glyph glyph-name="uni1EBF" unicode="&#x1ebf;" horiz-adv-x="1255" 
d="M631 969q-172 0 -302 -113t-153 -281h907q-23 168 -151.5 281t-300.5 113zM633 51q137 0 252.5 79t169.5 208l49 -25q-59 -143 -187.5 -230t-283.5 -87q-213 0 -363.5 150.5t-150.5 364.5t150.5 363.5t359.5 149.5t356.5 -144.5t155.5 -357.5h-969v-10q0 -193 135.5 -327
t325.5 -134zM631 1399l-178 -287l-29 21l190 311h35l193 -311l-31 -19zM784 1878l-133 -324l-33 13l111 331z" />
    <glyph glyph-name="uni1EC0" unicode="&#x1ec0;" horiz-adv-x="1275" 
d="M1143 1378h-877v-633h785v-55h-785v-635h877v-55h-932v1434h932v-56zM676 1806l-178 -286l-29 20l190 311h35l193 -311l-31 -18zM700 1976l-34 -12l-131 324l53 20z" />
    <glyph glyph-name="uni1EC1" unicode="&#x1ec1;" horiz-adv-x="1255" 
d="M631 969q-172 0 -302 -113t-153 -281h907q-23 168 -151.5 281t-300.5 113zM633 51q137 0 252.5 79t169.5 208l49 -25q-59 -143 -187.5 -230t-283.5 -87q-213 0 -363.5 150.5t-150.5 364.5t150.5 363.5t359.5 149.5t356.5 -144.5t155.5 -357.5h-969v-10q0 -193 135.5 -327
t325.5 -134zM631 1399l-178 -287l-29 21l190 311h35l193 -311l-31 -19zM655 1569l-34 -13l-132 324l54 21z" />
    <glyph glyph-name="uni1EC2" unicode="&#x1ec2;" horiz-adv-x="1275" 
d="M1143 1378h-877v-633h785v-55h-785v-635h877v-55h-932v1434h932v-56zM676 1806l-178 -286l-29 20l190 311h35l193 -311l-31 -18zM713 2124q-37 66 -119 76v38q98 4 156 -96q66 -135 -95 -231l-20 35q123 78 78 178z" />
    <glyph glyph-name="uni1EC3" unicode="&#x1ec3;" horiz-adv-x="1255" 
d="M631 969q-172 0 -302 -113t-153 -281h907q-23 168 -151.5 281t-300.5 113zM633 51q137 0 252.5 79t169.5 208l49 -25q-59 -143 -187.5 -230t-283.5 -87q-213 0 -363.5 150.5t-150.5 364.5t150.5 363.5t359.5 149.5t356.5 -144.5t155.5 -357.5h-969v-10q0 -193 135.5 -327
t325.5 -134zM631 1399l-178 -287l-29 21l190 311h35l193 -311l-31 -19zM668 1716q-37 66 -119 76v39q98 4 156 -96q66 -135 -95 -232l-20 35q123 78 78 178z" />
    <glyph glyph-name="uni1EC4" unicode="&#x1ec4;" horiz-adv-x="1275" 
d="M1143 1378h-877v-633h785v-55h-785v-635h877v-55h-932v1434h932v-56zM659 1851h35l193 -311l-31 -18l-180 284l-178 -286l-29 20zM567 2083q-72 0 -137 -98l-39 24q76 119 174 119q53 0 141.5 -57.5t135.5 -56.5t108 73l39 -23q-63 -96 -147 -96q-53 0 -141.5 57.5
t-133.5 57.5z" />
    <glyph glyph-name="uni1EC5" unicode="&#x1ec5;" horiz-adv-x="1255" 
d="M631 969q-172 0 -302 -113t-153 -281h907q-23 168 -151.5 281t-300.5 113zM633 51q137 0 252.5 79t169.5 208l49 -25q-59 -143 -187.5 -230t-283.5 -87q-213 0 -363.5 150.5t-150.5 364.5t150.5 363.5t359.5 149.5t356.5 -144.5t155.5 -357.5h-969v-10q0 -193 135.5 -327
t325.5 -134zM614 1444h35l193 -311l-31 -19l-180 285l-178 -287l-29 21zM522 1675q-72 0 -137 -98l-39 25q76 119 174 118q53 0 141.5 -57t135.5 -56t108 72l39 -22q-63 -96 -147 -96q-53 0 -141.5 57t-133.5 57z" />
    <glyph glyph-name="uni1EC6" unicode="&#x1ec6;" horiz-adv-x="1275" 
d="M671 -145q26 0 44 -17.5t18 -43.5t-18.5 -43t-44 -17t-43 17.5t-17.5 43t17.5 43t43.5 17.5zM1143 1378h-877v-633h785v-55h-785v-635h877v-55h-932v1434h932v-56zM676 1806l-178 -286l-29 20l190 311h35l193 -311l-31 -18z" />
    <glyph glyph-name="uni1EC7" unicode="&#x1ec7;" horiz-adv-x="1255" 
d="M603 -145q26 0 44.5 -17.5t18.5 -43.5t-18.5 -43t-44.5 -17t-43 17.5t-17 43t17 43t43 17.5zM631 969q-172 0 -302 -113t-153 -281h907q-23 168 -151.5 281t-300.5 113zM633 51q137 0 252.5 79t169.5 208l49 -25q-59 -143 -187.5 -230t-283.5 -87q-213 0 -363.5 150.5
t-150.5 364.5t150.5 363.5t359.5 149.5t356.5 -144.5t155.5 -357.5h-969v-10q0 -193 135.5 -327t325.5 -134zM631 1399l-178 -287l-29 21l190 311h35l193 -311l-31 -19z" />
    <glyph glyph-name="uni1EC8" unicode="&#x1ec8;" horiz-adv-x="483" 
d="M213 0v1434h57v-1434h-57zM317 1751q66 -135 -94 -231l-20 34q123 78 78 179q-37 66 -119 75v39q98 4 155 -96z" />
    <glyph glyph-name="uni1EC9" unicode="&#x1ec9;" horiz-adv-x="423" 
d="M240 1024v-1024h-56v1024h56zM287 1348q66 -135 -94 -232l-21 35q123 78 78 178q-37 66 -119 76v39q99 4 156 -96z" />
    <glyph glyph-name="uni1ECA" unicode="&#x1eca;" horiz-adv-x="483" 
d="M243 -266q-26 0 -43.5 17.5t-17.5 43t17.5 43t43.5 17.5t44 -17.5t18 -43.5t-18 -43t-44 -17zM213 0v1434h57v-1434h-57z" />
    <glyph glyph-name="uni1ECB" unicode="&#x1ecb;" horiz-adv-x="491" 
d="M245 -266q-26 0 -43.5 17.5t-17.5 43t17.5 43t43.5 17.5t44 -17.5t18 -43.5t-18 -43t-44 -17zM219 0v1024h55v-1024h-55zM245.5 1298q-24.5 0 -43 17.5t-18.5 43.5t18.5 44t43 18t43 -18.5t18.5 -44t-18.5 -43t-43 -17.5z" />
    <glyph glyph-name="uni1ECC" unicode="&#x1ecc;" horiz-adv-x="1695" 
d="M863 -266q-26 0 -43 17.5t-17 43t17.5 43t43 17.5t44 -17.5t18.5 -43.5t-18.5 -43t-44.5 -17zM865 55q271 0 466 194.5t195 468t-193.5 467t-468 193.5t-467 -193.5t-192.5 -468.5t194.5 -468t465.5 -193zM863 0q-294 0 -503.5 211t-209.5 507t208.5 506t505.5 210
t507 -210t210 -507t-212 -507t-506 -210z" />
    <glyph glyph-name="uni1ECD" unicode="&#x1ecd;" horiz-adv-x="1267" 
d="M636 -266q-26 0 -43.5 17.5t-17.5 43t17.5 43t43.5 17.5t44 -17.5t18 -43.5t-18 -43t-44 -17zM636 51q189 0 323.5 135.5t136.5 325.5t-133.5 325.5t-326 135.5t-326.5 -136.5t-136 -325.5t136.5 -324.5t325.5 -135.5zM635 -4q-215 0 -365.5 150.5t-150.5 364.5
t151.5 365.5t364.5 151.5t364.5 -151.5t152.5 -364.5t-150.5 -364.5t-366.5 -151.5z" />
    <glyph glyph-name="uni1ECE" unicode="&#x1ece;" horiz-adv-x="1695" 
d="M865 55q271 0 466 194.5t195 468t-193.5 467t-468 193.5t-467 -193.5t-192.5 -468.5t194.5 -468t465.5 -193zM863 0q-294 0 -503.5 211t-209.5 507t208.5 506t505.5 210t507 -210t210 -507t-212 -507t-506 -210zM938 1751q66 -135 -94 -231l-21 34q123 78 78 179
q-37 66 -119 75v39q99 4 156 -96z" />
    <glyph glyph-name="uni1ECF" unicode="&#x1ecf;" horiz-adv-x="1267" 
d="M636 51q189 0 323.5 135.5t136.5 325.5t-133.5 325.5t-326 135.5t-326.5 -136.5t-136 -325.5t136.5 -324.5t325.5 -135.5zM635 -4q-215 0 -365.5 150.5t-150.5 364.5t151.5 365.5t364.5 151.5t364.5 -151.5t152.5 -364.5t-150.5 -364.5t-366.5 -151.5zM707 1348
q66 -135 -95 -232l-20 35q123 78 78 178q-37 66 -119 76v39q99 4 156 -96z" />
    <glyph glyph-name="uni1ED0" unicode="&#x1ed0;" horiz-adv-x="1695" 
d="M865 55q271 0 466 194.5t195 468t-193.5 467t-468 193.5t-467 -193.5t-192.5 -468.5t194.5 -468t465.5 -193zM863 0q-294 0 -503.5 211t-209.5 507t208.5 506t505.5 210t507 -210t210 -507t-212 -507t-506 -210zM657 1536l191 311h35l192 -311l-31 -18l-180 284
l-178 -286zM885 1958l-33 12l111 332l55 -21z" />
    <glyph glyph-name="uni1ED1" unicode="&#x1ed1;" horiz-adv-x="1267" 
d="M636 51q189 0 323.5 135.5t136.5 325.5t-133.5 325.5t-326 135.5t-326.5 -136.5t-136 -325.5t136.5 -324.5t325.5 -135.5zM635 -4q-215 0 -365.5 150.5t-150.5 364.5t151.5 365.5t364.5 151.5t364.5 -151.5t152.5 -364.5t-150.5 -364.5t-366.5 -151.5zM426 1133l190 311
h35l193 -311l-31 -19l-180 285l-178 -287zM653 1554l-32 13l110 331l55 -20z" />
    <glyph glyph-name="uni1ED2" unicode="&#x1ed2;" horiz-adv-x="1695" 
d="M865 55q271 0 466 194.5t195 468t-193.5 467t-468 193.5t-467 -193.5t-192.5 -468.5t194.5 -468t465.5 -193zM863 0q-294 0 -503.5 211t-209.5 507t208.5 506t505.5 210t507 -210t210 -507t-212 -507t-506 -210zM657 1536l191 311h35l192 -311l-31 -18l-180 284
l-178 -286zM854 1960l-131 324l53 20l113 -332z" />
    <glyph glyph-name="uni1ED3" unicode="&#x1ed3;" horiz-adv-x="1267" 
d="M636 51q189 0 323.5 135.5t136.5 325.5t-133.5 325.5t-326 135.5t-326.5 -136.5t-136 -325.5t136.5 -324.5t325.5 -135.5zM635 -4q-215 0 -365.5 150.5t-150.5 364.5t151.5 365.5t364.5 151.5t364.5 -151.5t152.5 -364.5t-150.5 -364.5t-366.5 -151.5zM426 1133l190 311
h35l193 -311l-31 -19l-180 285l-178 -287zM623 1556l-131 324l53 21l112 -332z" />
    <glyph glyph-name="uni1ED4" unicode="&#x1ed4;" horiz-adv-x="1695" 
d="M865 55q271 0 466 194.5t195 468t-193.5 467t-468 193.5t-467 -193.5t-192.5 -468.5t194.5 -468t465.5 -193zM863 0q-294 0 -503.5 211t-209.5 507t208.5 506t505.5 210t507 -210t210 -507t-212 -507t-506 -210zM657 1536l191 311h35l192 -311l-31 -18l-180 284
l-178 -286zM938 2138q66 -135 -94 -231l-21 35q123 78 78 178q-37 66 -119 75v39q99 4 156 -96z" />
    <glyph glyph-name="uni1ED5" unicode="&#x1ed5;" horiz-adv-x="1267" 
d="M636 51q189 0 323.5 135.5t136.5 325.5t-133.5 325.5t-326 135.5t-326.5 -136.5t-136 -325.5t136.5 -324.5t325.5 -135.5zM635 -4q-215 0 -365.5 150.5t-150.5 364.5t151.5 365.5t364.5 151.5t364.5 -151.5t152.5 -364.5t-150.5 -364.5t-366.5 -151.5zM426 1133l190 311
h35l193 -311l-31 -19l-180 285l-178 -287zM707 1735q66 -135 -95 -232l-20 35q123 78 78 178q-37 66 -119 76v39q99 4 156 -96z" />
    <glyph glyph-name="uni1ED6" unicode="&#x1ed6;" horiz-adv-x="1695" 
d="M865 55q271 0 466 194.5t195 468t-193.5 467t-468 193.5t-467 -193.5t-192.5 -468.5t194.5 -468t465.5 -193zM863 0q-294 0 -503.5 211t-209.5 507t208.5 506t505.5 210t507 -210t210 -507t-212 -507t-506 -210zM657 1536l191 311h35l192 -311l-31 -18l-180 284
l-178 -286zM754 2124q53 0 141 -57.5t135 -56.5t109 73l39 -23q-63 -96 -148 -96q-53 0 -141 57.5t-133 57.5q-72 0 -138 -99l-38 25q76 119 174 119z" />
    <glyph glyph-name="uni1ED7" unicode="&#x1ed7;" horiz-adv-x="1267" 
d="M636 51q189 0 323.5 135.5t136.5 325.5t-133.5 325.5t-326 135.5t-326.5 -136.5t-136 -325.5t136.5 -324.5t325.5 -135.5zM635 -4q-215 0 -365.5 150.5t-150.5 364.5t151.5 365.5t364.5 151.5t364.5 -151.5t152.5 -364.5t-150.5 -364.5t-366.5 -151.5zM426 1133l190 311
h35l193 -311l-31 -19l-180 285l-178 -287zM799 1561q-53 0 -141.5 57t-133.5 57q-72 0 -137 -98l-39 25q76 119 174 118q53 0 141.5 -57t135.5 -56t108 72l39 -22q-63 -96 -147 -96z" />
    <glyph glyph-name="uni1ED8" unicode="&#x1ed8;" horiz-adv-x="1695" 
d="M863 -266q-26 0 -43 17.5t-17 43t17.5 43t43 17.5t44 -17.5t18.5 -43.5t-18.5 -43t-44.5 -17zM865 55q271 0 466 194.5t195 468t-193.5 467t-468 193.5t-467 -193.5t-192.5 -468.5t194.5 -468t465.5 -193zM863 0q-294 0 -503.5 211t-209.5 507t208.5 506t505.5 210
t507 -210t210 -507t-212 -507t-506 -210zM657 1536l191 311h35l192 -311l-31 -18l-180 284l-178 -286z" />
    <glyph glyph-name="uni1ED9" unicode="&#x1ed9;" horiz-adv-x="1267" 
d="M636 -266q-26 0 -43.5 17.5t-17.5 43t17.5 43t43.5 17.5t44 -17.5t18 -43.5t-18 -43t-44 -17zM636 51q189 0 323.5 135.5t136.5 325.5t-133.5 325.5t-326 135.5t-326.5 -136.5t-136 -325.5t136.5 -324.5t325.5 -135.5zM635 -4q-215 0 -365.5 150.5t-150.5 364.5
t151.5 365.5t364.5 151.5t364.5 -151.5t152.5 -364.5t-150.5 -364.5t-366.5 -151.5zM426 1133l190 311h35l193 -311l-31 -19l-180 285l-178 -287z" />
    <glyph glyph-name="uni1EDA" unicode="&#x1eda;" horiz-adv-x="1695" 
d="M865 55q271 0 466 194.5t195 468t-193.5 467t-468 193.5t-467 -193.5t-192.5 -468.5t194.5 -468t465.5 -193zM1581 717q0 -297 -212 -507t-506 -210t-503.5 211t-209.5 507t208.5 506t505.5 210q166 0 310.5 -71t244.5 -194q39 -10 74 25q23 20 6.5 63t5.5 64.5t47 20.5
t41 -17q56 -49 -24 -137q-53 -53 -127 -47q139 -188 139 -424zM1008 1894l-134 -323l-32 12l110 332z" />
    <glyph glyph-name="uni1EDB" unicode="&#x1edb;" horiz-adv-x="1243" 
d="M636.5 973q-190.5 0 -326.5 -136.5t-136 -325.5t136 -324.5t325.5 -135.5t324 135.5t136.5 325.5t-133.5 325.5t-326 135.5zM635 -4q-215 0 -365.5 150.5t-150.5 364.5t151.5 365.5t364.5 151.5q131 0 243.5 -61.5t184.5 -165.5q49 -27 92 16q23 20 6.5 63.5t12.5 69.5
q16 16 40.5 15.5t40.5 -17.5q56 -49 -24 -137q-66 -63 -148 -43q68 -119 68 -256q2 -213 -149.5 -364.5t-366.5 -151.5zM770 1495l-133 -324l-33 13l111 332z" />
    <glyph glyph-name="uni1EDC" unicode="&#x1edc;" horiz-adv-x="1695" 
d="M865 55q271 0 466 194.5t195 468t-193.5 467t-468 193.5t-467 -193.5t-192.5 -468.5t194.5 -468t465.5 -193zM1581 717q0 -297 -212 -507t-506 -210t-503.5 211t-209.5 507t208.5 506t505.5 210q166 0 310.5 -71t244.5 -194q39 -10 74 25q23 20 6.5 63t5.5 64.5t47 20.5
t41 -17q56 -49 -24 -137q-53 -53 -127 -47q139 -188 139 -424zM879 1585l-35 -12l-131 323l53 21z" />
    <glyph glyph-name="uni1EDD" unicode="&#x1edd;" horiz-adv-x="1243" 
d="M636.5 973q-190.5 0 -326.5 -136.5t-136 -325.5t136 -324.5t325.5 -135.5t324 135.5t136.5 325.5t-133.5 325.5t-326 135.5zM635 -4q-215 0 -365.5 150.5t-150.5 364.5t151.5 365.5t364.5 151.5q131 0 243.5 -61.5t184.5 -165.5q49 -27 92 16q23 20 6.5 63.5t12.5 69.5
q16 16 40.5 15.5t40.5 -17.5q56 -49 -24 -137q-66 -63 -148 -43q68 -119 68 -256q2 -213 -149.5 -364.5t-366.5 -151.5zM641 1186l-35 -12l-131 323l53 21z" />
    <glyph glyph-name="uni1EDE" unicode="&#x1ede;" horiz-adv-x="1695" 
d="M865 55q271 0 466 194.5t195 468t-193.5 467t-468 193.5t-467 -193.5t-192.5 -468.5t194.5 -468t465.5 -193zM1581 717q0 -297 -212 -507t-506 -210t-503.5 211t-209.5 507t208.5 506t505.5 210q166 0 310.5 -71t244.5 -194q39 -10 74 25q23 20 6.5 63t5.5 64.5t47 20.5
t41 -17q56 -49 -24 -137q-53 -53 -127 -47q139 -188 139 -424zM891 1733q-37 66 -119 75v39q98 4 156 -96q66 -135 -94 -231l-21 34q123 79 78 179z" />
    <glyph glyph-name="uni1EDF" unicode="&#x1edf;" horiz-adv-x="1243" 
d="M636.5 973q-190.5 0 -326.5 -136.5t-136 -325.5t136 -324.5t325.5 -135.5t324 135.5t136.5 325.5t-133.5 325.5t-326 135.5zM635 -4q-215 0 -365.5 150.5t-150.5 364.5t151.5 365.5t364.5 151.5q131 0 243.5 -61.5t184.5 -165.5q49 -27 92 16q23 20 6.5 63.5t12.5 69.5
q16 16 40.5 15.5t40.5 -17.5q56 -49 -24 -137q-66 -63 -148 -43q68 -119 68 -256q2 -213 -149.5 -364.5t-366.5 -151.5zM653 1333q-37 66 -118 76v39q98 4 155 -96q66 -135 -94 -232l-21 35q123 78 78 178z" />
    <glyph glyph-name="uni1EE0" unicode="&#x1ee0;" horiz-adv-x="1695" 
d="M865 55q271 0 466 194.5t195 468t-193.5 467t-468 193.5t-467 -193.5t-192.5 -468.5t194.5 -468t465.5 -193zM1581 717q0 -297 -212 -507t-506 -210t-503.5 211t-209.5 507t208.5 506t505.5 210q166 0 310.5 -71t244.5 -194q39 -10 74 25q23 20 6.5 63t5.5 64.5t47 20.5
t41 -17q56 -49 -24 -137q-53 -53 -127 -47q139 -188 139 -424zM745 1692q-72 0 -137 -99l-39 25q76 119 174 119q53 0 141.5 -57.5t135.5 -56.5t108 73l39 -23q-63 -96 -147 -96q-53 0 -141.5 57.5t-133.5 57.5z" />
    <glyph glyph-name="uni1EE1" unicode="&#x1ee1;" horiz-adv-x="1243" 
d="M636.5 973q-190.5 0 -326.5 -136.5t-136 -325.5t136 -324.5t325.5 -135.5t324 135.5t136.5 325.5t-133.5 325.5t-326 135.5zM635 -4q-215 0 -365.5 150.5t-150.5 364.5t151.5 365.5t364.5 151.5q131 0 243.5 -61.5t184.5 -165.5q49 -27 92 16q23 20 6.5 63.5t12.5 69.5
q16 16 40.5 15.5t40.5 -17.5q56 -49 -24 -137q-66 -63 -148 -43q68 -119 68 -256q2 -213 -149.5 -364.5t-366.5 -151.5zM508 1292q-72 0 -137 -98l-39 25q76 119 174 118q53 0 141 -57t135 -56t109 72l39 -22q-63 -96 -148 -96q-53 0 -141 57t-133 57z" />
    <glyph glyph-name="uni1EE2" unicode="&#x1ee2;" horiz-adv-x="1695" 
d="M865 -145q26 0 44.5 -17.5t18.5 -43.5t-18.5 -43t-44.5 -17t-43 17.5t-17 43t17 43t43 17.5zM865 55q271 0 466 194.5t195 468t-193.5 467t-468 193.5t-467 -193.5t-192.5 -468.5t194.5 -468t465.5 -193zM1581 717q0 -297 -212 -507t-506 -210t-503.5 211t-209.5 507
t208.5 506t505.5 210q166 0 310.5 -71t244.5 -194q39 -10 74 25q23 20 6.5 63t5.5 64.5t47 20.5t41 -17q56 -49 -24 -137q-53 -53 -127 -47q139 -188 139 -424z" />
    <glyph glyph-name="uni1EE3" unicode="&#x1ee3;" horiz-adv-x="1243" 
d="M634 -145q26 0 44 -17.5t18 -43.5t-18.5 -43t-44 -17t-43 17.5t-17.5 43t17.5 43t43.5 17.5zM636.5 973q-190.5 0 -326.5 -136.5t-136 -325.5t136 -324.5t325.5 -135.5t324 135.5t136.5 325.5t-133.5 325.5t-326 135.5zM635 -4q-215 0 -365.5 150.5t-150.5 364.5
t151.5 365.5t364.5 151.5q131 0 243.5 -61.5t184.5 -165.5q49 -27 92 16q23 20 6.5 63.5t12.5 69.5q16 16 40.5 15.5t40.5 -17.5q56 -49 -24 -137q-66 -63 -148 -43q68 -119 68 -256q2 -213 -149.5 -364.5t-366.5 -151.5z" />
    <glyph glyph-name="uni1EE4" unicode="&#x1ee4;" horiz-adv-x="1443" 
d="M724 -266q-26 0 -43 17.5t-17 43t17 43t43 17.5t44 -17.5t18 -43.5t-18 -43t-44 -17zM721 0q-221 0 -376 155.5t-155 376.5v902h56v-902q0 -201 140 -339t337 -138t337 139.5t140 337.5v902h55v-902q0 -223 -156.5 -377.5t-377.5 -154.5z" />
    <glyph glyph-name="uni1EE5" unicode="&#x1ee5;" horiz-adv-x="1136" 
d="M568 -145q26 0 44.5 -17.5t18.5 -43.5t-18.5 -43t-44.5 -17t-43 17.5t-17 43t17 43t43 17.5zM897 1024h55v-1024h-55v248q-51 -113 -142 -185.5t-200 -72.5q-170 0 -282.5 112.5t-112.5 282.5v639h57v-639q0 -139 99.5 -239.5t238.5 -100.5t240.5 119t101.5 262v598z" />
    <glyph glyph-name="uni1EE6" unicode="&#x1ee6;" horiz-adv-x="1443" 
d="M721 0q-221 0 -376 155.5t-155 376.5v902h56v-902q0 -201 140 -339t337 -138t337 139.5t140 337.5v902h55v-902q0 -223 -156.5 -377.5t-377.5 -154.5zM797 1735q66 -135 -95 -232l-20 35q123 78 78 178q-37 66 -119 76v39q99 4 156 -96z" />
    <glyph glyph-name="uni1EE7" unicode="&#x1ee7;" horiz-adv-x="1136" 
d="M897 1024h55v-1024h-55v248q-51 -113 -142 -185.5t-200 -72.5q-170 0 -282.5 112.5t-112.5 282.5v639h57v-639q0 -139 99.5 -239.5t238.5 -100.5t240.5 119t101.5 262v598zM592 1329q-37 66 -119 76v39q98 4 156 -96q66 -135 -94 -232l-21 35q123 78 78 178z" />
    <glyph glyph-name="uni1EE8" unicode="&#x1ee8;" horiz-adv-x="1443" 
d="M1255 532q0 -223 -156.5 -377.5t-377.5 -154.5t-376 155.5t-155 376.5v902h56v-902q0 -201 140 -339t337 -138t337 139.5t140 337.5v902h55v-74q55 -35 101 12q23 20 6.5 63.5t11.5 69.5q39 39 82 -2q55 -49 -24 -137q-78 -76 -177 -33v-801zM852 1894l-133 -323l-33 12
l111 332z" />
    <glyph glyph-name="uni1EE9" unicode="&#x1ee9;" horiz-adv-x="1148" 
d="M952 0h-55v248q-51 -113 -142 -185.5t-200 -72.5q-170 0 -282.5 112.5t-112.5 282.5v639h57v-639q0 -139 99.5 -239.5t238.5 -100.5t240.5 119t101.5 262v598h55v-68q59 -43 109 7q23 23 6.5 65.5t5.5 64t47 20.5t41 -17q55 -49 -24 -138q-80 -80 -185 -28v-930z
M705 1489l-134 -324l-32 15l110 329z" />
    <glyph glyph-name="uni1EEA" unicode="&#x1eea;" horiz-adv-x="1443" 
d="M1255 532q0 -223 -156.5 -377.5t-377.5 -154.5t-376 155.5t-155 376.5v902h56v-902q0 -201 140 -339t337 -138t337 139.5t140 337.5v902h55v-74q55 -35 101 12q23 20 6.5 63.5t11.5 69.5q39 39 82 -2q55 -49 -24 -137q-78 -76 -177 -33v-801zM723 1585l-35 -12l-131 323
l53 21z" />
    <glyph glyph-name="uni1EEB" unicode="&#x1eeb;" horiz-adv-x="1148" 
d="M952 0h-55v248q-51 -113 -142 -185.5t-200 -72.5q-170 0 -282.5 112.5t-112.5 282.5v639h57v-639q0 -139 99.5 -239.5t238.5 -100.5t240.5 119t101.5 262v598h55v-68q59 -43 109 7q23 23 6.5 65.5t5.5 64t47 20.5t41 -17q55 -49 -24 -138q-80 -80 -185 -28v-930z
M580 1182l-35 -15l-133 324l55 20z" />
    <glyph glyph-name="uni1EEC" unicode="&#x1eec;" horiz-adv-x="1443" 
d="M1255 532q0 -223 -156.5 -377.5t-377.5 -154.5t-376 155.5t-155 376.5v902h56v-902q0 -201 140 -339t337 -138t337 139.5t140 337.5v902h55v-74q55 -35 101 12q23 20 6.5 63.5t11.5 69.5q39 39 82 -2q55 -49 -24 -137q-78 -76 -177 -33v-801zM735 1733q-37 66 -119 75v39
q98 4 156 -96q66 -135 -94 -231l-21 34q123 79 78 179z" />
    <glyph glyph-name="uni1EED" unicode="&#x1eed;" horiz-adv-x="1148" 
d="M952 0h-55v248q-51 -113 -142 -185.5t-200 -72.5q-170 0 -282.5 112.5t-112.5 282.5v639h57v-639q0 -139 99.5 -239.5t238.5 -100.5t240.5 119t101.5 262v598h55v-66q59 -45 109 7q23 20 6.5 63t5.5 64.5t47 20.5t41 -17q55 -49 -24 -138q-80 -78 -185 -28v-930z
M473 1401q104 0 156 -96q63 -139 -92 -232l-21 35q123 80 76 178q-37 66 -119 76v39z" />
    <glyph glyph-name="uni1EEE" unicode="&#x1eee;" horiz-adv-x="1443" 
d="M1255 532q0 -223 -156.5 -377.5t-377.5 -154.5t-376 155.5t-155 376.5v902h56v-902q0 -201 140 -339t337 -138t337 139.5t140 337.5v902h55v-74q55 -35 101 12q23 20 6.5 63.5t11.5 69.5q39 39 82 -2q55 -49 -24 -137q-78 -76 -177 -33v-801zM590 1692q-72 0 -137 -99
l-39 25q76 119 174 119q53 0 141 -57.5t135 -56.5t109 73l39 -23q-63 -96 -148 -96q-53 0 -141 57.5t-133 57.5z" />
    <glyph glyph-name="uni1EEF" unicode="&#x1eef;" horiz-adv-x="1148" 
d="M952 0h-55v248q-51 -113 -142 -185.5t-200 -72.5q-170 0 -282.5 112.5t-112.5 282.5v639h57v-639q0 -139 99.5 -239.5t238.5 -100.5t240.5 119t101.5 262v598h55v-66q59 -45 109 7q23 20 6.5 63t5.5 64.5t47 20.5t41 -17q55 -49 -24 -138q-80 -78 -185 -28v-930z
M446 1288q-70 0 -137 -96l-39 22q76 119 174 119q53 0 141.5 -57t138.5 -56t105 72l39 -22q-63 -96 -147 -96q-53 0 -141.5 57t-133.5 57z" />
    <glyph glyph-name="uni1EF0" unicode="&#x1ef0;" horiz-adv-x="1443" 
d="M714 -166q26 0 44 -17.5t18 -43t-18.5 -43t-44 -17.5t-43 17.5t-17.5 43.5t17.5 43t43.5 17zM1255 532q0 -223 -156.5 -377.5t-377.5 -154.5t-376 155.5t-155 376.5v902h56v-902q0 -201 140 -339t337 -138t337 139.5t140 337.5v902h55v-74q55 -35 101 12q23 20 6.5 63.5
t11.5 69.5q39 39 82 -2q55 -49 -24 -137q-78 -76 -177 -33v-801z" />
    <glyph glyph-name="uni1EF1" unicode="&#x1ef1;" horiz-adv-x="1148" 
d="M554 -143q26 0 44 -18.5t18 -44.5t-18 -43t-44 -17t-43 17.5t-17 43t17 44t43 18.5zM952 0h-55v248q-51 -113 -142 -185.5t-200 -72.5q-170 0 -282.5 112.5t-112.5 282.5v639h57v-639q0 -139 99.5 -239.5t238.5 -100.5t240.5 119t101.5 262v598h55v-68q59 -43 109 7
q23 23 6.5 65.5t5.5 64t47 20.5t41 -17q55 -49 -24 -138q-80 -80 -185 -28v-930z" />
    <glyph glyph-name="Ygrave" unicode="&#x1ef2;" horiz-adv-x="1320" 
d="M688 0h-55v700l-588 734h74l543 -680l540 680h74l-588 -736v-698zM686 1534l-35 -12l-131 323l53 21z" />
    <glyph glyph-name="ygrave" unicode="&#x1ef3;" horiz-adv-x="1136" 
d="M318 -455q-77 0 -139 32t-97 83l43 31q92 -106 221 -86t176 143l99 262l-527 1014h58l493 -946l354 946h60l-486 -1294q-33 -84 -105.5 -134.5t-149.5 -50.5zM625 1182l-35 -13l-131 324l53 20z" />
    <glyph glyph-name="uni1EF4" unicode="&#x1ef4;" horiz-adv-x="1320" 
d="M661 -145q26 0 44 -17.5t18 -43.5t-18.5 -43t-44 -17t-43 17.5t-17.5 43t17.5 43t43.5 17.5zM633 0v700l-588 734h74l543 -680l540 680h74l-588 -736v-698h-55z" />
    <glyph glyph-name="uni1EF5" unicode="&#x1ef5;" horiz-adv-x="1136" 
d="M595 -494q26 0 44 -17t18 -43t-18 -43t-44 -17t-43 17t-17 43t17 43t43 17zM318 -455q-77 0 -139 32t-97 83l43 31q92 -106 221 -86t176 143l99 262l-527 1014h58l493 -946l354 946h60l-486 -1294q-33 -84 -105.5 -134.5t-149.5 -50.5z" />
    <glyph glyph-name="uni1EF6" unicode="&#x1ef6;" horiz-adv-x="1320" 
d="M688 0h-55v700l-588 734h74l543 -680l540 680h74l-588 -736v-698zM698 1681q-37 66 -118 76v39q98 4 155 -96q66 -135 -94 -232l-20 35q122 78 77 178z" />
    <glyph glyph-name="uni1EF7" unicode="&#x1ef7;" horiz-adv-x="1136" 
d="M318 -455q-77 0 -139 32t-97 83l43 31q92 -106 221 -86t176 143l99 262l-527 1014h58l493 -946l354 946h60l-486 -1294q-33 -84 -105.5 -134.5t-149.5 -50.5zM637 1329q-37 66 -119 76v39q98 4 156 -96q66 -135 -94 -232l-21 35q123 78 78 178z" />
    <glyph glyph-name="uni1EF8" unicode="&#x1ef8;" horiz-adv-x="1320" 
d="M688 0h-55v700l-588 734h74l543 -680l540 680h74l-588 -736v-698zM553 1640q-72 0 -137 -98l-39 25q76 119 174 119q53 0 141 -57.5t135 -56.5t109 73l39 -23q-63 -96 -148 -96q-53 0 -141 57t-133 57z" />
    <glyph glyph-name="uni1EF9" unicode="&#x1ef9;" horiz-adv-x="1136" 
d="M318 -455q-77 0 -139 32t-97 83l43 31q92 -106 221 -86t176 143l99 262l-527 1014h58l493 -946l354 946h60l-486 -1294q-33 -84 -105.5 -134.5t-149.5 -50.5zM492 1288q-72 0 -138 -98l-39 24q76 119 174 119q53 0 141.5 -57t135.5 -56t108 72l39 -22q-63 -96 -147 -96
q-53 0 -141 57t-133 57z" />
    <glyph glyph-name="endash" unicode="&#x2013;" horiz-adv-x="1196" 
d="M139 623v39h918v-39h-918z" />
    <glyph glyph-name="emdash" unicode="&#x2014;" horiz-adv-x="1675" 
d="M139 557v39h1395v-39h-1395z" />
    <glyph glyph-name="quoteleft" unicode="&#x2018;" horiz-adv-x="387" 
d="M184 1346q0 -27 20 -39q20 -11 42 -25q20 -14 20 -42t-17 -45t-48 -17t-51 34t-21 82q0 127 129 156v-25q-74 -14 -74 -79z" />
    <glyph glyph-name="quoteright" unicode="&#x2019;" horiz-adv-x="387" 
d="M174 1448q76 0 77 -120t-126 -152v26q72 14 72 80q-1 27 -21 39q-20 11 -40 25t-21 42q0 28 17 44t42 16z" />
    <glyph glyph-name="quotesinglbase" unicode="&#x201a;" horiz-adv-x="389" 
 />
    <glyph glyph-name="quotedblleft" unicode="&#x201c;" horiz-adv-x="600" 
d="M401 1343q0 -31 41 -50t41 -50t-17 -48t-42 -17q-78 0 -78 120t127 152v-25q-72 -14 -72 -82zM270 1243q0 -65 -65 -65q-31 0 -51 34t-21 82q0 123 129 156v-25q-74 -14 -74 -82q0 -31 41 -50t41 -50z" />
    <glyph glyph-name="quotedblright" unicode="&#x201d;" horiz-adv-x="600" 
d="M389 1448q76 0 77 -120t-128 -152v26q74 14 74 80q0 40 -42 51q-14 3 -28 19t-14 40t18 40t43 16zM176 1448q76 0 77 -120t-128 -152v26q74 14 74 80q-1 27 -21 39q-20 11 -40 25t-21 42q0 28 17 44t42 16z" />
    <glyph glyph-name="quotedblbase" unicode="&#x201e;" horiz-adv-x="600" 
d="M410 -53q0 27 -20 39t-42 25q-20 13 -20 41t17 45t48 17t51 -33q20 -34 21 -83q0 -125 -129 -158v27q74 14 74 80zM197 -53q-1 27 -21 39t-40 25t-21 41q0 28 17 45t48 17t51 -33q20 -34 21 -83q0 -125 -127 -158v27q72 14 72 80z" />
    <glyph glyph-name="dagger" unicode="&#x2020;" horiz-adv-x="1376" 
d="M1243 975v-43h-534l2 -1229h-43l-2 1229h-535v43h535v493h43v-493h534z" />
    <glyph glyph-name="daggerdbl" unicode="&#x2021;" horiz-adv-x="1376" 
d="M1243 932h-534l2 -699h532v-43h-532v-487h-43v487h-537v43h537l-2 699h-535v43h535v493h43v-493h534v-43z" />
    <glyph glyph-name="bullet" unicode="&#x2022;" horiz-adv-x="974" 
d="M754 560q0 -110 -78 -188t-188 -77q-110 0 -188 78q-78 77 -79 187q0 110 79 188q78 78 188 78t188 -78t78 -188z" />
    <glyph glyph-name="ellipsis" unicode="&#x2026;" horiz-adv-x="1241" 
d="M1044 -4q-25 0 -43 18t-18 44t18 44t43 18t43 -18q19 -18 19 -44t-18 -44t-44 -18zM620 -4q-26 0 -43 18t-17 44t16 44q18 18 44 18t44 -18t18 -44t-18 -44t-44 -18zM197 -4q-25 0 -43 18t-18 44t18 44t43 18t43 -18t18 -44t-18 -44t-43 -18z" />
    <glyph glyph-name="perthousand" unicode="&#x2030;" horiz-adv-x="2494" 
d="M1855 311q0 -117 68 -199t163 -83q95 0 163 83q67 82 67 198t-67 200q-68 84 -163 84t-163 -83t-68 -200zM1163 311q0 -117 68 -199t163 -83q94 0 162 83q68 82 68 198t-68 200t-162 84t-163 -83q-68 -83 -68 -200zM2087 -16q-113 0 -194 96t-81 231t80 231t194 97
q114 0 192 -96q78 -95 79 -231q-1 -136 -79 -232t-191 -96zM1395 -16q-113 0 -194 96t-81 231t80 231t194 97q114 0 192 -96q78 -95 79 -231q-1 -136 -79 -232t-191 -96zM411 899q95 0 163 83t67 200q0 118 -68 200q-69 82 -163 82t-162 -83t-68 -199t68 -200
q68 -83 163 -83zM412 854q-113 0 -194 96t-81 232t80 231q80 96 194 96q115 0 193 -96t78 -231q0 -136 -78 -232t-192 -96zM381 -86l-39 29l1022 1595l41 -25z" />
    <glyph glyph-name="guilsinglleft" unicode="&#x2039;" horiz-adv-x="577" 
d="M428 270l-336 244v31l338 246l25 -41l-305 -222l307 -221z" />
    <glyph glyph-name="guilsinglright" unicode="&#x203a;" horiz-adv-x="577" 
d="M150 270l-29 37l307 221l-303 222l22 41l338 -246v-31z" />
    <glyph glyph-name="fraction" unicode="&#x2044;" horiz-adv-x="1030" 
d="M133 -23l721 1321h43l-723 -1321h-41z" />
    <glyph glyph-name="Euro" unicode="&#x20ac;" horiz-adv-x="1314" 
d="M911 55q135 0 248 74l29 -47q-123 -82 -277 -82q-209 0 -365 153t-208 382h-234v43l226 -3q-23 135 -2 277h-224v43l232 -2q49 233 207 387t368 154q150 0 277 -82l-29 -47q-121 74 -248 73q-190 0 -331 -138t-187 -347l574 -4v-37h-582q-12 -68 -12 -138t12 -139l582 -4
v-36h-574q49 -207 191 -343t327 -137z" />
    <glyph glyph-name="trademark" unicode="&#x2122;" horiz-adv-x="1032" 
d="M967 1534v-481h-27v420l-201 -355h-18l-201 350v-415h-31v481h27l215 -375l213 375h23zM16 1505v31h396v-31h-185v-452h-28v452h-183z" />
    <glyph glyph-name="oneeighth" unicode="&#x215b;" horiz-adv-x="1030" 
d="M698 215q0 -53 44 -92t105 -39q62 0 105 39t43 92t-43 92t-105 39q-61 0 -105 -39t-44 -92zM727 486q0 -44 35 -76t85 -31q50 0 86 32q36 31 36 75t-36 76t-86 32t-85 -32t-35 -76zM1030 215q0 -68 -53 -116t-129 -48t-129 48t-53 116q0 104 106 150q-80 41 -80 122
q0 57 45 99t109 41q64 0 111 -41q47 -40 47 -110t-80 -111q106 -45 106 -150zM133 664h-33v530l-90 -35l-10 33l111 45h22v-573zM825 1298h41l-721 -1321h-41z" />
    <glyph glyph-name="threeeighths" unicode="&#x215c;" horiz-adv-x="1349" 
d="M782 215q0 -53 44 -92t105 -39q62 0 105 39t43 92t-43 92t-105 39q-61 0 -105 -39t-44 -92zM811 486q0 -44 35 -76t85 -31q50 0 86 32q36 31 36 75t-36 76t-86 32t-85 -32t-35 -76zM1114 215q0 -68 -54 -116t-129 -48t-128 48t-53 116q0 104 106 150q-80 41 -80 122
q0 57 45 99t109 41q64 0 110 -41q45 -41 45 -99q1 -79 -77 -122q106 -47 106 -150zM371 830q-1 -58 -55 -106t-130 -48t-130 51t-50 123h33q-2 -59 41 -99t107 -40t107 38q42 38 42 91t-42 90t-104 39h-8v35h8q49 2 84 32t35 74q0 43 -36 75t-87 32t-86 -34t-32 -79h-35
q-2 61 44 104t110 43q63 0 109 -41t46 -98q0 -82 -78 -125q47 -18 77 -58q30 -41 30 -99zM915 1298h41l-720 -1321h-41z" />
    <glyph glyph-name="fiveeighths" unicode="&#x215d;" horiz-adv-x="1306" 
d="M939 84q62 0 105 39t43 92t-43 92t-105 39t-105 -39t-43 -92t43 -92t105 -39zM819 486q0 -44 35 -76t85 -31q50 0 86 32q36 31 36 75t-36 76t-86 32t-85 -32t-35 -76zM1122 215q0 -68 -53 -116t-129 -48t-129 48t-53 116q0 104 106 150q-80 41 -80 122q0 57 45 99t109 41
q64 0 112 -41q46 -41 46 -99q0 -81 -80 -122q106 -45 106 -150zM29 936v6l37 301h282v-35h-254l-24 -213q54 47 126 47t128 -54t55 -131q0 -77 -55 -132q-56 -55 -134 -55t-133 57t-53 137h37q-2 -66 42 -112t107 -47q63 0 108 45q44 45 44 108q0 62 -44 106t-117 44
t-118 -68v-4h-34zM924 1298h43l-723 -1321h-41z" />
    <glyph glyph-name="seveneighths" unicode="&#x215e;" horiz-adv-x="1114" 
d="M782 215q0 -53 44 -92t105 -39q62 0 105 39t43 92t-43 92t-105 39q-61 0 -105 -39t-44 -92zM811 486q0 -44 35 -76t85 -31q50 0 86 32q36 31 36 75t-36 76t-86 32t-85 -32t-35 -76zM1114 215q0 -68 -54 -116t-129 -48t-128 48t-53 116q0 104 106 150q-80 41 -80 122
q0 57 45 99t109 41q64 0 110 -41q45 -41 45 -99q1 -79 -77 -122q106 -47 106 -150zM387 1243v-24l-285 -549h-39l281 538h-344v35h387zM899 1298h41l-721 -1321h-43z" />
    <glyph glyph-name="partialdiff" unicode="&#x2202;" horiz-adv-x="1187" 
d="M593 16q165 0 281 117t115 283q0 94 -41 176l-10 20q-51 92 -143 146t-203 55q-164 0 -281 -117q-117 -116 -117 -280t118 -282q116 -118 281 -118zM592 -39q-186 0 -320 134q-133 133 -133 319t131 320t322 134q141 0 250 -73l-170 325l-320 -180l-20 43l317 178
l-137 264l49 23l137 -260l310 174l22 -41l-311 -174l264 -500q63 -104 64 -231q-1 -186 -135 -320t-320 -135z" />
    <glyph glyph-name="emptyset" unicode="&#x2205;" horiz-adv-x="1269" 
d="M641 55q185 -1 319 135t135 321t-120 318l-651 -651q133 -123 317 -123zM174 523q0 -183 123 -316l649 649q-133 123 -317 123t-320 -136q-135 -137 -135 -320zM640 0q-210 0 -357 137l-127 -127l-27 29l127 127q-137 147 -137 356t151 361q152 151 359 151t356 -139
l129 129l29 -29l-129 -129q137 -147 138 -355q1 -207 -151 -359q-151 -152 -361 -152z" />
    <glyph glyph-name="product" unicode="&#x220f;" horiz-adv-x="1466" 
d="M1282 1606v-2036h-43v1993h-1012v-1993h-43v2036h1098z" />
    <glyph glyph-name="summation" unicode="&#x2211;" horiz-adv-x="1257" 
d="M1108 1669v-55h-860l600 -959l-629 -1007h883v-56h-952v56l626 1007l-602 959v55h934z" />
    <glyph glyph-name="minus" unicode="&#x2212;" horiz-adv-x="1298" 
d="M193 510v45h911v-45h-911z" />
    <glyph glyph-name="radical" unicode="&#x221a;" horiz-adv-x="1275" 
d="M248 244l4 -2l-55 -35v2zM1276 1638l-574 -2089h-49l-411 713l41 25l389 -676l553 2027h51z" />
    <glyph glyph-name="infinity" unicode="&#x221e;" horiz-adv-x="1548" 
d="M797 558q-1 -94 83 -162t200 -68t200 68t84 162q0 95 -83 163q-83 67 -200 67t-201 -68t-83 -162zM184 558q0 -94 84 -162t200 -68t200 68t84 162q0 95 -83 163q-83 67 -201 67t-201 -68t-83 -162zM1096 831q118 0 215 -80q96 -81 96 -194t-96 -193t-215 -79
q-119 0 -202 49t-120 129q-35 -80 -120 -129q-86 -49 -204 -49t-214 80q-96 81 -96 193t96 193t214 81t204 -50q85 -49 120 -129q35 80 120 129q84 49 202 49z" />
    <glyph glyph-name="integral" unicode="&#x222b;" horiz-adv-x="1030" 
d="M-45 -262l31 43q74 -59 170 -29t118 131l328 1467q27 127 150 170t219 -35l-31 -43q-74 59 -169 27t-118 -130l-325 -1466q-27 -127 -150 -170t-223 35z" />
    <glyph glyph-name="approxequal" unicode="&#x2248;" horiz-adv-x="1013" 
d="M656 385q-66 0 -126 48q-60 49 -80 63q-18 14 -52 26t-62 2t-62 -39q-42 -42 -63 -77l-45 24q96 141 196 146q63 0 120 -44l27 -21q17 -13 26 -19q72 -59 124 -58t117 77l31 42l41 -31q-25 -41 -76 -90q-50 -49 -116 -49zM166 694q95 139 196 144q56 0 86 -20t45 -29
q16 -10 42 -35q74 -57 125 -56t116 77l31 42l41 -31q-25 -43 -76 -91q-52 -48 -116 -49q-64 -2 -126 48t-81 63q-70 45 -106 32q-78 -28 -132 -119z" />
    <glyph glyph-name="notequal" unicode="&#x2260;" horiz-adv-x="1253" 
d="M1061 672h-326l-198 -281h524v-41h-553l-123 -172l-31 23l107 149h-268v41h296l197 281h-493v41h524l135 192l33 -22l-121 -170h297v-41z" />
    <glyph glyph-name="lessequal" unicode="&#x2264;" horiz-adv-x="985" 
d="M803 106h-674v50h674v-50zM768 238l-633 452v33l637 459l27 -43l-604 -432l604 -431z" />
    <glyph glyph-name="greaterequal" unicode="&#x2265;" horiz-adv-x="974" 
d="M176 106v44h672v-44h-672zM211 242l-25 34l605 431l-605 434l21 35l633 -453v-31z" />
    <glyph glyph-name="lozenge" unicode="&#x25ca;" horiz-adv-x="1218" 
d="M608 16l416 578l-416 580l-411 -580zM623 1227l454 -633l-454 -631h-29l-453 629v6l453 629h29z" />
    <glyph glyph-name="uni2C64" unicode="&#x2c64;" horiz-adv-x="1337" 
d="M1079 1059q0 133 -93 226t-226 93h-494v-639h494q133 -1 226 93t93 227zM266 -195q0 -75 50 -125t115 -52t128 42l37 -43q-82 -59 -168 -56t-152 71t-65 163v1629h549q156 0 266 -111t111 -261q-1 -150 -101 -258t-245 -118l395 -686h-64l-393 684h-463v-879z" />
    <glyph glyph-name="uni2C72" unicode="&#x2c72;" horiz-adv-x="2002" 
d="M500 0l-412 1434h57l381 -1321l414 1134h41l414 -1136l334 1155q27 92 106 138q80 46 170 28t143 -101l-45 -31q-63 96 -175 79t-144 -124l-363 -1255h-47l-413 1137l-412 -1137h-49z" />
    <glyph glyph-name="uni2C73" unicode="&#x2c73;" horiz-adv-x="1445" 
d="M391 0l-295 1024h56l266 -924l289 797h38l287 -797l236 803q25 84 92 130q68 46 148 39t139 -62l-39 -35q-70 61 -164 35t-123 -125l-260 -885h-43l-293 795l-289 -795h-45z" />
    <glyph glyph-name="uniA78D" unicode="&#xa78d;" horiz-adv-x="1431" 
d="M1165 1434h56v-1434h-56v690h-954v744h57v-689h897v689z" />
    <glyph glyph-name="uniA7AA" unicode="&#xa7aa;" horiz-adv-x="1452" 
d="M1188 1434h55v-1434h-55v690h-899v-690h-58v1378h-159q-115 0 -164 -103t26 -190l-43 -38q-47 57 -54 125q-14 140 104 223q57 39 131 39h217v-689h899v689z" />
    <glyph glyph-name="uniAB53" unicode="&#xab53;" horiz-adv-x="1228" 
 />
    <glyph glyph-name="i.loclTRK" horiz-adv-x="423" 
d="M240 1024v-1024h-56v1024h56zM213 1190q-25 0 -43 18q-18 16 -18 42t18 44.5t43 18.5t43 -18.5t18 -44.5t-18 -43t-43 -17z" />
    <glyph glyph-name="uni0268.001" horiz-adv-x="448" 
d="M485 512v-41h-241v-471h-51v471h-230v41h230v571h51v-571h241zM219.5 1348q-24.5 0 -43 18t-18.5 43t18.5 43t43 18t43 -18t18.5 -43t-18.5 -43t-43 -18z" />
    <glyph glyph-name="zero.tosf" horiz-adv-x="598" 
d="M300 35q85 0 143 74t59 178q0 104 -58 178t-144 74q-85 0 -144 -74q-60 -74 -60 -178t60 -178t144 -74zM300 0q-99 0 -169 84t-70 203t70 203t169 83q99 0 168 -85q69 -84 69 -202t-69 -202t-168 -84z" />
    <glyph glyph-name="one.tosf" horiz-adv-x="256" 
d="M162 0v530l-90 -34l-11 32l111 45h23v-573h-33z" />
    <glyph glyph-name="two.tosf" horiz-adv-x="509" 
d="M410 431q0 46 -38 79t-102 33q-129 0 -164 -109l-32 17q45 127 196 127q78 0 126 -42t48 -100t-30 -104q-30 -45 -64 -71q-33 -27 -91 -65t-81 -54q-22 -16 -48 -46q-26 -31 -30 -61h349v-35h-388q-2 62 33 108t139 113q61 43 91 65t58 60t28 85z" />
    <glyph glyph-name="three.tosf" horiz-adv-x="487" 
d="M426 154q0 -58 -53 -106t-130 -48t-130 51t-52 123h35q-2 -57 40 -98t106 -41t108 38q43 38 43 91t-43 90t-104 39h-8v35h8q49 2 84 32t35 74q0 43 -36 75t-87 32t-86 -34t-33 -79h-33q-2 61 43 104t109 43q64 -1 111 -41q46 -40 46 -98q0 -84 -80 -125q47 -18 77 -58
q30 -41 30 -99z" />
    <glyph glyph-name="four.tosf" horiz-adv-x="530" 
d="M352 213v297l-252 -297h252zM387 213h82v-33h-82v-180h-35v180h-291v35l299 358h27v-360z" />
    <glyph glyph-name="five.tosf" horiz-adv-x="495" 
d="M252 371q74 1 128 -53t54 -132t-54 -133t-132 -55t-133 57t-54 138h37q-2 -66 42 -113t108 -47t107 45q44 45 44 108q0 62 -44 106q-43 44 -117 44t-119 -72l-17 2h-16v2l37 303h283v-34h-254l-27 -215q53 49 127 49z" />
    <glyph glyph-name="six.tosf" horiz-adv-x="499" 
d="M153 77q44 -44 105 -43t104 45q42 44 42 106q0 61 -44 105t-106 43q-61 -1 -104 -44t-42 -105t45 -107zM254 367q76 3 130 -51t55 -130t-52 -130t-125 -56t-123 42t-63 112q-41 145 16 283t180 149q72 6 136 -45l-21 -25q-49 41 -122 35t-123 -90t-48 -193q53 98 160 99z
" />
    <glyph glyph-name="seven.tosf" horiz-adv-x="509" 
d="M61 539v34h388v-24l-285 -549h-39l281 539h-345z" />
    <glyph glyph-name="eight.tosf" horiz-adv-x="487" 
d="M244 33q61 0 105 39t44 92t-44 91t-106 38q-63 0 -105 -38t-42 -92t44 -92t104 -38zM123 435q0 -44 35 -76q35 -31 85 -31t86 32t36 74q0 43 -36 75t-86 32t-85 -31t-35 -75zM426 154q0 -58 -53 -106t-129 -48t-129 48t-54 116q0 102 105 147q-76 41 -76 111t45 112
t109 42t109 -42q46 -42 46 -100q1 -80 -77 -123q48 -18 76 -58q28 -41 28 -99z" />
    <glyph glyph-name="nine.tosf" horiz-adv-x="489" 
d="M244 543q-60 0 -104 -44q-44 -43 -44 -105t44 -106t112 -44t110 57l17 33l2 -2q12 30 12 76t-44 90t-105 45zM428 406q0 -64 -27 -107l-168 -317l-30 12l121 235q-32 -18 -94 -18t-115 53t-54 129t53 129t130 53t130 -53q54 -52 54 -116z" />
    <glyph glyph-name="zero.dnom" horiz-adv-x="598" 
d="M300 35q85 0 143 74t59 178q0 104 -58 178t-144 74q-85 0 -144 -74q-60 -74 -60 -178t60 -178t144 -74zM300 0q-99 0 -169 84t-70 203t70 203t169 83q99 0 168 -85q69 -84 69 -202t-69 -202t-168 -84z" />
    <glyph glyph-name="one.dnom" horiz-adv-x="256" 
d="M135 0v530l-90 -34l-10 32l108 45h23v-573h-31z" />
    <glyph glyph-name="two.dnom" horiz-adv-x="509" 
d="M410 431q0 46 -38 79t-102 33q-129 0 -164 -109l-32 17q45 127 196 127q78 0 126 -42t48 -100t-30 -104q-30 -45 -64 -71q-33 -27 -91 -65t-81 -54q-22 -16 -48 -46q-26 -31 -30 -61h349v-35h-388q-2 62 33 108t139 113q61 43 91 65t58 60t28 85z" />
    <glyph glyph-name="three.dnom" horiz-adv-x="487" 
d="M426 154q0 -58 -53 -106t-130 -48t-130 51t-52 123h35q-2 -57 40 -98t106 -41t108 38q43 38 43 91t-43 90t-104 39h-8v35h8q49 2 84 32t35 74q0 43 -36 75t-87 32t-86 -34t-33 -79h-33q-2 61 43 104t109 43q64 -1 111 -41q46 -40 46 -98q0 -84 -80 -125q47 -18 77 -58
q30 -41 30 -99z" />
    <glyph glyph-name="four.dnom" horiz-adv-x="530" 
d="M352 213v297l-252 -297h252zM387 213h82v-33h-82v-180h-35v180h-291v35l299 358h27v-360z" />
    <glyph glyph-name="five.dnom" horiz-adv-x="495" 
d="M252 371q74 1 128 -53t54 -132t-54 -133t-132 -55t-133 57t-54 138h37q-2 -66 42 -113t108 -47t107 45q44 45 44 108q0 62 -44 106q-43 44 -117 44t-119 -72l-17 2h-16v2l37 303h283v-34h-254l-27 -215q53 49 127 49z" />
    <glyph glyph-name="six.dnom" horiz-adv-x="499" 
d="M153 77q44 -44 105 -43t104 45q42 44 42 106q0 61 -44 105t-106 43q-61 -1 -104 -44t-42 -105t45 -107zM254 367q76 3 130 -51t55 -130t-52 -130t-125 -56t-123 42t-63 112q-41 145 16 283t180 149q72 6 136 -45l-21 -25q-49 41 -122 35t-123 -90t-48 -193q53 98 160 99z
" />
    <glyph glyph-name="seven.dnom" horiz-adv-x="509" 
d="M61 539v34h388v-24l-285 -549h-39l281 539h-345z" />
    <glyph glyph-name="eight.dnom" horiz-adv-x="487" 
d="M244 33q61 0 105 39t44 92t-44 91t-106 38q-63 0 -105 -38t-42 -92t44 -92t104 -38zM123 435q0 -44 35 -76q35 -31 85 -31t86 32t36 74q0 43 -36 75t-86 32t-85 -31t-35 -75zM426 154q0 -58 -53 -106t-129 -48t-129 48t-54 116q0 102 105 147q-76 41 -76 111t45 112
t109 42t109 -42q46 -42 46 -100q1 -80 -77 -123q48 -18 76 -58q28 -41 28 -99z" />
    <glyph glyph-name="nine.dnom" horiz-adv-x="489" 
d="M244 543q-60 0 -104 -44q-44 -43 -44 -105t44 -106t112 -44t110 57l17 33l2 -2q12 30 12 76t-44 90t-105 45zM428 406q0 -64 -27 -107l-168 -317l-30 12l121 235q-32 -18 -94 -18t-115 53t-54 129t53 129t130 53t130 -53q54 -52 54 -116z" />
    <glyph glyph-name="zero.numr" horiz-adv-x="733" 
d="M312 702q85 0 144 74q58 74 58 179t-58 179t-144 74t-144 -74q-59 -74 -59 -178q0 -106 59 -180t144 -74zM549 953q0 -117 -69 -201t-168 -84t-169 84q-69 84 -69 202t69 203q70 84 169 84t168 -85t69 -203z" />
    <glyph glyph-name="one.numr" horiz-adv-x="368" 
d="M100 698v531l-90 -37l-10 35l111 45h22v-574h-33z" />
    <glyph glyph-name="two.numr" horiz-adv-x="591" 
d="M227 1241q-131 0 -161 -108l-35 14q47 127 196 127q78 0 127 -42t49 -100q-1 -58 -31 -102q-30 -45 -64 -72q-34 -26 -89 -62t-81 -55q-72 -52 -79 -110h349v-33h-388q-2 64 33 108t140 112q57 40 88 64t59 62t28 85q1 46 -38 79t-103 33z" />
    <glyph glyph-name="three.numr" horiz-adv-x="606" 
d="M371 828q-1 -58 -55 -106t-130 -48t-130 51t-50 123h33q-2 -59 41 -99t107 -40t107 37q42 38 42 92t-42 90q-42 37 -104 39h-8v34h8q49 2 84 33t35 74t-36 75q-36 31 -87 31t-86 -34t-32 -78h-35q-2 61 44 104t110 43q63 0 109 -41t46 -98q0 -82 -78 -125q47 -18 77 -58
q30 -41 30 -99z" />
    <glyph glyph-name="four.numr" horiz-adv-x="618" 
d="M319 911v297l-249 -297h249zM352 911h82v-32h-82v-181h-33v181h-292v34l299 359h26v-361z" />
    <glyph glyph-name="five.numr" horiz-adv-x="563" 
d="M29 934v6l37 301h282v-35h-254l-24 -213q52 47 125 47t129 -54t55 -131q0 -77 -55 -132q-56 -55 -134 -55t-133 57t-53 137h37q-2 -66 42 -112t107 -48q64 0 108 46t44 108t-44 106t-117 44t-118 -68v-4h-34z" />
    <glyph glyph-name="six.numr" horiz-adv-x="612" 
d="M249 702q58 0 102 44t43 106t-45 106q-44 43 -105 42q-60 -1 -104 -44t-44 -104q0 -10 2 -14v-4q8 -55 50 -94q43 -38 101 -38zM372 984q54 -52 56 -129t-51 -131t-125 -55t-124 42t-62 110q-41 145 16 283t178 149q76 6 137 -43l-20 -26q-49 41 -123 35q-74 -7 -124 -91
t-46 -192q49 96 158 100q76 0 130 -52z" />
    <glyph glyph-name="seven.numr" horiz-adv-x="581" 
d="M8 1210v33h389v-24l-286 -549h-39l282 540h-346z" />
    <glyph glyph-name="eight.numr" horiz-adv-x="589" 
d="M223 700q61 0 106 39q44 39 44 92t-44 93q-43 40 -105 39q-62 0 -105 -38q-43 -37 -43 -93t43 -94t104 -38zM102 1103q0 -44 35 -76t86 -32t86 32t35 76t-35 76q-35 31 -86 31t-86 -32t-35 -75zM223 668q-76 0 -129 48t-53 106t29 100t77 59q-78 43 -77 123q0 57 45 98
t108 41t109 -41t47 -98q0 -82 -80 -123q106 -45 107 -150q0 -67 -54 -115t-129 -48z" />
    <glyph glyph-name="nine.numr" horiz-adv-x="577" 
d="M218 942q70 0 112 64l14 24q14 27 14 75t-44 92t-105 44t-105 -44t-43 -105q0 -61 43 -106q44 -44 114 -44zM393 1104q0 -64 -28 -111l-166 -313l-31 12l121 234q-35 -18 -95 -18t-114 54q-53 54 -53 129t53 129t129 54t130 -53t54 -117z" />
    <glyph glyph-name="uni03060301" 
d="M-395 1225q-90 0 -167 61.5t-112 165.5l41 14q29 -88 94.5 -143t143.5 -55t142.5 54t92.5 142l45 -12q-37 -104 -113.5 -165.5t-166.5 -61.5zM-373 1575l-33 12l111 332l55 -21z" />
    <glyph glyph-name="uni03060300" 
d="M-395 1225q-90 0 -167 61.5t-112 165.5l41 14q29 -88 94.5 -143t143.5 -55t142.5 54t92.5 142l45 -12q-37 -104 -113.5 -165.5t-166.5 -61.5zM-403 1577l-132 324l54 20l112 -332z" />
    <glyph glyph-name="uni03060309" 
d="M-395 1225q-90 0 -167 61.5t-112 165.5l41 14q29 -88 94.5 -143t143.5 -55t142.5 54t92.5 142l45 -12q-37 -104 -113.5 -165.5t-166.5 -61.5zM-319 1755q66 -135 -95 -231l-20 35q123 78 78 178q-37 66 -119 75v39q99 4 156 -96z" />
    <glyph glyph-name="uni03060303" 
d="M-457 1225q-90 0 -166.5 61.5t-111.5 165.5l41 14q29 -88 94 -143t143 -55t142.5 54t93.5 142l45 -12q-37 -104 -114 -165.5t-167 -61.5zM-565 1741q53 0 141 -57.5t135 -56.5t109 73l39 -23q-63 -96 -148 -96q-53 0 -141 57.5t-133 57.5q-72 0 -137 -99l-39 25
q76 119 174 119z" />
    <glyph glyph-name="uni03020301" 
d="M-612 1208l190 312h35l192 -312l-30 -18l-181 285l-178 -287zM-385 1630l-33 12l111 332l55 -20z" />
    <glyph glyph-name="uni03020300" 
d="M-612 1208l190 312h35l192 -312l-30 -18l-181 285l-178 -287zM-416 1632l-131 324l53 20l113 -331z" />
    <glyph glyph-name="uni03020309" 
d="M-612 1208l190 312h35l192 -312l-30 -18l-181 285l-178 -287zM-332 1810q66 -135 -94 -231l-20 35q123 78 77 178q-37 66 -118 76v39q98 3 155 -97z" />
    <glyph glyph-name="uni03020303" 
d="M-666 1208l191 312h35l192 -312l-31 -18l-180 285l-178 -287zM-569 1796q53 0 141 -57.5t135 -56.5t109 73l39 -22q-63 -96 -148 -97q-53 0 -141 57.5t-133 57.5q-72 0 -138 -98l-38 24q76 119 174 119z" />
    <glyph glyph-name="newGlyph" horiz-adv-x="1228" 
 />
    <glyph glyph-name="acutemacron" horiz-adv-x="1228" 
 />
    <glyph glyph-name="gravemacron" horiz-adv-x="1228" 
 />
    <glyph glyph-name="macronacute" horiz-adv-x="1228" 
 />
    <glyph glyph-name="macrongrave" horiz-adv-x="1228" 
 />
    </font>
</defs>
</svg>
